<?xml version="1.0" encoding="UTF-8"?>
<!-- Generated by jsxcad -->
<!DOCTYPE svg PUBLIC "-//W3C//DTD SVG 1.1 Tiny//EN" "http://www.w3.org/Graphics/SVG/1.1/DTD/svg11-tiny.dtd">
<svg viewBox="-250 -250 500 500" width="500" height="500" xmlns="http://www.w3.org/2000/svg"><path d="M-43.420538315451,-27.381512413585238L60.91343118293578,-64.36647190053861L-47.62777996130881,-35.14227049656992z" style="fill:rgb(127,37,217)"/><path d="M-48.951813249250336,-7.176579818035276L-43.420538315451,-27.381512413585238L-47.62777996130881,-35.14227049656992z" style="fill:rgb(247,158,158)"/><path d="M125.44653095756009,-122.057744672527L-64.02267691174002,-69.21310457970506L141.61646203481172,-3.591970099703534z" style="fill:rgb(83,212,212)"/><path d="M60.91343118293578,-64.36647190053861L-43.420538315451,-27.381512413585238L64.43056991210008,-56.18029726399593z" style="fill:rgb(127,37,217)"/><path d="M-43.420538315451,-27.381512413585238L-48.951813249250336,-7.176579818035276L-44.6186712020034,0.5911847662508468z" style="fill:rgb(247,158,158)"/><path d="M-103.08967871275556,15.800287869461165L-48.951813249250336,-7.176579818035276L-107.78894445560677,8.258675034297502zM-48.951813249250336,-7.176579818035276L-103.08967871275556,15.800287869461165L-44.6186712020034,0.5911847662508468z" style="fill:rgb(127,37,217)"/><path d="M141.61646203481172,-3.591970099703534L128.36220752755236,-113.7952652419966L125.44653095756009,-122.057744672527z" style="fill:rgb(247,158,158)"/><path d="M-105.04852335656629,59.06446439154135L-109.78321035360183,31.450379085737868L-110.70662890127623,40.47205585514228zM-109.78321035360183,31.450379085737868L-105.04852335656629,59.06446439154135L-100.11782581409592,35.5658985361963z" style="fill:rgb(83,212,212)"/><path d="M126.73502777838064,-53.26603788476504L122.82508090680093,-99.06011460164196L119.78252452388786,-107.45812333482125z" style="fill:rgb(247,158,158)"/><path d="M-100.52171199235038,-59.0331963688718L156.40045327388276,104.71999142917113L-64.02267691174002,-69.21310457970506z" style="fill:rgb(83,212,212)"/><path d="M-92.64572060257765,44.095746626623345L-90.56936213756372,52.84058689121023L-87.93857209212948,51.563638747034375z" style="fill:rgb(162,50,222)"/><path d="M-95.29600009949499,45.38287760168277L-93.03133804473786,54.46208119753745L-90.56936213756372,52.84058689121023z" style="fill:rgb(183,62,221)"/><path d="M-89.92589776599172,43.20064191897207L-87.93857209212948,51.563638747034375L-85.23685544687655,50.678850348266536z" style="fill:rgb(139,40,220)"/><path d="M-84.4372081563479,42.24270124692204L-100.11782581409592,35.5658985361963L-102.16815162214218,45.337284647596775z" style="fill:rgb(83,212,212)"/><path d="M-93.03133804473786,54.46208119753745L-99.99960511659992,48.92892038203796L-95.23262787407458,56.36808148325302z" style="fill:rgb(203,77,216)"/><path d="M-87.23778127267757,42.73148392916118L-85.23685544687655,50.678850348266536L-82.56479322814607,50.21974773924321z" style="fill:rgb(115,34,214)"/><path d="M-95.23262787407458,56.36808148325302L-101.87685167616908,51.05660386798429L-97.09049846188755,58.488058358643784z" style="fill:rgb(220,94,208)"/><path d="M-84.68188895748959,42.70691651116463L-82.56479322814607,50.21974773924321L-80.02231823613253,50.20459615562382z" style="fill:rgb(92,32,204)"/><path d="M-90.56936213756372,52.84058689121023L-92.64572060257765,44.095746626623345L-95.29600009949499,45.38287760168277z" style="fill:rgb(162,50,222)"/><path d="M-93.03133804473786,54.46208119753745L-95.29600009949499,45.38287760168277L-97.7781643387838,47.0140674897669z" style="fill:rgb(183,62,221)"/><path d="M-87.93857209212948,51.563638747034375L-89.92589776599172,43.20064191897207L-92.64572060257765,44.095746626623345z" style="fill:rgb(139,40,220)"/><path d="M-99.99960511659992,48.92892038203796L-93.03133804473786,54.46208119753745L-97.7781643387838,47.0140674897669z" style="fill:rgb(203,77,216)"/><path d="M-97.09049846188755,58.488058358643784L-103.3384665553952,53.318139724693076L-98.53422405834809,60.74330790753839z" style="fill:rgb(233,112,197)"/><path d="M-85.23685544687655,50.678850348266536L-87.23778127267757,42.73148392916118L-89.92589776599172,43.20064191897207z" style="fill:rgb(115,34,214)"/><path d="M-82.35455416664544,43.12949309000176L-80.02231823613253,50.20459615562382L-77.70528262296067,50.635587439078215z" style="fill:rgb(71,33,192)"/><path d="M-91.29446660508312,43.43949937118845L-102.16815162214218,45.337284647596775L-102.95857013800449,49.10427023521523z" style="fill:rgb(83,212,212)"/><path d="M-101.87685167616908,51.05660386798429L-95.23262787407458,56.36808148325302L-99.99960511659992,48.92892038203796z" style="fill:rgb(220,94,208)"/><path d="M-82.56479322814607,50.21974773924321L-84.68188895748959,42.70691651116463L-87.23778127267757,42.73148392916118z" style="fill:rgb(92,32,204)"/><path d="M-98.53422405834809,60.74330790753839L-104.32766925256928,55.62904647683475L-99.50774166378356,63.049573021768694z" style="fill:rgb(242,130,183)"/><path d="M-75.7020184305424,51.49852664605056L-82.35455416664544,43.12949309000176L-77.70528262296067,50.635587439078215z" style="fill:rgb(51,38,177)"/><path d="M-95.29600009949499,45.38287760168277L-98.05177872106862,46.72124612447787L-99.04421116223297,47.846069708569765z" style="fill:rgb(83,212,212)"/><path d="M-103.3384665553952,53.318139724693076L-97.09049846188755,58.488058358643784L-101.87685167616908,51.05660386798429z" style="fill:rgb(233,112,197)"/><path d="M-89.92589776599172,43.20064191897207L-91.29446660508312,43.43949937118845L-92.64572060257765,44.095746626623345zM-97.7781643387838,47.0140674897669L-99.04421116223297,47.846069708569765L-99.99960511659992,48.92892038203796z" style="fill:rgb(83,212,212)"/><path d="M-80.02231823613253,50.20459615562382L-82.35455416664544,43.12949309000176L-84.68188895748959,42.70691651116463z" style="fill:rgb(71,33,192)"/><path d="M-98.05177872106862,46.72124612447787L-102.95857013800449,49.10427023521523L-103.8335812364979,53.274371666672536z" style="fill:rgb(83,212,212)"/><path d="M-99.50774166378356,63.049573021768694L-104.80463986556734,57.9022123346444L-99.97181616579357,65.31990757828711z" style="fill:rgb(246,149,167)"/><path d="M-74.0901050892326,52.763034766857366L-80.34452345953366,43.98536442722693L-75.7020184305424,51.49852664605056z" style="fill:rgb(34,46,160)"/><path d="M-104.32766925256928,55.62904647683475L-98.53422405834809,60.74330790753839L-103.3384665553952,53.318139724693076z" style="fill:rgb(242,130,183)"/><path d="M-84.68188895748959,42.70691651116463L-85.86556902845837,42.49199341497726L-87.23778127267757,42.73148392916118zM-82.35455416664544,43.12949309000176L-84.4372081563479,42.24270124692204L-85.86556902845837,42.49199341497726zM-101.87685167616908,51.05660386798429L-102.83548693113946,52.143115440568494L-103.3384665553952,53.318139724693076z" style="fill:rgb(83,212,212)"/><path d="M-82.35455416664544,43.12949309000176L-75.7020184305424,51.49852664605056L-80.34452345953366,43.98536442722693z" style="fill:rgb(51,38,177)"/><path d="M-104.80463986556734,57.9022123346444L-99.90591144558228,67.46777279267208L-99.97181616579357,65.31990757828711z" style="fill:rgb(246,167,149)"/><path d="M-104.80463986556734,57.9022123346444L-99.50774166378356,63.049573021768694L-104.32766925256928,55.62904647683475z" style="fill:rgb(246,149,167)"/><path d="M-72.93328401578266,54.38327570370168L-78.72965044624547,45.24443643568444L-74.0901050892326,52.763034766857366z" style="fill:rgb(21,57,142)"/><path d="M-102.83548693113946,52.143115440568494L-103.8335812364979,53.274371666672536L-104.32766925256928,55.62904647683475z" style="fill:rgb(83,212,212)"/><path d="M-80.34452345953366,43.98536442722693L-74.0901050892326,52.763034766857366L-78.72965044624547,45.24443643568444z" style="fill:rgb(34,46,160)"/><path d="M-104.74830381066324,60.050968946797L-99.30926625598889,69.41022550809986L-99.90591144558228,67.46777279267208z" style="fill:rgb(242,183,130)"/><path d="M-99.90591144558228,67.46777279267208L-104.80463986556734,57.9022123346444L-104.74830381066324,60.050968946797z" style="fill:rgb(246,167,149)"/><path d="M-78.72965044624547,45.24443643568444L-72.93328401578266,54.38327570370168L-77.57382525191926,46.86112464508685z" style="fill:rgb(21,57,142)"/><path d="M-78.72965044624547,45.24443643568444L-79.3170100188049,44.42287944487595L-80.34452345953366,43.98536442722693z" style="fill:rgb(83,212,212)"/><path d="M-99.30926625598889,69.41022550809986L-104.74830381066324,60.050968946797L-104.1574999492486,61.99234120712153z" style="fill:rgb(242,183,130)"/><path d="M-104.74830381066324,60.050968946797L-104.80463986556734,57.9022123346444L-105.04852335656629,59.06446439154135zM-77.57382525191926,46.86112464508685L-78.24640885177574,44.87873938950855L-79.3170100188049,44.42287944487595z" style="fill:rgb(83,212,212)"/><path d="M122.82508090680093,-99.06011460164196L126.73502777838064,-53.26603788476504L129.89907474657352,-44.80325492354446z" style="fill:rgb(247,158,158)"/><path d="M156.40045327388276,104.71999142917113L-100.52171199235038,-59.0331963688718L-106.62067004055291,0.5527854554511734zM-103.05157394802838,63.65024011280099L-104.1574999492486,61.99234120712153L-103.85533245994401,62.985252330411384zM-101.47015405134486,64.9586379153545L-103.85533245994401,62.985252330411384L-103.5403815536997,64.02014928235633zM-76.24577561998099,50.775468679453795L-76.92426136385926,48.775671211163406L-76.75042696525533,52.01071005420999zM110.14535475062833,-97.63789495384498L-125.23882841798175,-85.52251167823196L-132.3613603743258,-31.176345893199127zM-125.23882841798175,-85.52251167823196L110.14535475062833,-97.63789495384498L103.87198818019448,-151.37406333233605zM-76.75042696525533,52.01071005420999L-76.80924868171624,50.91608142842568L-77.23657391921613,53.20063786469001zM-97.3862637434443,66.8099808549837L-103.5403815536997,64.02014928235633L-102.43450510159458,67.6540569973043zM-78.19270425934658,55.540944876268966L-79.64285550137349,57.845415871567646L-78.68142870136646,56.73718116747021zM-95.9381018853453,66.56784452780559L-99.47203730452982,65.86444476910196L-97.3862637434443,66.8099808549837z" style="fill:rgb(83,212,212)"/><path d="M66.25770534102136,-28.24926991356939L126.73502777838064,-53.26603788476504L62.65407699282642,-36.45512326370266z" style="fill:rgb(127,37,217)"/><path d="M-94.54429141056586,66.33479506959007L-97.13325171993571,66.32995937276364L-95.9381018853453,66.56784452780559z" style="fill:rgb(83,212,212)"/><path d="M-107.78894445560677,8.258675034297502L110.14535475062833,-97.63789495384498L-132.3613603743258,-31.176345893199127z" style="fill:rgb(127,37,217)"/><path d="M-78.68142870136646,56.73718116747021L-83.50122496146126,62.292941280748785L-80.32105958803749,60.750481107416206z" style="fill:rgb(83,212,212)"/><path d="M110.14535475062833,-97.63789495384498L119.78252452388786,-107.45812333482125L103.87198818019448,-151.37406333233605z" style="fill:rgb(247,158,158)"/><path d="M-81.53200501361508,60.02302819306656L-83.78690345752032,61.987214793072745L-82.49674302482794,61.13507971979171zM-89.02802362408859,64.9735777802914L-91.80652300134444,65.87703284535114L-90.40892783969446,65.64335071571422zM-82.49674302482794,61.13507971979171L-86.31897716043649,63.65962405963635L-83.50122496146126,62.292941280748785z" style="fill:rgb(83,212,212)"/><path d="M126.73502777838064,-53.26603788476504L66.25770534102136,-28.24926991356939L129.89907474657352,-44.80325492354446z" style="fill:rgb(127,37,217)"/><path d="M-72.23253221077206,62.604216809451344L-76.24577561998099,50.775468679453795L-81.7269705767713,64.19170801779772zM-80.32105958803749,60.750481107416206L-90.40892783969446,65.64335071571422L-81.7269705767713,64.19170801779772zM-46.659659844413255,58.32837144988598L-78.24640885177574,44.87873938950855L-72.23253221077206,62.604216809451344z" style="fill:rgb(83,212,212)"/><path d="M128.36220752755236,-113.7952652419966L141.61646203481172,-3.591970099703534L144.7754545852981,4.778235144090004z" style="fill:rgb(247,158,158)"/><path d="M110.14535475062833,-97.63789495384498L-107.78894445560677,8.258675034297502L126.73502777838064,-53.26603788476504z" style="fill:rgb(127,37,217)"/><path d="M119.78252452388786,-107.45812333482125L110.14535475062833,-97.63789495384498L126.73502777838064,-53.26603788476504z" style="fill:rgb(247,158,158)"/><path d="M-64.02267691174002,-69.21310457970506L156.40045327388276,104.71999142917113L85.19029058339879,-21.598023164774514zM118.69888968502183,128.73799013963506L-106.62067004055291,0.5527854554511734L-109.78321035360183,31.450379085737868zM102.48451642349477,-16.079294420305747L85.19029058339879,-21.598023164774514L101.65499687102238,7.540275950224366zM-47.62777996130881,-35.14227049656992L72.4085311720619,119.95809001449143L60.91343118293578,-64.36647190053861z" style="fill:rgb(83,212,212)"/><path d="M60.91343118293578,-64.36647190053861L76.4825580524605,128.055878843009L64.43056991210008,-56.18029726399593z" style="fill:rgb(247,158,158)"/><path d="M112.91805812494341,-7.761845517262762L113.46727552208804,1.8463016211997274L116.2495422352632,0.4995436675734318z" style="fill:rgb(162,50,222)"/><path d="M110.11396170000775,-6.403756474725425L110.95086936192688,3.5333179390432963L113.46727552208804,1.8463016211997274z" style="fill:rgb(183,62,221)"/><path d="M115.88455729698627,-8.730049642690856L116.2495422352632,0.4995436675734318L119.19437678230048,-0.45683928550775066z" style="fill:rgb(139,40,220)"/><path d="M122.04876246993543,-9.836184293713169L102.48451642349477,-16.079294420305747L102.1397912885729,-6.263616616517329z" style="fill:rgb(83,212,212)"/><path d="M110.95086936192688,3.5333179390432963L105.39992900514079,-2.7322420278147703L108.7941810992066,5.498217832837249z" style="fill:rgb(203,77,216)"/><path d="M118.9033671816005,-9.271759147756086L119.19437678230048,-0.45683928550775066L122.19241612760398,-0.9866710637450615z" style="fill:rgb(115,34,214)"/><path d="M108.7941810992066,5.498217832837249L103.66654324319316,-0.5544802357180795L107.07843536413098,7.668403407235894z" style="fill:rgb(220,94,208)"/><path d="M121.86198603380983,-9.365592428343616L122.19241612760398,-0.9866710637450615L125.13195501479848,-1.0690181255712696z" style="fill:rgb(92,32,204)"/><path d="M113.46727552208804,1.8463016211997274L112.91805812494341,-7.761845517262762L110.11396170000775,-6.403756474725425z" style="fill:rgb(162,50,222)"/><path d="M110.95086936192688,3.5333179390432963L110.11396170000775,-6.403756474725425L107.57637774973126,-4.706307378223125z" style="fill:rgb(183,62,221)"/><path d="M116.2495422352632,0.4995436675734318L115.88455729698627,-8.730049642690856L112.91805812494341,-7.761845517262762z" style="fill:rgb(139,40,220)"/><path d="M105.39992900514079,-2.7322420278147703L110.95086936192688,3.5333179390432963L107.57637774973126,-4.706307378223125z" style="fill:rgb(203,77,216)"/><path d="M107.07843536413098,7.668403407235894L102.44259884751897,1.7462492857093472L105.86933339958098,9.96341019069889z" style="fill:rgb(233,112,197)"/><path d="M119.19437678230048,-0.45683928550775066L118.9033671816005,-9.271759147756086L115.88455729698627,-8.730049642690856z" style="fill:rgb(115,34,214)"/><path d="M124.64939247902569,-9.006298329951674L125.13195501479848,-1.0690181255712696L127.90263714642947,-0.6990740240162855z" style="fill:rgb(71,33,192)"/><path d="M103.66654324319316,-0.5544802357180795L108.7941810992066,5.498217832837249L105.39992900514079,-2.7322420278147703z" style="fill:rgb(220,94,208)"/><path d="M122.19241612760398,-0.9866710637450615L121.86198603380983,-9.365592428343616L118.9033671816005,-9.271759147756086z" style="fill:rgb(92,32,204)"/><path d="M109.2223052002439,-7.534541168216237L102.1397912885729,-6.263616616517329L101.85955117522528,1.715759176440653zM114.34774156445957,-8.454274258497882L109.2223052002439,-7.534541168216237L107.19827237901737,-4.99161562832002z" style="fill:rgb(83,212,212)"/><path d="M105.86933339958098,9.96341019069889L101.77638034522045,4.084068919778292L105.21457965971442,12.297565806437245z" style="fill:rgb(242,130,183)"/><path d="M130.39934500200366,0.11141719596286238L124.64939247902569,-9.006298329951674L127.90263714642947,-0.6990740240162855z" style="fill:rgb(51,38,177)"/><path d="M110.11396170000775,-6.403756474725425L107.19827237901737,-4.99161562832002L106.28202916646435,-3.8404866986579833z" style="fill:rgb(83,212,212)"/><path d="M102.44259884751897,1.7462492857093472L107.07843536413098,7.668403407235894L103.66654324319316,-0.5544802357180795z" style="fill:rgb(233,112,197)"/><path d="M115.88455729698627,-8.730049642690856L114.34774156445957,-8.454274258497882L112.91805812494341,-7.761845517262762zM107.57637774973126,-4.706307378223125L106.28202916646435,-3.8404866986579833L105.39992900514079,-2.7322420278147703z" style="fill:rgb(83,212,212)"/><path d="M125.13195501479848,-1.0690181255712696L124.64939247902569,-9.006298329951674L121.86198603380983,-9.365592428343616z" style="fill:rgb(71,33,192)"/><path d="M105.21457965971442,12.297565806437245L101.6960632612435,6.370869761683754L105.14187788238479,14.582896113981116z" style="fill:rgb(246,149,167)"/><path d="M132.5260282206593,1.334247764680995L127.15983884312692,-8.205196079111198L130.39934500200366,0.11141719596286238z" style="fill:rgb(34,46,160)"/><path d="M101.77638034522045,4.084068919778292L105.86933339958098,9.96341019069889L102.44259884751897,1.7462492857093472z" style="fill:rgb(242,130,183)"/><path d="M121.86198603380983,-9.365592428343616L120.44448745552529,-9.548306962766484L118.9033671816005,-9.271759147756086zM124.64939247902569,-9.006298329951674L122.04876246993543,-9.836184293713169L120.44448745552529,-9.548306962766484z" style="fill:rgb(83,212,212)"/><path d="M124.64939247902569,-9.006298329951674L130.39934500200366,0.11141719596286238L127.15983884312692,-8.205196079111198z" style="fill:rgb(51,38,177)"/><path d="M101.6960632612435,6.370869761683754L105.65751321335532,16.73224079529186L105.14187788238479,14.582896113981116z" style="fill:rgb(246,167,149)"/><path d="M103.66654324319316,-0.5544802357180795L101.85955117522528,1.715759176440653L101.81719407343755,2.9218577710709805z" style="fill:rgb(83,212,212)"/><path d="M101.6960632612435,6.370869761683754L105.21457965971442,12.297565806437245L101.77638034522045,4.084068919778292z" style="fill:rgb(246,149,167)"/><path d="M134.1993619547251,2.9253915563532678L129.2967136080361,-6.990107923814512L132.5260282206593,1.334247764680995z" style="fill:rgb(21,57,142)"/><path d="M102.44259884751897,1.7462492857093472L101.81719407343755,2.9218577710709805L101.77638034522045,4.084068919778292zM-75.39309114135142,156.51141595973857L-46.659659844413255,58.32837144988598L-102.43450510159458,67.6540569973043z" style="fill:rgb(83,212,212)"/><path d="M127.15983884312692,-8.205196079111198L132.5260282206593,1.334247764680995L129.2967136080361,-6.990107923814512z" style="fill:rgb(34,46,160)"/><path d="M135.3522128068898,4.826246587092989L130.9762807208552,-5.404730043192288L134.1993619547251,2.9253915563532678z" style="fill:rgb(12,71,124)"/><path d="M105.65751321335532,16.73224079529186L101.6960632612435,6.370869761683754L102.20827351635273,8.519430013669497z" style="fill:rgb(246,167,149)"/><path d="M-75.39309114135142,156.51141595973857L-110.70662890127623,40.47205585514228L-120.17799593232957,133.00602757378826z" style="fill:rgb(83,212,212)"/><path d="M129.2967136080361,-6.990107923814512L134.1993619547251,2.9253915563532678L130.9762807208552,-5.404730043192288z" style="fill:rgb(21,57,142)"/><path d="M129.2967136080361,-6.990107923814512L128.4433420868579,-7.795619631403389L127.15983884312692,-8.205196079111198zM102.20827351635273,8.519430013669497L101.6960632612435,6.370869761683754L101.65499687102238,7.540275950224366zM130.9762807208552,-5.404730043192288L129.7807996990818,-7.368826174324045L128.4433420868579,-7.795619631403389z" style="fill:rgb(83,212,212)"/><path d="M130.9762807208552,-5.404730043192288L135.3522128068898,4.826246587092989L132.1311186408957,-3.5074105909428135z" style="fill:rgb(12,71,124)"/><path d="M104.92494495944858,12.07684018878152L103.29725782720521,10.446655288959592L103.85431354257406,11.432497571802628zM107.03181110417086,13.344818384349173L103.85431354257406,11.432497571802628L104.43498825606063,12.46015130457438zM133.3376670951337,-1.5251508471486774L132.1311186408957,-3.5074105909428135L133.01082387427863,-0.2756712387319342z" style="fill:rgb(83,212,212)"/><path d="M141.61646203481172,-3.591970099703534L146.6152901887096,18.069679134244428L144.7754545852981,4.778235144090004z" style="fill:rgb(247,158,158)"/><path d="M133.01082387427863,-0.2756712387319342L132.71313258103368,-1.369301957126301L132.69594403808145,0.9280932034338838zM112.15603586975232,15.090502874981258L104.43498825606063,12.46015130457438L106.47452298137206,16.069598602954276zM140.48012897454265,10.209417482909602L141.61646203481172,-3.591970099703534L129.7807996990818,-7.368826174324045zM132.0765687278758,3.295941178683823L130.87604973554838,5.641562589062955L131.7599309630201,4.506425962509944zM113.78604918820577,14.809602815357401L109.53867703171491,14.19884046177436L112.15603586975232,15.090502874981258zM115.35496960129828,14.539231025287613L112.34950004333106,14.603030147429662L113.78604918820577,14.809602815357401zM131.7599309630201,4.506425962509944L127.32831381933127,10.197766065555388L130.69741958965002,8.568361281163154zM129.1391033990337,7.872246674174712L126.9326365227369,9.899207601077578L128.25201626722412,9.0115007722296zM121.47322124959894,13.029468797080495L118.43689865991534,14.008122515485152L120.01030623789175,13.736978969836281zM128.25201626722412,9.0115007722296L124.34316811697116,11.641470841020176L127.32831381933127,10.197766065555388z" style="fill:rgb(83,212,212)"/><path d="M146.6152901887096,18.069679134244428L141.61646203481172,-3.591970099703534L143.43086842104495,9.70091709738441z" style="fill:rgb(247,158,158)"/><path d="M140.48012897454265,10.209417482909602L133.3376670951337,-1.5251508471486774L129.78609422004757,12.052318131431202zM130.69741958965002,8.568361281163154L120.01030623789175,13.736978969836281L129.78609422004757,12.052318131431202zM-121.28544258144838,143.82562813311426L-109.69036524426971,138.51047243434257L-120.17799593232957,133.00602757378826zM141.61646203481172,-3.591970099703534L140.48012897454265,10.209417482909602L143.43086842104495,9.70091709738441zM-106.62067004055291,0.5527854554511734L118.69888968502183,128.73799013963506L93.66938334025005,79.87590326293473zM-109.69036524426971,138.51047243434257L-121.28544258144838,143.82562813311426L-115.31794084367804,166.61685049851525z" style="fill:rgb(83,212,212)"/><path d="M-101.62112552801939,149.22981376914385L-99.27090484677313,157.94363821756895L-96.38804043659538,156.5524732139556z" style="fill:rgb(162,50,222)"/><path d="M-104.52741047245503,150.63308474428993L-101.9727324089143,159.75995012617858L-99.27090484677313,157.94363821756895z" style="fill:rgb(183,62,221)"/><path d="M-98.64245851931118,148.30404293069964L-96.38804043659538,156.5524732139556L-93.43106693465853,155.63817877048217z" style="fill:rgb(139,40,220)"/><path d="M-92.63789797774064,147.4604702488182L-109.69036524426971,138.51047243434257L-112.027798422079,150.18456206964737z" style="fill:rgb(83,212,212)"/><path d="M-101.9727324089143,159.75995012617858L-109.69818325077401,154.64826697694846L-104.39299460662235,161.93446010608568z" style="fill:rgb(203,77,216)"/><path d="M72.4085311720619,119.95809001449143L-47.62777996130881,-35.14227049656992L-56.33478383318231,148.7634930203373z" style="fill:rgb(83,212,212)"/><path d="M-95.7019531028343,147.89094189655682L-93.43106693465853,155.63817877048217L-90.5097340787773,155.23550179694348z" style="fill:rgb(115,34,214)"/><path d="M-104.39299460662235,161.93446010608568L-111.76961983249635,157.11226589509104L-106.44093694546149,164.38705771299553z" style="fill:rgb(220,94,208)"/><path d="M-92.90927798765898,148.00733395386717L-90.5097340787773,155.23550179694348L-87.73301605291813,155.36086583682473z" style="fill:rgb(92,32,204)"/><path d="M-99.27090484677313,157.94363821756895L-101.62112552801939,149.22981376914385L-104.52741047245503,150.63308474428993z" style="fill:rgb(162,50,222)"/><path d="M-101.9727324089143,159.75995012617858L-104.52741047245503,150.63308474428993L-107.25356609928733,152.4616962045385z" style="fill:rgb(183,62,221)"/><path d="M-96.38804043659538,156.5524732139556L-98.64245851931118,148.30404293069964L-101.62112552801939,149.22981376914385z" style="fill:rgb(139,40,220)"/><path d="M-109.69818325077401,154.64826697694846L-101.9727324089143,159.75995012617858L-107.25356609928733,152.4616962045385z" style="fill:rgb(203,77,216)"/><path d="M-106.44093694546149,164.38705771299553L-113.3891477304356,159.76268678037286L-108.03869263387597,167.0271347798075z" style="fill:rgb(233,112,197)"/><path d="M-93.43106693465853,155.63817877048217L-95.7019531028343,147.89094189655682L-98.64245851931118,148.30404293069964z" style="fill:rgb(115,34,214)"/><path d="M-90.36950450102393,148.65103611107054L-87.73301605291813,155.36086583682473L-85.20541096773208,156.01172747073247z" style="fill:rgb(71,33,192)"/><path d="M-100.13933038055089,148.51434016074035L-112.027798422079,150.18456206964737L-112.92991570673752,154.69014159849172z" style="fill:rgb(83,212,212)"/><path d="M-111.76961983249635,157.11226589509104L-104.39299460662235,161.93446010608568L-109.69818325077401,154.64826697694846z" style="fill:rgb(220,94,208)"/><path d="M-90.5097340787773,155.23550179694348L-92.90927798765898,148.00733395386717L-95.7019531028343,147.89094189655682z" style="fill:rgb(92,32,204)"/><path d="M-108.03869263387597,167.0271347798075L-114.4938296475769,162.50091383464394L-109.12419205294236,169.7564420432391z" style="fill:rgb(242,130,183)"/><path d="M-83.02322170746265,157.16622655098607L-90.36950450102393,148.65103611107054L-85.20541096773208,156.01172747073247z" style="fill:rgb(51,38,177)"/><path d="M-104.52741047245503,150.63308474428993L-107.54934072245588,152.09218231521135L-108.64413194684104,153.39445557098378z" style="fill:rgb(83,212,212)"/><path d="M-113.3891477304356,159.76268678037286L-106.44093694546149,164.38705771299553L-111.76961983249635,157.11226589509104z" style="fill:rgb(233,112,197)"/><path d="M-98.64245851931118,148.30404293069964L-100.13933038055089,148.51434016074035L-101.62112552801939,149.22981376914385zM-107.25356609928733,152.4616962045385L-108.64413194684104,153.39445557098378L-109.69818325077401,154.64826697694846z" style="fill:rgb(83,212,212)"/><path d="M-87.73301605291813,155.36086583682473L-90.36950450102393,148.65103611107054L-92.90927798765898,148.00733395386717z" style="fill:rgb(71,33,192)"/><path d="M-107.54934072245588,152.09218231521135L-112.92991570673752,154.69014159849172L-113.92923990008312,159.68117068156502z" style="fill:rgb(83,212,212)"/><path d="M-109.12419205294236,169.7564420432391L-115.03907036591158,165.224098986416L-109.65355944256056,172.47245589213446z" style="fill:rgb(246,149,167)"/><path d="M-81.27104038874397,158.78366127828548L-88.17942384550085,149.80049288152819L-83.02322170746265,157.16622655098607z" style="fill:rgb(34,46,160)"/><path d="M-114.4938296475769,162.50091383464394L-108.03869263387597,167.0271347798075L-113.3891477304356,159.76268678037286z" style="fill:rgb(242,130,183)"/><path d="M-92.90927798765898,148.00733395386717L-94.20070924772114,147.68003044698366L-95.7019531028343,147.89094189655682zM-46.659659844413255,58.32837144988598L-75.39309114135142,156.51141595973857L-46.504337285114104,171.67368444757486zM-90.36950450102393,148.65103611107054L-92.63789797774064,147.4604702488182L-94.20070924772114,147.68003044698366zM-111.76961983249635,157.11226589509104L-112.8275935426044,158.37072830685315L-113.3891477304356,159.76268678037286z" style="fill:rgb(83,212,212)"/><path d="M-90.36950450102393,148.65103611107054L-83.02322170746265,157.16622655098607L-88.17942384550085,149.80049288152819z" style="fill:rgb(51,38,177)"/><path d="M-115.03907036591158,165.224098986416L-109.60322382179736,175.0719119988261L-109.65355944256056,172.47245589213446z" style="fill:rgb(246,167,149)"/><path d="M-115.03907036591158,165.224098986416L-109.12419205294236,169.7564420432391L-114.4938296475769,162.50091383464394z" style="fill:rgb(246,149,167)"/><path d="M-112.8275935426044,158.37072830685315L-113.92923990008312,159.68117068156502L-114.4938296475769,162.50091383464394z" style="fill:rgb(83,212,212)"/><path d="M-88.17942384550085,149.80049288152819L-81.27104038874397,158.78366127828548L-86.42395155287049,151.41523587157948z" style="fill:rgb(34,46,160)"/><path d="M-115.00063415521466,167.8287016570035L-108.97117305260258,177.45459459243722L-109.60322382179736,175.0719119988261z" style="fill:rgb(242,183,130)"/><path d="M-109.60322382179736,175.0719119988261L-115.03907036591158,165.224098986416L-115.00063415521466,167.8287016570035z" style="fill:rgb(246,167,149)"/><path d="M-86.42395155287049,151.41523587157948L-87.05957156997692,150.38824871596003L-88.17942384550085,149.80049288152819z" style="fill:rgb(83,212,212)"/><path d="M-114.37600825244493,170.21429578002432L-107.77775033484974,179.52723094714503L-108.97117305260258,177.45459459243722z" style="fill:rgb(233,197,112)"/><path d="M-108.97117305260258,177.45459459243722L-115.00063415521466,167.8287016570035L-114.37600825244493,170.21429578002432z" style="fill:rgb(242,183,130)"/><path d="M-115.00063415521466,167.8287016570035L-115.03907036591158,165.224098986416L-115.31794084367804,166.61685049851525zM-85.17276897467997,153.43680206299467L-85.89254348997581,151.00077345302523L-87.05957156997692,150.38824871596003z" style="fill:rgb(83,212,212)"/><path d="M-107.77775033484974,179.52723094714503L-114.37600825244493,170.21429578002432L-113.18514686361564,172.2874645976217z" style="fill:rgb(233,197,112)"/><path d="M76.4825580524605,128.055878843009L60.91343118293578,-64.36647190053861L72.4085311720619,119.95809001449143z" style="fill:rgb(247,158,158)"/><path d="M-110.35806315816531,185.5596734807476L-121.28544258144838,143.82562813311426L-125.90316939834054,188.94020242056382zM-113.18514686361564,172.2874645976217L-114.37600825244493,170.21429578002432L-114.0564402935207,171.4347957193157zM143.43086842104495,9.70091709738441L106.47452298137206,16.069598602954276L156.3474854172083,104.33193300423338z" style="fill:rgb(83,212,212)"/><path d="M156.3474854172083,104.33193300423338L146.6152901887096,18.069679134244428L143.43086842104495,9.70091709738441z" style="fill:rgb(247,158,158)"/><path d="M-111.47033794319876,173.9656315999639L-114.0564402935207,171.4347957193157L-113.72327954077822,172.7071717988045zM-83.75061853186182,158.24999935609975L-84.4773319393958,155.79046525852203L-84.31263291368144,159.71636590271086zM-84.31263291368144,159.71636590271086L-84.36837544443537,158.3876960048077L-84.85413690012227,161.12918841889586zM-107.02353393140712,176.44955778917665L-113.72327954077822,172.7071717988045L-112.55287506347153,177.17723665705904zM-79.44556935643044,172.82020080730314L-75.39309114135142,156.51141595973857L-85.89254348997581,151.00077345302523z" style="fill:rgb(83,212,212)"/><path d="M-110.35806315816531,185.5596734807476L-120.34201338147325,196.10286810985838L-104.90615187150264,192.7790238006372z" style="fill:rgb(127,37,217)"/><path d="M-85.91941834905053,163.90859439891943L-87.52562455262766,166.61681147282664L-86.46407678915325,165.32964748619486zM-105.43702690690147,176.24076811611351L-109.29507020938303,175.18071268896315L-107.02353393140712,176.44955778917665zM-103.9099221445229,176.03979459509748L-106.74199095153847,175.88221436172267L-105.43702690690147,176.24076811611351z" style="fill:rgb(83,212,212)"/><path d="M-120.34201338147325,196.10286810985838L-110.35806315816531,185.5596734807476L-125.90316939834054,188.94020242056382z" style="fill:rgb(127,37,217)"/><path d="M-86.46407678915325,165.32964748619486L-91.78701979124594,171.78386062327684L-88.29206750678347,170.09903239927007zM-89.61185981581185,169.1464253648977L-92.09714446819905,171.3964271475911L-90.67742585593133,170.4384486139798zM-46.659659844413255,58.32837144988598L-46.504337285114104,171.67368444757486L118.69888968502183,128.73799013963506zM-97.86073973305857,174.71185530319406L-100.90993006306506,175.64498439654892L-99.37826678320805,175.44341095593126zM-90.67742585593133,170.4384486139798L-94.88363456808058,173.27666338115074L-91.78701979124594,171.78386062327684zM-79.44556935643044,172.82020080730314L-83.75061853186182,158.24999935609975L-89.86035154904,174.19082687416966zM-88.29206750678347,170.09903239927007L-99.37826678320805,175.44341095593126L-89.86035154904,174.19082687416966zM-110.35806315816531,185.5596734807476L-70.7771107196955,171.67940595977166L-112.55287506347153,177.17723665705904zM-75.39309114135142,156.51141595973857L-79.44556935643044,172.82020080730314L-70.7771107196955,171.67940595977166z" style="fill:rgb(83,212,212)"/><path d="M-104.90615187150264,192.7790238006372L-69.27208157992582,176.62489343787846L-110.35806315816531,185.5596734807476zM-69.27208157992582,176.62489343787846L-104.90615187150264,192.7790238006372L-64.11384968301056,183.99509486930768z" style="fill:rgb(127,37,217)"/><path d="M85.19029058339879,-21.598023164774514L156.40045327388276,104.71999142917113L156.3474854172083,104.33193300423338zM-51.361758449342105,169.12427166944065L-75.39309114135142,156.51141595973857L-70.7771107196955,171.67940595977166zM-70.7771107196955,171.67940595977166L-110.35806315816531,185.5596734807476L-69.27208157992582,176.62489343787846z" style="fill:rgb(83,212,212)"/><path d="M-46.504337285114104,171.67368444757486L-64.11384968301056,183.99509486930768L-41.51194979577063,179.1281457969436z" style="fill:rgb(127,37,217)"/><path d="M-69.27208157992582,176.62489343787846L-51.361758449342105,169.12427166944065L-70.7771107196955,171.67940595977166z" style="fill:rgb(83,212,212)"/><path d="M-64.11384968301056,183.99509486930768L-46.504337285114104,171.67368444757486L-69.27208157992582,176.62489343787846z" style="fill:rgb(127,37,217)"/><path d="M-51.361758449342105,169.12427166944065L-69.27208157992582,176.62489343787846L-46.504337285114104,171.67368444757486z" style="fill:rgb(83,212,212)"/><path d="M146.6152901887096,18.069679134244428L156.3474854172083,104.33193300423338L159.70203347973322,112.6116568215752z" style="fill:rgb(247,158,158)"/><path d="M112.83721924847984,87.46715415940386L93.66938334025005,79.87590326293473L112.1677318457738,115.98799144563652z" style="fill:rgb(83,212,212)"/><path d="M-51.29081373304328,156.36506060049732L72.4085311720619,119.95809001449143L-56.33478383318231,148.7634930203373z" style="fill:rgb(127,37,217)"/><path d="M124.48442739403418,98.08626931702241L124.98811965696041,107.74303392875741L128.05388784245832,106.26855082072565z" style="fill:rgb(162,50,222)"/><path d="M121.39213249855482,99.57435321105866L122.22062666449051,109.64290949253353L124.98811965696041,107.74303392875741z" style="fill:rgb(183,62,221)"/><path d="M127.76148731281029,97.07855627438626L128.05388784245832,106.26855082072565L131.30452022526464,105.27415899387323z" style="fill:rgb(139,40,220)"/><path d="M134.58355776885435,96.079601151207L112.83721924847984,87.46715415940386L112.55935288931853,99.30460262220392z" style="fill:rgb(83,212,212)"/><path d="M122.22062666449051,109.64290949253353L116.20885772062067,103.75571463239478L119.85432047905701,111.89827524279491z" style="fill:rgb(203,77,216)"/><path d="M131.1021442824499,96.5893843541525L131.30452022526464,105.27415899387323L134.61973556953234,104.79753833941434z" style="fill:rgb(115,34,214)"/><path d="M119.85432047905701,111.89827524279491L114.31150308836233,106.29525864390904L117.97815085141549,114.42621383503167z" style="fill:rgb(220,94,208)"/><path d="M134.38232347878298,96.6385186686215L134.61973556953234,104.79753833941434L137.87642095937832,104.85797515870918z" style="fill:rgb(92,32,204)"/><path d="M72.4085311720619,119.95809001449143L-51.29081373304328,156.36506060049732L76.4825580524605,128.055878843009z" style="fill:rgb(127,37,217)"/><path d="M124.98811965696041,107.74303392875741L124.48442739403418,98.08626931702241L121.39213249855482,99.57435321105866z" style="fill:rgb(162,50,222)"/><path d="M122.22062666449051,109.64290949253353L121.39213249855482,99.57435321105866L118.59899924639178,101.48763268535377z" style="fill:rgb(183,62,221)"/><path d="M128.05388784245832,106.26855082072565L127.76148731281029,97.07855627438626L124.48442739403418,98.08626931702241z" style="fill:rgb(139,40,220)"/><path d="M116.20885772062067,103.75571463239478L122.22062666449051,109.64290949253353L118.59899924639178,101.48763268535377z" style="fill:rgb(203,77,216)"/><path d="M117.97815085141549,114.42621383503167L112.9795982189509,109.01261956586181L116.66396665827972,117.13348024902585z" style="fill:rgb(233,112,197)"/><path d="M131.30452022526464,105.27415899387323L131.1021442824499,96.5893843541525L127.76148731281029,97.07855627438626z" style="fill:rgb(115,34,214)"/><path d="M137.4792655147824,97.22642454427388L137.87642095937832,104.85797515870918L140.95263565208276,105.45548661506426z" style="fill:rgb(71,33,192)"/><path d="M114.31150308836233,106.29525864390904L119.85432047905701,111.89827524279491L116.20885772062067,103.75571463239478z" style="fill:rgb(220,94,208)"/><path d="M-41.51194979577063,179.1281457969436L121.92969567599285,135.04510523439606L-46.504337285114104,171.67368444757486z" style="fill:rgb(127,37,217)"/><path d="M134.61973556953234,104.79753833941434L134.38232347878298,96.6385186686215L131.1021442824499,96.5893843541525z" style="fill:rgb(92,32,204)"/><path d="M120.39118953186131,98.15778550185152L112.55935288931853,99.30460262220392L112.33309294086992,108.94329991470755zM126.06106828982163,97.32754954797457L120.39118953186131,98.15778550185152L118.17682954291801,101.12164473020943z" style="fill:rgb(83,212,212)"/><path d="M116.66396665827972,117.13348024902585L112.26587939030976,111.80683244530886L115.96381269272418,119.91948793195532z" style="fill:rgb(242,130,183)"/><path d="M143.73186366380742,106.57049178750542L137.4792655147824,97.22642454427388L140.95263565208276,105.45548661506426z" style="fill:rgb(51,38,177)"/><path d="M121.39213249855482,99.57435321105866L118.17682954291801,101.12164473020943L117.17422226122754,102.4635914809721z" style="fill:rgb(83,212,212)"/><path d="M112.9795982189509,109.01261956586181L117.97815085141549,114.42621383503167L114.31150308836233,106.29525864390904z" style="fill:rgb(233,112,197)"/><path d="M127.76148731281029,97.07855627438626L126.06106828982163,97.32754954797457L124.48442739403418,98.08626931702241zM118.59899924639178,101.48763268535377L117.17422226122754,102.4635914809721L116.20885772062067,103.75571463239478z" style="fill:rgb(83,212,212)"/><path d="M137.87642095937832,104.85797515870918L137.4792655147824,97.22642454427388L134.38232347878298,96.6385186686215z" style="fill:rgb(71,33,192)"/><path d="M115.96381269272418,119.91948793195532L112.2009422386288,114.572994608456L115.90771652761643,122.67960960140303z" style="fill:rgb(246,149,167)"/><path d="M146.1072210844271,108.1640384219138L140.2756734895902,98.33391879283926L143.73186366380742,106.57049178750542z" style="fill:rgb(34,46,160)"/><path d="M112.26587939030976,111.80683244530886L116.66396665827972,117.13348024902585L112.9795982189509,109.01261956586181z" style="fill:rgb(242,130,183)"/><path d="M134.38232347878298,96.6385186686215L132.80781525879738,96.33962203539257L131.1021442824499,96.5893843541525zM137.4792655147824,97.22642454427388L134.58355776885435,96.079601151207L132.80781525879738,96.33962203539257z" style="fill:rgb(83,212,212)"/><path d="M137.4792655147824,97.22642454427388L143.73186366380742,106.57049178750542L140.2756734895902,98.33391879283926z" style="fill:rgb(51,38,177)"/><path d="M112.2009422386288,114.572994608456L116.50210564976598,125.30890060962457L115.90771652761643,122.67960960140303z" style="fill:rgb(246,167,149)"/><path d="M114.31150308836233,106.29525864390904L112.33309294086992,108.94329991470755L112.29886585413796,110.40143763345452z" style="fill:rgb(83,212,212)"/><path d="M112.2009422386288,114.572994608456L115.96381269272418,119.91948793195532L112.26587939030976,111.80683244530886z" style="fill:rgb(246,149,167)"/><path d="M147.98552409571192,110.17874916611076L142.66396801042515,99.92238242072105L146.1072210844271,108.1640384219138z" style="fill:rgb(21,57,142)"/><path d="M112.9795982189509,109.01261956586181L112.29886585413796,110.40143763345452L112.26587939030976,111.80683244530886z" style="fill:rgb(83,212,212)"/><path d="M140.2756734895902,98.33391879283926L146.1072210844271,108.1640384219138L142.66396801042515,99.92238242072105z" style="fill:rgb(34,46,160)"/><path d="M149.2911704518064,112.54043943736674L144.55043909267562,101.93468836746393L147.98552409571192,110.17874916611076z" style="fill:rgb(12,71,124)"/><path d="M116.50210564976598,125.30890060962457L112.2009422386288,114.572994608456L112.79161639802216,117.20591796079856z" style="fill:rgb(246,167,149)"/><path d="M142.66396801042515,99.92238242072105L147.98552409571192,110.17874916611076L144.55043909267562,101.93468836746393z" style="fill:rgb(21,57,142)"/><path d="M142.66396801042515,99.92238242072105L141.70580351350196,98.90030921913927L140.2756734895902,98.33391879283926zM112.79161639802216,117.20591796079856L112.2009422386288,114.572994608456L112.1677318457738,115.98799144563652zM144.55043909267562,101.93468836746393L143.1963581811172,99.49062834628043L141.70580351350196,98.90030921913927z" style="fill:rgb(83,212,212)"/><path d="M121.92969567599285,135.04510523439606L-41.51194979577063,179.1281457969436L125.62675643381435,143.137658259039z" style="fill:rgb(127,37,217)"/><path d="M144.55043909267562,101.93468836746393L149.2911704518064,112.54043943736674L145.85910629489123,104.29677971130008z" style="fill:rgb(12,71,124)"/><path d="M159.70203347973322,112.6116568215752L156.40045327388276,104.71999142917113L159.75565965358126,112.99907923180726z" style="fill:rgb(247,158,158)"/><path d="M118.69888968502183,128.73799013963506L-46.504337285114104,171.67368444757486L121.92969567599285,135.04510523439606zM115.84352080061484,121.67302373216259L114.02000735660502,119.60396366024855L114.64859689120496,120.83108838106222z" style="fill:rgb(83,212,212)"/><path d="M156.40045327388276,104.71999142917113L159.70203347973322,112.6116568215752L156.3474854172083,104.33193300423338z" style="fill:rgb(247,158,158)"/><path d="M118.19576030493006,123.33038390196894L114.64859689120496,120.83108838106222L115.30399996765706,122.11055393569309zM147.22702870939187,106.76579242387689L145.85910629489123,104.29677971130008L146.88106609117236,108.26224424454891z" style="fill:rgb(83,212,212)"/><path d="M156.40045327388276,104.71999142917113L161.99888782921278,129.20472037232568L159.75565965358126,112.99907923180726z" style="fill:rgb(247,158,158)"/><path d="M146.88106609117236,108.26224424454891L146.53515772644582,106.92000742011432L146.54770270598965,109.7042286301707zM123.90552096032512,125.73893937952838L115.30399996765706,122.11055393569309L117.60729834282768,126.6069977776772zM155.33850782717303,121.40665705451502L156.40045327388276,104.71999142917113L143.1963581811172,99.49062834628043zM145.89177576478934,112.5414891339257L144.58917369603526,115.32034839948138L145.5563561750269,113.99236776973608zM125.71289084989523,125.48983524532647L120.9884922413025,124.50844950138644L123.90552096032512,125.73893937952838zM127.45270181576434,125.25004474579069L124.11472374891234,125.15785869694626L125.71289084989523,125.48983524532647zM145.5563561750269,113.99236776973608L140.70583655140965,120.65224879453942L144.43033364258687,118.86306837110754z" style="fill:rgb(83,212,212)"/><path d="M129.59595406053214,133.37795686922763L125.62675643381435,143.137658259039L133.23118912514488,141.5001704046661z" style="fill:rgb(127,37,217)"/><path d="M142.6881677767328,117.93046732703034L140.26196178440432,120.26745601344491L141.71711031393443,119.26375907438107zM134.23329344606012,123.76154349607742L130.87083145757742,124.7789351687513L132.6161413143731,124.53838677922352zM141.71711031393443,119.26375907438107L137.4058646512469,122.23749369609435L140.70583655140965,120.65224879453942z" style="fill:rgb(83,212,212)"/><path d="M161.99888782921278,129.20472037232568L156.40045327388276,104.71999142917113L158.61642756389742,120.95487780649692z" style="fill:rgb(247,158,158)"/><path d="M118.69888968502183,128.73799013963506L158.61642756389742,120.95487780649692L117.60729834282768,126.6069977776772zM155.33850782717303,121.40665705451502L147.22702870939187,106.76579242387689L143.4639407815797,123.04328598108275zM144.43033364258687,118.86306837110754L132.6161413143731,124.53838677922352L143.4639407815797,123.04328598108275z" style="fill:rgb(83,212,212)"/><path d="M125.62675643381435,143.137658259039L129.59595406053214,133.37795686922763L121.92969567599285,135.04510523439606z" style="fill:rgb(127,37,217)"/><path d="M129.59595406053214,133.37795686922763L118.69888968502183,128.73799013963506L121.92969567599285,135.04510523439606zM156.40045327388276,104.71999142917113L155.33850782717303,121.40665705451502L158.61642756389742,120.95487780649692zM158.61642756389742,120.95487780649692L118.69888968502183,128.73799013963506L129.59595406053214,133.37795686922763z" style="fill:rgb(83,212,212)"/><path d="M159.42665011408923,126.89081149512188L133.23118912514488,141.5001704046661L162.81893494132123,135.12895054778653zM133.23118912514488,141.5001704046661L159.42665011408923,126.89081149512188L129.59595406053214,133.37795686922763z" style="fill:rgb(127,37,217)"/><path d="M161.99888782921278,129.20472037232568L159.42665011408923,126.89081149512188L162.81893494132123,135.12895054778653zM159.42665011408923,126.89081149512188L161.99888782921278,129.20472037232568L158.61642756389742,120.95487780649692z" style="fill:rgb(247,158,158)"/><path d="M158.61642756389742,120.95487780649692L129.59595406053214,133.37795686922763L159.42665011408923,126.89081149512188z" style="fill:rgb(83,212,212)"/></svg>
