<?xml version="1.0" encoding="UTF-8"?>
<!-- Generated by jsxcad -->
<!DOCTYPE svg PUBLIC "-//W3C//DTD SVG 1.1 Tiny//EN" "http://www.w3.org/Graphics/SVG/1.1/DTD/svg11-tiny.dtd">
<svg viewBox="-250 -250 500 500" width="500" height="500" xmlns="http://www.w3.org/2000/svg"><path d="M81.8640874117159,-132.96795424410575L95.27875899170587,-6.1509855010501715L84.14762518686888,-127.06294575246955z" style="fill:rgb(247,158,158)"/><path d="M-78.68053595853165,-87.2936535244698L-27.90893391535008,96.39333915397305L81.8640874117159,-132.96795424410575z" style="fill:rgb(83,212,212)"/><path d="M95.27875899170587,-6.1509855010501715L81.8640874117159,-132.96795424410575L92.75515250165614,-12.149325056117975z" style="fill:rgb(247,158,158)"/><path d="M-27.90893391535008,96.39333915397305L-78.68053595853165,-87.2936535244698L-94.6808815988554,106.67425605272533zM81.8640874117159,-132.96795424410575L-27.90893391535008,96.39333915397305L92.75515250165614,-12.149325056117975z" style="fill:rgb(83,212,212)"/><path d="M92.75515250165614,-12.149325056117975L100.33101642418909,48.729170549811364L95.27875899170587,-6.1509855010501715z" style="fill:rgb(247,158,158)"/><path d="M92.75515250165614,-12.149325056117975L-4.427353871701564,75.27061826775234L97.70325492751266,42.741812677382335z" style="fill:rgb(83,212,212)"/><path d="M-2.1711705555223184,74.55202185335789L-1.0754919500992055,81.25233570324573L0.9998793824124828,80.24913843779379z" style="fill:rgb(162,50,222)"/><path d="M-4.258656389929598,75.56149609165355L-2.9889072197283117,82.53580090832989L-1.0754919500992055,81.25233570324573z" style="fill:rgb(183,62,221)"/><path d="M1.2379971373029708e-14,73.86049874589723L0.9998793824124828,80.24913843779379L3.159458140659086,79.56385987384846z" style="fill:rgb(139,40,220)"/><path d="M-2.9889072197283117,82.53580090832989L-7.875674648985389,78.37253698684503L-4.66848736069161,84.05162131066903z" style="fill:rgb(203,77,216)"/><path d="M2.1735029710318505,73.51322646360863L3.159458140659086,79.56385987384846L5.322314592046349,79.22255833670457z" style="fill:rgb(115,34,214)"/><path d="M-4.66848736069161,84.05162131066903L-9.268946699498684,80.06923442555396L-6.050737064030097,85.74326388541952z" style="fill:rgb(220,94,208)"/><path d="M4.267639183595382,73.52396970697444L5.322314592046349,79.22255833670457L7.407141650525078,79.23876661254329z" style="fill:rgb(92,32,204)"/><path d="M-1.0754919500992055,81.25233570324573L-2.1711705555223184,74.55202185335789L-4.258656389929598,75.56149609165355z" style="fill:rgb(162,50,222)"/><path d="M-2.9889072197283117,82.53580090832989L-4.258656389929598,75.56149609165355L-6.184266583273511,76.85104535961716z" style="fill:rgb(183,62,221)"/><path d="M0.9998793824124828,80.24913843779379L1.2379971373029708e-14,73.86049874589723L-2.1711705555223184,74.55202185335789z" style="fill:rgb(139,40,220)"/><path d="M100.33101642418909,48.729170549811364L92.75515250165614,-12.149325056117975L97.70325492751266,42.741812677382335z" style="fill:rgb(247,158,158)"/><path d="M-7.875674648985389,78.37253698684503L-2.9889072197283117,82.53580090832989L-6.184266583273511,76.85104535961716z" style="fill:rgb(203,77,216)"/><path d="M-6.050737064030097,85.74326388541952L-10.310837534009323,81.87770362984855L-7.08282710024301,87.54747576388002z" style="fill:rgb(233,112,197)"/><path d="M3.159458140659086,79.56385987384846L2.1735029710318505,73.51322646360863L8.253314248686472e-15,73.86049874589723z" style="fill:rgb(115,34,214)"/><path d="M6.203227416996952,73.89334969414848L7.407141650525078,79.23876661254329L9.33510524594421,79.61291369205476z" style="fill:rgb(71,33,192)"/><path d="M-9.268946699498684,80.06923442555396L-4.66848736069161,84.05162131066903L-7.875674648985389,78.37253698684503z" style="fill:rgb(220,94,208)"/><path d="M5.322314592046349,79.22255833670457L4.267639183595382,73.52396970697444L2.1735029710318505,73.51322646360863z" style="fill:rgb(92,32,204)"/><path d="M-7.08282710024301,87.54747576388002L-10.960790715262503,83.72996737990059L-7.724577665940299,89.39643568547399z" style="fill:rgb(242,130,183)"/><path d="M11.03267976093009,80.33212307065597L6.203227416996952,73.89334969414848L9.33510524594421,79.61291369205476z" style="fill:rgb(51,38,177)"/><path d="M-2.1711705555223184,74.55202185335789L-4.427353871701564,75.27061826775234L-5.322753514582652,76.07607070028726zM-4.258656389929598,75.56149609165355L-5.322753514582652,76.07607070028726L-6.184266583273511,76.85104535961716z" style="fill:rgb(83,212,212)"/><path d="M-10.310837534009323,81.87770362984855L-6.050737064030097,85.74326388541952L-9.268946699498684,80.06923442555396z" style="fill:rgb(233,112,197)"/><path d="M7.407141650525078,79.23876661254329L6.203227416996952,73.89334969414848L4.267639183595382,73.52396970697444z" style="fill:rgb(71,33,192)"/><path d="M-7.724577665940299,89.39643568547399L-11.192567209524153,85.55594636331519L-7.950074632835396,91.22018524624409z" style="fill:rgb(246,149,167)"/><path d="M12.434383942223626,81.370503300338L7.906451240280393,74.60869398032871L11.03267976093009,80.33212307065597z" style="fill:rgb(34,46,160)"/><path d="M-10.960790715262503,83.72996737990059L-7.08282710024301,87.54747576388002L-10.310837534009323,81.87770362984855z" style="fill:rgb(242,130,183)"/><path d="M-7.875674648985389,78.37253698684503L-9.636776298980879,79.9567241536578L-9.980173086078219,80.93535809416653zM4.267639183595382,73.52396970697444L3.2827029584555416,73.33600793348108L2.1735029710318505,73.51322646360863zM6.203227416996952,73.89334969414848L4.437063218683046,73.15156945704243L3.2827029584555416,73.33600793348108zM-9.268946699498684,80.06923442555396L-9.980173086078219,80.93535809416653L-10.310837534009323,81.87770362984855z" style="fill:rgb(83,212,212)"/><path d="M6.203227416996952,73.89334969414848L11.03267976093009,80.33212307065597L7.906451240280393,74.60869398032871z" style="fill:rgb(51,38,177)"/><path d="M-11.192567209524153,85.55594636331519L-7.748852182516958,92.94908221930986L-7.950074632835396,91.22018524624409z" style="fill:rgb(246,167,149)"/><path d="M-9.636776298980879,79.9567241536578L-10.590771426662066,80.81488300188126L-10.960790715262503,83.72996737990059z" style="fill:rgb(83,212,212)"/><path d="M-11.192567209524153,85.55594636331519L-7.724577665940299,89.39643568547399L-10.960790715262503,83.72996737990059z" style="fill:rgb(246,149,167)"/><path d="M13.485330589661814,82.68990369283043L9.311605241382159,75.6442815820922L12.434383942223626,81.370503300338z" style="fill:rgb(21,57,142)"/><path d="M7.906451240280393,74.60869398032871L5.663453152429312,72.95562021854872L4.437063218683046,73.15156945704243zM-10.590771426662066,80.81488300188126L-12.778473187856275,82.78282474312851L-11.31099794827864,86.48895921279995z" style="fill:rgb(83,212,212)"/><path d="M7.906451240280393,74.60869398032871L12.434383942223626,81.370503300338L9.311605241382159,75.6442815820922z" style="fill:rgb(34,46,160)"/><path d="M-10.99544072855726,87.28591082731319L-7.126560273169669,94.51644921760065L-7.748852182516958,92.94908221930986z" style="fill:rgb(242,183,130)"/><path d="M-7.748852182516958,92.94908221930986L-11.192567209524153,85.55594636331519L-10.99544072855726,87.28591082731319z" style="fill:rgb(246,167,149)"/><path d="M9.311605241382159,75.6442815820922L13.485330589661814,82.68990369283043L10.363652616631397,76.9620713488528z" style="fill:rgb(21,57,142)"/><path d="M-9.727308563763625,90.48859837994911L-12.778473187856275,82.78282474312851L-17.530415166026202,87.05740361593985z" style="fill:rgb(83,212,212)"/><path d="M-7.126560273169669,94.51644921760065L-10.99544072855726,87.28591082731319L-10.374882855142957,88.85313475941396z" style="fill:rgb(242,183,130)"/><path d="M-10.99544072855726,87.28591082731319L-11.192567209524153,85.55594636331519L-11.31099794827864,86.48895921279995zM10.363652616631397,76.9620713488528L10.029646909667647,76.17347178588152L9.311605241382159,75.6442815820922zM-4.4968262852359375,92.78855868379185L-17.530415166026202,87.05740361593985L-27.90893391535008,96.39333915397305zM-20.427002641112566,58.91249587089242L14.85760904662672,96.297338523192L14.258682631870547,50.44694339143514zM-9.352669752507156,90.19650263909456L-10.374882855142957,88.85313475941396L-10.05772298109385,89.65413773382224zM13.400359043762098,78.65766756575289L10.029646909667647,76.17347178588152L12.077892207572697,81.00940222499091zM11.35619892561198,79.30548302897306L11.020493456686147,78.51287292847766L11.254828817389832,80.23807053155231z" style="fill:rgb(83,212,212)"/><path d="M14.85760904662672,96.297338523192L17.328293941191586,56.27726603145918L14.258682631870547,50.44694339143514z" style="fill:rgb(247,158,158)"/><path d="M-7.966359347836783,91.26292586014729L-10.05772298109385,89.65413773382224L-9.727308563763625,90.48859837994911zM12.077892207572697,81.00940222499091L11.35619892561198,79.30548302897306L10.953681553317747,83.00858242251127zM11.055522574101333,82.07166418118095L10.42835779409232,83.94276511439922L10.953681553317747,83.00858242251127zM-4.322896959211172,92.40626014204452L-6.268119673840135,92.00968207138384L-5.400485322507302,92.39120036040927zM-2.205973732494258,92.43583390255469L-5.400485322507302,92.39120036040927L-4.4968262852359375,92.78855868379185zM9.396104218904691,85.77842693037965L7.284066822170727,88.38869782127675L8.320065451324966,87.69194045462575zM97.70325492751266,42.741812677382335L-3.994059993653477e-15,73.86049874589723L99.08137057651173,58.029761645588046zM7.997850158057422,87.50653219936932L6.2875989869806626,89.05886628379488L7.284066822170727,88.38869782127675zM2.2083815549946926,91.39989316229666L2.7587881363273566e-14,92.09617788193243L1.1257891920880847,91.9228391467938zM4.332153115711204,90.37399616746194L1.1257891920880847,91.9228391467938L2.297427038181293,91.74244159531231zM8.320065451324966,87.69194045462575L2.297427038181293,91.74244159531231L6.39730444618883,91.11118210430462z" style="fill:rgb(83,212,212)"/><path d="M97.70325492751266,42.741812677382335L101.73759457352541,64.00812854291846L100.33101642418909,48.729170549811364z" style="fill:rgb(247,158,158)"/><path d="M26.167723770258018,88.06712235989963L13.400359043762098,78.65766756575289L6.39730444618883,91.11118210430462zM26.167723770258018,88.06712235989963L99.08137057651173,58.029761645588046L5.663453152429312,72.95562021854872zM14.85760904662672,96.297338523192L-20.427002641112566,58.91249587089242L-21.277391041017598,104.70737709022457z" style="fill:rgb(83,212,212)"/><path d="M17.328293941191586,56.27726603145918L14.85760904662672,96.297338523192L18.05169672390501,102.09007200704505zM101.73759457352541,64.00812854291846L97.70325492751266,42.741812677382335L99.08137057651173,58.029761645588046z" style="fill:rgb(247,158,158)"/><path d="M-17.892061105971628,110.39780014297443L14.85760904662672,96.297338523192L-21.277391041017598,104.70737709022457zM14.85760904662672,96.297338523192L-17.892061105971628,110.39780014297443L18.05169672390501,102.09007200704505z" style="fill:rgb(127,37,217)"/><path d="M104.30379433371604,115.96405371954017L-94.6808815988554,106.67425605272533L-99.19027009196148,161.3403551482121zM99.08137057651173,58.029761645588046L26.167723770258018,88.06712235989963L100.7538373888612,76.58305279509098z" style="fill:rgb(83,212,212)"/><path d="M100.7538373888612,76.58305279509098L101.73759457352541,64.00812854291846L99.08137057651173,58.029761645588046zM101.73759457352541,64.00812854291846L100.7538373888612,76.58305279509098L103.44428374065612,82.54703845536075z" style="fill:rgb(247,158,158)"/><path d="M-94.6808815988554,106.67425605272533L104.30379433371604,115.96405371954017L100.7538373888612,76.58305279509098z" style="fill:rgb(83,212,212)"/><path d="M-95.3246143249851,166.69657855600707L104.30379433371604,115.96405371954017L-99.19027009196148,161.3403551482121z" style="fill:rgb(127,37,217)"/><path d="M104.30379433371604,115.96405371954017L103.44428374065612,82.54703845536075L100.7538373888612,76.58305279509098z" style="fill:rgb(247,158,158)"/><path d="M104.30379433371604,115.96405371954017L-95.3246143249851,166.69657855600707L107.06572033083002,121.88491014244696z" style="fill:rgb(127,37,217)"/><path d="M103.44428374065612,82.54703845536075L104.30379433371604,115.96405371954017L107.06572033083002,121.88491014244696z" style="fill:rgb(247,158,158)"/></svg>
