<?xml version="1.0" encoding="UTF-8"?>
<!-- Generated by jsxcad -->
<!DOCTYPE svg PUBLIC "-//W3C//DTD SVG 1.1 Tiny//EN" "http://www.w3.org/Graphics/SVG/1.1/DTD/svg11-tiny.dtd">
<svg viewBox="-250 -250 500 500" width="500" height="500" xmlns="http://www.w3.org/2000/svg"><path d="M-15.518597715012103,-105.26297575962887L-27.913206635788434,-101.73675971446751L-22.052800943365177,-89.36922102638852zM-15.518597715012103,-105.26297575962887L-10.091420921254276,-64.1264556013086L8.781438902819604,-112.1762369505681zM-10.091420921254276,-64.1264556013086L-15.518597715012103,-105.26297575962887L-22.052800943365177,-89.36922102638852zM-78.68053595853165,-87.2936535244698L-85.95904441140351,66.07593842077608L-27.913206635788434,-101.73675971446751zM-27.913206635788434,-101.73675971446751L-85.95904441140351,66.07593842077608L-22.052800943365177,-89.36922102638852zM8.781438902819604,-112.1762369505681L23.624651515081105,7.026441637269681L81.8640874117159,-132.96795424410575z" style="fill:rgb(83,212,212)"/><path d="M81.8640874117159,-132.96795424410575L94.0118836751265,-19.91242277181624L84.14762518686888,-127.06294575246955z" style="fill:rgb(247,158,158)"/><path d="M23.624651515081105,7.026441637269681L8.781438902819604,-112.1762369505681L-10.091420921254276,-64.1264556013086zM-22.052800943365177,-89.36922102638852L-52.553964879498274,43.98201940537488L-10.091420921254276,-64.1264556013086zM-85.95904441140351,66.07593842077608L-78.68053595853165,-87.2936535244698L-90.23872228147576,52.823146486014565zM-52.553964879498274,43.98201940537488L-22.052800943365177,-89.36922102638852L-82.93506428375889,58.72042144283482z" style="fill:rgb(83,212,212)"/><path d="M94.0118836751265,-19.91242277181624L81.8640874117159,-132.96795424410575L91.51486551217992,-25.908290560110707z" style="fill:rgb(247,158,158)"/><path d="M81.8640874117159,-132.96795424410575L23.624651515081105,7.026441637269681L91.51486551217992,-25.908290560110707zM23.624651515081105,7.026441637269681L-10.091420921254276,-64.1264556013086L-52.553964879498274,43.98201940537488z" style="fill:rgb(83,212,212)"/><path d="M-76.58525727614291,55.6400176206679L-75.12539079575208,62.10510106676869L-73.16002130158094,61.15206377944059z" style="fill:rgb(162,50,222)"/><path d="M-78.56147849090925,56.59871748850447L-76.95982611843218,63.3182022902354L-75.12539079575208,62.10510106676869z" style="fill:rgb(183,62,221)"/><path d="M-74.55254902938218,54.97714788051483L-73.16002130158094,61.15206377944059L-71.13745539001943,60.49488855770589z" style="fill:rgb(139,40,220)"/><path d="M-76.95982611843218,63.3182022902354L-82.05274211650614,59.250034876509886L-78.59435921617856,64.74600917072887z" style="fill:rgb(203,77,216)"/><path d="M-72.53966030110674,54.635326671074914L-71.13745539001943,60.49488855770589L-69.13359902142447,60.158581359027934z" style="fill:rgb(115,34,214)"/><path d="M-78.59435921617856,64.74600917072887L-83.43617797344913,60.843569844727234L-79.96717477665928,66.33517363712724z" style="fill:rgb(220,94,208)"/><path d="M-70.62236798276687,54.62804261142517L-69.13359902142447,60.158581359027934L-67.2239165106608,60.15642088422226z" style="fill:rgb(92,32,204)"/><path d="M-75.12539079575208,62.10510106676869L-76.58525727614291,55.6400176206679L-78.56147849090925,56.59871748850447z" style="fill:rgb(162,50,222)"/><path d="M-76.95982611843218,63.3182022902354L-78.56147849090925,56.59871748850447L-80.40710268541766,57.81724157757829z" style="fill:rgb(183,62,221)"/><path d="M-73.16002130158094,61.15206377944059L-74.55254902938218,54.97714788051483L-76.58525727614291,55.6400176206679z" style="fill:rgb(139,40,220)"/><path d="M-82.05274211650614,59.250034876509886L-76.95982611843218,63.3182022902354L-80.40710268541766,57.81724157757829z" style="fill:rgb(203,77,216)"/><path d="M-79.96717477665928,66.33517363712724L-84.5046107644476,62.538174304075255L-81.02589791671492,68.02618120679068z" style="fill:rgb(233,112,197)"/><path d="M-71.13745539001943,60.49488855770589L-72.53966030110674,54.635326671074914L-74.55254902938218,54.97714788051483z" style="fill:rgb(115,34,214)"/><path d="M-68.8732998341349,54.9564920335205L-67.2239165106608,60.15642088422226L-65.48073822322269,60.48940404727389z" style="fill:rgb(71,33,192)"/><path d="M-83.43617797344913,60.843569844727234L-78.59435921617856,64.74600917072887L-82.05274211650614,59.250034876509886z" style="fill:rgb(220,94,208)"/><path d="M-69.13359902142447,60.158581359027934L-70.62236798276687,54.62804261142517L-72.53966030110674,54.635326671074914z" style="fill:rgb(92,32,204)"/><path d="M-81.02589791671492,68.02618120679068L-85.21662622809744,64.27007846012106L-81.72946168129936,69.7553930116576z" style="fill:rgb(242,130,183)"/><path d="M-63.970654381904204,61.146057775683914L-68.8732998341349,54.9564920335205L-65.48073822322269,60.48940404727389z" style="fill:rgb(51,38,177)"/><path d="M-78.56147849090925,56.59871748850447L-80.61645863470372,57.5956235498375L-81.34835394935179,58.43867544418792z" style="fill:rgb(83,212,212)"/><path d="M-84.5046107644476,62.538174304075255L-79.96717477665928,66.33517363712724L-83.43617797344913,60.843569844727234z" style="fill:rgb(233,112,197)"/><path d="M-74.55254902938218,54.97714788051483L-75.57770067856534,55.15123467910578L-76.58525727614291,55.6400176206679zM-80.40710268541766,57.81724157757829L-81.34835394935179,58.43867544418792L-82.05274211650614,59.250034876509886z" style="fill:rgb(83,212,212)"/><path d="M-67.2239165106608,60.15642088422226L-68.8732998341349,54.9564920335205L-70.62236798276687,54.62804261142517z" style="fill:rgb(71,33,192)"/><path d="M-80.61645863470372,57.5956235498375L-82.93506428375889,58.72042144283482L-84.14233121874827,61.65697207303822z" style="fill:rgb(83,212,212)"/><path d="M-81.72946168129936,69.7553930116576L-85.54383339277463,65.97367285644933L-82.04980639686356,71.45729560216452z" style="fill:rgb(246,149,167)"/><path d="M-62.75201401361287,62.10270685490568L-67.35926877623922,55.60938322724309L-63.970654381904204,61.146057775683914z" style="fill:rgb(34,46,160)"/><path d="M-85.21662622809744,64.27007846012106L-81.02589791671492,68.02618120679068L-84.5046107644476,62.538174304075255z" style="fill:rgb(242,130,183)"/><path d="M-68.62468521208277,54.620453903948494L-69.30789808006608,54.086524001140944L-72.53966030110674,54.635326671074914zM-83.43617797344913,60.843569844727234L-84.14233121874827,61.65697207303822L-84.5046107644476,62.538174304075255z" style="fill:rgb(83,212,212)"/><path d="M-68.8732998341349,54.9564920335205L-63.970654381904204,61.146057775683914L-67.35926877623922,55.60938322724309z" style="fill:rgb(51,38,177)"/><path d="M-85.54383339277463,65.97367285644933L-81.97309590096353,73.06688181490807L-82.04980639686356,71.45729560216452z" style="fill:rgb(246,167,149)"/><path d="M-52.553964879498274,43.98201940537488L-75.57770067856534,55.15123467910578L-55.60907376667407,51.76025182948129z" style="fill:rgb(83,212,212)"/><path d="M-85.54383339277463,65.97367285644933L-81.72946168129936,69.7553930116576L-85.21662622809744,64.27007846012106z" style="fill:rgb(246,149,167)"/><path d="M-61.87264473775985,63.324131457906624L-66.13878335543593,56.56319584031127L-62.75201401361287,62.10270685490568z" style="fill:rgb(21,57,142)"/><path d="M-67.980071171479,55.124225984449446L-68.62468521208277,54.620453903948494L-70.62236798276687,54.62804261142517z" style="fill:rgb(83,212,212)"/><path d="M-67.35926877623922,55.60938322724309L-62.75201401361287,62.10270685490568L-66.13878335543593,56.56319584031127z" style="fill:rgb(34,46,160)"/><path d="M-85.47209391368452,67.58387547429238L-81.50044031126481,74.52206907466154L-81.97309590096353,73.06688181490807z" style="fill:rgb(242,183,130)"/><path d="M-67.35926877623922,55.60938322724309L-67.980071171479,55.124225984449446L-68.8732998341349,54.9564920335205zM-65.51518888396681,57.05053861919762L-66.7033437386059,53.6442294395946L-69.30789808006608,54.086524001140944z" style="fill:rgb(83,212,212)"/><path d="M-81.97309590096353,73.06688181490807L-85.54383339277463,65.97367285644933L-85.47209391368452,67.58387547429238z" style="fill:rgb(246,167,149)"/><path d="M-85.21662622809744,64.27007846012106L-85.58031672095012,65.15471659170524L-85.54383339277463,65.97367285644933z" style="fill:rgb(83,212,212)"/><path d="M-66.13878335543593,56.56319584031127L-61.87264473775985,63.324131457906624L-65.25975678993875,57.78283137672465z" style="fill:rgb(21,57,142)"/><path d="M-85.47209391368452,67.58387547429238L-85.58031672095012,65.15471659170524L-85.95904441140351,66.07593842077608z" style="fill:rgb(83,212,212)"/><path d="M-81.50044031126481,74.52206907466154L-85.47209391368452,67.58387547429238L-85.00233330311241,69.03857799929456z" style="fill:rgb(242,183,130)"/><path d="M91.51486551217992,-25.908290560110707L95.52646193993698,-3.460313322759556L94.0118836751265,-19.91242277181624z" style="fill:rgb(247,158,158)"/><path d="M-65.25975678993875,57.78283137672465L-65.51518888396681,57.05053861919762L-66.13878335543593,56.56319584031127zM-52.553964879498274,43.98201940537488L-21.29913622296012,45.933885059052656L23.624651515081105,7.026441637269681zM-21.29913622296012,45.933885059052656L-52.553964879498274,43.98201940537488L-55.60907376667407,51.76025182948129zM-62.43832051975516,65.87156779479596L-55.60907376667407,51.76025182948129L-66.7033437386059,53.6442294395946zM30.22797562764163,20.961800356787403L91.51486551217992,-25.908290560110707L23.624651515081105,7.026441637269681zM-84.15074765020833,70.28105354588406L-85.00233330311241,69.03857799929456L-84.7622730020879,69.78196060098858zM-64.23347870698609,60.725055121684484L-64.757506234423,59.22273196833483L-64.5998640707613,61.64892008677348zM-64.5998640707613,61.64892008677348L-64.65317779663609,60.82842398804678L-64.95264598263212,62.538481700998254zM-81.01395526908314,72.84109578512214L-84.7622730020879,69.78196060098858L-83.63528768143786,73.27187500600633zM-81.44065641751835,71.94294984239127L-82.94847669259684,71.26226738827036L-82.33417231638012,71.76362118057118zM-55.60907376667407,51.76025182948129L-62.43832051975516,65.87156779479596L-60.84917745065457,65.10140561497374zM23.624651515081105,7.026441637269681L-21.29913622296012,45.933885059052656L30.22797562764163,20.961800356787403zM-79.6848572826257,72.29534972686447L-82.33417231638012,71.76362118057118L-81.69433082309682,72.28581695558213z" style="fill:rgb(83,212,212)"/><path d="M95.52646193993698,-3.460313322759556L91.51486551217992,-25.908290560110707L92.99767887987355,-9.458891967739369z" style="fill:rgb(247,158,158)"/><path d="M-21.29913622296012,45.933885059052656L-55.60907376667407,51.76025182948129L-60.84917745065457,65.10140561497374zM-65.64600741994245,64.28685154925655L-66.70770707210546,66.00540134315622L-66.00017606217536,65.17991010844848zM-77.74892065879014,72.30452452165373L-81.69433082309682,72.28581695558213L-81.01395526908314,72.84109578512214zM-62.43832051975516,65.87156779479596L-64.23347870698609,60.725055121684484L-67.18719045779791,68.17305890816803zM91.51486551217992,-25.908290560110707L30.22797562764163,20.961800356787403L92.99767887987355,-9.458891967739369zM-74.6669438853336,71.79803922175317L-83.63528768143786,73.27187500600633L-82.83318754043877,75.75572458955982zM-66.00017606217536,65.17991010844848L-69.54503457938465,69.31576563060999L-67.18719045779791,68.17305890816803zM-68.09735617664974,67.62673230065086L-69.76120567730219,69.0869285398571L-68.80669750084996,68.4543306857184zM-73.6429938989836,71.30179707595144L-75.70828849041975,71.9691725462058L-74.6669438853336,71.79803922175317zM-68.80669750084996,68.4543306857184L-71.63427199652462,70.32829005271894L-69.54503457938465,69.31576563060999zM-60.84917745065457,65.10140561497374L-82.83318754043877,75.75572458955982L-74.8021472997816,100.62527670215405z" style="fill:rgb(83,212,212)"/><path d="M92.99767887987355,-9.458891967739369L100.62991430497435,51.97594938460409L95.52646193993698,-3.460313322759556z" style="fill:rgb(247,158,158)"/><path d="M-60.84917745065457,65.10140561497374L52.50098312796819,67.96576501746675L30.22797562764163,20.961800356787403zM-90.23872228147576,52.823146486014565L-92.05073132040341,144.53971754486062L-74.8021472997816,100.62527670215405zM52.50098312796819,67.96576501746675L92.99767887987355,-9.458891967739369L30.22797562764163,20.961800356787403zM-92.05073132040341,144.53971754486062L-90.23872228147576,52.823146486014565L-96.53422797623456,129.14187751361786zM-66.74795442064985,125.5665192013827L-60.84917745065457,65.10140561497374L-74.8021472997816,100.62527670215405zM-60.84917745065457,65.10140561497374L-66.74795442064985,125.5665192013827L52.50098312796819,67.96576501746675z" style="fill:rgb(83,212,212)"/><path d="M100.62991430497435,51.97594938460409L92.99767887987355,-9.458891967739369L97.99608502789464,45.99028578937824z" style="fill:rgb(247,158,158)"/><path d="M92.99767887987355,-9.458891967739369L52.50098312796819,67.96576501746675L97.99608502789464,45.99028578937824zM-66.74795442064985,125.5665192013827L-74.8021472997816,100.62527670215405L-88.77812571980455,136.20774588246306zM-20.427002641112566,58.91249587089242L14.85760904662672,96.297338523192L14.258682631870547,50.44694339143514z" style="fill:rgb(83,212,212)"/><path d="M14.85760904662672,96.297338523192L17.328293941191586,56.27726603145918L14.258682631870547,50.44694339143514z" style="fill:rgb(247,158,158)"/><path d="M-81.98197879338076,132.92500066411944L-80.38725976511343,139.37603318478978L-78.2845351549412,138.3607796314072z" style="fill:rgb(162,50,222)"/><path d="M-84.09713027709142,133.94668573987425L-82.3516385610048,140.69501447575286L-80.38725976511343,139.37603318478978z" style="fill:rgb(183,62,221)"/><path d="M-79.80807092697002,132.24540075340076L-78.2845351549412,138.3607796314072L-76.12222036452252,137.6873439788367z" style="fill:rgb(139,40,220)"/><path d="M-82.3516385610048,140.69501447575286L-87.83940015244667,136.8518964772734L-84.10393310487328,142.2685185085341z" style="fill:rgb(203,77,216)"/><path d="M-77.65687775323629,131.9337535918523L-76.12222036452252,137.6873439788367L-73.9813321392356,137.3813638112258z" style="fill:rgb(115,34,214)"/><path d="M-84.10393310487328,142.2685185085341L-89.32564849474039,138.62712456702573L-85.57795433457788,144.0379103178466z" style="fill:rgb(220,94,208)"/><path d="M-75.60926869203354,132.00253773040475L-73.9813321392356,137.3813638112258L-71.94238292378262,137.45510070941677z" style="fill:rgb(92,32,204)"/><path d="M-80.38725976511343,139.37603318478978L-81.98197879338076,132.92500066411944L-84.09713027709142,133.94668573987425z" style="fill:rgb(162,50,222)"/><path d="M-82.3516385610048,140.69501447575286L-84.09713027709142,133.94668573987425L-86.07434326621095,135.27213042289637z" style="fill:rgb(183,62,221)"/><path d="M-78.2845351549412,138.3607796314072L-79.80807092697002,132.24540075340076L-81.98197879338076,132.92500066411944z" style="fill:rgb(139,40,220)"/><path d="M-87.83940015244667,136.8518964772734L-82.3516385610048,140.69501447575286L-86.07434326621095,135.27213042289637z" style="fill:rgb(203,77,216)"/><path d="M-85.57795433457788,144.0379103178466L-90.47640177797024,140.53150734206096L-86.71750142688337,145.93709202571245z" style="fill:rgb(233,112,197)"/><path d="M-76.12222036452252,137.6873439788367L-77.65687775323629,131.9337535918523L-79.80807092697002,132.24540075340076z" style="fill:rgb(115,34,214)"/><path d="M-73.74273187853046,132.4502903321237L-71.94238292378262,137.45510070941677L-70.08252356485315,137.90689594100704z" style="fill:rgb(71,33,192)"/><path d="M-89.32564849474039,138.62712456702573L-84.10393310487328,142.2685185085341L-87.83940015244667,136.8518964772734z" style="fill:rgb(220,94,208)"/><path d="M-73.9813321392356,137.3813638112258L-75.60926869203354,132.00253773040475L-77.65687775323629,131.9337535918523z" style="fill:rgb(92,32,204)"/><path d="M-86.71750142688337,145.93709202571245L-91.24703940115492,142.49352730999837L-87.47835648503607,147.8947347332774z" style="fill:rgb(242,130,183)"/><path d="M-68.47277647420472,138.72103088185574L-73.74273187853046,132.4502903321237L-70.08252356485315,137.90689594100704z" style="fill:rgb(51,38,177)"/><path d="M-84.09713027709142,133.94668573987425L-86.29656079778138,135.00907525185153L-87.08273034254988,135.9481101337969z" style="fill:rgb(83,212,212)"/><path d="M-90.47640177797024,140.53150734206096L-85.57795433457788,144.0379103178466L-89.32564849474039,138.62712456702573z" style="fill:rgb(233,112,197)"/><path d="M-79.80807092697002,132.24540075340076L-80.9035831992397,132.40410834481696L-81.98197879338076,132.92500066411944zM-86.07434326621095,135.27213042289637L-87.08273034254988,135.9481101337969L-87.83940015244667,136.8518964772734z" style="fill:rgb(83,212,212)"/><path d="M-71.94238292378262,137.45510070941677L-73.74273187853046,132.4502903321237L-75.60926869203354,132.00253773040475z" style="fill:rgb(71,33,192)"/><path d="M-86.29656079778138,135.00907525185153L-88.77812571980455,136.20774588246306L-90.08434816016188,139.5333549377942z" style="fill:rgb(83,212,212)"/><path d="M-87.47835648503607,147.8947347332774L-91.6067760150107,144.43901293467002L-87.830118893276,149.83683017492606z" style="fill:rgb(246,149,167)"/><path d="M-67.17537306602131,139.86810913132067L-72.12854236990005,133.2614590263608L-68.47277647420472,138.72103088185574z" style="fill:rgb(34,46,160)"/><path d="M-91.24703940115492,142.49352730999837L-86.71750142688337,145.93709202571245L-90.47640177797024,140.53150734206096z" style="fill:rgb(242,130,183)"/><path d="M-65.27124204787472,130.13942941390385L-66.74795442064985,125.5665192013827L-80.9035831992397,132.40410834481696zM-73.47552073582618,132.07422562550323L-74.20264691519874,131.4333321626815L-77.65687775323629,131.9337535918523zM-89.32564849474039,138.62712456702573L-90.08434816016188,139.5333549377942L-90.47640177797024,140.53150734206096z" style="fill:rgb(83,212,212)"/><path d="M-73.74273187853046,132.4502903321237L-68.47277647420472,138.72103088185574L-72.12854236990005,133.2614590263608z" style="fill:rgb(51,38,177)"/><path d="M-91.6067760150107,144.43901293467002L-87.75752913673485,151.68926732412658L-87.830118893276,149.83683017492606z" style="fill:rgb(246,167,149)"/><path d="M-91.6067760150107,144.43901293467002L-87.47835648503607,147.8947347332774L-91.24703940115492,142.49352730999837z" style="fill:rgb(246,149,167)"/><path d="M-72.78939515994799,132.67897435844426L-73.47552073582618,132.07422562550323L-75.60926869203354,132.00253773040475zM-65.27124204787472,130.13942941390385L52.50098312796819,67.96576501746675L-66.74795442064985,125.5665192013827z" style="fill:rgb(83,212,212)"/><path d="M-72.12854236990005,133.2614590263608L-67.17537306602131,139.86810913132067L-70.82911222082294,134.40677613490612z" style="fill:rgb(34,46,160)"/><path d="M-91.54000485951322,146.29373542043095L-87.2612762255426,153.38069576991964L-87.75752913673485,151.68926732412658z" style="fill:rgb(242,183,130)"/><path d="M-72.12854236990005,133.2614590263608L-72.78939515994799,132.67897435844426L-73.74273187853046,132.4502903321237zM-70.16507628118879,134.99206310337178L-71.41842622115453,131.02998306656414L-74.20264691519874,131.4333321626815z" style="fill:rgb(83,212,212)"/><path d="M-87.75752913673485,151.68926732412658L-91.6067760150107,144.43901293467002L-91.54000485951322,146.29373542043095z" style="fill:rgb(246,167,149)"/><path d="M14.85760904662672,96.297338523192L-20.427002641112566,58.91249587089242L-21.277391041017598,104.70737709022457zM-91.24703940115492,142.49352730999837L-91.6407271420499,143.49584091098453L-91.6067760150107,144.43901293467002z" style="fill:rgb(83,212,212)"/><path d="M-91.04719326493421,147.9862107027815L-86.35832746684119,154.84516577727513L-87.2612762255426,153.38069576991964z" style="fill:rgb(233,197,112)"/><path d="M-91.54000485951322,146.29373542043095L-91.6407271420499,143.49584091098453L-92.05073132040341,144.53971754486062z" style="fill:rgb(83,212,212)"/><path d="M-87.2612762255426,153.38069576991964L-91.54000485951322,146.29373542043095L-91.04719326493421,147.9862107027815z" style="fill:rgb(242,183,130)"/><path d="M17.328293941191586,56.27726603145918L14.85760904662672,96.297338523192L18.05169672390501,102.09007200704505zM97.99608502789464,45.99028578937824L102.36720829791716,70.84730432744354L100.62991430497435,51.97594938460409z" style="fill:rgb(247,158,158)"/><path d="M-69.89554056734049,135.84411850868074L-70.16507628118879,134.99206310337178L-70.82911222082294,134.40677613490612z" style="fill:rgb(83,212,212)"/><path d="M-86.35832746684119,154.84516577727513L-91.04719326493421,147.9862107027815L-90.14515208189003,149.450491775628z" style="fill:rgb(233,197,112)"/><path d="M-66.91625263875842,145.26221145731418L-65.27124204787472,130.13942941390385L-71.41842622115453,131.02998306656414zM-87.89233314429599,158.8210880481044L-96.53422797623456,129.14187751361786L-99.19027009196148,161.3403551482121zM52.50098312796819,67.96576501746675L-65.27124204787472,130.13942941390385L-22.828543551785184,123.9907139400076zM-90.14515208189003,149.450491775628L-91.04719326493421,147.9862107027815L-90.79531118630263,148.8512634687959zM60.09107481187666,83.98355340422484L97.99608502789464,45.99028578937824L52.50098312796819,67.96576501746675zM-68.81228384328696,139.26849978299927L-69.36546758135206,137.5197843470548L-69.20818030495471,140.31615985916108zM-69.20818030495471,140.31615985916108L-69.26138032993363,139.370368520532L-69.58941490073303,141.32501853537715zM-86.80908154753878,152.52521785462534L-90.79531118630263,148.8512634687959L-89.61243429619773,152.91365889860757zM-87.25979928561989,151.47389717762454L-88.86672128380913,150.62877595808018L-88.21339721997305,151.23091289282394zM-65.27124204787472,130.13942941390385L-66.91625263875842,145.26221145731418L-61.267761384651614,142.53691447507853zM-22.828543551785184,123.9907139400076L-65.27124204787472,130.13942941390385L-61.267761384651614,142.53691447507853zM-85.38569759340544,151.95144126907672L-88.21339721997305,151.23091289282394L-87.53283905862178,151.85815852022162z" style="fill:rgb(83,212,212)"/><path d="M102.36720829791716,70.84730432744354L97.99608502789464,45.99028578937824L99.69831940192437,64.87379961018038z" style="fill:rgb(247,158,158)"/><path d="M52.50098312796819,67.96576501746675L-22.828543551785184,123.9907139400076L60.09107481187666,83.98355340422484z" style="fill:rgb(83,212,212)"/><path d="M-87.89233314429599,158.8210880481044L-95.3246143249851,166.69657855600707L-84.08461823868008,164.2079225327851z" style="fill:rgb(127,37,217)"/><path d="M-70.33880145729275,143.30812400729852L-71.48198768242538,145.2422985206969L-70.72164206458189,144.32124180025733zM-83.31684896337005,152.0413145835315L-87.53283905862178,151.85815852022162L-86.80908154753878,152.52521785462534zM-66.91625263875842,145.26221145731418L-68.81228384328696,139.26849978299927L-72.00501517581681,147.71744421939417z" style="fill:rgb(83,212,212)"/><path d="M-95.3246143249851,166.69657855600707L-87.89233314429599,158.8210880481044L-99.19027009196148,161.3403551482121z" style="fill:rgb(127,37,217)"/><path d="M-80.01992325648618,151.58448600267067L-89.61243429619773,152.91365889860757L-88.77016334767697,155.8063027660559zM97.99608502789464,45.99028578937824L60.09107481187666,83.98355340422484L99.69831940192437,64.87379961018038z" style="fill:rgb(83,212,212)"/><path d="M-17.892061105971628,110.39780014297443L14.85760904662672,96.297338523192L-21.277391041017598,104.70737709022457z" style="fill:rgb(127,37,217)"/><path d="M-70.72164206458189,144.32124180025733L-74.53158181569354,148.9364667389356L-72.00501517581681,147.71744421939417zM-72.97550586078573,147.0514890416411L-74.76155657625814,148.6642232416284L-73.73793607100565,147.97506542154372zM-78.92272647466038,151.05510456202347L-81.13394801916466,151.7388509782259L-80.01992325648618,151.58448600267067z" style="fill:rgb(83,212,212)"/><path d="M14.85760904662672,96.297338523192L-17.892061105971628,110.39780014297443L18.05169672390501,102.09007200704505z" style="fill:rgb(127,37,217)"/><path d="M-73.73793607100565,147.97506542154372L-76.77030162307204,150.01659987775463L-74.53158181569354,148.9364667389356zM-87.89233314429599,158.8210880481044L-61.267761384651614,142.53691447507853L-88.77016334767697,155.8063027660559z" style="fill:rgb(83,212,212)"/><path d="M-84.08461823868008,164.2079225327851L-58.15080350275074,152.18914090728492L-87.89233314429599,158.8210880481044zM-58.15080350275074,152.18914090728492L-84.08461823868008,164.2079225327851L-54.49752154372562,157.65697288156875z" style="fill:rgb(127,37,217)"/><path d="M-61.267761384651614,142.53691447507853L-87.89233314429599,158.8210880481044L-58.15080350275074,152.18914090728492zM-58.15080350275074,152.18914090728492L60.09107481187666,83.98355340422484L-61.267761384651614,142.53691447507853z" style="fill:rgb(83,212,212)"/><path d="M99.69831940192437,64.87379961018038L104.27358782872662,91.5553557529367L102.36720829791716,70.84730432744354z" style="fill:rgb(247,158,158)"/><path d="M68.42457726282572,101.57021075056193L99.69831940192437,64.87379961018038L60.09107481187666,83.98355340422484z" style="fill:rgb(83,212,212)"/><path d="M104.27358782872662,91.5553557529367L99.69831940192437,64.87379961018038L101.56663626650544,85.59973272336646z" style="fill:rgb(247,158,158)"/><path d="M99.69831940192437,64.87379961018038L68.42457726282572,101.57021075056193L101.56663626650544,85.59973272336646z" style="fill:rgb(83,212,212)"/><path d="M80.75649867288433,95.627715517694L81.3930568519609,102.57639309646045L83.59145945932146,101.51747191580581z" style="fill:rgb(162,50,222)"/><path d="M78.54449719565419,96.6936337537228L79.39404829634188,103.93883715985248L81.3930568519609,102.57639309646045z" style="fill:rgb(183,62,221)"/><path d="M83.08542076031975,94.9051383514462L83.59145945932146,101.51747191580581L85.90701277854703,100.80176055525311z" style="fill:rgb(139,40,220)"/><path d="M79.39404829634188,103.93883715985248L74.79497614936157,99.68464675406639L77.66945628718501,105.55403227566116z" style="fill:rgb(203,77,216)"/><path d="M60.09107481187666,83.98355340422484L-58.15080350275074,152.18914090728492L78.02214885476322,121.82449346771052z" style="fill:rgb(83,212,212)"/><path d="M-54.49752154372562,157.65697288156875L78.02214885476322,121.82449346771052L-58.15080350275074,152.18914090728492z" style="fill:rgb(127,37,217)"/><path d="M85.44417738352122,94.55337105541341L85.90701277854703,100.80176055525311L88.25311685018728,100.45647228790993z" style="fill:rgb(115,34,214)"/><path d="M77.66945628718501,105.55403227566116L73.39862574765644,101.49836296403699L76.28446810929893,107.36185142795858z" style="fill:rgb(220,94,208)"/><path d="M87.74425904084904,94.58642488187915L88.25311685018728,100.45647228790993L90.54172549837405,100.49537123781487z" style="fill:rgb(92,32,204)"/><path d="M81.3930568519609,102.57639309646045L80.75649867288433,95.627715517694L78.54449719565419,96.6936337537228z" style="fill:rgb(162,50,222)"/><path d="M79.39404829634188,103.93883715985248L78.54449719565419,96.6936337537228L76.53215434930512,98.06295058380569z" style="fill:rgb(183,62,221)"/><path d="M83.59145945932146,101.51747191580581L83.08542076031975,94.9051383514462L80.75649867288433,95.627715517694z" style="fill:rgb(139,40,220)"/><path d="M74.79497614936157,99.68464675406639L79.39404829634188,103.93883715985248L76.53215434930512,98.06295058380569z" style="fill:rgb(203,77,216)"/><path d="M76.28446810929893,107.36185142795858L72.39656888193318,103.43641281645222L75.29211998231791,109.29481924294362z" style="fill:rgb(233,112,197)"/><path d="M85.90701277854703,100.80176055525311L85.44417738352122,94.55337105541341L83.08542076031975,94.9051383514462z" style="fill:rgb(115,34,214)"/><path d="M89.89888324900467,95.00424486827092L90.54172549837405,100.49537123781487L92.68648187953887,100.9181727330453z" style="fill:rgb(71,33,192)"/><path d="M73.39862574765644,101.49836296403699L77.66945628718501,105.55403227566116L74.79497614936157,99.68464675406639z" style="fill:rgb(220,94,208)"/><path d="M88.25311685018728,100.45647228790993L87.74425904084904,94.58642488187915L85.44417738352122,94.55337105541341z" style="fill:rgb(92,32,204)"/><path d="M75.29211998231791,109.29481924294362L71.82803738424352,105.42605981512872L74.73127592657637,111.28038302719462z" style="fill:rgb(242,130,183)"/><path d="M94.60574367402475,101.71034423702434L89.89888324900467,95.00424486827092L92.68648187953887,100.9181727330453z" style="fill:rgb(51,38,177)"/><path d="M78.54449719565419,96.6936337537228L76.24438516445714,97.80201283007001L75.50583263286501,98.76131715701221z" style="fill:rgb(83,212,212)"/><path d="M72.39656888193318,103.43641281645222L76.28446810929893,107.36185142795858L73.39862574765644,101.49836296403699z" style="fill:rgb(233,112,197)"/><path d="M83.08542076031975,94.9051383514462L81.88427090940381,95.08426974769667L80.75649867288433,95.627715517694z" style="fill:rgb(83,212,212)"/><path d="M104.27358782872662,91.5553557529367L102.14918001029662,92.06210690528994L104.86791020457731,98.01118373657661zM102.14918001029662,92.06210690528994L104.27358782872662,91.5553557529367L101.56663626650544,85.59973272336646z" style="fill:rgb(247,158,158)"/><path d="M76.53215434930512,98.06295058380569L75.50583263286501,98.76131715701221L74.79497614936157,99.68464675406639z" style="fill:rgb(83,212,212)"/><path d="M90.54172549837405,100.49537123781487L89.89888324900467,95.00424486827092L87.74425904084904,94.58642488187915z" style="fill:rgb(71,33,192)"/><path d="M76.24438516445714,97.80201283007001L68.42457726282572,101.57021075056193L70.29858003628492,105.5250193599538z" style="fill:rgb(83,212,212)"/><path d="M74.73127592657637,111.28038302719462L71.71643399887638,107.39211125173071L74.62502423602271,113.2435011805148z" style="fill:rgb(246,149,167)"/><path d="M96.22561064878872,102.84343201512716L91.82603339720104,95.79250095257737L94.60574367402475,101.71034423702434z" style="fill:rgb(34,46,160)"/><path d="M71.82803738424352,105.42605981512872L75.29211998231791,109.29481924294362L72.39656888193318,103.43641281645222z" style="fill:rgb(242,130,183)"/><path d="M90.14131453081225,94.62088261188796L89.23196402480436,93.98848502108707L85.44417738352122,94.55337105541341zM101.56663626650544,85.59973272336646L81.88427090940381,95.08426974769667L102.14918001029662,92.06210690528994zM73.39862574765644,101.49836296403699L72.68577826981492,102.42429236761515L72.39656888193318,103.43641281645222z" style="fill:rgb(83,212,212)"/><path d="M89.89888324900467,95.00424486827092L94.60574367402475,101.71034423702434L91.82603339720104,95.79250095257737z" style="fill:rgb(51,38,177)"/><path d="M71.71643399887638,107.39211125173071L74.97957241847453,115.10925989111871L74.62502423602271,113.2435011805148z" style="fill:rgb(246,167,149)"/><path d="M71.71643399887638,107.39211125173071L74.73127592657637,111.28038302719462L71.82803738424352,105.42605981512872z" style="fill:rgb(246,149,167)"/><path d="M97.48279390442161,104.27587857232403L93.45149991052585,96.92290534950577L96.22561064878872,102.84343201512716z" style="fill:rgb(21,57,142)"/><path d="M90.99944561344104,95.21765706214177L90.14131453081225,94.62088261188796L87.74425904084904,94.58642488187915z" style="fill:rgb(83,212,212)"/><path d="M91.82603339720104,95.79250095257737L96.22561064878872,102.84343201512716L93.45149991052585,96.92290534950577z" style="fill:rgb(34,46,160)"/><path d="M72.68577826981492,102.42429236761515L70.29858003628492,105.5250193599538L71.23504645632502,107.50130460621372z" style="fill:rgb(83,212,212)"/><path d="M72.0681947057886,109.25953941055324L75.7836930287103,116.8057153957556L74.97957241847453,115.10925989111871z" style="fill:rgb(242,183,130)"/><path d="M91.82603339720104,95.79250095257737L90.99944561344104,95.21765706214177L89.89888324900467,95.00424486827092zM94.28223204803145,97.50062880114987L92.28530064280092,93.53313755903996L89.23196402480436,93.98848502108707z" style="fill:rgb(83,212,212)"/><path d="M98.32719007001046,105.95425255018633L94.71176233249435,98.35402157028662L97.48279390442161,104.27587857232403z" style="fill:rgb(12,71,124)"/><path d="M74.97957241847453,115.10925989111871L71.71643399887638,107.39211125173071L72.0681947057886,109.25953941055324z" style="fill:rgb(246,167,149)"/><path d="M78.02214885476322,121.82449346771052L-54.49752154372562,157.65697288156875L80.9337544898388,127.67084577716255z" style="fill:rgb(127,37,217)"/><path d="M93.45149991052585,96.92290534950577L97.48279390442161,104.27587857232403L94.71176233249435,98.35402157028662z" style="fill:rgb(21,57,142)"/><path d="M71.82803738424352,105.42605981512872L71.23504645632502,107.50130460621372L71.65939755918615,108.39682867123784z" style="fill:rgb(83,212,212)"/><path d="M102.14918001029662,92.06210690528994L106.14013551375132,111.8307431528598L104.86791020457731,98.01118373657661z" style="fill:rgb(247,158,158)"/><path d="M75.7836930287103,116.8057153957556L72.0681947057886,109.25953941055324L72.87222710455146,110.95632856607276z" style="fill:rgb(242,183,130)"/><path d="M72.0681947057886,109.25953941055324L71.71643399887638,107.39211125173071L71.65939755918615,108.39682867123784z" style="fill:rgb(83,212,212)"/><path d="M94.71176233249435,98.35402157028662L98.32719007001046,105.95425255018633L95.55657476535869,100.03249612654069z" style="fill:rgb(12,71,124)"/><path d="M94.71176233249435,98.35402157028662L94.28223204803145,97.50062880114987L93.45149991052585,96.92290534950577zM99.46159818884362,107.79098225330632L102.14918001029662,92.06210690528994L92.28530064280092,93.53313755903996zM74.09996453157927,112.41628205907487L72.87222710455146,110.95632856607276L73.2832228853353,111.8236788227075zM96.43834337904575,101.78438591378006L95.55657476535869,100.03249612654069L96.15285319853417,102.84683713661634z" style="fill:rgb(83,212,212)"/><path d="M106.14013551375132,111.8307431528598L102.14918001029662,92.06210690528994L103.39633156446773,105.89723198757888z" style="fill:rgb(247,158,158)"/><path d="M96.15285319853417,102.84683713661634L95.95116871790007,101.89489411783441L95.87791643357754,103.86999113667319zM78.29166475609644,115.45764584032108L73.2832228853353,111.8236788227075L75.21371538076957,115.8977008603086zM77.63008826711113,114.4056663817042L75.70611270315013,113.58165654254553L76.52698865768495,114.17725606550988zM102.14918001029662,92.06210690528994L99.46159818884362,107.79098225330632L103.39633156446773,105.89723198757888zM79.79817218340276,114.85460498787218L76.52698865768495,114.17725606550988L77.38215649670396,114.79773431188215zM95.33742891261764,105.8813733049709L94.34883598624478,107.85054153492635L95.06128560107477,106.90902688288006zM82.12630627882837,114.9093977318943L77.38215649670396,114.79773431188215L78.29166475609644,115.45764584032108zM99.46159818884362,107.79098225330632L96.43834337904575,101.78438591378006L94.13546656445718,110.35440067998901zM85.74682246079917,114.3917753709839L75.21371538076957,115.8977008603086L76.58872701647635,118.79947517234477zM95.06128560107477,106.90902688288006L91.49106672629063,111.62712620746622L94.13546656445718,110.35440067998901zM92.94931866419697,109.70002185390818L91.19281739211281,111.35668978117943L92.23482906268214,110.64421978488622zM86.89517238697272,113.83908070526519L84.52341091293866,114.56667954090081L85.74682246079917,114.3917753709839zM92.23482906268214,110.64421978488622L89.14794794236134,112.75483711684083L91.49106672629063,111.62712620746622zM78.02214885476322,121.82449346771052L103.39633156446773,105.89723198757888L76.58872701647635,118.79947517234477z" style="fill:rgb(83,212,212)"/><path d="M104.30379433371604,115.96405371954017L106.14013551375132,111.8307431528598L103.39633156446773,105.89723198757888zM106.14013551375132,111.8307431528598L104.30379433371604,115.96405371954017L107.06572033083002,121.88491014244696z" style="fill:rgb(247,158,158)"/><path d="M104.30379433371604,115.96405371954017L80.9337544898388,127.67084577716255L107.06572033083002,121.88491014244696zM80.9337544898388,127.67084577716255L104.30379433371604,115.96405371954017L78.02214885476322,121.82449346771052z" style="fill:rgb(127,37,217)"/><path d="M103.39633156446773,105.89723198757888L78.02214885476322,121.82449346771052L104.30379433371604,115.96405371954017z" style="fill:rgb(83,212,212)"/></svg>
