<?xml version="1.0" encoding="UTF-8"?>
<!-- Generated by jsxcad -->
<!DOCTYPE svg PUBLIC "-//W3C//DTD SVG 1.1 Tiny//EN" "http://www.w3.org/Graphics/SVG/1.1/DTD/svg11-tiny.dtd">
<svg viewBox="-250 -250 500 500" width="500" height="500" xmlns="http://www.w3.org/2000/svg"><path d="M-107.2108931541488,-74.79056230746245L-111.9138635288348,21.804655837869763L117.12900608600357,-138.36457619241787zM-107.2108931541488,-74.79056230746245L-116.30927094958237,25.53869141516417L-111.9138635288348,21.804655837869763zM-116.30927094958237,25.53869141516417L-107.2108931541488,-74.79056230746245L-118.62723973820749,28.1086222933301zM111.85161030107275,-101.58019201625362L-111.30337936569457,-89.69621283803654L-117.28185237690614,-38.592265884907405zM-111.30337936569457,-89.69621283803654L111.85161030107275,-101.58019201625362L105.83533462008621,-152.11599630061082z" style="fill:rgb(83,212,212)"/><path d="M115.06358837292039,-92.924807192885L111.95859015021767,-135.12701044875007L108.91890660771394,-143.5606202279833z" style="fill:rgb(247,158,158)"/><path d="M-107.99574311121717,-23.240087948311565L111.85161030107275,-101.58019201625362L-117.28185237690614,-38.592265884907405z" style="fill:rgb(127,37,217)"/><path d="M117.12900608600357,-138.36457619241787L-107.02136784965444,18.6126104265571L-101.8089620403852,16.076425450495687zM117.12900608600357,-138.36457619241787L-111.9138635288348,21.804655837869763L-107.02136784965444,18.6126104265571zM117.12900608600357,-138.36457619241787L-101.8089620403852,16.076425450495687L-96.46428204699815,14.28775382701207zM117.12900608600357,-138.36457619241787L-96.46428204699815,14.28775382701207L-91.18007098770624,13.313346668870091zM117.12900608600357,-138.36457619241787L-91.18007098770624,13.313346668870091L-86.14856849816245,13.192792223119326z" style="fill:rgb(83,212,212)"/><path d="M111.85161030107275,-101.58019201625362L108.91890660771394,-143.5606202279833L105.83533462008621,-152.11599630061082z" style="fill:rgb(247,158,158)"/><path d="M117.12900608600357,-138.36457619241787L-86.14856849816245,13.192792223119326L-81.55575948708858,13.936718511769964z" style="fill:rgb(83,212,212)"/><path d="M130.39221355606853,-36.140627089678915L120.08744950982722,-130.03222752708933L117.12900608600357,-138.36457619241787z" style="fill:rgb(247,158,158)"/><path d="M117.12900608600357,-138.36457619241787L-81.55575948708858,13.936718511769964L-77.57531918430975,15.525550281358363z" style="fill:rgb(83,212,212)"/><path d="M-101.8089620403852,16.076425450495687L-102.28522126582212,26.14622758611969L-97.11052367126618,23.62981461482755z" style="fill:rgb(162,50,222)"/><path d="M-107.02136784965444,18.6126104265571L-105.29085156463864,28.11159405922409L-102.28522126582212,26.14622758611969z" style="fill:rgb(183,62,221)"/><path d="M117.12900608600357,-138.36457619241787L-77.57531918430975,15.525550281358363L-74.36244298480449,17.908970128273367z" style="fill:rgb(83,212,212)"/><path d="M-110.05127494868118,20.589433534238577L-107.13850705145373,29.319768103621595L-105.29085156463864,28.11159405922409z" style="fill:rgb(183,62,221)"/><path d="M-96.46428204699815,14.28775382701207L-97.11052367126618,23.62981461482755L-91.80078384497924,21.861511413396997z" style="fill:rgb(139,40,220)"/><path d="M-107.13850705145373,29.319768103621595L-116.30927094958237,25.53869141516417L-111.49453462127687,33.03716171146381z" style="fill:rgb(203,77,216)"/><path d="M-91.18007098770624,13.313346668870091L-91.80078384497924,21.861511413396997L-86.54756125620094,20.907346315461595z" style="fill:rgb(115,34,214)"/><path d="M111.95859015021767,-135.12701044875007L115.06358837292039,-92.924807192885L118.22729114260027,-84.39951029746334z" style="fill:rgb(247,158,158)"/><path d="M-102.28522126582212,26.14622758611969L-101.8089620403852,16.076425450495687L-107.02136784965444,18.6126104265571z" style="fill:rgb(162,50,222)"/><path d="M-105.29085156463864,28.11159405922409L-107.02136784965444,18.6126104265571L-110.05127494868118,20.589433534238577z" style="fill:rgb(183,62,221)"/><path d="M-97.11052367126618,23.62981461482755L-96.46428204699815,14.28775382701207L-101.8089620403852,16.076425450495687z" style="fill:rgb(139,40,220)"/><path d="M-111.49453462127687,33.03716171146381L-118.62723973820749,28.1086222933301L-113.78883618107444,35.59827889050787z" style="fill:rgb(220,94,208)"/><path d="M-107.13850705145373,29.319768103621595L-110.05127494868118,20.589433534238577L-111.9138635288348,21.804655837869763z" style="fill:rgb(183,62,221)"/><path d="M117.12900608600357,-138.36457619241787L-74.36244298480449,17.908970128273367L-72.04761134489237,21.006281839234756z" style="fill:rgb(83,212,212)"/><path d="M-116.30927094958237,25.53869141516417L-107.13850705145373,29.319768103621595L-111.9138635288348,21.804655837869763z" style="fill:rgb(203,77,216)"/><path d="M-91.80078384497924,21.861511413396997L-91.18007098770624,13.313346668870091L-96.46428204699815,14.28775382701207z" style="fill:rgb(115,34,214)"/><path d="M-86.14856849816245,13.192792223119326L-86.54756125620094,20.907346315461595L-81.54204653018861,20.806157042416785z" style="fill:rgb(92,32,204)"/><path d="M111.85161030107275,-101.58019201625362L-107.99574311121717,-23.240087948311565L118.22729114260027,-84.39951029746334z" style="fill:rgb(127,37,217)"/><path d="M-118.62723973820749,28.1086222933301L-111.49453462127687,33.03716171146381L-116.30927094958237,25.53869141516417z" style="fill:rgb(220,94,208)"/><path d="M117.12900608600357,-138.36457619241787L-72.04761134489237,21.006281839234756L-70.7306588709075,24.707862008072436z" style="fill:rgb(83,212,212)"/><path d="M-86.54756125620094,20.907346315461595L-86.14856849816245,13.192792223119326L-91.18007098770624,13.313346668870091z" style="fill:rgb(92,32,204)"/><path d="M-82.35230610434071,13.807697816272086L-81.54204653018861,20.806157042416785L-77.76233158704942,21.435718829734245zM-81.55575948708858,13.936718511769964L-77.76233158704942,21.435718829734245L-76.9692750895652,21.56781174127237zM-81.54204653018861,20.806157042416785L-82.35230610434071,13.807697816272086L-86.14856849816245,13.192792223119326z" style="fill:rgb(71,33,192)"/><path d="M117.12900608600357,-138.36457619241787L-70.7306588709075,24.707862008072436L-70.47530154689379,28.877911675231648z" style="fill:rgb(83,212,212)"/><path d="M-73.00215434758364,23.171997978709825L-81.55575948708858,13.936718511769964L-76.9692750895652,21.56781174127237z" style="fill:rgb(51,38,177)"/><path d="M108.91890660771394,-143.5606202279833L111.85161030107275,-101.58019201625362L115.06358837292039,-92.924807192885z" style="fill:rgb(247,158,158)"/><path d="M-77.76233158704942,21.435718829734245L-81.55575948708858,13.936718511769964L-82.35230610434071,13.807697816272086z" style="fill:rgb(71,33,192)"/><path d="M-81.55575948708858,13.936718511769964L-73.00215434758364,23.171997978709825L-77.57531918430975,15.525550281358363z" style="fill:rgb(51,38,177)"/><path d="M-69.79528867464177,25.567719336997246L-77.57531918430975,15.525550281358363L-73.00215434758364,23.171997978709825zM-77.57531918430975,15.525550281358363L-69.79528867464177,25.567719336997246L-74.36244298480449,17.908970128273367z" style="fill:rgb(34,46,160)"/><path d="M-67.47880964274374,28.673695508565626L-74.36244298480449,17.908970128273367L-69.79528867464177,25.567719336997246z" style="fill:rgb(21,57,142)"/><path d="M-120.04611947375058,29.68172476208209L-119.72626548620018,56.87544938162401L-116.30927094958237,25.53869141516417zM-116.30927094958237,25.53869141516417L-115.79418423018781,58.65867843854581L-111.9138635288348,21.804655837869763zM-122.98372850831628,34.0852566027767L-122.80596474999086,54.29924946620697L-120.04611947375058,29.68172476208209zM-111.9138635288348,21.804655837869763L-111.157529111069,59.56902245543194L-107.02136784965444,18.6126104265571zM-125.00717667227471,38.58940881135378L-124.92305699691086,51.040097971894504L-122.98372850831628,34.0852566027767zM-107.02136784965444,18.6126104265571L-105.99663323768233,59.561566597413325L-101.8089620403852,16.076425450495687zM-126.00783510242621,47.23225156674845L-125.00717667227471,38.58940881135378L-126.03187368477445,43.02766282350359zM-101.8089620403852,16.076425450495687L-100.51714943397772,58.62970563648781L-96.46428204699815,14.28775382701207zM-96.46428204699815,14.28775382701207L-94.94107045276635,56.806522231609364L-91.18007098770624,13.313346668870091z" style="fill:rgb(83,212,212)"/><path d="M-74.36244298480449,17.908970128273367L-67.47880964274374,28.673695508565626L-72.04761134489237,21.006281839234756z" style="fill:rgb(21,57,142)"/><path d="M-72.04761134489237,21.006281839234756L-66.1524212421255,32.37985964920293L-67.47880964274374,28.673695508565626z" style="fill:rgb(242,183,130)"/><path d="M-91.18007098770624,13.313346668870091L-89.4963642847325,54.16402296596835L-86.14856849816245,13.192792223119326zM-125.00717667227471,38.58940881135378L-126.00783510242621,47.23225156674845L-124.92305699691086,51.040097971894504zM-55.42066021075056,-46.450079781557534L-25.520807928221217,28.61292335861094L52.926903418102356,-75.9860889914131zM-86.14856849816245,13.192792223119326L-84.40607267557648,50.810054294958405L-81.55575948708858,13.936718511769964zM-122.98372850831628,34.0852566027767L-124.92305699691086,51.040097971894504L-122.80596474999086,54.29924946620697zM117.12900608600357,-138.36457619241787L94.25326316610749,-33.65022495610769L99.76287925134163,-36.32402064786038zM117.12900608600357,-138.36457619241787L89.25255536403566,-30.331827912061563L94.25326316610749,-33.65022495610769z" style="fill:rgb(83,212,212)"/><path d="M-66.1524212421255,32.37985964920293L-72.04761134489237,21.006281839234756L-70.7306588709075,24.707862008072436z" style="fill:rgb(242,183,130)"/><path d="M117.12900608600357,-138.36457619241787L99.76287925134163,-36.32402064786038L105.5838306879628,-38.25692518765249zM-81.55575948708858,13.936718511769964L-79.87749521929402,46.883158086733694L-77.57531918430975,15.525550281358363z" style="fill:rgb(83,212,212)"/><path d="M-70.7306588709075,24.707862008072436L-65.88000750128897,36.55013051329318L-66.1524212421255,32.37985964920293z" style="fill:rgb(246,167,149)"/><path d="M-120.04611947375058,29.68172476208209L-122.80596474999086,54.29924946620697L-119.72626548620018,56.87544938162401zM117.12900608600357,-138.36457619241787L84.94167157436061,-26.48682688833186L89.25255536403566,-30.331827912061563zM117.12900608600357,-138.36457619241787L105.5838306879628,-38.25692518765249L111.50741139827768,-39.37711911347683zM-77.57531918430975,15.525550281358363L-76.0923797237844,42.545700239510175L-74.36244298480449,17.908970128273367zM117.12900608600357,-138.36457619241787L81.47951559426414,-22.25174052181944L84.94167157436061,-26.48682688833186zM-116.30927094958237,25.53869141516417L-119.72626548620018,56.87544938162401L-115.79418423018781,58.65867843854581zM117.12900608600357,-138.36457619241787L111.50741139827768,-39.37711911347683L117.31964936734583,-39.63962704702027z" style="fill:rgb(83,212,212)"/><path d="M-114.74519957243237,64.35452157265568L-122.80596474999086,54.29924946620697L-117.82144864637777,61.76800288145274z" style="fill:rgb(34,46,160)"/><path d="M-74.36244298480449,17.908970128273367L-73.19871410365792,37.97579155747822L-72.04761134489237,21.006281839234756zM117.12900608600357,-138.36457619241787L78.99793036983289,-17.778005227862188L81.47951559426414,-22.25174052181944zM-111.9138635288348,21.804655837869763L-115.79418423018781,58.65867843854581L-111.157529111069,59.56902245543194z" style="fill:rgb(83,212,212)"/><path d="M-65.88000750128897,36.55013051329318L-70.7306588709075,24.707862008072436L-70.47530154689379,28.877911675231648z" style="fill:rgb(246,167,149)"/><path d="M117.12900608600357,-138.36457619241787L117.31964936734583,-39.63962704702027L122.80754081841931,-39.02830536062795z" style="fill:rgb(83,212,212)"/><path d="M120.08744950982722,-130.03222752708933L130.39221355606853,-36.140627089678915L133.57884086731252,-27.675172442776894z" style="fill:rgb(247,158,158)"/><path d="M-65.88000750128897,36.55013051329318L-71.30474446385992,33.35863006945953L-66.68526369960809,41.02662763328153z" style="fill:rgb(246,149,167)"/><path d="M-107.02136784965444,18.6126104265571L-111.157529111069,59.56902245543194L-105.99663323768233,59.561566597413325zM-72.04761134489237,21.006281839234756L-73.19871410365792,37.97579155747822L-70.7306588709075,24.707862008072436z" style="fill:rgb(83,212,212)"/><path d="M-122.80596474999086,54.29924946620697L-114.74519957243237,64.35452157265568L-119.72626548620018,56.87544938162401z" style="fill:rgb(34,46,160)"/><path d="M-110.82493583967185,66.15142062783028L-119.72626548620018,56.87544938162401L-114.74519957243237,64.35452157265568z" style="fill:rgb(51,38,177)"/><path d="M-71.30474446385992,33.35863006945953L-65.88000750128897,36.55013051329318L-70.47530154689379,28.877911675231648z" style="fill:rgb(246,149,167)"/><path d="M117.12900608600357,-138.36457619241787L122.80754081841931,-39.02830536062795L127.76565324996011,-37.557284533343456zM-101.8089620403852,16.076425450495687L-105.99663323768233,59.561566597413325L-100.51714943397772,58.62970563648781zM-70.7306588709075,24.707862008072436L-71.30474446385992,33.35863006945953L-70.47530154689379,28.877911675231648zM-96.46428204699815,14.28775382701207L-100.51714943397772,58.62970563648781L-94.94107045276635,56.806522231609364zM117.12900608600357,-138.36457619241787L127.76565324996011,-37.557284533343456L130.39221355606853,-36.140627089678915z" style="fill:rgb(83,212,212)"/><path d="M-66.68526369960809,41.02662763328153L-73.19871410365792,37.97579155747822L-68.54868837362456,45.63525714485745z" style="fill:rgb(242,130,183)"/><path d="M-91.18007098770624,13.313346668870091L-94.94107045276635,56.806522231609364L-89.4963642847325,54.16402296596835zM-74.36244298480449,17.908970128273367L-76.0923797237844,42.545700239510175L-73.19871410365792,37.97579155747822zM-86.14856849816245,13.192792223119326L-89.4963642847325,54.16402296596835L-84.40607267557648,50.810054294958405zM-77.57531918430975,15.525550281358363L-79.87749521929402,46.883158086733694L-76.0923797237844,42.545700239510175zM-81.55575948708858,13.936718511769964L-84.40607267557648,50.810054294958405L-79.87749521929402,46.883158086733694zM-70.7306588709075,24.707862008072436L-73.19871410365792,37.97579155747822L-71.30474446385992,33.35863006945953z" style="fill:rgb(83,212,212)"/><path d="M-119.72626548620018,56.87544938162401L-110.82493583967185,66.15142062783028L-115.79418423018781,58.65867843854581z" style="fill:rgb(51,38,177)"/><path d="M-73.19871410365792,37.97579155747822L-66.68526369960809,41.02662763328153L-71.30474446385992,33.35863006945953z" style="fill:rgb(242,130,183)"/><path d="M57.5159108313804,7.695202664694979L56.50374668751394,-67.71254766789052L52.926903418102356,-75.9860889914131z" style="fill:rgb(247,158,158)"/><path d="M-111.157529111069,59.56902245543194L-110.82493583967185,66.15142062783028L-106.20810946179296,67.07836892944125z" style="fill:rgb(71,33,192)"/><path d="M-68.54868837362456,45.63525714485745L-76.0923797237844,42.545700239510175L-71.40654819543485,50.19266833184219z" style="fill:rgb(233,112,197)"/><path d="M-110.82493583967185,66.15142062783028L-111.157529111069,59.56902245543194L-115.79418423018781,58.65867843854581z" style="fill:rgb(71,33,192)"/><path d="M-76.0923797237844,42.545700239510175L-68.54868837362456,45.63525714485745L-73.19871410365792,37.97579155747822z" style="fill:rgb(233,112,197)"/><path d="M-105.99663323768233,59.561566597413325L-106.20810946179296,67.07836892944125L-101.07431244210882,67.0898858034499z" style="fill:rgb(92,32,204)"/><path d="M-71.40654819543485,50.19266833184219L-79.87749521929402,46.883158086733694L-75.1519928862879,54.51420731244789z" style="fill:rgb(220,94,208)"/><path d="M-106.20810946179296,67.07836892944125L-105.99663323768233,59.561566597413325L-111.157529111069,59.56902245543194z" style="fill:rgb(92,32,204)"/><path d="M-100.51714943397772,58.62970563648781L-101.07431244210882,67.0898858034499L-95.62809570810492,66.17866648682772z" style="fill:rgb(115,34,214)"/><path d="M-75.1519928862879,54.51420731244789L-84.40607267557648,50.810054294958405L-79.63862475343815,58.42247559918346z" style="fill:rgb(203,77,216)"/><path d="M-79.87749521929402,46.883158086733694L-71.40654819543485,50.19266833184219L-76.0923797237844,42.545700239510175z" style="fill:rgb(220,94,208)"/><path d="M-94.94107045276635,56.806522231609364L-95.62809570810492,66.17866648682772L-90.09003367116676,64.37698113453021z" style="fill:rgb(139,40,220)"/><path d="M-84.40607267557648,50.810054294958405L-84.68646464349285,61.755944342865064L-79.63862475343815,58.42247559918346z" style="fill:rgb(183,62,221)"/><path d="M-89.4963642847325,54.16402296596835L-90.09003367116676,64.37698113453021L-84.68646464349285,61.755944342865064z" style="fill:rgb(162,50,222)"/><path d="M117.12900608600357,-138.36457619241787L-70.47530154689379,28.877911675231648L-77.3929300428082,133.9051392786237z" style="fill:rgb(83,212,212)"/><path d="M-101.07431244210882,67.0898858034499L-100.51714943397772,58.62970563648781L-105.99663323768233,59.561566597413325z" style="fill:rgb(115,34,214)"/><path d="M-25.618253228632053,32.69743841941049L-55.42066021075056,-46.450079781557534L-60.31564289132715,41.40300043648239z" style="fill:rgb(83,212,212)"/><path d="M-84.40607267557648,50.810054294958405L-75.1519928862879,54.51420731244789L-79.87749521929402,46.883158086733694z" style="fill:rgb(203,77,216)"/><path d="M-95.62809570810492,66.17866648682772L-94.94107045276635,56.806522231609364L-100.51714943397772,58.62970563648781z" style="fill:rgb(139,40,220)"/><path d="M-55.42066021075056,-46.450079781557534L-25.618253228632053,32.69743841941049L-25.520807928221217,28.61292335861094z" style="fill:rgb(83,212,212)"/><path d="M-84.68646464349285,61.755944342865064L-84.40607267557648,50.810054294958405L-89.4963642847325,54.16402296596835z" style="fill:rgb(183,62,221)"/><path d="M-90.09003367116676,64.37698113453021L-89.4963642847325,54.16402296596835L-94.94107045276635,56.806522231609364zM99.76287925134163,-36.32402064786038L97.67201571791205,-25.330259586319173L103.13952254278071,-27.98209611354183z" style="fill:rgb(162,50,222)"/><path d="M94.25326316610749,-33.65022495610769L92.71242925822334,-22.03173885488076L97.67201571791205,-25.330259586319173z" style="fill:rgb(183,62,221)"/><path d="M105.5838306879628,-38.25692518765249L103.13952254278071,-27.98209611354183L108.91873927573222,-29.891695017893053z" style="fill:rgb(139,40,220)"/><path d="M92.71242925822334,-22.03173885488076L84.94167157436061,-26.48682688833186L88.4402557385926,-18.203881359639908z" style="fill:rgb(203,77,216)"/><path d="M111.50741139827768,-39.37711911347683L108.91873927573222,-29.891695017893053L114.80238276958303,-30.988053504074653z" style="fill:rgb(115,34,214)"/><path d="M97.67201571791205,-25.330259586319173L99.76287925134163,-36.32402064786038L94.25326316610749,-33.65022495610769z" style="fill:rgb(162,50,222)"/><path d="M92.71242925822334,-22.03173885488076L94.25326316610749,-33.65022495610769L89.25255536403566,-30.331827912061563z" style="fill:rgb(183,62,221)"/><path d="M103.13952254278071,-27.98209611354183L105.5838306879628,-38.25692518765249L99.76287925134163,-36.32402064786038z" style="fill:rgb(139,40,220)"/><path d="M117.12900608600357,-138.36457619241787L-77.3929300428082,133.9051392786237L78.99793036983289,-17.778005227862188z" style="fill:rgb(83,212,212)"/><path d="M88.4402557385926,-18.203881359639908L81.47951559426414,-22.25174052181944L85.01305848544175,-13.982665322347117z" style="fill:rgb(220,94,208)"/><path d="M84.94167157436061,-26.48682688833186L92.71242925822334,-22.03173885488076L89.25255536403566,-30.331827912061563z" style="fill:rgb(203,77,216)"/><path d="M108.91873927573222,-29.891695017893053L111.50741139827768,-39.37711911347683L105.5838306879628,-38.25692518765249z" style="fill:rgb(115,34,214)"/><path d="M117.31964936734583,-39.63962704702027L114.80238276958303,-30.988053504074653L120.57781969373623,-31.227071947300033z" style="fill:rgb(92,32,204)"/><path d="M81.47951559426414,-22.25174052181944L88.4402557385926,-18.203881359639908L84.94167157436061,-26.48682688833186z" style="fill:rgb(220,94,208)"/><path d="M85.01305848544175,-13.982665322347117L79.1767478932725,-18.100378356596906L82.73804375261031,-9.840721535068937z" style="fill:rgb(233,112,197)"/><path d="M114.80238276958303,-30.988053504074653L117.31964936734583,-39.63962704702027L111.50741139827768,-39.37711911347683z" style="fill:rgb(92,32,204)"/><path d="M-121.64111567806772,55.27365322983936L-127.40004731110524,127.25058361665361L-119.72626548620018,56.87544938162401zM52.926903418102356,-75.9860889914131L-25.520807928221217,28.61292335861094L21.51248367999507,16.764800166445994z" style="fill:rgb(83,212,212)"/><path d="M121.22389157628116,-39.20471445939332L120.57781969373623,-31.227071947300033L124.45905540602138,-30.776336847641634z" style="fill:rgb(71,33,192)"/><path d="M82.73804375261031,-9.840721535068937L78.99793036983289,-17.778005227862188L82.56138552185698,-9.519087276725438zM79.1767478932725,-18.100378356596906L85.01305848544175,-13.982665322347117L81.47951559426414,-22.25174052181944z" style="fill:rgb(233,112,197)"/><path d="M-119.72626548620018,56.87544938162401L-122.56842564075494,122.99821132137853L-115.79418423018781,58.65867843854581z" style="fill:rgb(83,212,212)"/><path d="M122.80754081841931,-39.02830536062795L124.45905540602138,-30.776336847641634L126.0333331164091,-30.59351438879373zM120.57781969373623,-31.227071947300033L121.22389157628116,-39.20471445939332L117.31964936734583,-39.63962704702027z" style="fill:rgb(71,33,192)"/><path d="M82.56138552185698,-9.519087276725438L77.59683529518546,-13.227793274621831L81.18397691227113,-4.974987841383012z" style="fill:rgb(242,130,183)"/><path d="M130.96468402241118,-29.10241664340565L122.80754081841931,-39.02830536062795L126.0333331164091,-30.59351438879373z" style="fill:rgb(51,38,177)"/><path d="M78.99793036983289,-17.778005227862188L82.73804375261031,-9.840721535068937L79.1767478932725,-18.100378356596906z" style="fill:rgb(233,112,197)"/><path d="M-115.79418423018781,58.65867843854581L-122.56842564075494,122.99821132137853L-111.157529111069,59.56902245543194z" style="fill:rgb(83,212,212)"/><path d="M124.45905540602138,-30.776336847641634L122.80754081841931,-39.02830536062795L121.22389157628116,-39.20471445939332z" style="fill:rgb(71,33,192)"/><path d="M77.59683529518546,-13.227793274621831L82.56138552185698,-9.519087276725438L78.99793036983289,-17.778005227862188z" style="fill:rgb(242,130,183)"/><path d="M56.50374668751394,-67.71254766789052L57.5159108313804,7.695202664694979L61.36349254721533,16.007512028622884z" style="fill:rgb(247,158,158)"/><path d="M-111.157529111069,59.56902245543194L-117.20266806238374,119.42819488777357L-105.99663323768233,59.561566597413325z" style="fill:rgb(83,212,212)"/><path d="M81.18397691227113,-4.974987841383012L77.41403628262428,-10.0565976483755L81.01286796778919,-1.8050804828603395z" style="fill:rgb(246,149,167)"/><path d="M133.57884086731252,-27.675172442776894L127.76565324996011,-37.557284533343456L130.96468402241118,-29.10241664340565z" style="fill:rgb(34,46,160)"/><path d="M-105.99663323768233,59.561566597413325L-111.49593550648669,116.66680568170685L-100.51714943397772,58.62970563648781z" style="fill:rgb(83,212,212)"/><path d="M122.80754081841931,-39.02830536062795L130.96468402241118,-29.10241664340565L127.76565324996011,-37.557284533343456z" style="fill:rgb(51,38,177)"/><path d="M77.41403628262428,-10.0565976483755L81.18397691227113,-4.974987841383012L77.59683529518546,-13.227793274621831zM81.01286796778919,-1.8050804828603395L77.3398275684016,-8.769243390379456L80.94340717344787,-0.5182895449093861z" style="fill:rgb(246,149,167)"/><path d="M-100.51714943397772,58.62970563648781L-105.6523431579641,114.81325816593115L-94.94107045276635,56.806522231609364zM52.926903418102356,-75.9860889914131L21.51248367999507,16.764800166445994L57.740075043486065,11.782870909728185zM-71.30474446385992,33.35863006945953L-77.6416397946921,128.84790047511308L-70.47530154689379,28.877911675231648zM-94.94107045276635,56.806522231609364L-99.88132882524475,113.93694980412583L-89.4963642847325,54.16402296596835zM-73.19871410365792,37.97579155747822L-79.05440887852232,124.30020688879087L-71.30474446385992,33.35863006945953z" style="fill:rgb(83,212,212)"/><path d="M77.3398275684016,-8.769243390379456L81.86230294569516,3.682408155473241L80.94340717344787,-0.5182895449093861z" style="fill:rgb(246,167,149)"/><path d="M-89.4963642847325,54.16402296596835L-94.39174766725058,114.07504925934461L-84.40607267557648,50.810054294958405z" style="fill:rgb(83,212,212)"/><path d="M127.76565324996011,-37.557284533343456L133.57884086731252,-27.675172442776894L130.39221355606853,-36.140627089678915z" style="fill:rgb(34,46,160)"/><path d="M-76.0923797237844,42.545700239510175L-81.56117601636728,120.4290459183694L-73.19871410365792,37.97579155747822z" style="fill:rgb(83,212,212)"/><path d="M77.3398275684016,-8.769243390379456L81.01286796778919,-1.8050804828603395L77.41403628262428,-10.0565976483755z" style="fill:rgb(246,149,167)"/><path d="M-84.40607267557648,50.810054294958405L-89.38579116547851,115.23062134205199L-79.87749521929402,46.883158086733694zM-79.87749521929402,46.883158086733694L-85.05251504266785,117.3713565128075L-76.0923797237844,42.545700239510175zM81.47951559426414,-22.25174052181944L87.5688683996196,4.895089568772757L84.94167157436061,-26.48682688833186zM84.94167157436061,-26.48682688833186L92.51115115602961,6.571755516983978L89.25255536403566,-30.331827912061563zM78.99793036983289,-17.778005227862188L83.45118844010601,2.403148339870187L81.47951559426414,-22.25174052181944z" style="fill:rgb(83,212,212)"/><path d="M-55.63950155299013,49.24500273094575L-25.618253228632053,32.69743841941049L-60.31564289132715,41.40300043648239z" style="fill:rgb(127,37,217)"/><path d="M89.25255536403566,-30.331827912061563L98.08965010041126,7.356644800256272L94.25326316610749,-33.65022495610769z" style="fill:rgb(83,212,212)"/><path d="M-25.618253228632053,32.69743841941049L-55.63950155299013,49.24500273094575L-21.17614169522331,40.67601066191431z" style="fill:rgb(127,37,217)"/><path d="M77.59683529518546,-13.227793274621831L80.30884099769695,-0.7964779460372631L78.99793036983289,-17.778005227862188zM94.25326316610749,-33.65022495610769L104.08516240798134,7.209191055822595L99.76287925134163,-36.32402064786038zM78.25034532353956,-4.571054106776708L77.59683529518546,-13.227793274621831L77.3398275684016,-8.769243390379456z" style="fill:rgb(83,212,212)"/><path d="M-21.096227654447922,36.593567470253625L-25.618253228632053,32.69743841941049L-21.17614169522331,40.67601066191431z" style="fill:rgb(247,158,158)"/><path d="M81.86230294569516,3.682408155473241L77.3398275684016,-8.769243390379456L78.25034532353956,-4.571054106776708z" style="fill:rgb(246,167,149)"/><path d="M99.76287925134163,-36.32402064786038L110.25679809630006,6.128003483630215L105.5838306879628,-38.25692518765249z" style="fill:rgb(83,212,212)"/><path d="M83.92057159082945,7.463829045536062L78.25034532353956,-4.571054106776708L81.86230294569516,3.682408155473241z" style="fill:rgb(12,71,124)"/><path d="M105.5838306879628,-38.25692518765249L116.35281188755734,4.152093981855896L111.50741139827768,-39.37711911347683z" style="fill:rgb(83,212,212)"/><path d="M-25.618253228632053,32.69743841941049L-21.096227654447922,36.593567470253625L-25.520807928221217,28.61292335861094z" style="fill:rgb(247,158,158)"/><path d="M77.59683529518546,-13.227793274621831L78.25034532353956,-4.571054106776708L80.30884099769695,-0.7964779460372631zM111.50741139827768,-39.37711911347683L122.12259644194447,1.359826126521421L117.31964936734583,-39.63962704702027z" style="fill:rgb(83,212,212)"/><path d="M-21.096227654447922,36.593567470253625L21.51248367999507,16.764800166445994L-25.520807928221217,28.61292335861094z" style="fill:rgb(127,37,217)"/><path d="M78.25034532353956,-4.571054106776708L83.92057159082945,7.463829045536062L80.30884099769695,-0.7964779460372631z" style="fill:rgb(12,71,124)"/><path d="M117.31964936734583,-39.63962704702027L127.3289408458749,-2.1344615453950637L122.80754081841931,-39.02830536062795zM78.99793036983289,-17.778005227862188L80.30884099769695,-0.7964779460372631L83.45118844010601,2.403148339870187z" style="fill:rgb(83,212,212)"/><path d="M87.05386248062527,10.674479205316423L80.30884099769695,-0.7964779460372631L83.92057159082945,7.463829045536062z" style="fill:rgb(21,57,142)"/><path d="M21.51248367999507,16.764800166445994L-21.096227654447922,36.593567470253625L25.61353765451094,24.932482563070536z" style="fill:rgb(127,37,217)"/><path d="M122.80754081841931,-39.02830536062795L131.7596127721856,-6.185976399971672L127.76565324996011,-37.557284533343456z" style="fill:rgb(83,212,212)"/><path d="M137.6695938762912,-28.59176515243274L142.02155537573287,-15.938654186188495L140.83175033404333,-20.097749095895004z" style="fill:rgb(246,167,149)"/><path d="M81.47951559426414,-22.25174052181944L83.45118844010601,2.403148339870187L87.5688683996196,4.895089568772757zM-119.72626548620018,56.87544938162401L-127.40004731110524,127.25058361665361L-122.56842564075494,122.99821132137853zM-127.40004731110524,127.25058361665361L-121.64111567806772,55.27365322983936L-129.95599548961752,130.2183276832509zM127.76565324996011,-37.557284533343456L135.237469679185,-10.626732306529584L132.00315264612306,-35.271760474446914zM-111.157529111069,59.56902245543194L-122.56842564075494,122.99821132137853L-117.20266806238374,119.42819488777357zM84.94167157436061,-26.48682688833186L87.5688683996196,4.895089568772757L92.51115115602961,6.571755516983978z" style="fill:rgb(83,212,212)"/><path d="M80.30884099769695,-0.7964779460372631L87.05386248062527,10.674479205316423L83.45118844010601,2.403148339870187z" style="fill:rgb(21,57,142)"/><path d="M91.15379663349769,13.181326603056922L83.45118844010601,2.403148339870187L87.05386248062527,10.674479205316423z" style="fill:rgb(34,46,160)"/><path d="M-105.99663323768233,59.561566597413325L-117.20266806238374,119.42819488777357L-111.49593550648669,116.66680568170685zM132.00315264612306,-35.271760474446914L137.62831690037953,-15.273980763128923L135.35107227573266,-32.24792240382709zM-100.51714943397772,58.62970563648781L-111.49593550648669,116.66680568170685L-105.6523431579641,114.81325816593115zM89.25255536403566,-30.331827912061563L92.51115115602961,6.571755516983978L98.08965010041126,7.356644800256272z" style="fill:rgb(83,212,212)"/><path d="M142.02155537573287,-15.938654186188495L137.6695938762912,-28.59176515243274L138.85505145287843,-24.436605565561777z" style="fill:rgb(246,167,149)"/><path d="M-94.94107045276635,56.806522231609364L-105.6523431579641,114.81325816593115L-99.88132882524475,113.93694980412583z" style="fill:rgb(83,212,212)"/><path d="M142.02155537573287,-15.938654186188495L138.8460613371688,-19.939143965411308L142.02560671220792,-11.442386391037228z" style="fill:rgb(246,149,167)"/><path d="M94.25326316610749,-33.65022495610769L98.08965010041126,7.356644800256272L104.08516240798134,7.209191055822595zM135.35107227573266,-32.24792240382709L137.62831690037953,-15.273980763128923L137.6695938762912,-28.59176515243274zM-89.4963642847325,54.16402296596835L-99.88132882524475,113.93694980412583L-94.39174766725058,114.07504925934461z" style="fill:rgb(83,212,212)"/><path d="M83.45118844010601,2.403148339870187L91.15379663349769,13.181326603056922L87.5688683996196,4.895089568772757z" style="fill:rgb(34,46,160)"/><path d="M96.07018371786432,14.876333343836986L87.5688683996196,4.895089568772757L91.15379663349769,13.181326603056922z" style="fill:rgb(51,38,177)"/><path d="M138.8460613371688,-19.939143965411308L142.02155537573287,-15.938654186188495L138.85505145287843,-24.436605565561777z" style="fill:rgb(246,149,167)"/><path d="M99.76287925134163,-36.32402064786038L104.08516240798134,7.209191055822595L110.25679809630006,6.128003483630215zM137.6695938762912,-28.59176515243274L138.8460613371688,-19.939143965411308L138.85505145287843,-24.436605565561777zM-84.40607267557648,50.810054294958405L-94.39174766725058,114.07504925934461L-89.38579116547851,115.23062134205199zM105.5838306879628,-38.25692518765249L110.25679809630006,6.128003483630215L116.35281188755734,4.152093981855896zM78.99793036983289,-17.778005227862188L-77.3929300428082,133.9051392786237L77.59683529518546,-13.227793274621831z" style="fill:rgb(83,212,212)"/><path d="M142.02560671220792,-11.442386391037228L137.62831690037953,-15.273980763128923L140.8293029241062,-6.783550676300618z" style="fill:rgb(242,130,183)"/><path d="M111.50741139827768,-39.37711911347683L116.35281188755734,4.152093981855896L122.12259644194447,1.359826126521421zM132.00315264612306,-35.271760474446914L135.237469679185,-10.626732306529584L137.62831690037953,-15.273980763128923zM117.31964936734583,-39.63962704702027L122.12259644194447,1.359826126521421L127.3289408458749,-2.1344615453950637zM-79.87749521929402,46.883158086733694L-89.38579116547851,115.23062134205199L-85.05251504266785,117.3713565128075zM127.76565324996011,-37.557284533343456L131.7596127721856,-6.185976399971672L135.237469679185,-10.626732306529584zM122.80754081841931,-39.02830536062795L127.3289408458749,-2.1344615453950637L131.7596127721856,-6.185976399971672zM137.6695938762912,-28.59176515243274L137.62831690037953,-15.273980763128923L138.8460613371688,-19.939143965411308z" style="fill:rgb(83,212,212)"/><path d="M87.5688683996196,4.895089568772757L96.07018371786432,14.876333343836986L92.51115115602961,6.571755516983978z" style="fill:rgb(51,38,177)"/><path d="M137.62831690037953,-15.273980763128923L142.02560671220792,-11.442386391037228L138.8460613371688,-19.939143965411308z" style="fill:rgb(242,130,183)"/><path d="M77.59683529518546,-13.227793274621831L-77.3929300428082,133.9051392786237L77.3398275684016,-8.769243390379456z" style="fill:rgb(83,212,212)"/><path d="M98.08965010041126,7.356644800256272L96.07018371786432,14.876333343836986L101.61555043234841,15.682400636612602z" style="fill:rgb(71,33,192)"/><path d="M25.71169373721708,29.01779139400143L57.740075043486065,11.782870909728185L21.59558862960583,20.8515073245459zM57.740075043486065,11.782870909728185L25.71169373721708,29.01779139400143L61.600722100308936,20.09432327509866z" style="fill:rgb(127,37,217)"/><path d="M-76.0923797237844,42.545700239510175L-85.05251504266785,117.3713565128075L-81.56117601636728,120.4290459183694z" style="fill:rgb(83,212,212)"/><path d="M140.8293029241062,-6.783550676300618L135.237469679185,-10.626732306529584L138.46761561640915,-2.1475151553446326z" style="fill:rgb(233,112,197)"/><path d="M96.07018371786432,14.876333343836986L98.08965010041126,7.356644800256272L92.51115115602961,6.571755516983978z" style="fill:rgb(71,33,192)"/><path d="M57.740075043486065,11.782870909728185L21.51248367999507,16.764800166445994L21.59558862960583,20.8515073245459z" style="fill:rgb(83,212,212)"/><path d="M-111.49593550648669,116.66680568170685L-111.93752821202104,126.86018135187541L-106.27596383307436,124.12222952726255z" style="fill:rgb(162,50,222)"/><path d="M61.36349254721533,16.007512028622884L57.740075043486065,11.782870909728185L61.600722100308936,20.09432327509866z" style="fill:rgb(247,158,158)"/><path d="M-117.20266806238374,119.42819488777357L-117.25617007739078,130.40681961553128L-111.93752821202104,126.86018135187541z" style="fill:rgb(183,62,221)"/><path d="M135.237469679185,-10.626732306529584L140.8293029241062,-6.783550676300618L137.62831690037953,-15.273980763128923z" style="fill:rgb(233,112,197)"/><path d="M104.08516240798134,7.209191055822595L101.61555043234841,15.682400636612602L107.57203045529775,15.55821828187102z" style="fill:rgb(92,32,204)"/><path d="M-73.19871410365792,37.97579155747822L-81.56117601636728,120.4290459183694L-79.05440887852232,124.30020688879087z" style="fill:rgb(83,212,212)"/><path d="M-105.6523431579641,114.81325816593115L-106.27596383307436,124.12222952726255L-100.47409592519406,122.29139488995142z" style="fill:rgb(139,40,220)"/><path d="M138.46761561640915,-2.1475151553446326L131.7596127721856,-6.185976399971672L135.02557373391576,2.277634505596456z" style="fill:rgb(220,94,208)"/><path d="M57.740075043486065,11.782870909728185L61.36349254721533,16.007512028622884L57.5159108313804,7.695202664694979z" style="fill:rgb(247,158,158)"/><path d="M-117.25617007739078,130.40681961553128L-127.40004731110524,127.25058361665361L-122.04030908777982,134.63662329621744z" style="fill:rgb(203,77,216)"/><path d="M101.61555043234841,15.682400636612602L104.08516240798134,7.209191055822595L98.08965010041126,7.356644800256272z" style="fill:rgb(92,32,204)"/><path d="M-99.88132882524475,113.93694980412583L-100.47409592519406,122.29139488995142L-94.73996842574736,121.43627099933366z" style="fill:rgb(115,34,214)"/><path d="M-111.93752821202104,126.86018135187541L-111.49593550648669,116.66680568170685L-117.20266806238374,119.42819488777357z" style="fill:rgb(162,50,222)"/><path d="M110.25679809630006,6.128003483630215L107.57203045529775,15.55821828187102L113.7003191239765,14.50152154380371z" style="fill:rgb(115,34,214)"/><path d="M-71.30474446385992,33.35863006945953L-79.05440887852232,124.30020688879087L-77.6416397946921,128.84790047511308z" style="fill:rgb(83,212,212)"/><path d="M-117.25617007739078,130.40681961553128L-117.20266806238374,119.42819488777357L-122.56842564075494,122.99821132137853z" style="fill:rgb(183,62,221)"/><path d="M-106.27596383307436,124.12222952726255L-105.6523431579641,114.81325816593115L-111.49593550648669,116.66680568170685z" style="fill:rgb(139,40,220)"/><path d="M-122.04030908777982,134.63662329621744L-129.95599548961752,130.2183276832509L-124.56761316059686,137.59133325120965z" style="fill:rgb(220,94,208)"/><path d="M135.02557373391576,2.277634505596456L127.3289408458749,-2.1344615453950637L130.63595306407151,6.309851922025548z" style="fill:rgb(203,77,216)"/><path d="M131.7596127721856,-6.185976399971672L138.46761561640915,-2.1475151553446326L135.237469679185,-10.626732306529584z" style="fill:rgb(220,94,208)"/><path d="M-127.40004731110524,127.25058361665361L-117.25617007739078,130.40681961553128L-122.56842564075494,122.99821132137853z" style="fill:rgb(203,77,216)"/><path d="M116.35281188755734,4.152093981855896L113.7003191239765,14.50152154380371L119.750576348167,12.550347356994004z" style="fill:rgb(139,40,220)"/><path d="M127.3289408458749,-2.1344615453950637L125.47418386079498,9.782024777132783L130.63595306407151,6.309851922025548z" style="fill:rgb(183,62,221)"/><path d="M-100.47409592519406,122.29139488995142L-99.88132882524475,113.93694980412583L-105.6523431579641,114.81325816593115z" style="fill:rgb(115,34,214)"/><path d="M122.12259644194447,1.359826126521421L119.750576348167,12.550347356994004L125.47418386079498,9.782024777132783z" style="fill:rgb(162,50,222)"/><path d="M107.57203045529775,15.55821828187102L110.25679809630006,6.128003483630215L104.08516240798134,7.209191055822595z" style="fill:rgb(115,34,214)"/><path d="M-70.47530154689379,28.877911675231648L-77.6416397946921,128.84790047511308L-77.3929300428082,133.9051392786237z" style="fill:rgb(83,212,212)"/><path d="M-94.39174766725058,114.07504925934461L-94.73996842574736,121.43627099933366L-89.28120010441665,121.59322536687563z" style="fill:rgb(92,32,204)"/><path d="M127.3289408458749,-2.1344615453950637L135.02557373391576,2.277634505596456L131.7596127721856,-6.185976399971672z" style="fill:rgb(203,77,216)"/><path d="M-129.95599548961752,130.2183276832509L-122.04030908777982,134.63662329621744L-127.40004731110524,127.25058361665361z" style="fill:rgb(220,94,208)"/><path d="M113.7003191239765,14.50152154380371L116.35281188755734,4.152093981855896L110.25679809630006,6.128003483630215z" style="fill:rgb(139,40,220)"/><path d="M-94.73996842574736,121.43627099933366L-94.39174766725058,114.07504925934461L-99.88132882524475,113.93694980412583z" style="fill:rgb(92,32,204)"/><path d="M125.47418386079498,9.782024777132783L127.3289408458749,-2.1344615453950637L122.12259644194447,1.359826126521421z" style="fill:rgb(183,62,221)"/><path d="M119.750576348167,12.550347356994004L122.12259644194447,1.359826126521421L116.35281188755734,4.152093981855896z" style="fill:rgb(162,50,222)"/><path d="M-89.38579116547851,115.23062134205199L-89.28120010441665,121.59322536687563L-84.29886328879866,122.7645472939962z" style="fill:rgb(71,33,192)"/><path d="M-25.520807928221217,28.61292335861094L22.75804274803464,78.01546340921911L21.51248367999507,16.764800166445994z" style="fill:rgb(83,212,212)"/><path d="M-89.28120010441665,121.59322536687563L-89.38579116547851,115.23062134205199L-94.39174766725058,114.07504925934461z" style="fill:rgb(71,33,192)"/><path d="M-79.98110702624491,124.91721910531525L-89.38579116547851,115.23062134205199L-84.29886328879866,122.7645472939962z" style="fill:rgb(51,38,177)"/><path d="M22.75804274803464,78.01546340921911L25.61353765451094,24.932482563070536L21.51248367999507,16.764800166445994z" style="fill:rgb(247,158,158)"/><path d="M77.3398275684016,-8.769243390379456L85.4903378686424,91.33372889105068L78.25034532353956,-4.571054106776708z" style="fill:rgb(83,212,212)"/><path d="M-89.38579116547851,115.23062134205199L-79.98110702624491,124.91721910531525L-85.05251504266785,117.3713565128075z" style="fill:rgb(51,38,177)"/><path d="M-76.49648705982914,127.98242736320347L-85.05251504266785,117.3713565128075L-79.98110702624491,124.91721910531525z" style="fill:rgb(34,46,160)"/><path d="M78.25034532353956,-4.571054106776708L85.4903378686424,91.33372889105068L80.30884099769695,-0.7964779460372631zM80.30884099769695,-0.7964779460372631L89.70794165474383,80.64105054455833L83.45118844010601,2.403148339870187zM-127.40004731110524,127.25058361665361L-131.51128967528618,164.9541949445284L-122.56842564075494,122.99821132137853zM83.45118844010601,2.403148339870187L93.49789717864874,75.717451989523L87.5688683996196,4.895089568772757z" style="fill:rgb(83,212,212)"/><path d="M-85.05251504266785,117.3713565128075L-76.49648705982914,127.98242736320347L-81.56117601636728,120.4290459183694z" style="fill:rgb(34,46,160)"/><path d="M-81.56117601636728,120.4290459183694L-73.98721995911377,131.85623344396637L-76.49648705982914,127.98242736320347z" style="fill:rgb(233,197,112)"/><path d="M-131.5208767942419,132.03531796566247L-131.51128967528618,164.9541949445284L-127.40004731110524,127.25058361665361zM-134.77619984633657,137.1825393917521L-134.84083976887965,161.64902913268236L-131.5208767942419,132.03531796566247zM-122.56842564075494,122.99821132137853L-122.1815423285012,168.72918410688783L-117.20266806238374,119.42819488777357zM87.5688683996196,4.895089568772757L98.22781521303251,71.31295217796334L92.51115115602961,6.571755516983978zM-137.0386342877093,142.50694867865747L-137.10879668200644,157.57557790657128L-134.77619984633657,137.1825393917521zM-117.20266806238374,119.42819488777357L-116.53815408623245,169.02563617319296L-111.49593550648669,116.66680568170685zM-111.49593550648669,116.66680568170685L-116.53815408623245,169.02563617319296L-105.6523431579641,114.81325816593115zM-138.24210916606268,152.90154529761975L-137.0386342877093,142.50694867865747L-138.21319161581712,147.813117174015zM92.51115115602961,6.571755516983978L103.72404453410587,67.58228901984134L98.08965010041126,7.356644800256272zM-105.6523431579641,114.81325816593115L-104.41223327438188,166.33351291515675L-99.88132882524475,113.93694980412583z" style="fill:rgb(83,212,212)"/><path d="M-73.98721995911377,131.85623344396637L-81.56117601636728,120.4290459183694L-79.05440887852232,124.30020688879087z" style="fill:rgb(233,197,112)"/><path d="M-79.05440887852232,124.30020688879087L-72.56257549405208,136.40143294407207L-73.98721995911377,131.85623344396637z" style="fill:rgb(242,183,130)"/><path d="M22.75804274803464,78.01546340921911L-25.520807928221217,28.61292335861094L-26.980385246311656,89.79253400178483zM98.08965010041126,7.356644800256272L109.7889708280829,64.6568591941877L104.08516240798134,7.209191055822595zM-137.0386342877093,142.50694867865747L-138.24210916606268,152.90154529761975L-137.10879668200644,157.57557790657128zM-99.88132882524475,113.93694980412583L-98.42586735423606,163.445697504321L-94.39174766725058,114.07504925934461zM104.08516240798134,7.209191055822595L116.20667832271934,62.641352368265856L110.25679809630006,6.128003483630215zM-94.39174766725058,114.07504925934461L-92.82121225135755,159.67326765609823L-89.38579116547851,115.23062134205199zM-134.77619984633657,137.1825393917521L-137.10879668200644,157.57557790657128L-134.84083976887965,161.64902913268236z" style="fill:rgb(83,212,212)"/><path d="M25.61353765451094,24.932482563070536L22.75804274803464,78.01546340921911L27.08404655592029,86.13585208704707zM143.71462247081757,66.53959892433896L137.1644038841256,-0.4720733677163393L133.92070152285916,-8.945402148729004z" style="fill:rgb(247,158,158)"/><path d="M110.25679809630006,6.128003483630215L122.74876269879661,61.61084394070972L116.35281188755734,4.152093981855896z" style="fill:rgb(83,212,212)"/><path d="M-72.56257549405208,136.40143294407207L-79.05440887852232,124.30020688879087L-77.6416397946921,128.84790047511308z" style="fill:rgb(242,183,130)"/><path d="M-89.38579116547851,115.23062134205199L-87.82781343947053,155.1733025233591L-85.05251504266785,117.3713565128075z" style="fill:rgb(83,212,212)"/><path d="M-77.6416397946921,128.84790047511308L-72.29281472496224,141.45099947669422L-72.56257549405208,136.40143294407207z" style="fill:rgb(246,167,149)"/><path d="M-131.5208767942419,132.03531796566247L-134.84083976887965,161.64902913268236L-131.51128967528618,164.9541949445284zM116.35281188755734,4.152093981855896L129.18050153037217,61.60830320845076L122.12259644194447,1.359826126521421zM-122.56842564075494,122.99821132137853L-131.51128967528618,164.9541949445284L-127.23816869315694,167.34990698244854zM122.12259644194447,1.359826126521421L135.2674607287236,62.64249625782162L127.3289408458749,-2.1344615453950637zM-85.05251504266785,117.3713565128075L-87.82781343947053,155.1733025233591L-81.56117601636728,120.4290459183694zM131.7596127721856,-6.185976399971672L143.71462247081757,66.53959892433896L133.92070152285916,-8.945402148729004zM127.3289408458749,-2.1344615453950637L140.78255728175054,64.68644416349714L131.7596127721856,-6.185976399971672z" style="fill:rgb(83,212,212)"/><path d="M-125.94575768410854,172.262261695297L-134.84083976887965,161.64902913268236L-129.27200373324297,168.95257895903973z" style="fill:rgb(34,46,160)"/><path d="M-81.56117601636728,120.4290459183694L-80.44245041369165,144.76265286621427L-79.05440887852232,124.30020688879087zM77.3398275684016,-8.769243390379456L-77.3929300428082,133.9051392786237L85.24231744861079,96.71476556142896z" style="fill:rgb(83,212,212)"/><path d="M-72.29281472496224,141.45099947669422L-77.6416397946921,128.84790047511308L-77.3929300428082,133.9051392786237z" style="fill:rgb(246,167,149)"/><path d="M-122.56842564075494,122.99821132137853L-127.23816869315694,167.34990698244854L-122.1815423285012,168.72918410688783z" style="fill:rgb(83,212,212)"/><path d="M-72.29281472496224,141.45099947669422L-78.3339414048153,139.28002685318424L-73.20418684081116,146.81324762169217z" style="fill:rgb(246,149,167)"/><path d="M-117.20266806238374,119.42819488777357L-122.1815423285012,168.72918410688783L-116.53815408623245,169.02563617319296zM-79.05440887852232,124.30020688879087L-80.44245041369165,144.76265286621427L-77.6416397946921,128.84790047511308z" style="fill:rgb(83,212,212)"/><path d="M-134.84083976887965,161.64902913268236L-125.94575768410854,172.262261695297L-131.51128967528618,164.9541949445284z" style="fill:rgb(34,46,160)"/><path d="M-121.68612761089744,174.6671722324047L-131.51128967528618,164.9541949445284L-125.94575768410854,172.262261695297z" style="fill:rgb(51,38,177)"/><path d="M-78.3339414048153,139.28002685318424L-72.29281472496224,141.45099947669422L-77.3929300428082,133.9051392786237z" style="fill:rgb(246,149,167)"/><path d="M-128.8625058844626,166.43922976003068L-128.51092020599856,174.9044550341384L-123.30530272864365,173.75301745896863z" style="fill:rgb(127,37,217)"/><path d="M-105.6523431579641,114.81325816593115L-116.53815408623245,169.02563617319296L-110.53357036398104,168.2181890120094zM-77.6416397946921,128.84790047511308L-78.3339414048153,139.28002685318424L-77.3929300428082,133.9051392786237zM-105.6523431579641,114.81325816593115L-110.53357036398104,168.2181890120094L-104.41223327438188,166.33351291515675z" style="fill:rgb(83,212,212)"/><path d="M-73.20418684081116,146.81324762169217L-80.44245041369165,144.76265286621427L-75.27540364229488,152.27873518142766z" style="fill:rgb(242,130,183)"/><path d="M-128.51092020599856,174.9044550341384L-128.8625058844626,166.43922976003068L-134.10450258793443,167.6101450775693z" style="fill:rgb(127,37,217)"/><path d="M-99.88132882524475,113.93694980412583L-104.41223327438188,166.33351291515675L-98.42586735423606,163.445697504321zM-81.56117601636728,120.4290459183694L-83.64695890393719,150.1335185369368L-80.44245041369165,144.76265286621427zM-134.10450258793443,167.6101450775693L-131.51128967528618,164.9541949445284L-133.58179789589192,162.8988465002147zM-94.39174766725058,114.07504925934461L-98.42586735423606,163.445697504321L-92.82121225135755,159.67326765609823zM-89.38579116547851,115.23062134205199L-92.82121225135755,159.67326765609823L-87.82781343947053,155.1733025233591zM-77.6416397946921,128.84790047511308L-80.44245041369165,144.76265286621427L-78.3339414048153,139.28002685318424z" style="fill:rgb(83,212,212)"/><path d="M-131.51128967528618,164.9541949445284L-121.68612761089744,174.6671722324047L-127.23816869315694,167.34990698244854z" style="fill:rgb(51,38,177)"/><path d="M-22.292710699055096,97.71644124581067L22.75804274803464,78.01546340921911L-26.980385246311656,89.79253400178483z" style="fill:rgb(127,37,217)"/><path d="M-80.44245041369165,144.76265286621427L-73.20418684081116,146.81324762169217L-78.3339414048153,139.28002685318424z" style="fill:rgb(242,130,183)"/><path d="M-122.1815423285012,168.72918410688783L-121.68612761089744,174.6671722324047L-116.65279413959392,176.06014158288514z" style="fill:rgb(71,33,192)"/><path d="M-81.56117601636728,120.4290459183694L-87.82781343947053,155.1733025233591L-83.64695890393719,150.1335185369368zM87.5688683996196,4.895089568772757L93.49789717864874,75.717451989523L98.22781521303251,71.31295217796334zM-131.51128967528618,164.9541949445284L-134.10450258793443,167.6101450775693L-128.8625058844626,166.43922976003068zM83.45118844010601,2.403148339870187L89.70794165474383,80.64105054455833L93.49789717864874,75.717451989523z" style="fill:rgb(83,212,212)"/><path d="M22.75804274803464,78.01546340921911L-22.292710699055096,97.71644124581067L27.08404655592029,86.13585208704707z" style="fill:rgb(127,37,217)"/><path d="M92.51115115602961,6.571755516983978L98.22781521303251,71.31295217796334L103.72404453410587,67.58228901984134zM80.30884099769695,-0.7964779460372631L87.00222218404055,85.90954058809236L89.70794165474383,80.64105054455833z" style="fill:rgb(83,212,212)"/><path d="M-75.27540364229488,152.27873518142766L-83.64695890393719,150.1335185369368L-78.43630063685254,157.62867601420953z" style="fill:rgb(233,112,197)"/><path d="M98.08965010041126,7.356644800256272L103.72404453410587,67.58228901984134L109.7889708280829,64.6568591941877z" style="fill:rgb(83,212,212)"/><path d="M-121.68612761089744,174.6671722324047L-122.1815423285012,168.72918410688783L-127.23816869315694,167.34990698244854z" style="fill:rgb(71,33,192)"/><path d="M-83.64695890393719,150.1335185369368L-75.27540364229488,152.27873518142766L-80.44245041369165,144.76265286621427z" style="fill:rgb(233,112,197)"/><path d="M104.08516240798134,7.209191055822595L109.7889708280829,64.6568591941877L116.20667832271934,62.641352368265856z" style="fill:rgb(83,212,212)"/><path d="M-116.53815408623245,169.02563617319296L-116.65279413959392,176.06014158288514L-111.04163773760965,176.3743840312741z" style="fill:rgb(92,32,204)"/><path d="M80.30884099769695,-0.7964779460372631L85.4903378686424,91.33372889105068L87.00222218404055,85.90954058809236zM85.4903378686424,91.33372889105068L77.3398275684016,-8.769243390379456L85.24231744861079,96.71476556142896z" style="fill:rgb(83,212,212)"/><path d="M-78.43630063685254,157.62867601420953L-87.82781343947053,155.1733025233591L-82.56892445164522,162.64467132770267z" style="fill:rgb(220,94,208)"/><path d="M110.25679809630006,6.128003483630215L116.20667832271934,62.641352368265856L122.74876269879661,61.61084394070972z" style="fill:rgb(83,212,212)"/><path d="M-116.65279413959392,176.06014158288514L-116.53815408623245,169.02563617319296L-122.1815423285012,168.72918410688783z" style="fill:rgb(92,32,204)"/><path d="M-110.53357036398104,168.2181890120094L-111.04163773760965,176.3743840312741L-105.07690937583025,175.58821470445474z" style="fill:rgb(115,34,214)"/><path d="M-82.56892445164522,162.64467132770267L-92.82121225135755,159.67326765609823L-87.5114197318311,167.11906303175334z" style="fill:rgb(203,77,216)"/><path d="M-87.82781343947053,155.1733025233591L-78.43630063685254,157.62867601420953L-83.64695890393719,150.1335185369368z" style="fill:rgb(220,94,208)"/><path d="M116.35281188755734,4.152093981855896L122.74876269879661,61.61084394070972L129.18050153037217,61.60830320845076z" style="fill:rgb(83,212,212)"/><path d="M-104.41223327438188,166.33351291515675L-105.07690937583025,175.58821470445474L-99.00133806913449,173.72748783032455z" style="fill:rgb(139,40,220)"/><path d="M-92.82121225135755,159.67326765609823L-93.06466297597751,170.86530172272444L-87.5114197318311,167.11906303175334z" style="fill:rgb(183,62,221)"/><path d="M-98.42586735423606,163.445697504321L-99.00133806913449,173.72748783032455L-93.06466297597751,170.86530172272444z" style="fill:rgb(162,50,222)"/><path d="M-111.04163773760965,176.3743840312741L-110.53357036398104,168.2181890120094L-116.53815408623245,169.02563617319296z" style="fill:rgb(115,34,214)"/><path d="M137.1644038841256,-0.4720733677163393L143.71462247081757,66.53959892433896L147.10876512748393,74.97422333435895z" style="fill:rgb(247,158,158)"/><path d="M-92.82121225135755,159.67326765609823L-82.56892445164522,162.64467132770267L-87.82781343947053,155.1733025233591z" style="fill:rgb(203,77,216)"/><path d="M122.12259644194447,1.359826126521421L129.18050153037217,61.60830320845076L135.2674607287236,62.64249625782162z" style="fill:rgb(83,212,212)"/><path d="M-105.07690937583025,175.58821470445474L-104.41223327438188,166.33351291515675L-110.53357036398104,168.2181890120094z" style="fill:rgb(139,40,220)"/><path d="M-93.06466297597751,170.86530172272444L-92.82121225135755,159.67326765609823L-98.42586735423606,163.445697504321z" style="fill:rgb(183,62,221)"/><path d="M-99.00133806913449,173.72748783032455L-98.42586735423606,163.445697504321L-104.41223327438188,166.33351291515675z" style="fill:rgb(162,50,222)"/><path d="M127.3289408458749,-2.1344615453950637L135.2674607287236,62.64249625782162L140.78255728175054,64.68644416349714zM131.7596127721856,-6.185976399971672L140.78255728175054,64.68644416349714L143.71462247081757,66.53959892433896z" style="fill:rgb(83,212,212)"/><path d="M109.7889708280829,64.6568591941877L107.40281064234539,75.86975093297939L113.41674861870331,72.97060401940465z" style="fill:rgb(162,50,222)"/><path d="M103.72404453410587,67.58228901984134L101.95622114334228,79.57502101965832L107.40281064234539,75.86975093297939z" style="fill:rgb(183,62,221)"/><path d="M116.20667832271934,62.641352368265856L113.41674861870331,72.97060401940465L119.78374979626389,70.98140046285052z" style="fill:rgb(139,40,220)"/><path d="M101.95622114334228,79.57502101965832L93.49789717864874,75.717451989523L97.27290543962971,83.95582763705657z" style="fill:rgb(203,77,216)"/><path d="M122.74876269879661,61.61084394070972L119.78374979626389,70.98140046285052L126.27710722643681,69.97629412492662z" style="fill:rgb(115,34,214)"/><path d="M107.40281064234539,75.86975093297939L109.7889708280829,64.6568591941877L103.72404453410587,67.58228901984134z" style="fill:rgb(162,50,222)"/><path d="M101.95622114334228,79.57502101965832L103.72404453410587,67.58228901984134L98.22781521303251,71.31295217796334z" style="fill:rgb(183,62,221)"/><path d="M113.41674861870331,72.97060401940465L116.20667832271934,62.641352368265856L109.7889708280829,64.6568591941877z" style="fill:rgb(139,40,220)"/><path d="M97.27290543962971,83.95582763705657L89.70794165474383,80.64105054455833L93.52491140623408,88.85816648785442z" style="fill:rgb(220,94,208)"/><path d="M93.49789717864874,75.717451989523L101.95622114334228,79.57502101965832L98.22781521303251,71.31295217796334z" style="fill:rgb(203,77,216)"/><path d="M119.78374979626389,70.98140046285052L122.74876269879661,61.61084394070972L116.20667832271934,62.641352368265856z" style="fill:rgb(115,34,214)"/><path d="M-78.3339414048153,139.28002685318424L100.09891425148517,115.29537181154697L-77.3929300428082,133.9051392786237z" style="fill:rgb(83,212,212)"/><path d="M129.18050153037217,61.60830320845076L126.27710722643681,69.97629412492662L132.66370927494833,69.99730528778969z" style="fill:rgb(92,32,204)"/><path d="M89.70794165474383,80.64105054455833L97.27290543962971,83.95582763705657L93.49789717864874,75.717451989523z" style="fill:rgb(220,94,208)"/><path d="M93.52491140623408,88.85816648785442L87.19724509155176,85.5297908868306L91.04740392891392,93.73005971928839z" style="fill:rgb(233,112,197)"/><path d="M126.27710722643681,69.97629412492662L129.18050153037217,61.60830320845076L122.74876269879661,61.61084394070972z" style="fill:rgb(92,32,204)"/><path d="M-80.44245041369165,144.76265286621427L100.09891425148517,115.29537181154697L-78.3339414048153,139.28002685318424z" style="fill:rgb(83,212,212)"/><path d="M91.04740392891392,93.73005971928839L87.00222218404055,85.90954058809236L90.85496453344327,94.10849004358082z" style="fill:rgb(233,112,197)"/><path d="M135.2674607287236,62.64249625782162L132.66370927494833,69.99730528778969L138.71068212084546,71.05225473821886z" style="fill:rgb(71,33,192)"/><path d="M87.19724509155176,85.5297908868306L93.52491140623408,88.85816648785442L89.70794165474383,80.64105054455833z" style="fill:rgb(233,112,197)"/><path d="M-83.64695890393719,150.1335185369368L100.09891425148517,115.29537181154697L-80.44245041369165,144.76265286621427z" style="fill:rgb(83,212,212)"/><path d="M132.66370927494833,69.99730528778969L135.2674607287236,62.64249625782162L129.18050153037217,61.60830320845076z" style="fill:rgb(71,33,192)"/><path d="M-85.63539015538912,165.42071405450747L100.09891425148517,115.29537181154697L-90.92585088369287,157.96519679132848z" style="fill:rgb(127,37,217)"/><path d="M-77.3929300428082,133.9051392786237L86.28424555883795,101.85026497908753L85.24231744861079,96.71476556142896z" style="fill:rgb(83,212,212)"/><path d="M90.85496453344327,94.10849004358082L85.4903378686424,91.33372889105068L89.37124676456247,99.51818540893301z" style="fill:rgb(242,130,183)"/><path d="M144.1924061505291,73.11326176438186L135.2674607287236,62.64249625782162L138.71068212084546,71.05225473821886z" style="fill:rgb(51,38,177)"/><path d="M87.00222218404055,85.90954058809236L91.04740392891392,93.73005971928839L87.19724509155176,85.5297908868306z" style="fill:rgb(233,112,197)"/><path d="M-87.82781343947053,155.1733025233591L100.09891425148517,115.29537181154697L-83.64695890393719,150.1335185369368z" style="fill:rgb(83,212,212)"/><path d="M85.4903378686424,91.33372889105068L90.85496453344327,94.10849004358082L87.00222218404055,85.90954058809236z" style="fill:rgb(242,130,183)"/><path d="M100.09891425148517,115.29537181154697L-87.82781343947053,155.1733025233591L-90.92585088369287,157.96519679132848zM-77.3929300428082,133.9051392786237L88.59491880944775,106.54132924122388L86.28424555883795,101.85026497908753z" style="fill:rgb(83,212,212)"/><path d="M147.10876512748393,74.97422333435895L140.78255728175054,64.68644416349714L144.1924061505291,73.11326176438186z" style="fill:rgb(34,46,160)"/><path d="M89.37124676456247,99.51818540893301L85.24231744861079,96.71476556142896L89.14255217804114,104.88889892810079z" style="fill:rgb(246,149,167)"/><path d="M135.2674607287236,62.64249625782162L144.1924061505291,73.11326176438186L140.78255728175054,64.68644416349714z" style="fill:rgb(51,38,177)"/><path d="M85.24231744861079,96.71476556142896L89.37124676456247,99.51818540893301L85.4903378686424,91.33372889105068z" style="fill:rgb(246,149,167)"/><path d="M-77.3929300428082,133.9051392786237L92.10380654697629,110.6002777018387L88.59491880944775,106.54132924122388z" style="fill:rgb(83,212,212)"/><path d="M85.24231744861079,96.71476556142896L90.19398010191868,110.01864880959641L89.14255217804114,104.88889892810079z" style="fill:rgb(246,167,149)"/><path d="M140.78255728175054,64.68644416349714L147.10876512748393,74.97422333435895L143.71462247081757,66.53959892433896z" style="fill:rgb(34,46,160)"/><path d="M89.70794165474383,80.64105054455833L96.69097788895175,113.8588614724554L93.49789717864874,75.717451989523zM93.49789717864874,75.717451989523L102.18927759096404,116.17649922050299L98.22781521303251,71.31295217796334zM87.00222218404055,85.90954058809236L92.10380654697629,110.6002777018387L89.70794165474383,80.64105054455833zM-77.3929300428082,133.9051392786237L96.69097788895175,113.8588614724554L92.10380654697629,110.6002777018387zM98.22781521303251,71.31295217796334L108.38922428398992,117.44806592688917L103.72404453410587,67.58228901984134zM85.4903378686424,91.33372889105068L88.59491880944775,106.54132924122388L87.00222218404055,85.90954058809236zM103.72404453410587,67.58228901984134L115.04657485228327,117.61043662770696L109.7889708280829,64.6568591941877zM86.28424555883795,101.85026497908753L85.4903378686424,91.33372889105068L85.24231744861079,96.71476556142896z" style="fill:rgb(83,212,212)"/><path d="M90.19398010191868,110.01864880959641L85.24231744861079,96.71476556142896L86.28424555883795,101.85026497908753z" style="fill:rgb(246,167,149)"/><path d="M109.7889708280829,64.6568591941877L121.89256638460917,116.64722577384806L116.20667832271934,62.641352368265856z" style="fill:rgb(83,212,212)"/><path d="M92.5036620565049,114.70882779999211L86.28424555883795,101.85026497908753L90.19398010191868,110.01864880959641z" style="fill:rgb(12,71,124)"/><path d="M100.09891425148517,115.29537181154697L-85.63539015538912,165.42071405450747L103.9535864040743,123.48503259958684z" style="fill:rgb(127,37,217)"/><path d="M-77.3929300428082,133.9051392786237L100.09891425148517,115.29537181154697L96.69097788895175,113.8588614724554zM116.20667832271934,62.641352368265856L128.64619673853537,114.59113031628293L122.74876269879661,61.61084394070972zM85.4903378686424,91.33372889105068L86.28424555883795,101.85026497908753L88.59491880944775,106.54132924122388zM122.74876269879661,61.61084394070972L135.02788340683335,111.52337640057065L129.18050153037217,61.60830320845076z" style="fill:rgb(83,212,212)"/><path d="M86.28424555883795,101.85026497908753L92.5036620565049,114.70882779999211L88.59491880944775,106.54132924122388z" style="fill:rgb(12,71,124)"/><path d="M129.18050153037217,61.60830320845076L140.77344297454215,107.57036358435047L135.2674607287236,62.64249625782162zM87.00222218404055,85.90954058809236L88.59491880944775,106.54132924122388L92.10380654697629,110.6002777018387z" style="fill:rgb(83,212,212)"/><path d="M96.00079201861818,118.77193831921699L88.59491880944775,106.54132924122388L92.5036620565049,114.70882779999211z" style="fill:rgb(21,57,142)"/><path d="M135.2674607287236,62.64249625782162L145.64728448313846,102.89735454608594L140.78255728175054,64.68644416349714z" style="fill:rgb(83,212,212)"/><path d="M151.89904567053526,76.06224577296577L156.64239955234947,89.60144074853686L155.26066411835941,84.51072581371515z" style="fill:rgb(246,167,149)"/><path d="M89.70794165474383,80.64105054455833L92.10380654697629,110.6002777018387L96.69097788895175,113.8588614724554zM140.78255728175054,64.68644416349714L149.45384535290464,97.69999824993184L145.51370061664053,67.67666494515102zM93.49789717864874,75.717451989523L96.69097788895175,113.8588614724554L102.18927759096404,116.17649922050299z" style="fill:rgb(83,212,212)"/><path d="M88.59491880944775,106.54132924122388L96.00079201861818,118.77193831921699L92.10380654697629,110.6002777018387z" style="fill:rgb(21,57,142)"/><path d="M100.56561206535679,122.03974981483344L92.10380654697629,110.6002777018387L96.00079201861818,118.77193831921699z" style="fill:rgb(34,46,160)"/><path d="M145.51370061664053,67.67666494515102L152.04638026592656,92.19421174826473L149.27182086517476,71.51342058309712z" style="fill:rgb(83,212,212)"/><path d="M156.64239955234947,89.60144074853686L151.89904567053526,76.06224577296577L153.27671619789845,81.15709857170059z" style="fill:rgb(246,167,149)"/><path d="M98.22781521303251,71.31295217796334L102.18927759096404,116.17649922050299L108.38922428398992,117.44806592688917zM149.27182086517476,71.51342058309712L153.33254622109206,86.60527864333999L151.89904567053526,76.06224577296577z" style="fill:rgb(83,212,212)"/><path d="M156.64239955234947,89.60144074853686L153.33254622109206,86.60527864333999L156.71294733703786,95.03966324865603z" style="fill:rgb(246,149,167)"/><path d="M103.72404453410587,67.58228901984134L108.38922428398992,117.44806592688917L115.04657485228327,117.61043662770696z" style="fill:rgb(83,212,212)"/><path d="M92.10380654697629,110.6002777018387L100.56561206535679,122.03974981483344L96.69097788895175,113.8588614724554z" style="fill:rgb(34,46,160)"/><path d="M106.03163374417129,124.37150748057377L96.69097788895175,113.8588614724554L100.56561206535679,122.03974981483344z" style="fill:rgb(51,38,177)"/><path d="M153.33254622109206,86.60527864333999L156.64239955234947,89.60144074853686L153.27671619789845,81.15709857170059z" style="fill:rgb(246,149,167)"/><path d="M109.7889708280829,64.6568591941877L115.04657485228327,117.61043662770696L121.89256638460917,116.64722577384806zM151.89904567053526,76.06224577296577L153.33254622109206,86.60527864333999L153.27671619789845,81.15709857170059zM116.20667832271934,62.641352368265856L121.89256638460917,116.64722577384806L128.64619673853537,114.59113031628293zM149.27182086517476,71.51342058309712L152.04638026592656,92.19421174826473L153.33254622109206,86.60527864333999z" style="fill:rgb(83,212,212)"/><path d="M156.71294733703786,95.03966324865603L152.04638026592656,92.19421174826473L155.4518678726971,100.6131663636444z" style="fill:rgb(242,130,183)"/><path d="M122.74876269879661,61.61084394070972L128.64619673853537,114.59113031628293L135.02788340683335,111.52337640057065zM145.51370061664053,67.67666494515102L149.45384535290464,97.69999824993184L152.04638026592656,92.19421174826473zM129.18050153037217,61.60830320845076L135.02788340683335,111.52337640057065L140.77344297454215,107.57036358435047zM140.78255728175054,64.68644416349714L145.64728448313846,102.89735454608594L149.45384535290464,97.69999824993184zM135.2674607287236,62.64249625782162L140.77344297454215,107.57036358435047L145.64728448313846,102.89735454608594z" style="fill:rgb(83,212,212)"/><path d="M96.69097788895175,113.8588614724554L106.03163374417129,124.37150748057377L102.18927759096404,116.17649922050299z" style="fill:rgb(51,38,177)"/><path d="M152.04638026592656,92.19421174826473L156.71294733703786,95.03966324865603L153.33254622109206,86.60527864333999z" style="fill:rgb(242,130,183)"/><path d="M108.38922428398992,117.44806592688917L106.03163374417129,124.37150748057377L112.19051219749869,125.66172976261062z" style="fill:rgb(71,33,192)"/><path d="M155.4518678726971,100.6131663636444L149.45384535290464,97.69999824993184L152.8940254421757,106.09868987175415z" style="fill:rgb(233,112,197)"/><path d="M106.03163374417129,124.37150748057377L108.38922428398992,117.44806592688917L102.18927759096404,116.17649922050299z" style="fill:rgb(71,33,192)"/><path d="M149.45384535290464,97.69999824993184L155.4518678726971,100.6131663636444L152.04638026592656,92.19421174826473z" style="fill:rgb(233,112,197)"/><path d="M115.04657485228327,117.61043662770696L112.19051219749869,125.66172976261062L118.79966325096215,125.84671058286021z" style="fill:rgb(92,32,204)"/><path d="M152.8940254421757,106.09868987175415L145.64728448313846,102.89735454608594L149.13050609009684,111.27184503704427z" style="fill:rgb(220,94,208)"/><path d="M112.19051219749869,125.66172976261062L115.04657485228327,117.61043662770696L108.38922428398992,117.44806592688917z" style="fill:rgb(92,32,204)"/><path d="M121.89256638460917,116.64722577384806L118.79966325096215,125.84671058286021L125.59230502899999,124.90926332385075z" style="fill:rgb(115,34,214)"/><path d="M151.46931656953163,108.05703708666434L148.63387951198553,104.45395248964942L152.0991623769277,112.8355842410089z" style="fill:rgb(247,158,158)"/><path d="M149.13050609009684,111.27184503704427L140.77344297454215,107.57036358435047L144.30635529550926,115.91783255696159z" style="fill:rgb(203,77,216)"/><path d="M145.64728448313846,102.89735454608594L152.8940254421757,106.09868987175415L149.45384535290464,97.69999824993184z" style="fill:rgb(220,94,208)"/><path d="M128.64619673853537,114.59113031628293L125.59230502899999,124.90926332385075L132.28980093576942,122.88108170674236z" style="fill:rgb(139,40,220)"/><path d="M140.77344297454215,107.57036358435047L138.61504466235687,119.84222614433388L144.30635529550926,115.91783255696159z" style="fill:rgb(183,62,221)"/><path d="M148.63387951198553,104.45395248964942L146.13757521976748,114.15423425059043L152.0991623769277,112.8355842410089z" style="fill:rgb(127,37,217)"/><path d="M135.02788340683335,111.52337640057065L132.28980093576942,122.88108170674236L138.61504466235687,119.84222614433388z" style="fill:rgb(162,50,222)"/><path d="M148.63387951198553,104.45395248964942L151.46931656953163,108.05703708666434L148.01285178195874,99.66747889784686z" style="fill:rgb(247,158,158)"/><path d="M118.79966325096215,125.84671058286021L121.89256638460917,116.64722577384806L115.04657485228327,117.61043662770696z" style="fill:rgb(115,34,214)"/><path d="M140.77344297454215,107.57036358435047L149.13050609009684,111.27184503704427L145.64728448313846,102.89735454608594z" style="fill:rgb(203,77,216)"/><path d="M146.13757521976748,114.15423425059043L148.63387951198553,104.45395248964942L142.62354338542613,105.79650145618214z" style="fill:rgb(127,37,217)"/><path d="M125.59230502899999,124.90926332385075L128.64619673853537,114.59113031628293L121.89256638460917,116.64722577384806z" style="fill:rgb(139,40,220)"/><path d="M138.61504466235687,119.84222614433388L140.77344297454215,107.57036358435047L135.02788340683335,111.52337640057065z" style="fill:rgb(183,62,221)"/><path d="M132.28980093576942,122.88108170674236L135.02788340683335,111.52337640057065L128.64619673853537,114.59113031628293z" style="fill:rgb(162,50,222)"/><path d="M145.64728448313846,102.89735454608594L148.63387951198553,104.45395248964942L148.01285178195874,99.66747889784686zM148.63387951198553,104.45395248964942L145.64728448313846,102.89735454608594L142.62354338542613,105.79650145618214z" style="fill:rgb(83,212,212)"/></svg>
