<?xml version="1.0" encoding="UTF-8"?>
<!-- Generated by jsxcad -->
<!DOCTYPE svg PUBLIC "-//W3C//DTD SVG 1.1 Tiny//EN" "http://www.w3.org/Graphics/SVG/1.1/DTD/svg11-tiny.dtd">
<svg viewBox="-250 -250 500 500" width="500" height="500" xmlns="http://www.w3.org/2000/svg"><path d="M-78.68053595853165,-87.2936535244698L78.02214885476322,121.82449346771052L-27.913206635788434,-101.73675971446751zM68.42457726282572,101.57021075056193L81.8640874117159,-132.96795424410575L-27.913206635788434,-101.73675971446751z" style="fill:rgb(83,212,212)"/><path d="M81.8640874117159,-132.96795424410575L104.27358782872662,91.5553557529367L84.14762518686888,-127.06294575246955z" style="fill:rgb(247,158,158)"/><path d="M78.02214885476322,121.82449346771052L-78.68053595853165,-87.2936535244698L-99.19027009196148,161.3403551482121z" style="fill:rgb(83,212,212)"/><path d="M104.27358782872662,91.5553557529367L81.8640874117159,-132.96795424410575L101.56663626650544,85.59973272336646z" style="fill:rgb(247,158,158)"/><path d="M81.8640874117159,-132.96795424410575L68.42457726282572,101.57021075056193L101.56663626650544,85.59973272336646zM-20.427002641112566,58.91249587089242L14.85760904662672,96.297338523192L14.258682631870547,50.44694339143514z" style="fill:rgb(83,212,212)"/><path d="M14.85760904662672,96.297338523192L17.328293941191586,56.27726603145918L14.258682631870547,50.44694339143514z" style="fill:rgb(247,158,158)"/><path d="M14.85760904662672,96.297338523192L-20.427002641112566,58.91249587089242L-21.277391041017598,104.70737709022457z" style="fill:rgb(83,212,212)"/><path d="M17.328293941191586,56.27726603145918L14.85760904662672,96.297338523192L18.05169672390501,102.09007200704505z" style="fill:rgb(247,158,158)"/><path d="M-17.892061105971628,110.39780014297443L14.85760904662672,96.297338523192L-21.277391041017598,104.70737709022457zM14.85760904662672,96.297338523192L-17.892061105971628,110.39780014297443L18.05169672390501,102.09007200704505zM-95.3246143249851,166.69657855600707L78.02214885476322,121.82449346771052L-99.19027009196148,161.3403551482121z" style="fill:rgb(127,37,217)"/><path d="M80.75649867288433,95.627715517694L81.3930568519609,102.57639309646045L83.59145945932146,101.51747191580581z" style="fill:rgb(162,50,222)"/><path d="M78.54449719565419,96.6936337537228L79.39404829634188,103.93883715985248L81.3930568519609,102.57639309646045z" style="fill:rgb(183,62,221)"/><path d="M83.08542076031975,94.9051383514462L83.59145945932146,101.51747191580581L85.90701277854703,100.80176055525311z" style="fill:rgb(139,40,220)"/><path d="M79.39404829634188,103.93883715985248L74.79497614936157,99.68464675406639L77.66945628718501,105.55403227566116z" style="fill:rgb(203,77,216)"/><path d="M85.44417738352122,94.55337105541341L85.90701277854703,100.80176055525311L88.25311685018728,100.45647228790993z" style="fill:rgb(115,34,214)"/><path d="M77.66945628718501,105.55403227566116L73.39862574765644,101.49836296403699L76.28446810929893,107.36185142795858z" style="fill:rgb(220,94,208)"/><path d="M87.74425904084904,94.58642488187915L88.25311685018728,100.45647228790993L90.54172549837405,100.49537123781487z" style="fill:rgb(92,32,204)"/><path d="M81.3930568519609,102.57639309646045L80.75649867288433,95.627715517694L78.54449719565419,96.6936337537228z" style="fill:rgb(162,50,222)"/><path d="M79.39404829634188,103.93883715985248L78.54449719565419,96.6936337537228L76.53215434930512,98.06295058380569z" style="fill:rgb(183,62,221)"/><path d="M83.59145945932146,101.51747191580581L83.08542076031975,94.9051383514462L80.75649867288433,95.627715517694z" style="fill:rgb(139,40,220)"/><path d="M74.79497614936157,99.68464675406639L79.39404829634188,103.93883715985248L76.53215434930512,98.06295058380569z" style="fill:rgb(203,77,216)"/><path d="M76.28446810929893,107.36185142795858L72.39656888193318,103.43641281645222L75.29211998231791,109.29481924294362z" style="fill:rgb(233,112,197)"/><path d="M85.90701277854703,100.80176055525311L85.44417738352122,94.55337105541341L83.08542076031975,94.9051383514462z" style="fill:rgb(115,34,214)"/><path d="M89.89888324900467,95.00424486827092L90.54172549837405,100.49537123781487L92.68648187953887,100.9181727330453z" style="fill:rgb(71,33,192)"/><path d="M73.39862574765644,101.49836296403699L77.66945628718501,105.55403227566116L74.79497614936157,99.68464675406639z" style="fill:rgb(220,94,208)"/><path d="M88.25311685018728,100.45647228790993L87.74425904084904,94.58642488187915L85.44417738352122,94.55337105541341z" style="fill:rgb(92,32,204)"/><path d="M75.29211998231791,109.29481924294362L71.82803738424352,105.42605981512872L74.73127592657637,111.28038302719462z" style="fill:rgb(242,130,183)"/><path d="M94.60574367402475,101.71034423702434L89.89888324900467,95.00424486827092L92.68648187953887,100.9181727330453z" style="fill:rgb(51,38,177)"/><path d="M78.54449719565419,96.6936337537228L76.24438516445714,97.80201283007001L75.50583263286501,98.76131715701221z" style="fill:rgb(83,212,212)"/><path d="M72.39656888193318,103.43641281645222L76.28446810929893,107.36185142795858L73.39862574765644,101.49836296403699z" style="fill:rgb(233,112,197)"/><path d="M83.08542076031975,94.9051383514462L81.88427090940381,95.08426974769667L80.75649867288433,95.627715517694z" style="fill:rgb(83,212,212)"/><path d="M104.27358782872662,91.5553557529367L102.14918001029662,92.06210690528994L104.86791020457731,98.01118373657661zM102.14918001029662,92.06210690528994L104.27358782872662,91.5553557529367L101.56663626650544,85.59973272336646z" style="fill:rgb(247,158,158)"/><path d="M76.53215434930512,98.06295058380569L75.50583263286501,98.76131715701221L74.79497614936157,99.68464675406639z" style="fill:rgb(83,212,212)"/><path d="M90.54172549837405,100.49537123781487L89.89888324900467,95.00424486827092L87.74425904084904,94.58642488187915z" style="fill:rgb(71,33,192)"/><path d="M76.24438516445714,97.80201283007001L68.42457726282572,101.57021075056193L70.29858003628492,105.5250193599538z" style="fill:rgb(83,212,212)"/><path d="M74.73127592657637,111.28038302719462L71.71643399887638,107.39211125173071L74.62502423602271,113.2435011805148z" style="fill:rgb(246,149,167)"/><path d="M96.22561064878872,102.84343201512716L91.82603339720104,95.79250095257737L94.60574367402475,101.71034423702434z" style="fill:rgb(34,46,160)"/><path d="M71.82803738424352,105.42605981512872L75.29211998231791,109.29481924294362L72.39656888193318,103.43641281645222z" style="fill:rgb(242,130,183)"/><path d="M90.14131453081225,94.62088261188796L89.23196402480436,93.98848502108707L85.44417738352122,94.55337105541341z" style="fill:rgb(83,212,212)"/><path d="M78.02214885476322,121.82449346771052L-95.3246143249851,166.69657855600707L80.9337544898388,127.67084577716255z" style="fill:rgb(127,37,217)"/><path d="M101.56663626650544,85.59973272336646L81.88427090940381,95.08426974769667L102.14918001029662,92.06210690528994zM73.39862574765644,101.49836296403699L72.68577826981492,102.42429236761515L72.39656888193318,103.43641281645222z" style="fill:rgb(83,212,212)"/><path d="M89.89888324900467,95.00424486827092L94.60574367402475,101.71034423702434L91.82603339720104,95.79250095257737z" style="fill:rgb(51,38,177)"/><path d="M71.71643399887638,107.39211125173071L74.97957241847453,115.10925989111871L74.62502423602271,113.2435011805148z" style="fill:rgb(246,167,149)"/><path d="M71.71643399887638,107.39211125173071L74.73127592657637,111.28038302719462L71.82803738424352,105.42605981512872z" style="fill:rgb(246,149,167)"/><path d="M97.48279390442161,104.27587857232403L93.45149991052585,96.92290534950577L96.22561064878872,102.84343201512716z" style="fill:rgb(21,57,142)"/><path d="M90.99944561344104,95.21765706214177L90.14131453081225,94.62088261188796L87.74425904084904,94.58642488187915z" style="fill:rgb(83,212,212)"/><path d="M91.82603339720104,95.79250095257737L96.22561064878872,102.84343201512716L93.45149991052585,96.92290534950577z" style="fill:rgb(34,46,160)"/><path d="M72.68577826981492,102.42429236761515L70.29858003628492,105.5250193599538L71.23504645632502,107.50130460621372z" style="fill:rgb(83,212,212)"/><path d="M72.0681947057886,109.25953941055324L75.7836930287103,116.8057153957556L74.97957241847453,115.10925989111871z" style="fill:rgb(242,183,130)"/><path d="M91.82603339720104,95.79250095257737L90.99944561344104,95.21765706214177L89.89888324900467,95.00424486827092zM94.28223204803145,97.50062880114987L92.28530064280092,93.53313755903996L89.23196402480436,93.98848502108707z" style="fill:rgb(83,212,212)"/><path d="M98.32719007001046,105.95425255018633L94.71176233249435,98.35402157028662L97.48279390442161,104.27587857232403z" style="fill:rgb(12,71,124)"/><path d="M74.97957241847453,115.10925989111871L71.71643399887638,107.39211125173071L72.0681947057886,109.25953941055324z" style="fill:rgb(246,167,149)"/><path d="M93.45149991052585,96.92290534950577L97.48279390442161,104.27587857232403L94.71176233249435,98.35402157028662z" style="fill:rgb(21,57,142)"/><path d="M71.82803738424352,105.42605981512872L71.23504645632502,107.50130460621372L71.65939755918615,108.39682867123784z" style="fill:rgb(83,212,212)"/><path d="M102.14918001029662,92.06210690528994L106.14013551375132,111.8307431528598L104.86791020457731,98.01118373657661z" style="fill:rgb(247,158,158)"/><path d="M75.7836930287103,116.8057153957556L72.0681947057886,109.25953941055324L72.87222710455146,110.95632856607276z" style="fill:rgb(242,183,130)"/><path d="M72.0681947057886,109.25953941055324L71.71643399887638,107.39211125173071L71.65939755918615,108.39682867123784z" style="fill:rgb(83,212,212)"/><path d="M94.71176233249435,98.35402157028662L98.32719007001046,105.95425255018633L95.55657476535869,100.03249612654069z" style="fill:rgb(12,71,124)"/><path d="M94.71176233249435,98.35402157028662L94.28223204803145,97.50062880114987L93.45149991052585,96.92290534950577zM99.46159818884362,107.79098225330632L102.14918001029662,92.06210690528994L92.28530064280092,93.53313755903996zM74.09996453157927,112.41628205907487L72.87222710455146,110.95632856607276L73.2832228853353,111.8236788227075zM96.43834337904575,101.78438591378006L95.55657476535869,100.03249612654069L96.15285319853417,102.84683713661634z" style="fill:rgb(83,212,212)"/><path d="M106.14013551375132,111.8307431528598L102.14918001029662,92.06210690528994L103.39633156446773,105.89723198757888z" style="fill:rgb(247,158,158)"/><path d="M96.15285319853417,102.84683713661634L95.95116871790007,101.89489411783441L95.87791643357754,103.86999113667319zM78.29166475609644,115.45764584032108L73.2832228853353,111.8236788227075L75.21371538076957,115.8977008603086zM77.63008826711113,114.4056663817042L75.70611270315013,113.58165654254553L76.52698865768495,114.17725606550988zM102.14918001029662,92.06210690528994L99.46159818884362,107.79098225330632L103.39633156446773,105.89723198757888zM79.79817218340276,114.85460498787218L76.52698865768495,114.17725606550988L77.38215649670396,114.79773431188215zM95.33742891261764,105.8813733049709L94.34883598624478,107.85054153492635L95.06128560107477,106.90902688288006zM82.12630627882837,114.9093977318943L77.38215649670396,114.79773431188215L78.29166475609644,115.45764584032108zM99.46159818884362,107.79098225330632L96.43834337904575,101.78438591378006L94.13546656445718,110.35440067998901zM85.74682246079917,114.3917753709839L75.21371538076957,115.8977008603086L76.58872701647635,118.79947517234477zM95.06128560107477,106.90902688288006L91.49106672629063,111.62712620746622L94.13546656445718,110.35440067998901zM92.94931866419697,109.70002185390818L91.19281739211281,111.35668978117943L92.23482906268214,110.64421978488622zM86.89517238697272,113.83908070526519L84.52341091293866,114.56667954090081L85.74682246079917,114.3917753709839zM92.23482906268214,110.64421978488622L89.14794794236134,112.75483711684083L91.49106672629063,111.62712620746622zM78.02214885476322,121.82449346771052L103.39633156446773,105.89723198757888L76.58872701647635,118.79947517234477z" style="fill:rgb(83,212,212)"/><path d="M104.30379433371604,115.96405371954017L106.14013551375132,111.8307431528598L103.39633156446773,105.89723198757888zM106.14013551375132,111.8307431528598L104.30379433371604,115.96405371954017L107.06572033083002,121.88491014244696z" style="fill:rgb(247,158,158)"/><path d="M104.30379433371604,115.96405371954017L80.9337544898388,127.67084577716255L107.06572033083002,121.88491014244696zM80.9337544898388,127.67084577716255L104.30379433371604,115.96405371954017L78.02214885476322,121.82449346771052z" style="fill:rgb(127,37,217)"/><path d="M103.39633156446773,105.89723198757888L78.02214885476322,121.82449346771052L104.30379433371604,115.96405371954017z" style="fill:rgb(83,212,212)"/></svg>
