<?xml version="1.0" encoding="UTF-8"?>
<!-- Generated by jsxcad -->
<!DOCTYPE svg PUBLIC "-//W3C//DTD SVG 1.1 Tiny//EN" "http://www.w3.org/Graphics/SVG/1.1/DTD/svg11-tiny.dtd">
<svg viewBox="-250 -250 500 500" width="500" height="500" xmlns="http://www.w3.org/2000/svg"><path d="M115.06260633143374,-121.03299876241758L-58.944744089705765,-72.4225577584558L128.5227600853462,-13.400562742187093z" style="fill:rgb(83,212,212)"/><path d="M128.5227600853462,-13.400562742187093L117.80617954298148,-113.45667291066485L115.06260633143374,-121.03299876241758z" style="fill:rgb(247,158,158)"/><path d="M-95.84900244584885,44.28701317137693L-100.42168159893654,19.41596199827866L-101.19377587219748,27.569892863945498zM-100.42168159893654,19.41596199827866L-95.84900244584885,44.28701317137693L-91.51068002739164,23.0792609368499zM-92.61619677458687,-63.01614581747282L140.58290447724912,83.03687042068921L-58.944744089705765,-72.4225577584558z" style="fill:rgb(83,212,212)"/><path d="M-84.59315991487037,30.73007745674042L-82.75165069274628,38.81240978598424L-80.34743325226667,37.64475129204533z" style="fill:rgb(162,50,222)"/><path d="M-87.01364367423852,31.906246173798586L-84.99863284057805,40.28956363615724L-82.75165069274628,38.81240978598424z" style="fill:rgb(183,62,221)"/><path d="M-82.10626630139154,29.906871115877884L-80.34743325226667,37.64475129204533L-77.87569158742095,36.83022911384137z" style="fill:rgb(139,40,220)"/><path d="M-77.08279780825312,29.010539040627158L-91.51068002739164,23.0792609368499L-93.31653015919653,31.907109134620548z" style="fill:rgb(83,212,212)"/><path d="M-84.99863284057805,40.28956363615724L-91.2998435551896,35.130448360346165L-87.00431139191706,42.02132751449123z" style="fill:rgb(203,77,216)"/><path d="M-79.64579834390977,29.467851439287642L-77.87569158742095,36.83022911384137L-75.4286970675584,36.39974604314358z" style="fill:rgb(115,34,214)"/><path d="M-87.00431139191706,42.02132751449123L-93.004724643939,37.05874846980534L-88.6931517475034,43.94339818465003z" style="fill:rgb(220,94,208)"/><path d="M-77.30397681100456,29.43038009416088L-75.4286970675584,36.39974604314358L-73.09817776964694,36.3703402178465z" style="fill:rgb(92,32,204)"/><path d="M-82.75165069274628,38.81240978598424L-84.59315991487037,30.73007745674042L-87.01364367423852,31.906246173798586z" style="fill:rgb(162,50,222)"/><path d="M-84.99863284057805,40.28956363615724L-87.01364367423852,31.906246173798586L-89.27743316063318,33.39142734008605z" style="fill:rgb(183,62,221)"/><path d="M-80.34743325226667,37.64475129204533L-82.10626630139154,29.906871115877884L-84.59315991487037,30.73007745674042z" style="fill:rgb(139,40,220)"/><path d="M-91.2998435551896,35.130448360346165L-84.99863284057805,40.28956363615724L-89.27743316063318,33.39142734008605z" style="fill:rgb(203,77,216)"/><path d="M-88.6931517475034,43.94339818465003L-94.32712763712526,39.104523505660545L-90.00079516858452,45.98419523873783z" style="fill:rgb(233,112,197)"/><path d="M-77.87569158742095,36.83022911384137L-79.64579834390977,29.467851439287642L-82.10626630139154,29.906871115877884z" style="fill:rgb(115,34,214)"/><path d="M-75.16920957383425,29.797210584573154L-73.09817776964694,36.3703402178465L-70.97213554245502,36.74445143156909z" style="fill:rgb(71,33,192)"/><path d="M-83.35908005564347,30.130410438081938L-93.31653015919653,31.907109134620548L-94.01199662363116,35.30690655233445z" style="fill:rgb(83,212,212)"/><path d="M-93.004724643939,37.05874846980534L-87.00431139191706,42.02132751449123L-91.2998435551896,35.130448360346165z" style="fill:rgb(220,94,208)"/><path d="M-75.4286970675584,36.39974604314358L-77.30397681100456,29.43038009416088L-79.64579834390977,29.467851439287642z" style="fill:rgb(92,32,204)"/><path d="M-90.00079516858452,45.98419523873783L-95.21570188205146,41.19114863917835L-90.87648635410645,48.067267579342136z" style="fill:rgb(242,130,183)"/><path d="M-69.13166670198858,37.50965301206993L-75.16920957383425,29.797210584573154L-70.97213554245502,36.74445143156909z" style="fill:rgb(51,38,177)"/><path d="M-87.01364367423852,31.906246173798586L-89.53051220028001,33.129251363060106L-90.43204460850527,34.148922674505755z" style="fill:rgb(83,212,212)"/><path d="M-94.32712763712526,39.104523505660545L-88.6931517475034,43.94339818465003L-93.004724643939,37.05874846980534z" style="fill:rgb(233,112,197)"/><path d="M-82.10626630139154,29.906871115877884L-83.35908005564347,30.130410438081938L-84.59315991487037,30.73007745674042zM-89.27743316063318,33.39142734008605L-90.43204460850527,34.148922674505755L-91.2998435551896,35.130448360346165z" style="fill:rgb(83,212,212)"/><path d="M-73.09817776964694,36.3703402178465L-75.16920957383425,29.797210584573154L-77.30397681100456,29.43038009416088z" style="fill:rgb(71,33,192)"/><path d="M-89.53051220028001,33.129251363060106L-94.01199662363116,35.30690655233445L-94.78143719940027,39.06829428985307z" style="fill:rgb(83,212,212)"/><path d="M-90.87648635410645,48.067267579342136L-95.63477635078803,43.239812918085605L-91.28503081340686,50.11393339791084z" style="fill:rgb(246,149,167)"/><path d="M-67.64798583920165,38.63882200831501L-73.32294423361348,30.55620789417343L-69.13166670198858,37.50965301206993z" style="fill:rgb(34,46,160)"/><path d="M-95.21570188205146,41.19114863917835L-90.00079516858452,45.98419523873783L-94.32712763712526,39.104523505660545z" style="fill:rgb(242,130,183)"/><path d="M-77.30397681100456,29.43038009416088L-78.38993983431978,29.243771420573374L-79.64579834390977,29.467851439287642zM-75.16920957383425,29.797210584573154L-77.08279780825312,29.010539040627158L-78.38993983431978,29.243771420573374zM-93.004724643939,37.05874846980534L-93.87521154488869,38.04330303163998L-94.32712763712526,39.104523505660545z" style="fill:rgb(83,212,212)"/><path d="M-75.16920957383425,29.797210584573154L-69.13166670198858,37.50965301206993L-73.32294423361348,30.55620789417343z" style="fill:rgb(51,38,177)"/><path d="M-95.63477635078803,43.239812918085605L-91.20846251862388,52.046103705892854L-91.28503081340686,50.11393339791084z" style="fill:rgb(246,167,149)"/><path d="M-95.63477635078803,43.239812918085605L-90.87648635410645,48.067267579342136L-95.21570188205146,41.19114863917835z" style="fill:rgb(246,149,167)"/><path d="M-66.5796009146898,40.09085406015819L-71.83662782179731,31.68050553965901L-67.64798583920165,38.63882200831501z" style="fill:rgb(21,57,142)"/><path d="M-93.87521154488869,38.04330303163998L-94.78143719940027,39.06829428985307L-95.21570188205146,41.19114863917835z" style="fill:rgb(83,212,212)"/><path d="M-73.32294423361348,30.55620789417343L-67.64798583920165,38.63882200831501L-71.83662782179731,31.68050553965901z" style="fill:rgb(34,46,160)"/><path d="M-95.56594569746144,45.172334253992894L-90.64696711469843,53.78917183613474L-91.20846251862388,52.046103705892854z" style="fill:rgb(242,183,130)"/><path d="M-91.20846251862388,52.046103705892854L-95.63477635078803,43.239812918085605L-95.56594569746144,45.172334253992894z" style="fill:rgb(246,167,149)"/><path d="M-71.83662782179731,31.68050553965901L-66.5796009146898,40.09085406015819L-70.76889633795804,33.12920805021338z" style="fill:rgb(21,57,142)"/><path d="M-71.83662782179731,31.68050553965901L-72.37937204131424,30.944108749864593L-73.32294423361348,30.55620789417343z" style="fill:rgb(83,212,212)"/><path d="M-90.64696711469843,53.78917183613474L-95.56594569746144,45.172334253992894L-95.00907483377148,46.91409110065544z" style="fill:rgb(242,183,130)"/><path d="M-95.56594569746144,45.172334253992894L-95.63477635078803,43.239812918085605L-95.84900244584885,44.28701317137693zM-70.76889633795804,33.12920805021338L-71.39639471352574,31.348207493465583L-72.37937204131424,30.944108749864593zM140.58290447724912,83.03687042068921L-92.61619677458687,-63.01614581747282L-97.76898647680127,-8.598606955069776zM-93.98276820604235,48.39690960759083L-95.00907483377148,46.91409110065544L-94.7243433715718,47.80465630247218zM-92.52408656951201,49.561886572598056L-94.7243433715718,47.80465630247218L-94.42762453346161,48.732697364537565zM-69.53058759101829,36.64386741572252L-70.16310667174614,34.84860257925645L-69.9850807636885,37.75828138798218zM-69.9850807636885,37.75828138798218L-70.04530948075455,36.77392659406569L-70.42283866318792,38.83164732836786zM-88.77089166918034,51.19680131902488L-94.42762453346161,48.732697364537565L-93.38623537801405,51.98992254336436zM-71.28359892536128,40.942207281522776L-72.59615393720048,43.023154906675714L-71.72347235394315,42.020760089574814zM-87.4471627700921,50.96932516944607L-90.6874583452614,50.36193673630357L-88.77089166918034,51.19680131902488zM-86.1732203381071,50.75040382761863L-88.54285288465012,50.7639390650983L-87.4471627700921,50.96932516944607zM-71.72347235394315,42.020760089574814L-76.0974731705716,47.04490366204799L-73.19870437073482,45.637983141566345zM-74.31066326616461,44.9925038890895L-76.3607123602307,46.77220754145905L-75.18608393267363,45.99804754378228zM-81.13534245145354,49.49003905003788L-83.671201087321,50.320444054398294L-82.39410623833636,50.100981074538105zM-75.18608393267363,45.99804754378228L-78.66593508377875,48.29151130682213L-76.0974731705716,47.04490366204799zM-65.79431599207847,47.248395569496815L-69.53058759101829,36.64386741572252L-74.4630281844024,48.738067601512235zM-73.19870437073482,45.637983141566345L-82.39410623833636,50.100981074538105L-74.4630281844024,48.738067601512235z" style="fill:rgb(83,212,212)"/><path d="M117.80617954298148,-113.45667291066485L128.5227600853462,-13.400562742187093L131.48703992627017,-5.727283834578174z" style="fill:rgb(247,158,158)"/><path d="M-42.469261945898396,43.240103045826544L-71.39639471352574,31.348207493465583L-65.79431599207847,47.248395569496815zM-58.944744089705765,-72.4225577584558L140.58290447724912,83.03687042068921L77.61775222681335,-29.427419371890423zM106.65370484503983,104.54430040700987L-97.76898647680127,-8.598606955069776L-100.42168159893654,19.41596199827866zM93.2622826194329,-24.50192000040811L77.61775222681335,-29.427419371890423L92.32862323431533,-3.21395234663182z" style="fill:rgb(83,212,212)"/><path d="M102.63964971228482,-17.038797264014317L103.21356540504173,-8.231823271359005L105.74366735283316,-9.45757948698227z" style="fill:rgb(162,50,222)"/><path d="M100.09150774861983,-15.803662382083527L100.92131465949177,-6.700568802509458L103.21356540504173,-8.231823271359005z" style="fill:rgb(183,62,221)"/><path d="M105.33121531061634,-17.923144665983557L105.74366735283316,-9.45757948698227L108.4173919656052,-10.332089159268014z" style="fill:rgb(139,40,220)"/><path d="M110.91494669421415,-18.944182124865517L93.2622826194329,-24.50192000040811L92.87384078845541,-15.645192389944434z" style="fill:rgb(83,212,212)"/><path d="M100.92131465949177,-6.700568802509458L95.79659236746916,-12.476420522123624L98.95264248469229,-4.92063664059883z" style="fill:rgb(203,77,216)"/><path d="M108.0659889353773,-18.423222650090445L108.4173919656052,-10.332089159268014L111.13512448791448,-10.822233970646842z" style="fill:rgb(115,34,214)"/><path d="M98.95264248469229,-4.92063664059883L94.21104107533432,-10.507712979335714L97.38181993507098,-2.9580361587313955z" style="fill:rgb(220,94,208)"/><path d="M110.74175112801989,-18.51936588834421L111.13512448791448,-10.822233970646842L113.79530674080681,-10.908721231447503z" style="fill:rgb(92,32,204)"/><path d="M103.21356540504173,-8.231823271359005L102.63964971228482,-17.038797264014317L100.09150774861983,-15.803662382083527z" style="fill:rgb(162,50,222)"/><path d="M100.92131465949177,-6.700568802509458L100.09150774861983,-15.803662382083527L97.78170013980133,-14.263827124380951z" style="fill:rgb(183,62,221)"/><path d="M105.74366735283316,-9.45757948698227L105.33121531061634,-17.923144665983557L102.63964971228482,-17.038797264014317z" style="fill:rgb(139,40,220)"/><path d="M95.79659236746916,-12.476420522123624L100.92131465949177,-6.700568802509458L97.78170013980133,-14.263827124380951z" style="fill:rgb(203,77,216)"/><path d="M97.38181993507098,-2.9580361587313955L93.08576575937094,-8.430939314093814L96.26899991287837,-0.885784044627106z" style="fill:rgb(233,112,197)"/><path d="M108.4173919656052,-10.332089159268014L108.0659889353773,-18.423222650090445L105.33121531061634,-17.923144665983557z" style="fill:rgb(115,34,214)"/><path d="M113.25785926881491,-18.206539700743058L113.79530674080681,-10.908721231447503L116.29783860802675,-10.586891410758206z" style="fill:rgb(71,33,192)"/><path d="M94.21104107533432,-10.507712979335714L98.95264248469229,-4.92063664059883L95.79659236746916,-12.476420522123624z" style="fill:rgb(220,94,208)"/><path d="M111.13512448791448,-10.822233970646842L110.74175112801989,-18.51936588834421L108.0659889353773,-18.423222650090445z" style="fill:rgb(92,32,204)"/><path d="M99.29417304870016,-16.819212642757073L92.87384078845541,-15.645192389944434L92.5585229419862,-8.455854768736929zM103.93881951963596,-17.668531119556462L99.29417304870016,-16.819212642757073L97.44192061739523,-14.519349993551266z" style="fill:rgb(83,212,212)"/><path d="M96.26899991287837,-0.885784044627106L92.46501968912533,-6.323839268344704L95.65795002500204,1.2185415418306027z" style="fill:rgb(242,130,183)"/><path d="M118.54764186894879,-9.86709138261792L113.25785926881491,-18.206539700743058L116.29783860802675,-10.586891410758206z" style="fill:rgb(51,38,177)"/><path d="M100.09150774861983,-15.803662382083527L97.44192061739523,-14.519349993551266L96.60359178545593,-13.478440866876973z" style="fill:rgb(83,212,212)"/><path d="M93.08576575937094,-8.430939314093814L97.38181993507098,-2.9580361587313955L94.21104107533432,-10.507712979335714z" style="fill:rgb(233,112,197)"/><path d="M105.33121531061634,-17.923144665983557L103.93881951963596,-17.668531119556462L102.63964971228482,-17.038797264014317zM97.78170013980133,-14.263827124380951L96.60359178545593,-13.478440866876973L95.79659236746916,-12.476420522123624z" style="fill:rgb(83,212,212)"/><path d="M113.79530674080681,-10.908721231447503L113.25785926881491,-18.206539700743058L110.74175112801989,-18.51936588834421z" style="fill:rgb(71,33,192)"/><path d="M95.65795002500204,1.2185415418306027L92.3747609167649,-4.265983805758051L95.57423275916537,3.2754722612648535z" style="fill:rgb(246,149,167)"/><path d="M120.45814458495954,-8.774576420575265L115.51872210777181,-17.494735224561637L118.54764186894879,-9.86709138261792z" style="fill:rgb(34,46,160)"/><path d="M92.46501968912533,-6.323839268344704L96.26899991287837,-0.885784044627106L93.08576575937094,-8.430939314093814z" style="fill:rgb(242,130,183)"/><path d="M110.74175112801989,-18.51936588834421L109.46192902100681,-18.678485654848586L108.0659889353773,-18.423222650090445zM113.25785926881491,-18.206539700743058L110.91494669421415,-18.944182124865517L109.46192902100681,-18.678485654848586z" style="fill:rgb(83,212,212)"/><path d="M113.25785926881491,-18.206539700743058L118.54764186894879,-9.86709138261792L115.51872210777181,-17.494735224561637z" style="fill:rgb(51,38,177)"/><path d="M92.3747609167649,-4.265983805758051L96.02393463232835,5.206486814735356L95.57423275916537,3.2754722612648535z" style="fill:rgb(246,167,149)"/><path d="M94.21104107533432,-10.507712979335714L92.5585229419862,-8.455854768736929L92.51089942811933,-7.369989398695365z" style="fill:rgb(83,212,212)"/><path d="M92.3747609167649,-4.265983805758051L95.65795002500204,1.2185415418306027L92.46501968912533,-6.323839268344704z" style="fill:rgb(246,149,167)"/><path d="M121.9545829188949,-7.348897810704556L117.43731329391765,-16.408879949347178L120.45814458495954,-8.774576420575265z" style="fill:rgb(21,57,142)"/><path d="M93.08576575937094,-8.430939314093814L92.51089942811933,-7.369989398695365L92.46501968912533,-6.323839268344704zM-68.14761805926372,130.92992193708974L-42.469261945898396,43.240103045826544L-93.38623537801405,51.98992254336436z" style="fill:rgb(83,212,212)"/><path d="M115.51872210777181,-17.494735224561637L120.45814458495954,-8.774576420575265L117.43731329391765,-16.408879949347178z" style="fill:rgb(34,46,160)"/><path d="M122.97710089044736,-5.642752862909541L118.93854504160706,-14.988247985219596L121.9545829188949,-7.348897810704556z" style="fill:rgb(12,71,124)"/><path d="M-68.14761805926372,130.92992193708974L-101.19377587219748,27.569892863945498L-109.04960413818684,110.53367387798912z" style="fill:rgb(83,212,212)"/><path d="M96.02393463232835,5.206486814735356L92.3747609167649,-4.265983805758051L92.8213629907444,-2.3359363743072246z" style="fill:rgb(246,167,149)"/><path d="M117.43731329391765,-16.408879949347178L121.9545829188949,-7.348897810704556L118.93854504160706,-14.988247985219596z" style="fill:rgb(21,57,142)"/><path d="M117.43731329391765,-16.408879949347178L116.67431725662675,-17.13090795261576L115.51872210777181,-17.494735224561637zM92.8213629907444,-2.3359363743072246L92.3747609167649,-4.265983805758051L92.32862323431533,-3.21395234663182zM118.93854504160706,-14.988247985219596L117.87827059858544,-16.751858584205326L116.67431725662675,-17.13090795261576z" style="fill:rgb(83,212,212)"/><path d="M118.93854504160706,-14.988247985219596L122.97710089044736,-5.642752862909541L119.96234053062548,-13.285316777286226z" style="fill:rgb(12,71,124)"/><path d="M95.24920297874966,0.849119487880297L93.79089286088343,-0.608317691607781L94.28668797710036,0.2751424379654366z" style="fill:rgb(83,212,212)"/><path d="M-49.80005202045125,99.96882017732493L-42.97361304153928,46.034092179427695L-47.13402737125639,38.88129324594657z" style="fill:rgb(247,158,158)"/><path d="M97.14275038479055,1.9782937751990295L94.28668797710036,0.2751424379654366L94.8033925617369,1.1958724921363932zM121.03152518570978,-11.506904940732449L119.96234053062548,-13.285316777286226L120.72397634245004,-10.381684813980076z" style="fill:rgb(83,212,212)"/><path d="M128.5227600853462,-13.400562742187093L133.00286409524142,6.209012183164744L131.48703992627017,-5.727283834578174z" style="fill:rgb(247,158,158)"/><path d="M120.72397634245004,-10.381684813980076L120.46629210557838,-11.364084074354139L120.42773677510786,-9.297825187981543zM101.75639017724811,3.5213730575528976L94.8033925617369,1.1958724921363932L96.61733768920595,4.428156858606409zM127.35134335214416,-0.994840244184997L128.5227600853462,-13.400562742187093L117.87827059858544,-16.751858584205326zM119.84517730348155,-7.166383697151587L118.7387573541732,-5.053034975414051L119.54743737329586,-6.077034356047525zM103.23046562412928,3.261272851453242L99.40024926602015,2.733338481467529L101.75639017724811,3.5213730575528976zM104.64916341823303,3.0109455398309817L101.93520682689844,3.0827420881584606L103.23046562412928,3.261272851453242zM119.54743737329586,-6.077034356047525L115.49378657519075,-0.9440800505014066L118.54871900479057,-2.4229734805376952zM117.14985840985388,-3.041086821693587L115.13969743740441,-1.210355846480137L116.33851770362797,-2.013718496970134zM110.18456262177047,1.6261138406633964L107.43563123481518,2.5192740565045355L108.85800933162619,2.26829718713325zM116.33851770362797,-2.013718496970134L112.78696514958386,0.36628830949433344L115.49378657519075,-0.9440800505014066z" style="fill:rgb(83,212,212)"/><path d="M133.00286409524142,6.209012183164744L128.5227600853462,-13.400562742187093L130.01539308681575,-1.4649099333671138z" style="fill:rgb(247,158,158)"/><path d="M127.35134335214416,-0.994840244184997L121.03152518570978,-11.506904940732449L117.69257452602629,0.7094432318680982zM118.54871900479057,-2.4229734805376952L108.85800933162619,2.26829718713325L117.69257452602629,0.7094432318680982zM-44.90192251559511,-12.26368727651948L67.41184576968797,136.84045871313077L57.33812995230775,-39.18803726876731zM128.5227600853462,-13.400562742187093L127.35134335214416,-0.994840244184997L130.01539308681575,-1.4649099333671138z" style="fill:rgb(83,212,212)"/><path d="M67.41184576968797,136.84045871313077L60.675192809322134,-31.654513646322116L57.33812995230775,-39.18803726876731zM-42.97361304153928,46.034092179427695L-49.80005202045125,99.96882017732493L-45.38599991740248,107.0628997207332z" style="fill:rgb(247,158,158)"/><path d="M-104.32593756654002,140.28067619978975L-109.04960413818684,110.53367387798912L-109.9606719252948,120.15526936731456zM-109.04960413818684,110.53367387798912L-104.32593756654002,140.28067619978975L-99.44286200696652,115.32419083649381zM-97.76898647680127,-8.598606955069776L106.65370484503983,104.54430040700987L84.5947064733646,61.511951919579474z" style="fill:rgb(83,212,212)"/><path d="M-92.0136426413546,124.75210867280705L-89.95609027868511,132.8320961789963L-87.34307056840683,131.5696415706788z" style="fill:rgb(162,50,222)"/><path d="M-94.64588865889526,126.02452331494516L-92.40118372488065,134.46948325397648L-89.95609027868511,132.8320961789963z" style="fill:rgb(183,62,221)"/><path d="M-89.31207944258114,123.90207792697542L-87.34307056840683,131.5696415706788L-84.65937234754917,130.72920409296106z" style="fill:rgb(139,40,220)"/><path d="M-83.85982536373514,123.09485095206848L-99.44286200696652,115.32419083649381L-101.47354871847834,125.7026574403799z" style="fill:rgb(83,212,212)"/><path d="M-92.40118372488065,134.46948325397648L-99.3166707370504,129.63321309770262L-94.58708997687364,136.42120193141602z" style="fill:rgb(203,77,216)"/><path d="M-86.6417908510232,123.50673753414944L-84.65937234754917,130.72920409296106L-82.00492773177027,130.34273575319338z" style="fill:rgb(115,34,214)"/><path d="M-94.58708997687364,136.42120193141602L-101.18032410333586,131.83598300247135L-96.43164137534158,138.61504010109343z" style="fill:rgb(220,94,208)"/><path d="M-84.10264595370917,123.58200684578343L-82.00492773177027,130.34273575319338L-79.47902867049775,130.42581665929325z" style="fill:rgb(92,32,204)"/><path d="M-89.95609027868511,132.8320961789963L-92.0136426413546,124.75210867280705L-94.64588865889526,126.02452331494516z" style="fill:rgb(162,50,222)"/><path d="M-92.40118372488065,134.46948325397648L-94.64588865889526,126.02452331494516L-97.11089367386018,127.67187622670731z" style="fill:rgb(183,62,221)"/><path d="M-87.34307056840683,131.5696415706788L-89.31207944258114,123.90207792697542L-92.0136426413546,124.75210867280705z" style="fill:rgb(139,40,220)"/><path d="M-99.3166707370504,129.63321309770262L-92.40118372488065,134.46948325397648L-97.11089367386018,127.67187622670731z" style="fill:rgb(203,77,216)"/><path d="M-96.43164137534158,138.61504010109343L-102.63092715084086,134.1984956905776L-97.86461306337779,140.96962227204511z" style="fill:rgb(233,112,197)"/><path d="M-84.65937234754917,130.72920409296106L-86.6417908510232,123.50673753414944L-89.31207944258114,123.90207792697542z" style="fill:rgb(115,34,214)"/><path d="M-81.7903591586483,124.12681237719623L-79.47902867049775,130.42581665929325L-77.17691365774846,130.97706284232223z" style="fill:rgb(71,33,192)"/><path d="M-90.67158422868748,124.10336113339504L-101.47354871847834,125.7026574403799L-102.25633400543512,129.7033660089784z" style="fill:rgb(83,212,212)"/><path d="M-101.18032410333586,131.83598300247135L-94.58708997687364,136.42120193141602L-99.3166707370504,129.63321309770262z" style="fill:rgb(220,94,208)"/><path d="M-82.00492773177027,130.34273575319338L-84.10264595370917,123.58200684578343L-86.6417908510232,123.50673753414944z" style="fill:rgb(92,32,204)"/><path d="M-97.86461306337779,140.96962227204511L-103.61212938686674,136.63254323674224L-98.83036201370213,143.39702421276758z" style="fill:rgb(242,130,183)"/><path d="M-75.18635033638213,131.9778097281695L-81.7903591586483,124.12681237719623L-77.17691365774846,130.97706284232223z" style="fill:rgb(51,38,177)"/><path d="M-94.64588865889526,126.02452331494516L-97.38291851192626,127.34757947675519L-98.36818388799396,128.51213232180882z" style="fill:rgb(83,212,212)"/><path d="M-102.63092715084086,134.1984956905776L-96.43164137534158,138.61504010109343L-101.18032410333586,131.83598300247135z" style="fill:rgb(233,112,197)"/><path d="M-89.31207944258114,123.90207792697542L-90.67158422868748,124.10336113339504L-92.0136426413546,124.75210867280705zM-97.11089367386018,127.67187622670731L-98.36818388799396,128.51213232180882L-99.3166707370504,129.63321309770262z" style="fill:rgb(83,212,212)"/><path d="M-79.47902867049775,130.42581665929325L-81.7903591586483,124.12681237719623L-84.10264595370917,123.58200684578343z" style="fill:rgb(71,33,192)"/><path d="M-104.83621874042676,120.94766659889315L-49.80005202045125,99.96882017732493L-109.62875487395992,114.06361110686588z" style="fill:rgb(127,37,217)"/><path d="M-97.38291851192626,127.34757947675519L-102.25633400543512,129.7033660089784L-103.12285462868648,134.13199231729268z" style="fill:rgb(83,212,212)"/><path d="M-98.83036201370213,143.39702421276758L-104.08444090210413,139.04647012627314L-99.28997312629281,145.8058329784834z" style="fill:rgb(246,149,167)"/><path d="M-73.58442103296147,133.3925473741873L-79.79310692137484,125.12275752629662L-75.18635033638213,131.9778097281695z" style="fill:rgb(34,46,160)"/><path d="M-103.61212938686674,136.63254323674224L-97.86461306337779,140.96962227204511L-102.63092715084086,134.1984956905776z" style="fill:rgb(242,130,183)"/><path d="M-84.10264595370917,123.58200684578343L-85.27869153451506,123.30492214057959L-86.6417908510232,123.50673753414944zM-42.469261945898396,43.240103045826544L-68.14761805926372,130.92992193708974L-41.930721213878286,144.00326814627599zM-81.7903591586483,124.12681237719623L-83.85982536373514,123.09485095206848L-85.27869153451506,123.30492214057959zM-101.18032410333586,131.83598300247135L-102.13200687585525,132.96082798008953L-102.63092715084086,134.1984956905776z" style="fill:rgb(83,212,212)"/><path d="M-81.7903591586483,124.12681237719623L-75.18635033638213,131.9778097281695L-79.79310692137484,125.12275752629662z" style="fill:rgb(51,38,177)"/><path d="M-104.08444090210413,139.04647012627314L-99.22311835392554,148.10433265524068L-99.28997312629281,145.8058329784834z" style="fill:rgb(246,167,149)"/><path d="M-49.80005202045125,99.96882017732493L-104.83621874042676,120.94766659889315L-45.38599991740248,107.0628997207332z" style="fill:rgb(127,37,217)"/><path d="M-104.08444090210413,139.04647012627314L-98.83036201370213,143.39702421276758L-103.61212938686674,136.63254323674224z" style="fill:rgb(246,149,167)"/><path d="M-102.13200687585525,132.96082798008953L-103.12285462868648,134.13199231729268L-103.61212938686674,136.63254323674224z" style="fill:rgb(83,212,212)"/><path d="M-79.79310692137484,125.12275752629662L-73.58442103296147,133.3925473741873L-78.1882423927687,126.53454530444697z" style="fill:rgb(34,46,160)"/><path d="M-104.02700262839238,141.348362349432L-98.6291165153704,150.203892140863L-99.22311835392554,148.10433265524068z" style="fill:rgb(242,183,130)"/><path d="M-99.22311835392554,148.10433265524068L-104.08444090210413,139.04647012627314L-104.02700262839238,141.348362349432z" style="fill:rgb(246,167,149)"/><path d="M-78.1882423927687,126.53454530444697L-78.77214492229946,125.63187203299987L-79.79310692137484,125.12275752629662z" style="fill:rgb(83,212,212)"/><path d="M-103.43873984358996,143.44944651321785L-97.5275643319493,152.0224170567316L-98.6291165153704,150.203892140863z" style="fill:rgb(233,197,112)"/><path d="M-98.6291165153704,150.203892140863L-104.02700262839238,141.348362349432L-103.43873984358996,143.44944651321785z" style="fill:rgb(242,183,130)"/><path d="M-104.02700262839238,141.348362349432L-104.08444090210413,139.04647012627314L-104.32593756654002,140.28067619978975zM-77.03924507061544,128.31081192819295L-77.70838372758043,126.16233828707749L-78.77214492229946,125.63187203299987z" style="fill:rgb(83,212,212)"/><path d="M-97.5275643319493,152.0224170567316L-103.43873984358996,143.44944651321785L-102.33894661736394,145.26754660673066z" style="fill:rgb(233,197,112)"/><path d="M-99.66101620823392,156.94218359669583L-109.9606719252948,120.15526936731456L-113.74287159611033,160.09830970891954zM-102.33894661736394,145.26754660673066L-103.43873984358996,143.44944651321785L-103.13787871057399,144.5240236924763zM130.01539308681575,-1.4649099333671138L96.61733768920595,4.428156858606409L140.5401071858569,82.69464724617521z" style="fill:rgb(83,212,212)"/><path d="M140.5401071858569,82.69464724617521L133.00286409524142,6.209012183164744L130.01539308681575,-1.4649099333671138z" style="fill:rgb(247,158,158)"/><path d="M-100.76705674904989,146.7304306926096L-103.13787871057399,144.5240236924763L-102.82429399586431,145.6440110282949zM-75.71805842939384,132.55290694874344L-76.3930278672121,130.38569253820881L-76.2187278730139,133.85485543244454zM-76.2187278730139,133.85485543244454L-76.27770647228948,132.6810207173654L-76.70103327433743,135.10902286831168z" style="fill:rgb(83,212,212)"/><path d="M129.0293583580375,57.83914109064731L124.90895657802957,4.289087553367061L121.82999849802333,-3.478519313324495z" style="fill:rgb(247,158,158)"/><path d="M-96.70895015251779,148.87350907242612L-102.82429399586431,145.6440110282949L-101.72325460561592,149.5765837829869zM-71.72603922713657,145.37055156338525L-68.14761805926372,130.92992193708974L-77.70838372758043,126.16233828707749z" style="fill:rgb(83,212,212)"/><path d="M-99.66101620823392,156.94218359669583L-108.80712455472492,166.79350488519756L-94.8150737321255,163.6852391539851z" style="fill:rgb(127,37,217)"/><path d="M-77.64959064478583,137.57562269221728L-79.08885915529198,139.98422103319547L-78.13443473863613,138.83639200300416zM-95.2705452018301,148.67182448567442L-98.7815289163612,147.7789886881646L-96.70895015251779,148.87350907242612zM-93.88613417882863,148.47770942788213L-96.45791965082135,148.36988205788515L-95.2705452018301,148.67182448567442z" style="fill:rgb(83,212,212)"/><path d="M-108.80712455472492,166.79350488519756L-99.66101620823392,156.94218359669583L-113.74287159611033,160.09830970891954z" style="fill:rgb(127,37,217)"/><path d="M-78.13443473863613,138.83639200300416L-82.9190472382262,144.59052057264472L-79.76100523429437,143.06608418998945zM-80.96422588639464,142.23959447164987L-83.2029818653054,144.25203240583244L-81.92191404813533,143.39133691912355zM-42.469261945898396,43.240103045826544L-41.930721213878286,144.00326814627599L106.65370484503983,104.54430040700987zM-88.40740785156977,147.23984505016028L-91.16685440099025,148.0964272895383L-89.77871017942896,147.90178878231373zM-81.92191404813533,143.39133691912355L-85.71720091823525,145.94123580839533L-82.9190472382262,144.59052057264472zM-71.72603922713657,145.37055156338525L-75.71805842939384,132.55290694874344L-81.15566283016548,146.69272201886213zM-79.76100523429437,143.06608418998945L-89.77871017942896,147.90178878231373L-81.15566283016548,146.69272201886213zM-99.66101620823392,156.94218359669583L-63.88230167921337,144.27075300482338L-101.72325460561592,149.5765837829869zM-68.14761805926372,130.92992193708974L-71.72603922713657,145.37055156338525L-63.88230167921337,144.27075300482338z" style="fill:rgb(83,212,212)"/><path d="M-94.8150737321255,163.6852391539851L-62.49428356183077,148.61212373952898L-99.66101620823392,156.94218359669583zM-62.49428356183077,148.61212373952898L-94.8150737321255,163.6852391539851L-57.88901466337992,155.48228080211751z" style="fill:rgb(127,37,217)"/><path d="M77.61775222681335,-29.427419371890423L140.58290447724912,83.03687042068921L140.5401071858569,82.69464724617521zM-46.329776575433236,141.8096355418204L-68.14761805926372,130.92992193708974L-63.88230167921337,144.27075300482338zM67.41184576968797,136.84045871313077L-44.90192251559511,-12.26368727651948L-52.5606667980494,163.22372488464688zM-63.88230167921337,144.27075300482338L-99.66101620823392,156.94218359669583L-62.49428356183077,148.61212373952898z" style="fill:rgb(83,212,212)"/><path d="M-41.930721213878286,144.00326814627599L-57.88901466337992,155.48228080211751L-37.4608985442284,150.94425380122914z" style="fill:rgb(127,37,217)"/><path d="M124.90895657802957,4.289087553367061L129.0293583580375,57.83914109064731L132.23218064096815,65.57965373005922z" style="fill:rgb(247,158,158)"/><path d="M-62.49428356183077,148.61212373952898L-46.329776575433236,141.8096355418204L-63.88230167921337,144.27075300482338z" style="fill:rgb(83,212,212)"/><path d="M-57.88901466337992,155.48228080211751L-41.930721213878286,144.00326814627599L-62.49428356183077,148.61212373952898z" style="fill:rgb(127,37,217)"/><path d="M-46.329776575433236,141.8096355418204L-62.49428356183077,148.61212373952898L-41.930721213878286,144.00326814627599z" style="fill:rgb(83,212,212)"/><path d="M133.00286409524142,6.209012183164744L140.5401071858569,82.69464724617521L143.6838359980636,90.31589860057791z" style="fill:rgb(247,158,158)"/><path d="M112.22169561602342,17.218772839678937L-127.33801429567593,16.80639286048083L-134.70834136222513,78.0390046352629zM-127.33801429567593,16.80639286048083L112.22169561602342,17.218772839678937L105.71656693880185,-44.12951525516967zM101.75837708574986,68.11060191297491L84.5947064733646,61.511951919579474L100.91934817445632,93.35780166565753z" style="fill:rgb(83,212,212)"/><path d="M60.675192809322134,-31.654513646322116L67.41184576968797,136.84045871313077L71.24793848937682,144.24582789369742z" style="fill:rgb(247,158,158)"/><path d="M67.4292991250384,80.71455808112249L129.0293583580375,57.83914109064731L63.77059952729118,73.21318337422886zM-109.62875487395992,114.06361110686588L112.22169561602342,17.218772839678937L-134.70834136222513,78.0390046352629z" style="fill:rgb(127,37,217)"/><path d="M112.10790596850221,77.42988417408073L112.65960941424365,86.29718070261228L115.42200766449444,84.96650047274238z" style="fill:rgb(162,50,222)"/><path d="M109.32398916218717,78.7716308469004L110.16083601363266,88.00202080042294L112.65960941424365,86.29718070261228z" style="fill:rgb(183,62,221)"/><path d="M115.05269904732044,76.5119154205075L115.42200766449444,84.96650047274238L118.34545146500437,84.05951078676819z" style="fill:rgb(139,40,220)"/><path d="M112.22169561602342,17.218772839678937L121.82999849802333,-3.478519313324495L105.71656693880185,-44.12951525516967z" style="fill:rgb(247,158,158)"/><path d="M121.17100993437283,75.5738783710689L101.75837708574986,68.11060191297491L101.40966898522404,78.60361793079501z" style="fill:rgb(83,212,212)"/><path d="M110.16083601363266,88.00202080042294L104.64291924989485,82.51326678320231L108.01890758835954,90.01799473072343z" style="fill:rgb(203,77,216)"/><path d="M118.04905372615818,76.05252545568052L118.34545146500437,84.05951078676819L121.32134388123183,83.61060698400209z" style="fill:rgb(115,34,214)"/><path d="M129.0293583580375,57.83914109064731L67.4292991250384,80.71455808112249L132.23218064096815,65.57965373005922z" style="fill:rgb(127,37,217)"/><path d="M108.01890758835954,90.01799473072343L102.9211132347416,84.77494776902816L106.31450385824296,92.27065471344525z" style="fill:rgb(220,94,208)"/><path d="M120.98527835657228,76.07010661516279L121.32134388123183,83.61060698400209L124.23877938106271,83.63778334564934z" style="fill:rgb(92,32,204)"/><path d="M112.65960941424365,86.29718070261228L112.10790596850221,77.42988417408073L109.32398916218717,78.7716308469004z" style="fill:rgb(162,50,222)"/><path d="M110.16083601363266,88.00202080042294L109.32398916218717,78.7716308469004L106.80433584395388,80.4872277426808z" style="fill:rgb(183,62,221)"/><path d="M115.42200766449444,84.96650047274238L115.05269904732044,76.5119154205075L112.10790596850221,77.42988417408073z" style="fill:rgb(139,40,220)"/><path d="M104.64291924989485,82.51326678320231L110.16083601363266,88.00202080042294L106.80433584395388,80.4872277426808z" style="fill:rgb(203,77,216)"/><path d="M106.31450385824296,92.27065471344525L101.7048527772602,87.1884981397089L105.11289168437422,94.67654460837667z" style="fill:rgb(233,112,197)"/><path d="M118.34545146500437,84.05951078676819L118.04905372615818,76.05252545568052L115.05269904732044,76.5119154205075z" style="fill:rgb(115,34,214)"/><path d="M123.75117245473025,76.56583650214097L124.23877938106271,83.63778334564934L126.98821035680297,84.14183868214202z" style="fill:rgb(71,33,192)"/><path d="M102.9211132347416,84.77494776902816L108.01890758835954,90.01799473072343L104.64291924989485,82.51326678320231z" style="fill:rgb(220,94,208)"/><path d="M-37.4608985442284,150.94425380122914L109.48472450920075,110.06701116486492L-41.930721213878286,144.00326814627599z" style="fill:rgb(127,37,217)"/><path d="M121.32134388123183,83.61060698400209L120.98527835657228,76.07010661516279L118.04905372615818,76.05252545568052z" style="fill:rgb(92,32,204)"/><path d="M108.43986296804815,77.5257708434727L101.40966898522404,78.60361793079501L101.1262239100483,87.13263229193822zM113.52729960414955,76.74578607635728L108.43986296804815,77.5257708434727L106.429279352006,80.1667858513408z" style="fill:rgb(83,212,212)"/><path d="M105.11289168437422,94.67654460837667L101.0421073931748,89.66390869447183L104.4614681317463,97.14592763660994z" style="fill:rgb(242,130,183)"/><path d="M129.465314983,85.1060865284915L123.75117245473025,76.56583650214097L126.98821035680297,84.14183868214202z" style="fill:rgb(51,38,177)"/><path d="M109.32398916218717,78.7716308469004L106.429279352006,80.1667858513408L105.51913791687836,81.3622978388923z" style="fill:rgb(83,212,212)"/><path d="M101.7048527772602,87.1884981397089L106.31450385824296,92.27065471344525L102.9211132347416,84.77494776902816z" style="fill:rgb(233,112,197)"/><path d="M115.05269904732044,76.5119154205075L113.52729960414955,76.74578607635728L112.10790596850221,77.42988417408073zM106.80433584395388,80.4872277426808L105.51913791687836,81.3622978388923L104.64291924989485,82.51326678320231z" style="fill:rgb(83,212,212)"/><path d="M124.23877938106271,83.63778334564934L123.75117245473025,76.56583650214097L120.98527835657228,76.07010661516279z" style="fill:rgb(71,33,192)"/><path d="M112.22169561602342,17.218772839678937L-109.62875487395992,114.06361110686588L129.0293583580375,57.83914109064731z" style="fill:rgb(127,37,217)"/><path d="M104.4614681317463,97.14592763660994L100.96087960295455,92.1079951543921L104.38777025994034,99.58583471996992z" style="fill:rgb(246,149,167)"/><path d="M131.57479429150905,86.49657547946956L126.24179175862984,77.52336810883125L129.465314983,85.1060865284915z" style="fill:rgb(34,46,160)"/><path d="M101.0421073931748,89.66390869447183L105.11289168437422,94.67654460837667L101.7048527772602,87.1884981397089z" style="fill:rgb(242,130,183)"/><path d="M121.82999849802333,-3.478519313324495L112.22169561602342,17.218772839678937L129.0293583580375,57.83914109064731z" style="fill:rgb(247,158,158)"/><path d="M120.98527835657228,76.07010661516279L119.57869500722596,75.81800445313733L118.04905372615818,76.05252545568052zM123.75117245473025,76.56583650214097L121.17100993437283,75.5738783710689L119.57869500722596,75.81800445313733z" style="fill:rgb(83,212,212)"/><path d="M123.75117245473025,76.56583650214097L129.465314983,85.1060865284915L126.24179175862984,77.52336810883125z" style="fill:rgb(51,38,177)"/><path d="M100.96087960295455,92.1079951543921L104.89807047470556,101.9033518059146L104.38777025994034,99.58583471996992z" style="fill:rgb(246,167,149)"/><path d="M102.9211132347416,84.77494776902816L101.1262239100483,87.13263229193822L101.08338456503844,88.42173544176113z" style="fill:rgb(83,212,212)"/><path d="M100.96087960295455,92.1079951543921L104.4614681317463,97.14592763660994L101.0421073931748,89.66390869447183z" style="fill:rgb(246,149,167)"/><path d="M133.23400582863565,88.26296234847335L128.3612856487929,78.90903849205121L131.57479429150905,86.49657547946956z" style="fill:rgb(21,57,142)"/><path d="M101.7048527772602,87.1884981397089L101.08338456503844,88.42173544176113L101.0421073931748,89.66390869447183z" style="fill:rgb(83,212,212)"/><path d="M126.24179175862984,77.52336810883125L131.57479429150905,86.49657547946956L128.3612856487929,78.90903849205121z" style="fill:rgb(34,46,160)"/><path d="M134.37639768510957,90.33995146737006L130.02660849557276,80.67272485892985L133.23400582863565,88.26296234847335z" style="fill:rgb(12,71,124)"/><path d="M104.89807047470556,101.9033518059146L100.96087960295455,92.1079951543921L101.46777823657295,94.42766854787165z" style="fill:rgb(246,167,149)"/><path d="M128.3612856487929,78.90903849205121L133.23400582863565,88.26296234847335L130.02660849557276,80.67272485892985z" style="fill:rgb(21,57,142)"/><path d="M128.3612856487929,78.90903849205121L127.51513186880692,78.0129097466904L126.24179175862984,77.52336810883125zM101.46777823657295,94.42766854787165L100.96087960295455,92.1079951543921L100.91934817445632,93.35780166565753zM130.02660849557276,80.67272485892985L128.84197987531584,78.52302079163076L127.51513186880692,78.0129097466904z" style="fill:rgb(83,212,212)"/><path d="M109.48472450920075,110.06701116486492L-37.4608985442284,150.94425380122914L112.90731794518568,117.54062214464746z" style="fill:rgb(127,37,217)"/><path d="M130.02660849557276,80.67272485892985L134.37639768510957,90.33995146737006L131.17092398754247,82.74927425322667z" style="fill:rgb(12,71,124)"/><path d="M140.5401071858569,82.69464724617521L143.727243553163,90.65770370866332L143.6838359980636,90.31589860057791z" style="fill:rgb(247,158,158)"/><path d="M106.65370484503983,104.54430040700987L-41.930721213878286,144.00326814627599L109.48472450920075,110.06701116486492zM104.16137478717256,98.34261588269892L102.54719550424188,96.53337844908181L103.09934382933817,97.6104994451127z" style="fill:rgb(83,212,212)"/><path d="M143.727243553163,90.65770370866332L140.5401071858569,82.69464724617521L140.58290447724912,83.03687042068921z" style="fill:rgb(247,158,158)"/><path d="M106.25126555065577,99.7832943284402L103.09934382933817,97.6104994451127L103.67489428219707,98.73328125518071zM132.36644055647642,84.91870773398315L131.17092398754247,82.74927425322667L132.04103871190264,86.24280643645393z" style="fill:rgb(83,212,212)"/><path d="M140.58290447724912,83.03687042068921L145.54036765394397,104.93507655952418L143.727243553163,90.65770370866332z" style="fill:rgb(247,158,158)"/><path d="M132.04103871190264,86.24280643645393L131.74659851272153,85.06059962507166L131.72755371464322,87.51843817701358zM111.33491428536286,101.8551516294255L103.67489428219707,98.73328125518071L105.69634818619352,102.6766948474121zM139.44275153057865,97.75981827033986L140.58290447724912,83.03687042068921L128.84197987531584,78.52302079163076zM131.11093159782507,90.02760215408482L129.9177152911696,92.48977256562925L130.79570926937896,91.31030944869953zM112.95257846732125,101.61945548511318L108.73831666064628,100.7969005688313L111.33491428536286,101.8551516294255zM114.50960312859036,101.3925962886916L111.52724558927237,101.34125929202249L112.95257846732125,101.61945548511318zM130.79570926937896,91.31030944869953L126.39368891702635,97.22380338298909L129.73797607598883,95.61445116198837z" style="fill:rgb(83,212,212)"/><path d="M116.34667270900636,108.52906276171365L112.90731794518568,117.54062214464746L119.71972483534414,116.02727421306643z" style="fill:rgb(127,37,217)"/><path d="M128.19236051842182,94.80754236043208L126.00133188320267,96.88859053398652L127.31120666299464,95.99125341732322zM120.58171841498384,100.02066129627222L117.56813064077173,100.94696429918376L119.1295757744684,100.71946705947373zM127.31120666299464,95.99125341732322L123.43053091011016,98.64973941051042L126.39368891702635,97.22380338298909z" style="fill:rgb(83,212,212)"/><path d="M145.54036765394397,104.93507655952418L140.58290447724912,83.03687042068921L142.37075766705718,97.33320821916749z" style="fill:rgb(247,158,158)"/><path d="M106.65370484503983,104.54430040700987L142.37075766705718,97.33320821916749L105.69634818619352,102.6766948474121zM139.44275153057865,97.75981827033986L132.36644055647642,84.91870773398315L128.83078792575517,99.30598783742222zM129.73797607598883,95.61445116198837L119.1295757744684,100.71946705947373L128.83078792575517,99.30598783742222z" style="fill:rgb(83,212,212)"/><path d="M112.90731794518568,117.54062214464746L116.34667270900636,108.52906276171365L109.48472450920075,110.06701116486492zM-47.88192791969884,170.20513776168826L67.41184576968797,136.84045871313077L-52.5606667980494,163.22372488464688z" style="fill:rgb(127,37,217)"/><path d="M116.34667270900636,108.52906276171365L106.65370484503983,104.54430040700987L109.48472450920075,110.06701116486492zM140.58290447724912,83.03687042068921L139.44275153057865,97.75981827033986L142.37075766705718,97.33320821916749z" style="fill:rgb(83,212,212)"/><path d="M142.37075766705718,97.33320821916749L146.20191111080413,110.14437391902158L145.54036765394397,104.93507655952418z" style="fill:rgb(247,158,158)"/><path d="M142.37075766705718,97.33320821916749L106.65370484503983,104.54430040700987L116.34667270900636,108.52906276171365z" style="fill:rgb(83,212,212)"/><path d="M143.02317041505216,102.55014492847317L119.71972483534414,116.02727421306643L146.20191111080413,110.14437391902158zM119.71972483534414,116.02727421306643L143.02317041505216,102.55014492847317L116.34667270900636,108.52906276171365z" style="fill:rgb(127,37,217)"/><path d="M146.20191111080413,110.14437391902158L142.37075766705718,97.33320821916749L143.02317041505216,102.55014492847317z" style="fill:rgb(247,158,158)"/><path d="M142.37075766705718,97.33320821916749L116.34667270900636,108.52906276171365L143.02317041505216,102.55014492847317z" style="fill:rgb(83,212,212)"/><path d="M67.41184576968797,136.84045871313077L-47.88192791969884,170.20513776168826L71.24793848937682,144.24582789369742z" style="fill:rgb(127,37,217)"/></svg>
