<?xml version="1.0" encoding="UTF-8"?>
<!-- Generated by jsxcad -->
<!DOCTYPE svg PUBLIC "-//W3C//DTD SVG 1.1 Tiny//EN" "http://www.w3.org/Graphics/SVG/1.1/DTD/svg11-tiny.dtd">
<svg viewBox="-250 -250 500 500" width="500" height="500" xmlns="http://www.w3.org/2000/svg"><path d="M-36.58803901640823,-58.39646269379465L51.05036422640006,-90.29221043930012L-40.08744551740773,-65.11808412984219z" style="fill:rgb(127,37,217)"/><path d="M-41.021318431388046,-42.38131840493762L-36.58803901640823,-58.39646269379465L-40.08744551740773,-65.11808412984219z" style="fill:rgb(247,158,158)"/><path d="M51.05036422640006,-90.29221043930012L-36.58803901640823,-58.39646269379465L54.062808097042364,-83.26227490111036z" style="fill:rgb(127,37,217)"/><path d="M-36.58803901640823,-58.39646269379465L-41.021318431388046,-42.38131840493762L-37.43509322723563,-35.64538048287775z" style="fill:rgb(247,158,158)"/><path d="M-86.69624485769643,-22.409591826454886L-41.021318431388046,-42.38131840493762L-90.54236707546225,-28.980506743699557zM-41.021318431388046,-42.38131840493762L-86.69624485769643,-22.409591826454886L-37.43509322723563,-35.64538048287775z" style="fill:rgb(127,37,217)"/><path d="M100.59410596379628,-126.20454052525665L108.22555178570292,-74.78238538235271L103.27017866690836,-119.02836985890252zM108.22555178570292,-74.78238538235271L100.59410596379628,-126.20454052525665L105.45235725948459,-82.01833141175788z" style="fill:rgb(247,158,158)"/><path d="M91.02903657724863,-119.65229260613442L-105.49899022874074,-107.42488957770694L-110.50829471833403,-63.091331932762394zM-105.49899022874074,-107.42488957770694L91.02903657724863,-119.65229260613442L86.70148248867474,-163.45905864022123z" style="fill:rgb(83,212,212)"/><path d="M55.34338823173821,-60.57367640270593L105.45235725948459,-82.01833141175788L52.267326692395926,-67.62601145948905zM-90.54236707546225,-28.980506743699557L91.02903657724863,-119.65229260613442L-110.50829471833403,-63.091331932762394z" style="fill:rgb(127,37,217)"/><path d="M91.02903657724863,-119.65229260613442L100.59410596379628,-126.20454052525665L86.70148248867474,-163.45905864022123z" style="fill:rgb(247,158,158)"/><path d="M105.45235725948459,-82.01833141175788L55.34338823173821,-60.57367640270593L108.22555178570292,-74.78238538235271zM91.02903657724863,-119.65229260613442L-90.54236707546225,-28.980506743699557L105.45235725948459,-82.01833141175788z" style="fill:rgb(127,37,217)"/><path d="M100.59410596379628,-126.20454052525665L91.02903657724863,-119.65229260613442L105.45235725948459,-82.01833141175788z" style="fill:rgb(247,158,158)"/><path d="M111.19293170833231,-92.37033610517204L-57.04258550451744,-46.48836662482448L123.71369279986345,14.462226209524573zM-40.08744551740773,-65.11808412984219L58.88488929513726,55.627571416009815L51.05036422640006,-90.29221043930012z" style="fill:rgb(83,212,212)"/><path d="M51.05036422640006,-90.29221043930012L62.3002578030588,62.68422006427642L54.062808097042364,-83.26227490111036z" style="fill:rgb(247,158,158)"/><path d="M-97.66542024371917,52.10481260203035L-88.31845441638984,47.782310060422034L-96.94603742016562,44.052371795220004z" style="fill:rgb(83,212,212)"/><path d="M123.71369279986345,14.462226209524573L113.86919242655641,-85.22775415899794L111.19293170833231,-92.37033610517204z" style="fill:rgb(247,158,158)"/><path d="M-89.6518841493076,-37.59500823378843L134.84909055484457,109.47428032590884L-57.04258550451744,-46.48836662482448zM-88.31845441638984,47.782310060422034L-97.66542024371917,52.10481260203035L-92.44527805293899,68.68143991214855z" style="fill:rgb(83,212,212)"/><path d="M-81.61086212901569,55.42609644374613L-79.85372094413351,63.060771589213566L-77.5335156877871,61.93558234005078z" style="fill:rgb(162,50,222)"/><path d="M-83.94621324029625,56.559187389949216L-82.02112673590028,64.49341653598351L-79.85372094413351,63.060771589213566z" style="fill:rgb(183,62,221)"/><path d="M-79.210402573595,54.64250683577294L-77.5335156877871,61.93558234005078L-75.14717788684248,61.15993837355906z" style="fill:rgb(139,40,220)"/><path d="M-74.35980434158643,53.817014936087176L-88.31845441638984,47.782310060422034L-90.0369194757821,56.48499886868968z" style="fill:rgb(83,212,212)"/><path d="M-82.02112673590028,64.49341653598351L-88.07823995254304,59.69317320542753L-83.95456360486531,66.18022082538546z" style="fill:rgb(203,77,216)"/><path d="M-76.83453525921313,54.238173584892756L-75.14717788684248,61.15993837355906L-72.78388142153841,60.76330031382245z" style="fill:rgb(115,34,214)"/><path d="M-83.95456360486531,66.18022082538546L-89.71973045215019,61.57755368148899L-85.58116356922487,68.05848579459806z" style="fill:rgb(220,94,208)"/><path d="M-74.57238778187934,54.2291268818088L-72.78388142153841,60.76330031382245L-70.53229321067919,60.7614058374882z" style="fill:rgb(92,32,204)"/><path d="M-79.85372094413351,63.060771589213566L-81.61086212901569,55.42609644374613L-83.94621324029625,56.559187389949216z" style="fill:rgb(162,50,222)"/><path d="M-82.02112673590028,64.49341653598351L-83.94621324029625,56.559187389949216L-86.12925388262379,57.99940224277404z" style="fill:rgb(183,62,221)"/><path d="M-77.5335156877871,61.93558234005078L-79.210402573595,54.64250683577294L-81.61086212901569,55.42609644374613z" style="fill:rgb(139,40,220)"/><path d="M-88.07823995254304,59.69317320542753L-82.02112673590028,64.49341653598351L-86.12925388262379,57.99940224277404z" style="fill:rgb(203,77,216)"/><path d="M-85.58116356922487,68.05848579459806L-90.99116680610469,63.582319255347656L-86.83891603819404,70.05820476348867z" style="fill:rgb(233,112,197)"/><path d="M-75.14717788684248,61.15993837355906L-76.83453525921313,54.238173584892756L-79.210402573595,54.64250683577294z" style="fill:rgb(115,34,214)"/><path d="M-72.50941089005315,54.616993983822134L-70.53229321067919,60.7614058374882L-68.47748478440884,61.1555979721321z" style="fill:rgb(71,33,192)"/><path d="M-80.42019140775848,54.84839343115382L-90.0369194757821,56.48499886868968L-90.69848400786337,59.83533414637716z" style="fill:rgb(83,212,212)"/><path d="M-89.71973045215019,61.57755368148899L-83.95456360486531,66.18022082538546L-88.07823995254304,59.69317320542753z" style="fill:rgb(220,94,208)"/><path d="M-72.78388142153841,60.76330031382245L-74.57238778187934,54.2291268818088L-76.83453525921313,54.238173584892756z" style="fill:rgb(92,32,204)"/><path d="M-86.83891603819404,70.05820476348867L-91.84318642109855,65.63232465001033L-87.67901193375351,72.10441439383989z" style="fill:rgb(242,130,183)"/><path d="M-66.6978525683065,61.93259315167959L-72.50941089005315,54.616993983822134L-68.47748478440884,61.1555979721321z" style="fill:rgb(51,38,177)"/><path d="M-83.94621324029625,56.559187389949216L-86.37457071325036,57.7374100852632L-87.24266215786268,58.73394724762994z" style="fill:rgb(83,212,212)"/><path d="M-90.99116680610469,63.582319255347656L-85.58116356922487,68.05848579459806L-89.71973045215019,61.57755368148899z" style="fill:rgb(233,112,197)"/><path d="M-79.210402573595,54.64250683577294L-80.42019140775848,54.84839343115382L-81.61086212901569,55.42609644374613zM-86.12925388262379,57.99940224277404L-87.24266215786268,58.73394724762994L-88.07823995254304,59.69317320542753z" style="fill:rgb(83,212,212)"/><path d="M-70.53229321067919,60.7614058374882L-72.50941089005315,54.616993983822134L-74.57238778187934,54.2291268818088z" style="fill:rgb(71,33,192)"/><path d="M-86.37457071325036,57.7374100852632L-90.69848400786337,59.83533414637716L-91.43025619459144,63.54118776676663z" style="fill:rgb(83,212,212)"/><path d="M-87.67901193375351,72.10441439383989L-92.24162186339129,67.65011952019748L-88.06772278120805,74.11980433796833z" style="fill:rgb(246,149,167)"/><path d="M-65.26223619480025,63.0646964227419L-70.72433023073894,55.388731235322176L-66.6978525683065,61.93259315167959z" style="fill:rgb(34,46,160)"/><path d="M-91.84318642109855,65.63232465001033L-86.83891603819404,70.05820476348867L-90.99116680610469,63.582319255347656z" style="fill:rgb(242,130,183)"/><path d="M-74.57238778187934,54.2291268818088L-75.62191009600168,54.031804292392785L-76.83453525921313,54.238173584892756zM-72.50941089005315,54.616993983822134L-74.35980434158643,53.817014936087176L-75.62191009600168,54.031804292392785zM-89.71973045215019,61.57755368148899L-90.55780568599492,62.539635209871605L-90.99116680610469,63.582319255347656z" style="fill:rgb(83,212,212)"/><path d="M-72.50941089005315,54.616993983822134L-66.6978525683065,61.93259315167959L-70.72433023073894,55.388731235322176z" style="fill:rgb(51,38,177)"/><path d="M-92.24162186339129,67.65011952019748L-87.98799809611542,76.02747568221594L-88.06772278120805,74.11980433796833z" style="fill:rgb(246,167,149)"/><path d="M-92.24162186339129,67.65011952019748L-87.67901193375351,72.10441439383989L-91.84318642109855,65.63232465001033z" style="fill:rgb(246,149,167)"/><path d="M-64.22719044925564,64.51056674707165L-69.28620300598244,56.51687750231535L-65.26223619480025,63.0646964227419z" style="fill:rgb(21,57,142)"/><path d="M-90.55780568599492,62.539635209871605L-91.43025619459144,63.54118776676663L-91.84318642109855,65.63232465001033z" style="fill:rgb(83,212,212)"/><path d="M-70.72433023073894,55.388731235322176L-65.26223619480025,63.0646964227419L-69.28620300598244,56.51687750231535z" style="fill:rgb(34,46,160)"/><path d="M-92.16901609557168,69.55870926211355L-87.44033181310093,77.75380864203073L-87.98799809611542,76.02747568221594z" style="fill:rgb(242,183,130)"/><path d="M-87.98799809611542,76.02747568221594L-92.24162186339129,67.65011952019748L-92.16901609557168,69.55870926211355z" style="fill:rgb(246,167,149)"/><path d="M-69.28620300598244,56.51687750231535L-64.22719044925564,64.51056674707165L-68.25170475162955,57.96025929402805z" style="fill:rgb(21,57,142)"/><path d="M-69.28620300598244,56.51687750231535L-69.81210867710155,55.783109545955526L-70.72433023073894,55.388731235322176zM134.84909055484457,109.47428032590884L-89.6518841493076,-37.59500823378843L-94.47152408828687,16.35381610632437z" style="fill:rgb(83,212,212)"/><path d="M-87.44033181310093,77.75380864203073L-92.16901609557168,69.55870926211355L-91.62556965023778,71.28442919714041z" style="fill:rgb(242,183,130)"/><path d="M-92.16901609557168,69.55870926211355L-92.24162186339129,67.65011952019748L-92.44527805293899,68.68143991214855zM-68.25170475162955,57.96025929402805L-68.86184915518555,56.19393110599817L-69.81210867710155,55.783109545955526zM-90.62956592758877,72.75982352659722L-91.62556965023778,71.28442919714041L-91.34773127594411,72.16670446269735zM-89.21707133411817,73.92639287939082L-91.34773127594411,72.16670446269735L-91.0582169110927,73.08604017689491zM-67.0479007420286,61.4452193239627L-67.66275221683641,59.66524988839224L-67.48412933538833,62.54001538228382zM-67.48412933538833,62.54001538228382L-67.54455591398828,61.56753978963691L-67.90427049393747,63.59442355129344zM-85.58756367850994,75.58299831694492L-91.0582169110927,73.08604017689491L-90.04228254444367,76.31217243191911zM-96.94603742016562,44.052371795220004L81.28390993963288,87.72301258960071L-94.47152408828687,16.35381610632437zM-68.73031969398889,65.66753298871315L-69.99249038663957,67.70589607060738L-69.15241824215563,66.72685858485733zM-84.30999286423452,75.37387754379331L-87.44085871665519,74.7371053708802L-85.58756367850994,75.58299831694492zM-83.08050994172156,75.17262734001831L-85.36862523484521,75.15856658432972L-84.30999286423452,75.37387754379331zM-69.15241824215563,66.72685858485733L-73.36265522568294,71.63357359957352L-70.56785790727271,70.27914068071877zM-71.64284061442144,69.62925792493206L-73.61746360154396,71.36145002207562L-72.48545473847602,70.61125789120078zM-78.21986777930815,73.98750784548767L-80.66591628571554,74.77739627958758L-79.43350013085495,74.5756659467059zM-72.48545473847602,70.61125789120078L-75.83900656942511,72.83367595901134L-73.36265522568294,71.63357359957352zM-63.417813158827805,71.95411754764172L-67.0479007420286,61.4452193239627L-71.78071691340992,73.32301265490294zM-70.56785790727271,70.27914068071877L-79.43350013085495,74.5756659467059L-71.78071691340992,73.32301265490294zM58.88488929513726,55.627571416009815L-40.08744551740773,-65.11808412984219L-46.08223110429601,80.8353994275063z" style="fill:rgb(83,212,212)"/><path d="M113.86919242655641,-85.22775415899794L123.71369279986345,14.462226209524573L126.6015119819276,21.65526215744566z" style="fill:rgb(247,158,158)"/><path d="M-40.924054767396534,68.27220116329788L-68.86184915518555,56.19393110599817L-63.417813158827805,71.95411754764172zM-57.04258550451744,-46.48836662482448L134.84909055484457,109.47428032590884L74.82152595696162,-2.024097038849567z" style="fill:rgb(83,212,212)"/><path d="M62.3002578030588,62.68422006427642L51.05036422640006,-90.29221043930012L58.88488929513726,55.627571416009815z" style="fill:rgb(247,158,158)"/><path d="M89.86250313488154,3.047684051690108L74.82152595696162,-2.024097038849567L88.89954033096063,24.063464175014598z" style="fill:rgb(83,212,212)"/><path d="M98.85642830329198,10.542021677386135L99.43569474144809,18.834485301563767L101.8729261406869,17.655433193178084z" style="fill:rgb(162,50,222)"/><path d="M96.40246091697857,11.729750390677326L97.22619426362193,20.318113057461893L99.43569474144809,18.834485301563767z" style="fill:rgb(183,62,221)"/><path d="M101.44704543669174,9.702641446527391L101.8729261406869,17.655433193178084L104.44701358698127,16.825011242096757z" style="fill:rgb(139,40,220)"/><path d="M106.81809845890913,8.76507063709507L89.86250313488154,3.047684051690108L89.46170317138518,11.79480741537524z" style="fill:rgb(83,212,212)"/><path d="M97.22619426362193,20.318113057461893L92.26231556468248,14.96173873096483L95.32713940490851,22.051199539396546z" style="fill:rgb(203,77,216)"/><path d="M104.07773957025195,9.243427817251517L104.44701358698127,16.825011242096757L107.06194067289346,16.374708162045142z" style="fill:rgb(115,34,214)"/><path d="M95.32713940490851,22.051199539396546L90.73168139226055,16.885995129883806L93.81022104492149,23.96940391025744z" style="fill:rgb(220,94,208)"/><path d="M106.6500750470067,9.182490771014574L107.06194067289346,16.374708162045142L109.61988664374888,16.32229563608446z" style="fill:rgb(92,32,204)"/><path d="M99.43569474144809,18.834485301563767L98.85642830329198,10.542021677386135L96.40246091697857,11.729750390677326z" style="fill:rgb(162,50,222)"/><path d="M97.22619426362193,20.318113057461893L96.40246091697857,11.729750390677326L94.17665380531268,13.221457610200396z" style="fill:rgb(183,62,221)"/><path d="M101.8729261406869,17.655433193178084L101.44704543669174,9.702641446527391L98.85642830329198,10.542021677386135z" style="fill:rgb(139,40,220)"/><path d="M92.26231556468248,14.96173873096483L97.22619426362193,20.318113057461893L94.17665380531268,13.221457610200396z" style="fill:rgb(203,77,216)"/><path d="M93.81022104492149,23.96940391025744L89.64336975310779,18.922579362195506L92.73352872887214,26.001293311594377z" style="fill:rgb(233,112,197)"/><path d="M104.44701358698127,16.825011242096757L104.07773957025195,9.243427817251517L101.44704543669174,9.702641446527391z" style="fill:rgb(115,34,214)"/><path d="M109.06721667969265,9.523471407343925L109.61988664374888,16.32229563608446L112.024517227205,16.671083494481394z" style="fill:rgb(71,33,192)"/><path d="M90.73168139226055,16.885995129883806L95.32713940490851,22.051199539396546L92.26231556468248,14.96173873096483z" style="fill:rgb(220,94,208)"/><path d="M107.06194067289346,16.374708162045142L106.6500750470067,9.182490771014574L104.07773957025195,9.243427817251517z" style="fill:rgb(92,32,204)"/><path d="M95.63918101355527,10.7164642369068L89.46170317138518,11.79480741537524L89.13652858485081,18.891361930751977zM100.1075783717501,9.93646027845473L95.63918101355527,10.7164642369068L93.8507839226974,12.964774399635727z" style="fill:rgb(83,212,212)"/><path d="M92.73352872887214,26.001293311594377L89.04013219810841,20.99520728304731L92.1393620403984,28.070749683555217z" style="fill:rgb(242,130,183)"/><path d="M114.18442695408314,17.409602934958592L109.06721667969265,9.523471407343925L112.024517227205,16.671083494481394z" style="fill:rgb(51,38,177)"/><path d="M96.40246091697857,11.729750390677326L93.8507839226974,12.964774399635727L93.04141017182648,13.98228454015629z" style="fill:rgb(83,212,212)"/><path d="M89.64336975310779,18.922579362195506L93.81022104492149,23.96940391025744L90.73168139226055,16.885995129883806z" style="fill:rgb(233,112,197)"/><path d="M101.44704543669174,9.702641446527391L100.1075783717501,9.93646027845473L98.85642830329198,10.542021677386135zM94.17665380531268,13.221457610200396L93.04141017182648,13.98228454015629L92.26231556468248,14.96173873096483z" style="fill:rgb(83,212,212)"/><path d="M109.61988664374888,16.32229563608446L109.06721667969265,9.523471407343925L106.6500750470067,9.182490771014574z" style="fill:rgb(71,33,192)"/><path d="M92.1393620403984,28.070749683555217L88.94709425880428,23.025588242942725L92.05247740181271,30.099601422825565z" style="fill:rgb(246,149,167)"/><path d="M116.01649739994137,18.51176136868615L111.23728629372337,10.25521216742873L114.18442695408314,17.409602934958592z" style="fill:rgb(34,46,160)"/><path d="M89.04013219810841,20.99520728304731L92.73352872887214,26.001293311594377L89.64336975310779,18.922579362195506z" style="fill:rgb(242,130,183)"/><path d="M106.6500750470067,9.182490771014574L105.42049023246351,9.009036448454342L104.07773957025195,9.243427817251517zM109.06721667969265,9.523471407343925L106.81809845890913,8.76507063709507L105.42049023246351,9.009036448454342z" style="fill:rgb(83,212,212)"/><path d="M109.06721667969265,9.523471407343925L114.18442695408314,17.409602934958592L111.23728629372337,10.25521216742873z" style="fill:rgb(51,38,177)"/><path d="M88.94709425880428,23.025588242942725L92.47887003506004,32.010407595002974L92.05247740181271,30.099601422825565z" style="fill:rgb(246,167,149)"/><path d="M90.73168139226055,16.885995129883806L89.13652858485081,18.891361930751977L89.08742987648733,19.962917660337386z" style="fill:rgb(83,212,212)"/><path d="M88.94709425880428,23.025588242942725L92.1393620403984,28.070749683555217L89.04013219810841,20.99520728304731z" style="fill:rgb(246,149,167)"/><path d="M117.44906791417715,19.937498573983568L113.07674674922177,11.351897326191265L116.01649739994137,18.51176136868615z" style="fill:rgb(21,57,142)"/><path d="M89.64336975310779,18.922579362195506L89.08742987648733,19.962917660337386L89.04013219810841,20.99520728304731zM-65.50108051637956,154.24298538091566L-40.924054767396534,68.27220116329788L-90.04228254444367,76.31217243191911z" style="fill:rgb(83,212,212)"/><path d="M111.23728629372337,10.25521216742873L116.01649739994137,18.51176136868615L113.07674674922177,11.351897326191265z" style="fill:rgb(34,46,160)"/><path d="M118.42490254620361,21.63398262081357L114.5136422434699,12.77369929836619L117.44906791417715,19.937498573983568z" style="fill:rgb(12,71,124)"/><path d="M-65.50108051637956,154.24298538091566L-97.66542024371917,52.10481260203035L-104.96322195830031,133.79302201843277z" style="fill:rgb(83,212,212)"/><path d="M92.47887003506004,32.010407595002974L88.94709425880428,23.025588242942725L89.3705193429101,24.93622067143783z" style="fill:rgb(246,167,149)"/><path d="M113.07674674922177,11.351897326191265L117.44906791417715,19.937498573983568L114.5136422434699,12.77369929836619z" style="fill:rgb(21,57,142)"/><path d="M113.07674674922177,11.351897326191265L112.34636661648472,10.629191539951304L111.23728629372337,10.25521216742873zM89.3705193429101,24.93622067143783L88.94709425880428,23.025588242942725L88.89954033096063,24.063464175014598zM114.5136422434699,12.77369929836619L113.50178144179054,11.01879448898289L112.34636661648472,10.629191539951304z" style="fill:rgb(83,212,212)"/><path d="M114.5136422434699,12.77369929836619L118.42490254620361,21.63398262081357L115.49053789857592,14.46795974818844z" style="fill:rgb(12,71,124)"/><path d="M91.69418586674864,28.10955223397085L90.29712541900611,26.653289630761314L90.77091582630784,27.531253213996123zM93.51032981719986,29.247103364545918L90.77091582630784,27.531253213996123L91.26464833037662,28.446183981521322zM116.5105842883241,16.237043314624394L115.49053789857592,14.46795974818844L116.21067954028094,17.343846953467946zM116.21067954028094,17.343846953467946L115.9670520996698,16.370907733108808L115.92182146438842,18.409897120832127zM97.93832855090123,30.826347447498513L91.26464833037662,28.446183981521322L92.99763027328788,31.657517537002057zM122.53663530334534,26.688206446451904L123.71369279986345,14.462226209524573L113.50178144179054,11.01879448898289z" style="fill:rgb(83,212,212)"/><path d="M125.09611223460921,26.257630194599145L126.6015119819276,21.65526215744566L123.71369279986345,14.462226209524573z" style="fill:rgb(247,158,158)"/><path d="M115.35383150239436,20.506118999350807L114.2828408314804,22.577690263385904L115.06356558370278,21.577367371764108zM99.35539989354828,30.587955146112755L95.6771409883039,30.01989783552498L97.93832855090123,30.826347447498513z" style="fill:rgb(83,212,212)"/><path d="M-42.02134592294202,87.53703611624633L58.88488929513726,55.627571416009815L-46.08223110429601,80.8353994275063z" style="fill:rgb(127,37,217)"/><path d="M126.6015119819276,21.65526215744566L125.09611223460921,26.257630194599145L128.00618327831577,33.446949410265184z" style="fill:rgb(247,158,158)"/><path d="M100.71918958848873,30.358529137197L98.11159868686916,30.39586624499763L99.35539989354828,30.587955146112755zM115.06356558370278,21.577367371764108L111.15037267217946,26.59122763752241L114.09005255218405,25.170206611347275zM112.74896353896749,24.543000904785043L110.8112995241726,26.324152893341463L111.96576667933364,25.54649256481022zM106.04140318130891,29.060863964433675L103.39768182190491,29.90792816613968L104.76487656390564,29.677926805797515zM111.96576667933364,25.54649256481022L108.5456548831959,27.850324744782178L111.15037267217946,26.59122763752241zM122.53663530334534,26.688206446451904L116.5105842883241,16.237043314624394L113.25568188302034,28.249529782033708zM114.09005255218405,25.170206611347275L104.76487656390564,29.677926805797515L113.25568188302034,28.249529782033708zM123.71369279986345,14.462226209524573L122.53663530334534,26.688206446451904L125.09611223460921,26.257630194599145z" style="fill:rgb(83,212,212)"/><path d="M58.88488929513726,55.627571416009815L-42.02134592294202,87.53703611624633L62.3002578030588,62.68422006427642z" style="fill:rgb(127,37,217)"/><path d="M-100.306160964885,163.05070385177464L-104.96322195830031,133.79302201843277L-105.80702450794455,143.23815451270625zM-104.96322195830031,133.79302201843277L-100.306160964885,163.05070385177464L-95.68460881186704,138.60136373580403z" style="fill:rgb(83,212,212)"/><path d="M-88.49606324337454,147.9372773859399L-86.54201113273584,155.5431188718704L-84.02792957240413,154.3301781019741z" style="fill:rgb(162,50,222)"/><path d="M-91.027937394102,149.15941030768377L-88.89317284390151,157.12569566568175L-86.54201113273584,155.5431188718704z" style="fill:rgb(183,62,221)"/><path d="M-85.89619080942983,147.13054113544086L-84.02792957240413,154.3301781019741L-81.44460994780295,153.5321661457966z" style="fill:rgb(139,40,220)"/><path d="M-80.64695772549005,146.39413320964383L-95.68460881186704,138.60136373580403L-97.60739896986628,148.7734839514356z" style="fill:rgb(83,212,212)"/><path d="M-88.89317284390151,157.12569566568175L-95.51624008167371,152.65397681881274L-90.99355927464026,159.01922664732712z" style="fill:rgb(203,77,216)"/><path d="M-83.32524378712495,146.76986651044882L-81.44460994780295,153.5321661457966L-78.88836072024596,153.17942184789632z" style="fill:rgb(115,34,214)"/><path d="M-90.99355927464026,159.01922664732712L-97.3044441427355,154.79695663480797L-92.76414811398504,161.15359474697723z" style="fill:rgb(220,94,208)"/><path d="M-80.87947416861859,146.8698582216237L-78.88836072024596,153.17942184789632L-76.45489887377312,153.28624820227336z" style="fill:rgb(92,32,204)"/><path d="M-86.54201113273584,155.5431188718704L-88.49606324337454,147.9372773859399L-91.027937394102,149.15941030768377z" style="fill:rgb(162,50,222)"/><path d="M-88.89317284390151,157.12569566568175L-91.027937394102,149.15941030768377L-93.39750588201106,150.75131483439625z" style="fill:rgb(183,62,221)"/><path d="M-84.02792957240413,154.3301781019741L-85.89619080942983,147.13054113544086L-88.49606324337454,147.9372773859399z" style="fill:rgb(139,40,220)"/><path d="M-95.51624008167371,152.65397681881274L-88.89317284390151,157.12569566568175L-93.39750588201106,150.75131483439625z" style="fill:rgb(203,77,216)"/><path d="M-92.76414811398504,161.15359474697723L-98.69402907621166,157.10067583093598L-94.13749800587776,163.4495260842434z" style="fill:rgb(233,112,197)"/><path d="M-81.44460994780295,153.5321661457966L-83.32524378712495,146.76986651044882L-85.89619080942983,147.13054113544086z" style="fill:rgb(115,34,214)"/><path d="M-78.6511406431681,147.4283978711576L-76.45489887377312,153.28624820227336L-74.23604053434603,153.85025312128334z" style="fill:rgb(71,33,192)"/><path d="M-87.20518463184308,147.31417875831994L-97.60739896986628,148.7734839514356L-98.3482648087577,152.6929166871788z" style="fill:rgb(83,212,212)"/><path d="M-97.3044441427355,154.79695663480797L-90.99355927464026,159.01922664732712L-95.51624008167371,152.65397681881274z" style="fill:rgb(220,94,208)"/><path d="M-78.88836072024596,153.17942184789632L-80.87947416861859,146.8698582216237L-83.32524378712495,146.76986651044882z" style="fill:rgb(92,32,204)"/><path d="M-94.13749800587776,163.4495260842434L-99.63102442047841,159.47904517986774L-95.06029134841563,165.82121049248542z" style="fill:rgb(242,130,183)"/><path d="M-72.31640031298079,154.85215846057505L-78.6511406431681,147.4283978711576L-74.23604053434603,153.85025312128334z" style="fill:rgb(51,38,177)"/><path d="M81.28390993963288,87.72301258960071L-96.94603742016562,44.052371795220004L102.28962508774954,130.18737358284605zM-91.027937394102,149.15941030768377L-93.66061516001648,150.43020196875668L-94.60609451381002,151.5632565011428z" style="fill:rgb(83,212,212)"/><path d="M-98.69402907621166,157.10067583093598L-92.76414811398504,161.15359474697723L-97.3044441427355,154.79695663480797z" style="fill:rgb(233,112,197)"/><path d="M-85.89619080942983,147.13054113544086L-87.20518463184308,147.31417875831994L-88.49606324337454,147.9372773859399zM-93.39750588201106,150.75131483439625L-94.60609451381002,151.5632565011428L-95.51624008167371,152.65397681881274z" style="fill:rgb(83,212,212)"/><path d="M-76.45489887377312,153.28624820227336L-78.6511406431681,147.4283978711576L-80.87947416861859,146.8698582216237z" style="fill:rgb(71,33,192)"/><path d="M-93.66061516001648,150.43020196875668L-98.3482648087577,152.6929166871788L-99.16816923144273,157.03044950514217z" style="fill:rgb(83,212,212)"/><path d="M-95.06029134841563,165.82121049248542L-100.0777643936491,161.8424701891045L-95.49538967464939,168.17929883689453z" style="fill:rgb(246,149,167)"/><path d="M-70.77028636241248,156.2562064817827L-76.72523898085167,148.4264367680191L-72.31640031298079,154.85215846057505z" style="fill:rgb(34,46,160)"/><path d="M-15.160054478651869,73.40944925149309L27.81622664854938,104.31467201208962L26.820879357475953,63.32773739544352z" style="fill:rgb(83,212,212)"/><path d="M-99.63102442047841,159.47904517986774L-94.13749800587776,163.4495260842434L-98.69402907621166,157.10067583093598z" style="fill:rgb(242,130,183)"/><path d="M-80.87947416861859,146.8698582216237L-82.0129215801139,146.5857619519152L-83.32524378712495,146.76986651044882zM-40.924054767396534,68.27220116329788L-65.50108051637956,154.24298538091566L-40.265787895485715,167.32034931513087z" style="fill:rgb(83,212,212)"/><path d="M27.81622664854938,104.31467201208962L30.437481818691644,70.27497653636213L26.820879357475953,63.32773739544352z" style="fill:rgb(247,158,158)"/><path d="M-78.6511406431681,147.4283978711576L-80.64695772549005,146.39413320964383L-82.0129215801139,146.5857619519152zM-97.3044441427355,154.79695663480797L-98.2175392729841,155.8912095676013L-98.69402907621166,157.10067583093598z" style="fill:rgb(83,212,212)"/><path d="M-78.6511406431681,147.4283978711576L-72.31640031298079,154.85215846057505L-76.72523898085167,148.4264367680191z" style="fill:rgb(51,38,177)"/><path d="M-100.0777643936491,161.8424701891045L-95.42359952890199,170.43397700233615L-95.49538967464939,168.17929883689453z" style="fill:rgb(246,167,149)"/><path d="M-100.0777643936491,161.8424701891045L-95.06029134841563,165.82121049248542L-99.63102442047841,159.47904517986774z" style="fill:rgb(246,149,167)"/><path d="M-98.2175392729841,155.8912095676013L-99.16816923144273,157.03044950514217L-99.63102442047841,159.47904517986774z" style="fill:rgb(83,212,212)"/><path d="M-76.72523898085167,148.4264367680191L-70.77028636241248,156.2562064817827L-75.17632968686686,149.82839189574537z" style="fill:rgb(34,46,160)"/><path d="M-100.01456966892017,164.10093215429032L-94.8446683636332,172.49834336901466L-95.42359952890199,170.43397700233615z" style="fill:rgb(242,183,130)"/><path d="M-95.42359952890199,170.43397700233615L-100.0777643936491,161.8424701891045L-100.01456966892017,164.10093215429032z" style="fill:rgb(246,167,149)"/><path d="M-75.17632968686686,149.82839189574537L-75.74085328703421,148.93656295373674L-76.72523898085167,148.4264367680191z" style="fill:rgb(83,212,212)"/><path d="M-99.44082969224317,166.16737362683304L-93.77785746012512,174.2917861695346L-94.8446683636332,172.49834336901466z" style="fill:rgb(233,197,112)"/><path d="M-94.8446683636332,172.49834336901466L-100.01456966892017,164.10093215429032L-99.44082969224317,166.16737362683304z" style="fill:rgb(242,183,130)"/><path d="M-100.01456966892017,164.10093215429032L-100.0777643936491,161.8424701891045L-100.306160964885,163.05070385177464zM-74.06560174827003,151.58312687212387L-74.71527551979996,149.46803330157493L-75.74085328703421,148.93656295373674z" style="fill:rgb(83,212,212)"/><path d="M-93.77785746012512,174.2917861695346L-99.44082969224317,166.16737362683304L-98.37553107468858,167.96108320365852z" style="fill:rgb(233,197,112)"/><path d="M27.81622664854938,104.31467201208962L-15.160054478651869,73.40944925149309L-15.716646662308365,114.32859918687612zM-95.75861405473577,179.4296287883234L-105.80702450794455,143.23815451270625L-109.30434022505204,182.38549319278835zM-98.37553107468858,167.96108320365852L-99.44082969224317,166.16737362683304L-99.14743229247517,167.22410699198502zM125.09611223460921,26.257630194599145L92.99763027328788,31.657517537002057L134.8097126417299,109.13829087723884z" style="fill:rgb(83,212,212)"/><path d="M30.437481818691644,70.27497653636213L27.81622664854938,104.31467201208962L31.55872682509679,111.21601776867351zM134.8097126417299,109.13829087723884L128.00618327831577,33.446949410265184L125.09611223460921,26.257630194599145z" style="fill:rgb(247,158,158)"/><path d="M-96.8570002803942,169.41092546290525L-99.14743229247517,167.22410699198502L-98.84165405911607,168.32540359896993zM-72.7831717608153,155.75825488308928L-73.43828746495151,153.6254396006134L-73.26182195250416,157.03022221758542zM-73.26182195250416,157.03022221758542L-73.32152799843684,155.87825968154135L-73.72288272537943,158.25542161182187zM-92.94292600982111,171.551736303125L-98.84165405911607,168.32540359896993L-97.76823398338506,172.19158128746835zM-68.91087741966422,168.36503226795801L-65.50108051637956,154.24298538091566L-74.71527551979996,149.46803330157493z" style="fill:rgb(83,212,212)"/><path d="M-95.75861405473577,179.4296287883234L-104.59220026701641,188.6586124287407L-91.12962369413658,185.74582841609705z" style="fill:rgb(127,37,217)"/><path d="M-74.62956626999006,160.66480534183694L-76.00852755481543,163.01209455181205L-75.0929601430822,161.89621537346392zM-91.55885038308463,171.36820413830117L-94.94180216113492,170.45844522547566L-92.94292600982111,171.551736303125zM-90.22677787563755,171.19156733906408L-92.70285658289923,171.06055792723976L-91.55885038308463,171.36820413830117z" style="fill:rgb(83,212,212)"/><path d="M-104.59220026701641,188.6586124287407L-95.75861405473577,179.4296287883234L-109.30434022505204,182.38549319278835zM-11.696680851509742,121.08378632171515L27.81622664854938,104.31467201208962L-15.716646662308365,114.32859918687612z" style="fill:rgb(127,37,217)"/><path d="M-75.0929601430822,161.89621537346392L-79.68236814464221,167.4897336430537L-76.64733315989533,166.02675005547016zM-40.924054767396534,68.27220116329788L-40.265787895485715,167.32034931513087L102.28962508774954,130.18737358284605zM-77.80742460608617,165.204567108989L-79.95654244463245,167.1551218488312L-78.72600149235025,166.32411456128466zM-84.95700393711893,170.0322707123962L-87.61043945900991,170.84463442091558L-86.27491513650337,170.66755089675854z" style="fill:rgb(83,212,212)"/><path d="M27.81622664854938,104.31467201208962L-11.696680851509742,121.08378632171515L31.55872682509679,111.21601776867351z" style="fill:rgb(127,37,217)"/><path d="M-78.72600149235025,166.32411456128466L-82.37154971291552,168.7859958603441L-79.68236814464221,167.4897336430537zM-68.91087741966422,168.36503226795801L-72.7831717608153,155.75825488308928L-77.97980104491783,169.5675962096722zM-76.64733315989533,166.02675005547016L-86.27491513650337,170.66755089675854L-77.97980104491783,169.5675962096722zM-95.75861405473577,179.4296287883234L-61.36884335069876,167.36494672118883L-97.76823398338506,172.19158128746835zM-65.50108051637956,154.24298538091566L-68.91087741966422,168.36503226795801L-61.36884335069876,167.36494672118883z" style="fill:rgb(83,212,212)"/><path d="M-91.12962369413658,185.74582841609705L-60.02507653434664,171.63209049140005L-95.75861405473577,179.4296287883234z" style="fill:rgb(127,37,217)"/><path d="M74.82152595696162,-2.024097038849567L134.84909055484457,109.47428032590884L134.8097126417299,109.13829087723884z" style="fill:rgb(83,212,212)"/><path d="M-60.02507653434664,171.63209049140005L-91.12962369413658,185.74582841609705L-55.61867404369877,178.06263799030816z" style="fill:rgb(127,37,217)"/><path d="M-44.49694006226611,165.12768891792007L-65.50108051637956,154.24298538091566L-61.36884335069876,167.36494672118883zM-61.36884335069876,167.36494672118883L-95.75861405473577,179.4296287883234L-60.02507653434664,171.63209049140005z" style="fill:rgb(83,212,212)"/><path d="M-40.265787895485715,167.32034931513087L-55.61867404369877,178.06263799030816L-35.984497168948465,173.81456399096092z" style="fill:rgb(127,37,217)"/><path d="M-60.02507653434664,171.63209049140005L-44.49694006226611,165.12768891792007L-61.36884335069876,167.36494672118883z" style="fill:rgb(83,212,212)"/><path d="M-55.61867404369877,178.06263799030816L-40.265787895485715,167.32034931513087L-60.02507653434664,171.63209049140005z" style="fill:rgb(127,37,217)"/><path d="M-44.49694006226611,165.12768891792007L-60.02507653434664,171.63209049140005L-40.265787895485715,167.32034931513087z" style="fill:rgb(83,212,212)"/><path d="M128.00618327831577,33.446949410265184L134.8097126417299,109.13829087723884L137.86994098938652,116.2494822631264z" style="fill:rgb(247,158,158)"/><path d="M97.72434662565655,94.39899591863069L81.28390993963288,87.72301258960071L96.83656899986512,119.16367447442114z" style="fill:rgb(83,212,212)"/><path d="M107.60979972441145,103.66251230595716L108.17362554345583,111.97790645968053L110.8256902535834,110.70210630331064z" style="fill:rgb(162,50,222)"/><path d="M104.93790747005556,104.94848347473173L105.77286327254981,113.62355015624554L108.17362554345583,111.97790645968053z" style="fill:rgb(183,62,221)"/><path d="M110.43418744122043,102.79419283062909L110.8256902535834,110.70210630331064L113.6304359240643,109.8437150488245z" style="fill:rgb(139,40,220)"/><path d="M116.29812285700531,101.94126971405643L97.72434662565655,94.39899591863069L97.35519519880762,104.69655933416018z" style="fill:rgb(83,212,212)"/><path d="M105.77286327254981,113.62355015624554L100.44007786540219,108.56829938484788L103.71307092013022,115.57811085756386z" style="fill:rgb(203,77,216)"/><path d="M113.3060752907849,102.37646953044526L113.6304359240643,109.8437150488245L116.48352837698746,109.43531001153072z" style="fill:rgb(115,34,214)"/><path d="M103.71307092013022,115.57811085756386L98.78279064415969,110.76825339848673L102.07189159706697,117.76931739969737z" style="fill:rgb(220,94,208)"/><path d="M116.11827372997395,102.42612906345298L116.48352837698746,109.43531001153072L119.27850329981023,109.49332263240196z" style="fill:rgb(92,32,204)"/><path d="M108.17362554345583,111.97790645968053L107.60979972441145,103.66251230595716L104.93790747005556,104.94848347473173z" style="fill:rgb(162,50,222)"/><path d="M105.77286327254981,113.62355015624554L104.93790747005556,104.94848347473173L102.5178782295274,106.6041735485692z" style="fill:rgb(183,62,221)"/><path d="M110.8256902535834,110.70210630331064L110.43418744122043,102.79419283062909L107.60979972441145,103.66251230595716z" style="fill:rgb(139,40,220)"/><path d="M100.44007786540219,108.56829938484788L105.77286327254981,113.62355015624554L102.5178782295274,106.6041735485692z" style="fill:rgb(203,77,216)"/><path d="M102.07189159706697,117.76931739969737L97.60948368047909,113.12245082271683L100.9121733487288,120.11589319210626z" style="fill:rgb(233,112,197)"/><path d="M113.6304359240643,109.8437150488245L113.3060752907849,102.37646953044526L110.43418744122043,102.79419283062909z" style="fill:rgb(115,34,214)"/><path d="M118.76512667645548,102.94305140067905L119.27850329981023,109.49332263240196L121.91030477181766,110.01730251666756z" style="fill:rgb(71,33,192)"/><path d="M98.78279064415969,110.76825339848673L103.71307092013022,115.57811085756386L100.44007786540219,108.56829938484788z" style="fill:rgb(220,94,208)"/><path d="M-35.984497168948465,173.81456399096092L104.97982958314509,135.62579319878446L-40.265787895485715,167.32034931513087z" style="fill:rgb(127,37,217)"/><path d="M116.48352837698746,109.43531001153072L116.11827372997395,102.42612906345298L113.3060752907849,102.37646953044526z" style="fill:rgb(92,32,204)"/><path d="M104.09529202549969,103.71619329383736L97.35519519880762,104.69655933416018L97.0553247525826,113.06137734717448zM108.97206981774526,103.0068624820811L104.09529202549969,103.71619329383736L102.15966406424417,106.28564662083215z" style="fill:rgb(83,212,212)"/><path d="M100.9121733487288,120.11589319210626L96.96636675354252,115.54299572983807L100.27959551695015,122.53021429332226z" style="fill:rgb(242,130,183)"/><path d="M124.27901004280547,110.989636485962L118.76512667645548,102.94305140067905L121.91030477181766,110.01730251666756z" style="fill:rgb(51,38,177)"/><path d="M104.93790747005556,104.94848347473173L102.15966406424417,106.28564662083215L101.28352267569197,107.44866946142787z" style="fill:rgb(83,212,212)"/><path d="M97.60948368047909,113.12245082271683L102.07189159706697,117.76931739969737L98.78279064415969,110.76825339848673z" style="fill:rgb(233,112,197)"/><path d="M110.43418744122043,102.79419283062909L108.97206981774526,103.0068624820811L107.60979972441145,103.66251230595716zM102.5178782295274,106.6041735485692L101.28352267569197,107.44866946142787L100.44007786540219,108.56829938484788z" style="fill:rgb(83,212,212)"/><path d="M119.27850329981023,109.49332263240196L118.76512667645548,102.94305140067905L116.11827372997395,102.42612906345298z" style="fill:rgb(71,33,192)"/><path d="M100.27959551695015,122.53021429332226L96.8804784136195,117.93874561297314L100.2007650222548,124.92136647111519z" style="fill:rgb(246,149,167)"/><path d="M126.29348259340637,112.37588037941148L121.14614351349925,103.90991450634421L124.27901004280547,110.989636485962z" style="fill:rgb(34,46,160)"/><path d="M96.96636675354252,115.54299572983807L100.9121733487288,120.11589319210626L97.60948368047909,113.12245082271683z" style="fill:rgb(242,130,183)"/><path d="M116.11827372997395,102.42612906345298L114.77209529651286,102.16323226596128L113.3060752907849,102.37646953044526zM118.76512667645548,102.94305140067905L116.29812285700531,101.94126971405643L114.77209529651286,102.16323226596128z" style="fill:rgb(83,212,212)"/><path d="M118.76512667645548,102.94305140067905L124.27901004280547,110.989636485962L121.14614351349925,103.90991450634421z" style="fill:rgb(51,38,177)"/><path d="M96.8804784136195,117.93874561297314L100.6818729851219,127.19826333057394L100.2007650222548,124.92136647111519z" style="fill:rgb(246,167,149)"/><path d="M98.78279064415969,110.76825339848673L97.0553247525826,113.06137734717448L97.01001770038356,114.32524624716463z" style="fill:rgb(83,212,212)"/><path d="M96.8804784136195,117.93874561297314L100.27959551695015,122.53021429332226L96.96636675354252,115.54299572983807z" style="fill:rgb(246,149,167)"/><path d="M127.87484345603056,114.12567242783285L123.16968333935512,105.29251223442057L126.29348259340637,112.37588037941148z" style="fill:rgb(21,57,142)"/><path d="M97.60948368047909,113.12245082271683L97.01001770038356,114.32524624716463L96.96636675354252,115.54299572983807z" style="fill:rgb(83,212,212)"/><path d="M121.14614351349925,103.90991450634421L126.29348259340637,112.37588037941148L123.16968333935512,105.29251223442057z" style="fill:rgb(34,46,160)"/><path d="M128.95974390246232,116.17414760853633L124.75650252518089,107.04065484031892L127.87484345603056,114.12567242783285z" style="fill:rgb(12,71,124)"/><path d="M100.6818729851219,127.19826333057394L96.8804784136195,117.93874561297314L97.35832244409863,120.21843599455377z" style="fill:rgb(246,167,149)"/><path d="M123.16968333935512,105.29251223442057L127.87484345603056,114.12567242783285L124.75650252518089,107.04065484031892z" style="fill:rgb(21,57,142)"/><path d="M123.16968333935512,105.29251223442057L122.36330936703094,104.40417087120218L121.14614351349925,103.90991450634421zM97.35832244409863,120.21843599455377L96.8804784136195,117.93874561297314L96.83656899986512,119.16367447442114zM124.75650252518089,107.04065484031892L123.6315194406154,104.91915196551773L122.36330936703094,104.40417087120218z" style="fill:rgb(83,212,212)"/><path d="M104.97982958314509,135.62579319878446L-35.984497168948465,173.81456399096092L108.29734883789706,142.59756137673446z" style="fill:rgb(127,37,217)"/><path d="M124.75650252518089,107.04065484031892L128.95974390246232,116.17414760853633L125.84300063231535,109.089571476706z" style="fill:rgb(12,71,124)"/><path d="M137.86994098938652,116.2494822631264L134.84909055484457,109.47428032590884L137.90990556099896,116.58496977603433z" style="fill:rgb(247,158,158)"/><path d="M102.28962508774954,130.18737358284605L-40.265787895485715,167.32034931513087L104.97982958314509,135.62579319878446zM99.9247654723696,124.08457713587518L98.38509653635231,122.29411706929154L98.91024403173621,123.35573988714292z" style="fill:rgb(83,212,212)"/><path d="M134.84909055484457,109.47428032590884L137.86994098938652,116.2494822631264L134.8097126417299,109.13829087723884z" style="fill:rgb(247,158,158)"/><path d="M101.92090981609012,125.51860760908512L98.91024403173621,123.35573988714292L99.45759618626602,124.46224892015017zM126.97790199049288,111.22975666471628L125.84300063231535,109.089571476706L126.66075287713745,112.52435331400136zM126.66075287713745,112.52435331400136L126.38405639480965,111.3621292737376L126.35524184913083,113.77146126230203zM106.7803049286919,127.60250186448458L99.45759618626602,124.46224892015017L101.37959628820954,128.3476854253232zM133.691020293106,123.8893925303816L134.84909055484457,109.47428032590884L123.6315194406154,104.91915196551773z" style="fill:rgb(83,212,212)"/><path d="M136.49322628248774,123.50274844464141L137.90990556099896,116.58496977603433L134.84909055484457,109.47428032590884z" style="fill:rgb(247,158,158)"/><path d="M125.75437366525416,116.22423748314941L124.60205623625883,118.62440883019126L125.44723740408841,117.47798426201614zM108.32958936325625,127.38873349981993L104.29844553153974,126.53819005818582L106.7803049286919,127.60250186448458z" style="fill:rgb(83,212,212)"/><path d="M137.90990556099896,116.58496977603433L136.49322628248774,123.50274844464141L139.57837697576946,130.59114678539535z" style="fill:rgb(247,158,158)"/><path d="M109.82073561081184,127.18298576976042L106.96628081287666,127.10108895363692L108.32958936325625,127.38873349981993zM125.44723740408841,117.47798426201614L121.21015323293412,123.22524856138558L124.41681328435047,121.6842334896902z" style="fill:rgb(83,212,212)"/><path d="M111.55185528932286,134.19168700609438L108.29734883789706,142.59756137673446L114.82392882871201,141.18546091057928z" style="fill:rgb(127,37,217)"/><path d="M122.94130577466936,120.87708412381953L120.83609915172626,122.8926470279462L122.09320619678147,122.02746729092236zM115.63730393513045,125.90339887430335L112.74968909191855,126.77885141457435L114.24489507006354,126.57254352524902zM122.09320619678147,122.02746729092236L118.36891727709748,124.59066185164839L121.21015323293412,123.22524856138558zM102.28962508774954,130.18737358284605L136.49322628248774,123.50274844464141L101.37959628820954,128.3476854253232zM133.691020293106,123.8893925303816L126.97790199049288,111.22975666471628L123.53325768267393,125.29095220405378zM124.41681328435047,121.6842334896902L114.24489507006354,126.57254352524902L123.53325768267393,125.29095220405378z" style="fill:rgb(83,212,212)"/><path d="M108.29734883789706,142.59756137673446L111.55185528932286,134.19168700609438L104.97982958314509,135.62579319878446z" style="fill:rgb(127,37,217)"/><path d="M111.55185528932286,134.19168700609438L102.28962508774954,130.18737358284605L104.97982958314509,135.62579319878446zM134.84909055484457,109.47428032590884L133.691020293106,123.8893925303816L136.49322628248774,123.50274844464141zM136.49322628248774,123.50274844464141L102.28962508774954,130.18737358284605L111.55185528932286,134.19168700609438z" style="fill:rgb(83,212,212)"/><path d="M137.09277004950462,128.61831607605194L114.82392882871201,141.18546091057928L140.18671767460552,135.69793757054856zM114.82392882871201,141.18546091057928L137.09277004950462,128.61831607605194L111.55185528932286,134.19168700609438z" style="fill:rgb(127,37,217)"/><path d="M139.57837697576946,130.59114678539535L137.09277004950462,128.61831607605194L140.18671767460552,135.69793757054856zM137.09277004950462,128.61831607605194L139.57837697576946,130.59114678539535L136.49322628248774,123.50274844464141z" style="fill:rgb(247,158,158)"/><path d="M136.49322628248774,123.50274844464141L111.55185528932286,134.19168700609438L137.09277004950462,128.61831607605194z" style="fill:rgb(83,212,212)"/></svg>
