<?xml version="1.0" encoding="UTF-8"?>
<!-- Generated by jsxcad -->
<!DOCTYPE svg PUBLIC "-//W3C//DTD SVG 1.1 Tiny//EN" "http://www.w3.org/Graphics/SVG/1.1/DTD/svg11-tiny.dtd">
<svg viewBox="-250 -250 500 500" width="500" height="500" xmlns="http://www.w3.org/2000/svg"><path d="M109.89319447570216,-140.9421311301566L-92.32831405039745,-83.41091778833004L125.26846249938662,-14.997793787312148z" style="fill:rgb(83,212,212)"/><path d="M125.26846249938662,-14.997793787312148L112.76447061798292,-132.97522771508125L109.89319447570216,-140.9421311301566z" style="fill:rgb(247,158,158)"/><path d="M-104.23181487562884,-80.02441998679505L137.73804798988692,87.14505642902517L-92.32831405039745,-83.41091778833004zM-115.96770200577697,28.188897742403828L-105.79612106892549,23.468548267025202L-115.0379458911595,19.615877848296126zM-105.79612106892549,23.468548267025202L-115.96770200577697,28.188897742403828L-110.64146499725476,45.79163767862607z" style="fill:rgb(83,212,212)"/><path d="M-98.68577047146388,31.520335865834546L-96.64717089204119,40.01270535576928L-94.1202474236802,38.78505990777593z" style="fill:rgb(162,50,222)"/><path d="M-101.23066359120108,32.75739188132214L-99.01429796963967,41.566262774491186L-96.64717089204119,40.01270535576928z" style="fill:rgb(183,62,221)"/><path d="M-96.07652684815787,30.65482102581337L-94.1202474236802,38.78505990777593L-91.52767322846854,37.92914306762684z" style="fill:rgb(139,40,220)"/><path d="M-90.81630518728515,29.713231871154314L-105.79612106892549,23.468548267025202L-107.81189625780155,32.755476263255375z" style="fill:rgb(83,212,212)"/><path d="M-99.01429796963967,41.566262774491186L-105.75400435568453,36.14971760240027L-101.13320557969932,43.38811013950741z" style="fill:rgb(203,77,216)"/><path d="M-93.50021556463072,30.19365457520582L-91.52767322846854,37.92914306762684L-88.96609119387871,37.47740726709495z" style="fill:rgb(115,34,214)"/><path d="M-101.13320557969932,43.38811013950741L-107.56293492009748,38.17923940900463L-102.92416086242802,45.41071962883889z" style="fill:rgb(220,94,208)"/><path d="M-91.05326428410206,30.155102717819027L-88.96609119387871,37.47740726709495L-86.53141833201411,37.447761513843176z" style="fill:rgb(92,32,204)"/><path d="M-96.64717089204119,40.01270535576928L-98.68577047146388,31.520335865834546L-101.23066359120108,32.75739188132214z" style="fill:rgb(162,50,222)"/><path d="M-99.01429796963967,41.566262774491186L-101.23066359120108,32.75739188132214L-103.6164452105011,34.31983209367736z" style="fill:rgb(183,62,221)"/><path d="M-94.1202474236802,38.78505990777593L-96.07652684815787,30.65482102581337L-98.68577047146388,31.520335865834546z" style="fill:rgb(139,40,220)"/><path d="M-105.75400435568453,36.14971760240027L-99.01429796963967,41.566262774491186L-103.6164452105011,34.31983209367736z" style="fill:rgb(203,77,216)"/><path d="M-102.92416086242802,45.41071962883889L-108.97438129531375,40.33295124008818L-104.3190118741466,47.55889745338725z" style="fill:rgb(233,112,197)"/><path d="M-91.52767322846854,37.92914306762684L-93.50021556463072,30.19365457520582L-96.07652684815787,30.65482102581337z" style="fill:rgb(115,34,214)"/><path d="M-88.8279981357051,30.542102181613856L-86.53141833201411,37.447761513843176L-84.31550654076554,37.842795807531964z" style="fill:rgb(71,33,192)"/><path d="M-97.3882509447231,30.889622212954592L-107.81189625780155,32.755476263255375L-108.58864783128632,36.334047083596865z" style="fill:rgb(83,212,212)"/><path d="M-107.56293492009748,38.17923940900463L-101.13320557969932,43.38811013950741L-105.75400435568453,36.14971760240027z" style="fill:rgb(220,94,208)"/><path d="M-88.96609119387871,37.47740726709495L-91.05326428410206,30.155102717819027L-93.50021556463072,30.19365457520582z" style="fill:rgb(92,32,204)"/><path d="M-104.3190118741466,47.55889745338725L-109.93357304133168,42.530296911929554L-105.26359033146002,49.75227741990287z" style="fill:rgb(242,130,183)"/><path d="M-82.40288951193638,38.64948882868627L-88.8279981357051,30.542102181613856L-84.31550654076554,37.842795807531964z" style="fill:rgb(51,38,177)"/><path d="M-101.23066359120108,32.75739188132214L-103.87689305254608,34.04369977276608L-104.83330647482387,35.116751682804164z" style="fill:rgb(83,212,212)"/><path d="M-108.97438129531375,40.33295124008818L-102.92416086242802,45.41071962883889L-107.56293492009748,38.17923940900463z" style="fill:rgb(233,112,197)"/><path d="M-96.07652684815787,30.65482102581337L-97.3882509447231,30.889622212954592L-98.68577047146388,31.520335865834546zM-103.6164452105011,34.31983209367736L-104.83330647482387,35.116751682804164L-105.75400435568453,36.14971760240027z" style="fill:rgb(83,212,212)"/><path d="M-86.53141833201411,37.447761513843176L-88.8279981357051,30.542102181613856L-91.05326428410206,30.155102717819027z" style="fill:rgb(71,33,192)"/><path d="M-103.87689305254608,34.04369977276608L-108.58864783128632,36.334047083596865L-109.44828499868548,40.29450059243734z" style="fill:rgb(83,212,212)"/><path d="M-105.26359033146002,49.75227741990287L-110.40199630641999,44.68836192746656L-105.7199571131052,51.908094436887055z" style="fill:rgb(246,149,167)"/><path d="M-80.86762748763923,39.83936862121962L-86.90930619724008,31.341954094213275L-82.40288951193638,38.64948882868627z" style="fill:rgb(34,46,160)"/><path d="M-109.93357304133168,42.530296911929554L-104.3190118741466,47.55889745338725L-108.97438129531375,40.33295124008818z" style="fill:rgb(242,130,183)"/><path d="M-91.05326428410206,30.155102717819027L-92.18513799601378,29.958255821229923L-93.50021556463072,30.19365457520582zM-88.8279981357051,30.542102181613856L-90.81630518728515,29.713231871154314L-92.18513799601378,29.958255821229923zM-107.56293492009748,38.17923940900463L-108.48661110712249,39.2155588842863L-108.97438129531375,40.33295124008818z" style="fill:rgb(83,212,212)"/><path d="M-88.8279981357051,30.542102181613856L-82.40288951193638,38.64948882868627L-86.90930619724008,31.341954094213275z" style="fill:rgb(51,38,177)"/><path d="M-110.40199630641999,44.68836192746656L-105.66808268618045,53.944119081641226L-105.7199571131052,51.908094436887055z" style="fill:rgb(246,167,149)"/><path d="M-110.40199630641999,44.68836192746656L-105.26359033146002,49.75227741990287L-109.93357304133168,42.530296911929554z" style="fill:rgb(246,149,167)"/><path d="M-79.77039409574915,41.36924382843951L-85.37150046383898,32.526470617203124L-80.86762748763923,39.83936862121962z" style="fill:rgb(21,57,142)"/><path d="M-108.48661110712249,39.2155588842863L-109.44828499868548,40.29450059243734L-109.93357304133168,42.530296911929554z" style="fill:rgb(83,212,212)"/><path d="M-86.90930619724008,31.341954094213275L-80.86762748763923,39.83936862121962L-85.37150046383898,32.526470617203124z" style="fill:rgb(34,46,160)"/><path d="M-110.35909851201068,46.724826482413576L-105.10693901985127,55.78172589889635L-105.66808268618045,53.944119081641226z" style="fill:rgb(242,183,130)"/><path d="M137.73804798988692,87.14505642902517L-104.23181487562884,-80.02441998679505L-111.84909579103217,-9.787611001223672z" style="fill:rgb(83,212,212)"/><path d="M-105.66808268618045,53.944119081641226L-110.40199630641999,44.68836192746656L-110.35909851201068,46.724826482413576z" style="fill:rgb(246,167,149)"/><path d="M-85.37150046383898,32.526470617203124L-79.77039409574915,41.36924382843951L-84.27538365714513,34.05269172581375z" style="fill:rgb(21,57,142)"/><path d="M-85.37150046383898,32.526470617203124L-85.9285915811406,31.750787881535146L-86.90930619724008,31.341954094213275z" style="fill:rgb(83,212,212)"/><path d="M-105.10693901985127,55.78172589889635L-110.35909851201068,46.724826482413576L-109.80349980740345,48.56103463490988z" style="fill:rgb(242,183,130)"/><path d="M-110.35909851201068,46.724826482413576L-110.40199630641999,44.68836192746656L-110.64146499725476,45.79163767862607zM-84.27538365714513,34.05269172581375L-84.90683386157838,32.176731798777226L-85.9285915811406,31.750787881535146zM-108.75345813794613,50.125055328712115L-109.80349980740345,48.56103463490988L-109.51937472997425,49.50003266285089zM-107.24665590126081,51.3546587949595L-109.51937472997425,49.50003266285089L-109.22326697778784,50.47866038188652zM-83.02887832640413,37.75591365380518L-83.66565196274762,35.86413854593116L-83.51928521042075,38.92992441162569zM-83.51928521042075,38.92992441162569L-83.56880868542582,37.8926542247182L-83.99167031427217,40.0607906230828zM-103.34831552387895,53.08233015591973L-109.22326697778784,50.47866038188652L-108.1837190818542,53.914258935560795zM-84.92063564422457,42.28469545378945L-86.32178816884385,44.47741473565034L-85.39542397506654,43.42131489056837zM-101.96132878608418,52.84370066278857L-105.33917028767321,52.20001918824463L-103.34831552387895,53.08233015591973z" style="fill:rgb(83,212,212)"/><path d="M112.76447061798292,-132.97522771508125L125.26846249938662,-14.997793787312148L128.42040633111102,-6.891143156779234z" style="fill:rgb(247,158,158)"/><path d="M-100.62645323897803,52.6140351024739L-103.10361616694973,52.62602569954552L-101.96132878608418,52.84370066278857zM-85.39542397506654,43.42131489056837L-90.03903087968645,48.715230706940375L-86.98805108602212,47.23399684839474zM-88.14192576522568,46.55244916320168L-90.3104823635927,48.42742604648051L-89.07135692282553,47.612036428927624zM-95.34138580810088,51.28948761955126L-98.00457402746352,52.16294988952516L-96.66622020481964,51.93268589552061zM-89.07135692282553,47.612036428927624L-92.74234279293923,50.02766784624105L-90.03903087968645,48.715230706940375zM-79.26472588988365,48.93877904467549L-83.02887832640413,37.75591365380518L-88.35335172311126,50.502468749498675zM-86.98805108602212,47.23399684839474L-96.66622020481964,51.93268589552061L-88.35335172311126,50.502468749498675zM-54.79627702165406,44.72901340043951L-84.90683386157838,32.176731798777226L-79.26472588988365,48.93877904467549zM-92.32831405039745,-83.41091778833004L137.73804798988692,87.14505642902517L71.79488476894271,-31.810057907194274zM101.72800714249603,109.97978470140033L-111.84909579103217,-9.787611001223672L-115.0379458911595,19.615877848296126zM88.20454330839003,-26.650810598928093L71.79488476894271,-31.810057907194274L87.11539407172698,-4.239394106210061z" style="fill:rgb(83,212,212)"/><path d="M98.03049452854025,-18.807840969234366L98.67051392868402,-9.511925871030785L101.33689139185337,-10.803956201167216z" style="fill:rgb(162,50,222)"/><path d="M95.34408587060118,-17.505386202060755L96.25292057900573,-7.898412837510823L98.67051392868402,-9.511925871030785z" style="fill:rgb(183,62,221)"/><path d="M100.86629542162976,-19.741189173488873L101.33689139185337,-10.803956201167216L104.15288547524405,-11.7263594516022z" style="fill:rgb(139,40,220)"/><path d="M106.74637984408504,-20.821197164254144L88.20454330839003,-26.650810598928093L87.75168910935201,-17.33240116937051z" style="fill:rgb(83,212,212)"/><path d="M96.25292057900573,-7.898412837510823L90.81008706742534,-13.998815153924712L94.17438990282159,-6.0231755586457405z" style="fill:rgb(203,77,216)"/><path d="M103.74608355213957,-20.27012416725029L104.15288547524405,-11.7263594516022L107.01380293509274,-12.244233286754302z" style="fill:rgb(115,34,214)"/><path d="M94.17438990282159,-6.0231755586457405L89.13247188406623,-11.924494376879549L92.51322993243176,-3.9556209880558844z" style="fill:rgb(220,94,208)"/><path d="M106.56238167370813,-20.37382525819226L107.01380293509274,-12.244233286754302L109.81284970378584,-12.337169511694034z" style="fill:rgb(92,32,204)"/><path d="M98.67051392868402,-9.511925871030785L98.03049452854025,-18.807840969234366L95.34408587060118,-17.505386202060755z" style="fill:rgb(162,50,222)"/><path d="M96.25292057900573,-7.898412837510823L95.34408587060118,-17.505386202060755L92.90695645748164,-15.882344545021569z" style="fill:rgb(183,62,221)"/><path d="M101.33689139185337,-10.803956201167216L100.86629542162976,-19.741189173488873L98.03049452854025,-18.807840969234366z" style="fill:rgb(139,40,220)"/><path d="M90.81008706742534,-13.998815153924712L96.25292057900573,-7.898412837510823L92.90695645748164,-15.882344545021569z" style="fill:rgb(203,77,216)"/><path d="M92.51322993243176,-3.9556209880558844L87.93832599437286,-9.736407194331003L91.33303524782481,-1.7725348026259256z" style="fill:rgb(233,112,197)"/><path d="M104.15288547524405,-11.7263594516022L103.74608355213957,-20.27012416725029L100.86629542162976,-19.741189173488873z" style="fill:rgb(115,34,214)"/><path d="M109.20938058976212,-20.046822030440907L109.81284970378584,-12.337169511694034L112.44485116070807,-12.000117946484366z" style="fill:rgb(71,33,192)"/><path d="M89.13247188406623,-11.924494376879549L94.17438990282159,-6.0231755586457405L90.81008706742534,-13.998815153924712z" style="fill:rgb(220,94,208)"/><path d="M107.01380293509274,-12.244233286754302L106.56238167370813,-20.37382525819226L103.74608355213957,-20.27012416725029z" style="fill:rgb(92,32,204)"/><path d="M94.51006697418607,-18.573726453099976L87.75168910935201,-17.33240116937051L87.38379376598262,-9.762305135729317zM99.40016773030727,-19.471901785618673L94.51006697418607,-18.573726453099976L92.55074353163161,-16.15108416780434z" style="fill:rgb(83,212,212)"/><path d="M91.33303524782481,-1.7725348026259256L87.27464836449602,-7.516341271895231L90.68027226699148,0.44447392114531603z" style="fill:rgb(242,130,183)"/><path d="M114.80986702698686,-11.243788293016516L109.20938058976212,-20.046822030440907L112.44485116070807,-12.000117946484366z" style="fill:rgb(51,38,177)"/><path d="M95.34408587060118,-17.505386202060755L92.55074353163161,-16.15108416780434L91.66387489343215,-15.054497072506008z" style="fill:rgb(83,212,212)"/><path d="M87.93832599437286,-9.736407194331003L92.51322993243176,-3.9556209880558844L89.13247188406623,-11.924494376879549z" style="fill:rgb(233,112,197)"/><path d="M100.86629542162976,-19.741189173488873L99.40016773030727,-19.471901785618673L98.03049452854025,-18.807840969234366zM92.90695645748164,-15.882344545021569L91.66387489343215,-15.054497072506008L90.81008706742534,-13.998815153924712z" style="fill:rgb(83,212,212)"/><path d="M109.81284970378584,-12.337169511694034L109.20938058976212,-20.046822030440907L106.56238167370813,-20.37382525819226z" style="fill:rgb(71,33,192)"/><path d="M90.68027226699148,0.44447392114531603L87.16927525941428,-5.348052400668151L90.58232486922732,2.611762051782847z" style="fill:rgb(246,149,167)"/><path d="M116.81685536887595,-10.094573888068041L111.5865737678911,-19.299427306957316L114.80986702698686,-11.243788293016516z" style="fill:rgb(34,46,160)"/><path d="M87.27464836449602,-7.516341271895231L91.33303524782481,-1.7725348026259256L87.93832599437286,-9.736407194331003z" style="fill:rgb(242,130,183)"/><path d="M106.56238167370813,-20.37382525819226L105.21614666774433,-20.540135806788193L103.74608355213957,-20.27012416725029zM109.20938058976212,-20.046822030440907L106.74637984408504,-20.821197164254144L105.21614666774433,-20.540135806788193z" style="fill:rgb(83,212,212)"/><path d="M109.20938058976212,-20.046822030440907L114.80986702698686,-11.243788293016516L111.5865737678911,-19.299427306957316z" style="fill:rgb(51,38,177)"/><path d="M87.16927525941428,-5.348052400668151L91.04611950183839,4.646627026980198L90.58232486922732,2.611762051782847z" style="fill:rgb(246,167,149)"/><path d="M89.13247188406623,-11.924494376879549L87.38379376598262,-9.762305135729317L87.32820642678858,-8.618463379091681z" style="fill:rgb(83,212,212)"/><path d="M87.16927525941428,-5.348052400668151L90.68027226699148,0.44447392114531603L87.27464836449602,-7.516341271895231z" style="fill:rgb(246,149,167)"/><path d="M118.38720187166864,-8.593934152629938L113.60244151452213,-18.15766732555595L116.81685536887595,-10.094573888068041z" style="fill:rgb(21,57,142)"/><path d="M87.93832599437286,-9.736407194331003L87.32820642678858,-8.618463379091681L87.27464836449602,-7.516341271895231zM-82.8677859098888,137.58104293800955L-54.79627702165406,44.72901340043951L-108.1837190818542,53.914258935560795z" style="fill:rgb(83,212,212)"/><path d="M111.5865737678911,-19.299427306957316L116.81685536887595,-10.094573888068041L113.60244151452213,-18.15766732555595z" style="fill:rgb(34,46,160)"/><path d="M119.45794667058192,-6.797212299833713L115.17799996264347,-16.662689890639452L118.38720187166864,-8.593934152629938z" style="fill:rgb(12,71,124)"/><path d="M-82.8677859098888,137.58104293800955L-115.96770200577697,28.188897742403828L-125.46914939474222,115.79907444119684z" style="fill:rgb(83,212,212)"/><path d="M91.04611950183839,4.646627026980198L87.16927525941428,-5.348052400668151L87.62945931614485,-3.3142893815476047z" style="fill:rgb(246,167,149)"/><path d="M113.60244151452213,-18.15766732555595L118.38720187166864,-8.593934152629938L115.17799996264347,-16.662689890639452z" style="fill:rgb(21,57,142)"/><path d="M113.60244151452213,-18.15766732555595L112.8018027573828,-18.917353924482995L111.5865737678911,-19.299427306957316zM87.62945931614485,-3.3142893815476047L87.16927525941428,-5.348052400668151L87.11539407172698,-4.239394106210061zM115.17799996264347,-16.662689890639452L114.06801089470372,-18.51925572155815L112.8018027573828,-18.917353924482995z" style="fill:rgb(83,212,212)"/><path d="M115.17799996264347,-16.662689890639452L119.45794667058192,-6.797212299833713L116.25004570117885,-14.869590391816665z" style="fill:rgb(12,71,124)"/><path d="M90.1688405165481,0.042214887670161225L88.6411213255877,-1.4937081170503295L89.15854994105028,-0.5625507970680469zM92.15669522887829,1.232149947150155L89.15854994105028,-0.5625507970680469L89.69786943696377,0.4080026444903126zM117.36986645405167,-12.996582128626661L116.25004570117885,-14.869590391816665L117.04191484357158,-11.810583252523056zM117.04191484357158,-11.810583252523056L116.77397221471097,-12.845665405269788L116.7259810463669,-10.668069293430348zM97.00741239821201,2.8580060370961595L89.69786943696377,0.4080026444903126L91.5916928270502,3.8161173188576547zM123.99445639278987,-1.916350870562457L125.26846249938662,-14.997793787312148L114.06801089470372,-18.51925572155815z" style="fill:rgb(83,212,212)"/><path d="M126.80474824361859,-2.4135297316443918L128.42040633111102,-6.891143156779234L125.26846249938662,-14.997793787312148z" style="fill:rgb(247,158,158)"/><path d="M116.10460613131157,-8.420968490606366L114.93123639411822,-6.192232958799287L115.78698301221718,-7.272346551457749zM98.56102061961867,2.583152480899042L94.52996134438627,2.027617864638381L97.00741239821201,2.8580060370961595z" style="fill:rgb(83,212,212)"/><path d="M128.42040633111102,-6.891143156779234L126.80474824361859,-2.4135297316443918L129.9831155808997,5.694036158994615z" style="fill:rgb(247,158,158)"/><path d="M100.05633719123855,2.3186125333709557L97.19772875108913,2.395272344729212L98.56102061961867,2.583152480899042zM115.78698301221718,-7.272346551457749L111.49687116025399,-1.8574432907702516L114.72135224632402,-3.4186703973291914zM113.24970643085929,-4.069838466522815L111.12481989339501,-2.1381275412473406L112.39097544116667,-2.985973475653003zM105.89305860648433,0.8558049006796524L102.99350351245087,1.7989887916786764L104.49291492754949,1.5337245053143034zM112.39097544116667,-2.985973475653003L108.63984710742378,-0.47413563377691437L111.49687116025399,-1.8574432907702516zM123.99445639278987,-1.916350870562457L117.36986645405167,-12.996582128626661L113.80757721897356,-0.11416047638162906zM114.72135224632402,-3.4186703973291914L104.49291492754949,1.5337245053143034L113.80757721897356,-0.11416047638162906zM125.26846249938662,-14.997793787312148L123.99445639278987,-1.916350870562457L126.80474824361859,-2.4135297316443918zM-120.98552257673795,147.4085322286211L-125.46914939474222,115.79907444119684L-126.57597512639035,126.0048093601785zM-125.46914939474222,115.79907444119684L-120.98552257673795,147.4085322286211L-115.4793235966931,120.90685174161712zM-111.84909579103217,-9.787611001223672L101.72800714249603,109.97978470140033L78.62340211889796,64.18658144632784zM-26.656463108288357,34.42104426237443L19.694819474625888,82.32220075800036L18.656055299875103,23.068646596754082z" style="fill:rgb(83,212,212)"/><path d="M19.694819474625888,82.32220075800036L22.63127506009194,30.893574580554265L18.656055299875103,23.068646596754082z" style="fill:rgb(247,158,158)"/><path d="M-107.83261066978827,130.93932056984477L-105.53401779221704,139.42411493359972L-102.77540838941813,138.09124798532372z" style="fill:rgb(162,50,222)"/><path d="M-110.61265111345007,132.28329448807656L-108.12203717644132,141.1558629282202L-105.53401779221704,139.42411493359972z" style="fill:rgb(183,62,221)"/><path d="M-104.98607114594597,130.04430471111408L-102.77540838941813,138.09124798532372L-99.94868750981075,137.20688779585947z" style="fill:rgb(139,40,220)"/><path d="M-99.25394663315832,129.20284425027992L-115.4793235966931,120.90685174161712L-117.76762470150578,131.92059446604335z" style="fill:rgb(83,212,212)"/><path d="M-108.12203717644132,141.1558629282202L-115.56636755051152,136.1036554114799L-110.44305100697227,143.22250255668575z" style="fill:rgb(203,77,216)"/><path d="M-102.17886434366451,129.63221357472779L-99.94868750981075,137.20688779585947L-97.15893423187647,136.8046072533484z" style="fill:rgb(115,34,214)"/><path d="M-110.44305100697227,143.22250255668575L-117.55485336221825,138.4390238247842L-112.40990647931291,145.54777789035717z" style="fill:rgb(220,94,208)"/><path d="M-99.51580977607301,129.7197448753329L-97.15893423187647,136.8046072533484L-94.51036363455249,136.90072885463383z" style="fill:rgb(92,32,204)"/><path d="M-105.53401779221704,139.42411493359972L-107.83261066978827,130.93932056984477L-110.61265111345007,132.28329448807656z" style="fill:rgb(162,50,222)"/><path d="M-108.12203717644132,141.1558629282202L-110.61265111345007,132.28329448807656L-113.22298068248388,134.0262007423614z" style="fill:rgb(183,62,221)"/><path d="M-102.77540838941813,138.09124798532372L-104.98607114594597,130.04430471111408L-107.83261066978827,130.93932056984477z" style="fill:rgb(139,40,220)"/><path d="M-115.56636755051152,136.1036554114799L-108.12203717644132,141.1558629282202L-113.22298068248388,134.0262007423614z" style="fill:rgb(203,77,216)"/><path d="M-112.40990647931291,145.54777789035717L-119.11283752886864,140.94587014829338L-113.94784315842784,148.04560703414327z" style="fill:rgb(233,112,197)"/><path d="M-99.94868750981075,137.20688779585947L-102.17886434366451,129.63221357472779L-104.98607114594597,130.04430471111408z" style="fill:rgb(115,34,214)"/><path d="M-97.09722406526943,130.3055685543013L-94.51036363455249,136.90072885463383L-92.10273686586707,137.4935799367163z" style="fill:rgb(71,33,192)"/><path d="M-106.41518616337147,130.25409474484505L-117.76762470150578,131.92059446604335L-118.65030441720074,136.16896947044614z" style="fill:rgb(83,212,212)"/><path d="M-117.55485336221825,138.4390238247842L-110.44305100697227,143.22250255668575L-115.56636755051152,136.1036554114799z" style="fill:rgb(220,94,208)"/><path d="M-97.15893423187647,136.8046072533484L-99.51580977607301,129.7197448753329L-102.17886434366451,129.63221357472779z" style="fill:rgb(92,32,204)"/><path d="M-113.94784315842784,148.04560703414327L-120.17984554939139,143.53076424336157L-114.99711675658911,150.62288057287589z" style="fill:rgb(242,130,183)"/><path d="M-90.02785496279706,138.5632225307306L-97.09722406526943,130.3055685543013L-92.10273686586707,137.4935799367163z" style="fill:rgb(51,38,177)"/><path d="M-110.61265111345007,132.28329448807656L-113.5033524478149,133.68075827025982L-114.55443309184515,134.91520304461335z" style="fill:rgb(83,212,212)"/><path d="M-119.11283752886864,140.94587014829338L-112.40990647931291,145.54777789035717L-117.55485336221825,138.4390238247842z" style="fill:rgb(233,112,197)"/><path d="M-104.98607114594597,130.04430471111408L-106.41518616337147,130.25409474484505L-107.83261066978827,130.93932056984477zM-113.22298068248388,134.0262007423614L-114.55443309184515,134.91520304461335L-115.56636755051152,136.1036554114799z" style="fill:rgb(83,212,212)"/><path d="M-94.51036363455249,136.90072885463383L-97.09722406526943,130.3055685543013L-99.51580977607301,129.7197448753329z" style="fill:rgb(71,33,192)"/><path d="M-113.5033524478149,133.68075827025982L-118.65030441720074,136.16896947044614L-119.62776632372199,140.87355733111116z" style="fill:rgb(83,212,212)"/><path d="M-114.99711675658911,150.62288057287589L-120.71292744960729,146.09650593881224L-115.51547511394713,153.18267678125528z" style="fill:rgb(246,149,167)"/><path d="M-88.36613867776859,140.07182327780734L-95.01532618586292,131.37004132862018L-90.02785496279706,138.5632225307306z" style="fill:rgb(34,46,160)"/><path d="M-120.17984554939139,143.53076424336157L-113.94784315842784,148.04560703414327L-119.11283752886864,140.94587014829338z" style="fill:rgb(242,130,183)"/><path d="M-99.51580977607301,129.7197448753329L-100.74575629704287,129.4218373750939L-102.17886434366451,129.63221357472779zM-54.79627702165406,44.72901340043951L-82.8677859098888,137.58104293800955L-55.467412528558214,151.59078458244983zM-97.09722406526943,130.3055685543013L-99.25394663315832,129.20284425027992L-100.74575629704287,129.4218373750939zM-117.55485336221825,138.4390238247842L-118.57036738024148,139.63170597055404L-119.11283752886864,140.94587014829338z" style="fill:rgb(83,212,212)"/><path d="M-97.09722406526943,130.3055685543013L-90.02785496279706,138.5632225307306L-95.01532618586292,131.37004132862018z" style="fill:rgb(51,38,177)"/><path d="M-120.71292744960729,146.09650593881224L-115.48004472012018,155.62757169630692L-115.51547511394713,153.18267678125528z" style="fill:rgb(246,167,149)"/><path d="M-120.71292744960729,146.09650593881224L-114.99711675658911,150.62288057287589L-120.17984554939139,143.53076424336157z" style="fill:rgb(246,149,167)"/><path d="M-118.57036738024148,139.63170597055404L-119.62776632372199,140.87355733111116L-120.17984554939139,143.53076424336157z" style="fill:rgb(83,212,212)"/><path d="M-95.01532618586292,131.37004132862018L-88.36613867776859,140.07182327780734L-93.35083023184684,132.875562174913z" style="fill:rgb(34,46,160)"/><path d="M-120.68857290014759,148.54544270648836L-114.88859349343839,157.86328723338113L-115.48004472012018,155.62757169630692z" style="fill:rgb(242,183,130)"/><path d="M-115.48004472012018,155.62757169630692L-120.71292744960729,146.09650593881224L-120.68857290014759,148.54544270648836z" style="fill:rgb(246,167,149)"/><path d="M19.694819474625888,82.32220075800036L-26.656463108288357,34.42104426237443L-28.123233484869008,93.60244778774523zM-93.35083023184684,132.875562174913L-93.95093017910098,131.91426482211156L-95.01532618586292,131.37004132862018z" style="fill:rgb(83,212,212)"/><path d="M-120.10410907756986,150.78312691172312L-113.76020923423425,159.8023606191581L-114.88859349343839,157.86328723338113z" style="fill:rgb(233,197,112)"/><path d="M-114.88859349343839,157.86328723338113L-120.68857290014759,148.54544270648836L-120.10410907756986,150.78312691172312z" style="fill:rgb(242,183,130)"/><path d="M-120.68857290014759,148.54544270648836L-120.71292744960729,146.09650593881224L-120.98552257673795,147.4085322286211zM-92.16975186939932,134.76755357969407L-92.84180122288696,132.48136072772812L-93.95093017910098,131.91426482211156z" style="fill:rgb(83,212,212)"/><path d="M22.63127506009194,30.893574580554265L19.694819474625888,82.32220075800036L23.881162266544877,90.09889346863731z" style="fill:rgb(247,158,158)"/><path d="M-113.76020923423425,159.8023606191581L-120.10410907756986,150.78312691172312L-118.9782981349575,152.72199367991166z" style="fill:rgb(233,197,112)"/><path d="M126.80474824361859,-2.4135297316443918L141.0507977909426,94.82691002687714L129.9831155808997,5.694036158994615z" style="fill:rgb(247,158,158)"/><path d="M-116.3473985224778,165.16615602836256L-126.57597512639035,126.0048093601785L-131.18182278187695,168.47403062214886zM-118.9782981349575,152.72199367991166L-120.10410907756986,150.78312691172312L-119.80513540194208,151.92778300524915zM126.80474824361859,-2.4135297316443918L91.5916928270502,3.8161173188576547L137.69356771527683,86.78069619427882zM-117.35119753709391,154.2848869212411L-119.80513540194208,151.92778300524915L-119.49349099042877,153.1209638810167zM-90.84231478001782,139.28327958106544L-91.52056356533785,136.97599731292948L-91.38652114764916,140.6666870920158zM-91.38652114764916,140.6666870920158L-91.43188319457768,139.41775420307715L-91.91081408180696,141.9994725301252zM-113.12393258912034,156.58155680759427L-119.49349099042877,153.1209638810167L-118.39888936295111,157.31176259571126zM-86.8274009711806,152.9413545280655L-82.8677859098888,137.58104293800955L-92.84180122288696,132.48136072772812z" style="fill:rgb(83,212,212)"/><path d="M-116.3473985224778,165.16615602836256L-125.8224403585905,175.4866065193689L-111.08746269784245,172.2317564629873z" style="fill:rgb(127,37,217)"/><path d="M-92.94210606492102,144.62109018646413L-94.48824188542042,147.17980605455656L-93.46931926579973,145.96131067198743zM-111.61057177898643,156.37206400521794L-115.28312529093931,155.40846440455718L-113.12393258912034,156.58155680759427zM-110.15394650577322,156.17042293879211L-112.8527003337973,156.04616168882345L-111.61057177898643,156.37206400521794z" style="fill:rgb(83,212,212)"/><path d="M-125.8224403585905,175.4866065193689L-116.3473985224778,165.16615602836256L-131.18182278187695,168.47403062214886zM-23.602571978360054,101.1980335599856L19.694819474625888,82.32220075800036L-28.123233484869008,93.60244778774523z" style="fill:rgb(127,37,217)"/><path d="M-93.46931926579973,145.96131067198743L-98.57797577502794,152.07057412707377L-95.23842385385468,150.4585091740108zM-96.49055272120584,149.57429369245392L-98.87132869557468,151.70912849371024L-97.51316804163987,150.7971978121161zM-54.79627702165406,44.72901340043951L-55.467412528558214,151.59078458244983L101.72800714249603,109.97978470140033zM-104.3817168836216,154.8721358667747L-107.29258173719396,155.77433944954646L-105.83180089798987,155.57212313463543z" style="fill:rgb(83,212,212)"/><path d="M19.694819474625888,82.32220075800036L-23.602571978360054,101.1980335599856L23.881162266544877,90.09889346863731z" style="fill:rgb(127,37,217)"/><path d="M-97.51316804163987,150.7971978121161L-101.53693102274867,153.4989053637708L-98.57797577502794,152.07057412707377zM-86.8274009711806,152.9413545280655L-90.84231478001782,139.28327958106544L-96.75577879311791,154.3157343666414zM-95.23842385385468,150.4585091740108L-105.83180089798987,155.57212313463543L-96.75577879311791,154.3157343666414zM-116.3473985224778,165.16615602836256L-78.56608778772548,151.79775501272863L-118.39888936295111,157.31176259571126zM-82.8677859098888,137.58104293800955L-86.8274009711806,152.9413545280655L-78.56608778772548,151.79775501272863z" style="fill:rgb(83,212,212)"/><path d="M-111.08746269784245,172.2317564629873L-77.164768276928,156.42898697785753L-116.3473985224778,165.16615602836256zM-77.164768276928,156.42898697785753L-111.08746269784245,172.2317564629873L-72.17186023408782,163.63559511470513z" style="fill:rgb(127,37,217)"/><path d="M71.79488476894271,-31.810057907194274L137.73804798988692,87.14505642902517L137.69356771527683,86.78069619427882zM-60.070202713834995,149.23738346227904L-82.8677859098888,137.58104293800955L-78.56608778772548,151.79775501272863zM-78.56608778772548,151.79775501272863L-116.3473985224778,165.16615602836256L-77.164768276928,156.42898697785753z" style="fill:rgb(83,212,212)"/><path d="M-55.467412528558214,151.59078458244983L-72.17186023408782,163.63559511470513L-50.6250552536827,158.87607007274107z" style="fill:rgb(127,37,217)"/><path d="M-77.164768276928,156.42898697785753L-60.070202713834995,149.23738346227904L-78.56608778772548,151.79775501272863z" style="fill:rgb(83,212,212)"/><path d="M-72.17186023408782,163.63559511470513L-55.467412528558214,151.59078458244983L-77.164768276928,156.42898697785753z" style="fill:rgb(127,37,217)"/><path d="M-60.070202713834995,149.23738346227904L-77.164768276928,156.42898697785753L-55.467412528558214,151.59078458244983z" style="fill:rgb(83,212,212)"/><path d="M141.0507977909426,94.82691002687714L126.80474824361859,-2.4135297316443918L137.69356771527683,86.78069619427882z" style="fill:rgb(247,158,158)"/><path d="M96.71341961800245,71.21223566352795L78.62340211889796,64.18658144632784L95.70955470863692,98.05125274921542z" style="fill:rgb(83,212,212)"/><path d="M107.61361295905155,81.12949425798917L108.2355508669209,90.49098406362756L111.16120497517748,89.08183085330869z" style="fill:rgb(162,50,222)"/><path d="M104.66382469724442,82.5510645544664L105.58709021326578,92.29838602168033L108.2355508669209,90.49098406362756z" style="fill:rgb(183,62,221)"/><path d="M110.73194132963941,80.15866777015623L111.16120497517748,89.08183085330869L114.25559361596837,88.12329391707837z" style="fill:rgb(139,40,220)"/><path d="M117.2079401093408,79.17173678200041L96.71341961800245,71.21223566352795L96.2965108387585,82.35861112529156z" style="fill:rgb(83,212,212)"/><path d="M105.58709021326578,92.29838602168033L99.697292069259,86.52092949614561L103.31444646010195,94.43739458896951z" style="fill:rgb(203,77,216)"/><path d="M113.90329296774513,79.67536357029026L114.25559361596837,88.12329391707837L117.4040537707928,87.65169319036174z" style="fill:rgb(115,34,214)"/><path d="M103.31444646010195,94.43739458896951L97.86629501458333,88.92296227901201L101.50308706998756,96.82921148616579z" style="fill:rgb(220,94,208)"/><path d="M117.00967136062066,79.6989817712468L117.4040537707928,87.65169319036174L120.48941265748726,87.68600268717842z" style="fill:rgb(92,32,204)"/><path d="M108.2355508669209,90.49098406362756L107.61361295905155,81.12949425798917L104.66382469724442,82.5510645544664z" style="fill:rgb(162,50,222)"/><path d="M105.58709021326578,92.29838602168033L104.66382469724442,82.5510645544664L101.99189690268669,84.37056559215014z" style="fill:rgb(183,62,221)"/><path d="M111.16120497517748,89.08183085330869L110.73194132963941,80.15866777015623L107.61361295905155,81.12949425798917z" style="fill:rgb(139,40,220)"/><path d="M99.697292069259,86.52092949614561L105.58709021326578,92.29838602168033L101.99189690268669,84.37056559215014z" style="fill:rgb(203,77,216)"/><path d="M101.50308706998756,96.82921148616579L96.56898838424722,91.48788117190485L100.22235516406596,99.38541054283094z" style="fill:rgb(233,112,197)"/><path d="M114.25559361596837,88.12329391707837L113.90329296774513,79.67536357029026L110.73194132963941,80.15866777015623z" style="fill:rgb(115,34,214)"/><path d="M119.93464829859691,80.23071247835908L120.48941265748726,87.68600268717842L123.39601144111626,88.22697252056354z" style="fill:rgb(71,33,192)"/><path d="M97.86629501458333,88.92296227901201L103.31444646010195,94.43739458896951L99.697292069259,86.52092949614561z" style="fill:rgb(220,94,208)"/><path d="M-50.6250552536827,158.87607007274107L104.70246934128966,115.87515852252996L-55.467412528558214,151.59078458244983z" style="fill:rgb(127,37,217)"/><path d="M117.4040537707928,87.65169319036174L117.00967136062066,79.6989817712468L113.90329296774513,79.67536357029026z" style="fill:rgb(92,32,204)"/><path d="M103.73412557879684,81.22513140518282L96.2965108387585,82.35861112529156L95.9573082528477,91.42730749967511zM109.11758649249644,80.404694967219L103.73412557879684,81.22513140518282L101.59666612299755,84.02919491264926z" style="fill:rgb(83,212,212)"/><path d="M100.22235516406596,99.38541054283094L95.85658912316154,94.1202376950804L99.52283194627162,102.01084528247559z" style="fill:rgb(242,130,183)"/><path d="M126.0136411162012,89.25683776945172L119.93464829859691,80.23071247835908L123.39601144111626,88.22697252056354z" style="fill:rgb(51,38,177)"/><path d="M104.66382469724442,82.5510645544664L101.59666612299755,84.02919491264926L100.62898408024024,85.29867251507113z" style="fill:rgb(83,212,212)"/><path d="M96.56898838424722,91.48788117190485L101.50308706998756,96.82921148616579L97.86629501458333,88.92296227901201z" style="fill:rgb(233,112,197)"/><path d="M110.73194132963941,80.15866777015623L109.11758649249644,80.404694967219L107.61361295905155,81.12949425798917zM101.99189690268669,84.37056559215014L100.62898408024024,85.29867251507113L99.697292069259,86.52092949614561z" style="fill:rgb(83,212,212)"/><path d="M120.48941265748726,87.68600268717842L119.93464829859691,80.23071247835908L117.00967136062066,79.6989817712468z" style="fill:rgb(71,33,192)"/><path d="M99.52283194627162,102.01084528247559L95.75931165692215,96.72104882304833L99.4341950522625,104.60680440019817z" style="fill:rgb(246,149,167)"/><path d="M128.24155977517273,90.73953379120017L122.56732284579306,81.25316475877645L126.0136411162012,89.25683776945172z" style="fill:rgb(34,46,160)"/><path d="M95.85658912316154,94.1202376950804L100.22235516406596,99.38541054283094L96.56898838424722,91.48788117190485z" style="fill:rgb(242,130,183)"/><path d="M117.00967136062066,79.6989817712468L115.5224058001123,79.42861126057024L113.90329296774513,79.67536357029026zM119.93464829859691,80.23071247835908L117.2079401093408,79.17173678200041L115.5224058001123,79.42861126057024z" style="fill:rgb(83,212,212)"/><path d="M119.93464829859691,80.23071247835908L126.0136411162012,89.25683776945172L122.56732284579306,81.25316475877645z" style="fill:rgb(51,38,177)"/><path d="M95.75931165692215,96.72104882304833L99.9636812848232,107.07449003565269L99.4341950522625,104.60680440019817z" style="fill:rgb(246,167,149)"/><path d="M97.86629501458333,88.92296227901201L95.9573082528477,91.42730749967511L95.90601652539125,92.79864446447557z" style="fill:rgb(83,212,212)"/><path d="M95.75931165692215,96.72104882304833L99.52283194627162,102.01084528247559L95.85658912316154,94.1202376950804z" style="fill:rgb(246,149,167)"/><path d="M129.99238886114284,92.62155890196935L124.80636287067144,82.7305947487837L128.24155977517273,90.73953379120017z" style="fill:rgb(21,57,142)"/><path d="M96.56898838424722,91.48788117190485L95.90601652539125,92.79864446447557L95.85658912316154,94.1202376950804z" style="fill:rgb(83,212,212)"/><path d="M122.56732284579306,81.25316475877645L128.24155977517273,90.73953379120017L124.80636287067144,82.7305947487837z" style="fill:rgb(34,46,160)"/><path d="M131.19570885001764,94.83350494253466L126.56392563672783,84.60974472367789L129.99238886114284,92.62155890196935z" style="fill:rgb(12,71,124)"/><path d="M99.9636812848232,107.07449003565269L95.75931165692215,96.72104882304833L96.2847803881106,99.19133968308364z" style="fill:rgb(246,167,149)"/><path d="M124.80636287067144,82.7305947487837L129.99238886114284,92.62155890196935L126.56392563672783,84.60974472367789z" style="fill:rgb(21,57,142)"/><path d="M124.80636287067144,82.7305947487837L123.91352029800407,81.77599017563448L122.56732284579306,81.25316475877645zM96.2847803881106,99.19133968308364L95.75931165692215,96.72104882304833L95.70955470863692,98.05125274921542zM126.56392563672783,84.60974472367789L125.31645460603144,82.3208487178397L123.91352029800407,81.77599017563448z" style="fill:rgb(83,212,212)"/><path d="M104.70246934128966,115.87515852252996L-50.6250552536827,158.87607007274107L108.37414532779448,123.75434286363574z" style="fill:rgb(127,37,217)"/><path d="M126.56392563672783,84.60974472367789L131.19570885001764,94.83350494253466L127.76927645250672,86.82135826159583z" style="fill:rgb(12,71,124)"/><path d="M137.69356771527683,86.78069619427882L141.09597845691582,95.1907759399219L141.0507977909426,94.82691002687714z" style="fill:rgb(247,158,158)"/><path d="M101.72800714249603,109.97978470140033L-55.467412528558214,151.59078458244983L104.70246934128966,115.87515852252996zM99.11714100564429,103.36618769339658L97.41716865688169,101.43573397212091L97.99653254953503,102.58402800797462z" style="fill:rgb(83,212,212)"/><path d="M141.09597845691582,95.1907759399219L137.69356771527683,86.78069619427882L137.73804798988692,87.14505642902517z" style="fill:rgb(247,158,158)"/><path d="M101.32272981137449,104.90563538528357L97.99653254953503,102.58402800797462L98.60054117060568,103.78116663113352zM129.02889543342815,89.13254368091195L127.76927645250672,86.82135826159583L128.6803103524727,90.54139940903863zM128.6803103524727,90.54139940903863L128.3719826012149,89.28238183014085L128.3444400312434,91.89885494581007zM106.69605040106788,107.12521605047095L98.60054117060568,103.78116663113352L100.72261247590157,107.9871010200207zM136.4920250739704,102.82606737680392L137.73804798988692,87.14505642902517L125.31645460603144,82.3208487178397z" style="fill:rgb(83,212,212)"/><path d="M139.5976802073527,102.3779580544959L141.09597845691582,95.1907759399219L137.73804798988692,87.14505642902517z" style="fill:rgb(247,158,158)"/><path d="M127.6836752376849,94.56940218776782L126.41203719458055,97.18925455611301L127.34582989891733,95.93483359113056zM108.41001970305733,106.87792004895151L103.95118038560089,105.99138082040623L106.69605040106788,107.12521605047095z" style="fill:rgb(83,212,212)"/><path d="M141.09597845691582,95.1907759399219L139.5976802073527,102.3779580544959L142.98467253982548,110.40124065337795z" style="fill:rgb(247,158,158)"/><path d="M110.05983498071828,106.63987311548179L106.90181359490194,106.57804794943773L108.41001970305733,106.87792004895151zM127.34582989891733,95.93483359113056L122.66335501131171,102.22504671589553L126.21190364565541,100.51771526361847z" style="fill:rgb(83,212,212)"/><path d="M111.97813357414485,114.25278634497079L108.37414532779448,123.75434286363574L115.59415198447704,122.1594961358552z" style="fill:rgb(127,37,217)"/><path d="M124.5768321003484,99.65457707785974L122.2487711489865,101.8669658023947L123.63945864667862,100.9137911052725zM116.49649854467542,105.19213441901347L113.30091955074869,106.17222773182742L114.95570533113697,105.93346361985826zM123.63945864667862,100.9137911052725L119.51924772191536,103.73778560271117L122.66335501131171,102.22504671589553zM101.72800714249603,109.97978470140033L139.5976802073527,102.3779580544959L100.72261247590157,107.9871010200207zM136.4920250739704,102.82606737680392L129.02889543342815,89.13254368091195L125.23902143172671,104.4497214748216zM126.21190364565541,100.51771526361847L114.95570533113697,105.93346361985826L125.23902143172671,104.4497214748216z" style="fill:rgb(83,212,212)"/><path d="M108.37414532779448,123.75434286363574L111.97813357414485,114.25278634497079L104.70246934128966,115.87515852252996z" style="fill:rgb(127,37,217)"/><path d="M111.97813357414485,114.25278634497079L101.72800714249603,109.97978470140033L104.70246934128966,115.87515852252996zM137.73804798988692,87.14505642902517L136.4920250739704,102.82606737680392L139.5976802073527,102.3779580544959zM139.5976802073527,102.3779580544959L101.72800714249603,109.97978470140033L111.97813357414485,114.25278634497079z" style="fill:rgb(83,212,212)"/><path d="M140.27700319760487,107.94254273411337L115.59415198447704,122.1594961358552L143.67450462171777,115.95675931908437zM115.59415198447704,122.1594961358552L140.27700319760487,107.94254273411337L111.97813357414485,114.25278634497079z" style="fill:rgb(127,37,217)"/><path d="M142.98467253982548,110.40124065337795L140.27700319760487,107.94254273411337L143.67450462171777,115.95675931908437zM140.27700319760487,107.94254273411337L142.98467253982548,110.40124065337795L139.5976802073527,102.3779580544959z" style="fill:rgb(247,158,158)"/><path d="M139.5976802073527,102.3779580544959L111.97813357414485,114.25278634497079L140.27700319760487,107.94254273411337z" style="fill:rgb(83,212,212)"/></svg>
