<?xml version="1.0" encoding="UTF-8"?>
<!-- Generated by jsxcad -->
<!DOCTYPE svg PUBLIC "-//W3C//DTD SVG 1.1 Tiny//EN" "http://www.w3.org/Graphics/SVG/1.1/DTD/svg11-tiny.dtd">
<svg viewBox="-250 -250 500 500" width="500" height="500" xmlns="http://www.w3.org/2000/svg"><path d="M-109.25178628480786,-74.12643893547015L-106.67157834034774,33.36508795433956L119.48824050857134,-138.94238927880292zM114.27198630325884,-101.40496536487478L-113.4583538582096,-89.30934379318951L-119.67703611711875,-37.14052374577952zM-113.4583538582096,-89.30934379318951L114.27198630325884,-101.40496536487478L107.99981969123971,-152.9839067613737z" style="fill:rgb(83,212,212)"/><path d="M111.13016470171351,-144.24849274500284L120.74636082105428,-83.86090418958554L114.21505814061052,-135.63991404361784z" style="fill:rgb(247,158,158)"/><path d="M-106.67157834034774,33.36508795433956L-109.25178628480786,-74.12643893547015L-111.93836952310635,44.8435522219299z" style="fill:rgb(83,212,212)"/><path d="M-110.16930214545305,-21.50041047799685L114.27198630325884,-101.40496536487478L-119.67703611711875,-37.14052374577952z" style="fill:rgb(127,37,217)"/><path d="M107.99981969123971,-152.9839067613737L117.53421116370954,-92.5650889389882L111.13016470171351,-144.24849274500284z" style="fill:rgb(247,158,158)"/><path d="M119.48824050857134,-138.94238927880292L-106.67157834034774,33.36508795433956L-93.03724085629874,29.87617199200835z" style="fill:rgb(83,212,212)"/><path d="M114.27198630325884,-101.40496536487478L-110.16930214545305,-21.50041047799685L120.74636082105428,-83.86090418958554z" style="fill:rgb(127,37,217)"/><path d="M120.74636082105428,-83.86090418958554L111.13016470171351,-144.24849274500284L117.53421116370954,-92.5650889389882z" style="fill:rgb(247,158,158)"/><path d="M119.48824050857134,-138.94238927880292L-93.03724085629874,29.87617199200835L-89.66887047765016,39.20231215168557z" style="fill:rgb(83,212,212)"/><path d="M117.53421116370954,-92.5650889389882L107.99981969123971,-152.9839067613737L114.27198630325884,-101.40496536487478z" style="fill:rgb(247,158,158)"/><path d="M-93.03724085629874,29.87617199200835L-101.7753741804798,41.04516074174812L-88.22844318966013,37.60928896164489zM-101.7753741804798,41.04516074174812L-93.03724085629874,29.87617199200835L-106.67157834034774,33.36508795433956z" style="fill:rgb(127,37,217)"/><path d="M-111.93836952310635,44.8435522219299L-101.7753741804798,41.04516074174812L-106.67157834034774,33.36508795433956zM-101.7753741804798,41.04516074174812L-111.93836952310635,44.8435522219299L-106.95992040101672,52.50097400097332z" style="fill:rgb(241,128,184)"/><path d="M-111.93836952310635,44.8435522219299L-109.25178628480786,-74.12643893547015L-123.09706825445144,153.09868214668444zM-37.943812288577924,34.70628677031806L54.04601253406765,-75.27369022037783L-56.56088967293407,-45.149226402428184z" style="fill:rgb(83,212,212)"/><path d="M54.04601253406765,-75.27369022037783L62.76446031604127,18.87699233343808L57.68945510287398,-66.83191666483275z" style="fill:rgb(247,158,158)"/><path d="M119.48824050857134,-138.94238927880292L101.95896111184597,-20.021759263818222L117.07829612957592,-23.89067548706956zM119.48824050857134,-138.94238927880292L98.30070859478812,-8.413579410483392L101.95896111184597,-20.021759263818222zM119.48824050857134,-138.94238927880292L117.07829612957592,-23.89067548706956L123.02115872212606,-14.675690020033194zM119.48824050857134,-138.94238927880292L-89.66887047765016,39.20231215168557L-98.6632772991256,147.56576469333234zM-38.09153263599939,38.89460682324736L-56.56088967293407,-45.149226402428184L-61.66864544903366,44.79205143972734z" style="fill:rgb(83,212,212)"/><path d="M119.48824050857134,-138.94238927880292L155.9721360112085,118.50154909873748L122.4888503226083,-130.43925572895816z" style="fill:rgb(247,158,158)"/><path d="M-56.56088967293407,-45.149226402428184L-38.09153263599939,38.89460682324736L-37.943812288577924,34.70628677031806zM54.04601253406765,-75.27369022037783L-37.943812288577924,34.70628677031806L34.208473003230566,16.58380609374731zM119.48824050857134,-138.94238927880292L-98.6632772991256,147.56576469333234L98.30070859478812,-8.413579410483392zM-111.93836952310635,44.8435522219299L-117.20563418492755,139.47255332549247L-101.44328505673394,48.56450115168691zM-137.31304633622216,174.2444670203994L-123.09706825445144,153.09868214668444L-109.25178628480786,-74.12643893547015zM-101.44328505673394,48.56450115168691L-102.25982279627416,136.0413990273805L-89.66887047765016,39.20231215168557z" style="fill:rgb(83,212,212)"/><path d="M62.76446031604127,18.87699233343808L54.04601253406765,-75.27369022037783L58.83992428206486,10.397126970659876z" style="fill:rgb(247,158,158)"/><path d="M117.07829612957592,-23.89067548706956L105.43955921178144,-11.510198732829869L120.44982418874076,-15.31720965848489z" style="fill:rgb(127,37,217)"/><path d="M54.04601253406765,-75.27369022037783L34.208473003230566,16.58380609374731L59.07454865494128,14.590043028294424z" style="fill:rgb(83,212,212)"/><path d="M-38.09153263599939,38.89460682324736L-56.87760467663598,52.781391052123936L-33.46246053957108,46.97838408557261zM105.43955921178144,-11.510198732829869L117.07829612957592,-23.89067548706956L101.95896111184597,-20.021759263818222z" style="fill:rgb(127,37,217)"/><path d="M-33.33373423340907,42.79260520208472L-38.09153263599939,38.89460682324736L-33.46246053957108,46.97838408557261z" style="fill:rgb(247,158,158)"/><path d="M-56.87760467663598,52.781391052123936L-38.09153263599939,38.89460682324736L-61.66864544903366,44.79205143972734z" style="fill:rgb(127,37,217)"/><path d="M-38.09153263599939,38.89460682324736L-33.33373423340907,42.79260520208472L-37.943812288577924,34.70628677031806z" style="fill:rgb(247,158,158)"/><path d="M98.30070859478812,-8.413579410483392L105.43955921178144,-11.510198732829869L101.95896111184597,-20.021759263818222zM105.43955921178144,-11.510198732829869L98.30070859478812,-8.413579410483392L101.84217121046161,0.0805520467738754z" style="fill:rgb(241,128,184)"/><path d="M126.38240474441726,-6.080349857248515L117.07829612957592,-23.89067548706956L120.44982418874076,-15.31720965848489z" style="fill:rgb(13,70,126)"/><path d="M-33.33373423340907,42.79260520208472L34.208473003230566,16.58380609374731L-37.943812288577924,34.70628677031806zM34.208473003230566,16.58380609374731L-33.33373423340907,42.79260520208472L38.31101679375335,24.96263249371444z" style="fill:rgb(127,37,217)"/><path d="M117.07829612957592,-23.89067548706956L126.38240474441726,-6.080349857248515L123.02115872212606,-14.675690020033194z" style="fill:rgb(13,70,126)"/><path d="M119.48824050857134,-138.94238927880292L123.02115872212606,-14.675690020033194L136.0948219989366,94.40590928972043zM-117.20563418492755,139.47255332549247L-111.93836952310635,44.8435522219299L-123.09706825445144,153.09868214668444zM-101.44328505673394,48.56450115168691L-117.20563418492755,139.47255332549247L-102.25982279627416,136.0413990273805z" style="fill:rgb(83,212,212)"/><path d="M58.83992428206486,10.397126970659876L63.012667447689196,23.068823063866642L62.76446031604127,18.87699233343808z" style="fill:rgb(247,158,158)"/><path d="M59.07454865494128,14.590043028294424L38.461615689472126,29.153345789560195L63.012667447689196,23.068823063866642zM38.461615689472126,29.153345789560195L59.07454865494128,14.590043028294424L34.344057727018765,20.775984760513584z" style="fill:rgb(127,37,217)"/><path d="M-89.66887047765016,39.20231215168557L-102.25982279627416,136.0413990273805L-98.6632772991256,147.56576469333234zM59.07454865494128,14.590043028294424L34.208473003230566,16.58380609374731L34.344057727018765,20.775984760513584z" style="fill:rgb(83,212,212)"/><path d="M63.012667447689196,23.068823063866642L58.83992428206486,10.397126970659876L59.07454865494128,14.590043028294424z" style="fill:rgb(247,158,158)"/><path d="M-37.943812288577924,34.70628677031806L36.24343401296467,79.50327984247491L34.208473003230566,16.58380609374731z" style="fill:rgb(83,212,212)"/><path d="M34.208473003230566,16.58380609374731L40.57029672644071,87.83153330866267L38.31101679375335,24.96263249371444z" style="fill:rgb(247,158,158)"/><path d="M-102.25982279627416,136.0413990273805L-111.74185784807499,147.01724154427401L-96.90091419180972,143.64334989310422zM-111.74185784807499,147.01724154427401L-102.25982279627416,136.0413990273805L-117.20563418492755,139.47255332549247z" style="fill:rgb(127,37,217)"/><path d="M-123.09706825445144,153.09868214668444L-111.74185784807499,147.01724154427401L-117.20563418492755,139.47255332549247zM-111.74185784807499,147.01724154427401L-123.09706825445144,153.09868214668444L-117.53232223024595,160.5990799232355z" style="fill:rgb(241,128,184)"/><path d="M36.24343401296467,79.50327984247491L-37.943812288577924,34.70628677031806L-40.158738078063706,97.5062020252452zM111.32746158794029,-4.9898771041636865L129.36556214651986,82.86632169986983L123.02115872212606,-14.675690020033194zM108.67881296584625,100.61412992304015L111.32746158794029,-4.9898771041636865L98.30070859478812,-8.413579410483392zM136.0948219989366,94.40590928972043L152.45365061089242,109.9569664737615L119.48824050857134,-138.94238927880292z" style="fill:rgb(83,212,212)"/><path d="M40.57029672644071,87.83153330866267L34.208473003230566,16.58380609374731L36.24343401296467,79.50327984247491zM155.9721360112085,118.50154909873748L119.48824050857134,-138.94238927880292L152.45365061089242,109.9569664737615z" style="fill:rgb(247,158,158)"/><path d="M-123.09706825445144,153.09868214668444L-137.31304633622216,174.2444670203994L-111.6545085334462,158.2511903930145zM-98.6632772991256,147.56576469333234L108.67881296584625,100.61412992304015L98.30070859478812,-8.413579410483392z" style="fill:rgb(83,212,212)"/><path d="M-35.26301972517437,105.52697027013693L36.24343401296467,79.50327984247491L-40.158738078063706,97.5062020252452zM36.24343401296467,79.50327984247491L-35.26301972517437,105.52697027013693L40.57029672644071,87.83153330866267z" style="fill:rgb(127,37,217)"/><path d="M111.32746158794029,-4.9898771041636865L112.61654824282559,86.71145794065423L129.36556214651986,82.86632169986983zM111.32746158794029,-4.9898771041636865L108.67881296584625,100.61412992304015L112.61654824282559,86.71145794065423zM123.02115872212606,-14.675690020033194L129.36556214651986,82.86632169986983L136.0948219989366,94.40590928972043z" style="fill:rgb(83,212,212)"/><path d="M-131.55936133898166,181.65511945387266L152.45365061089242,109.9569664737615L-137.31304633622216,174.2444670203994z" style="fill:rgb(127,37,217)"/><path d="M-111.6545085334462,158.2511903930145L152.45365061089242,109.9569664737615L-98.6632772991256,147.56576469333234zM-111.6545085334462,158.2511903930145L-137.31304633622216,174.2444670203994L152.45365061089242,109.9569664737615zM-98.6632772991256,147.56576469333234L123.20247754200946,105.53112595127993L108.67881296584625,100.61412992304015z" style="fill:rgb(83,212,212)"/><path d="M129.36556214651986,82.86632169986983L116.36344182729937,95.16039401915168L132.97862699612483,91.38314130370148zM116.36344182729937,95.16039401915168L129.36556214651986,82.86632169986983L112.61654824282559,86.71145794065423z" style="fill:rgb(127,37,217)"/><path d="M108.67881296584625,100.61412992304015L116.36344182729937,95.16039401915168L112.61654824282559,86.71145794065423zM116.36344182729937,95.16039401915168L108.67881296584625,100.61412992304015L112.49808033929573,109.02268638085198z" style="fill:rgb(241,128,184)"/><path d="M139.6924629938207,102.92528949570233L129.36556214651986,82.86632169986983L132.97862699612483,91.38314130370148z" style="fill:rgb(13,70,126)"/><path d="M-98.6632772991256,147.56576469333234L152.45365061089242,109.9569664737615L123.20247754200946,105.53112595127993z" style="fill:rgb(83,212,212)"/><path d="M152.45365061089242,109.9569664737615L-131.55936133898166,181.65511945387266L155.9721360112085,118.50154909873748z" style="fill:rgb(127,37,217)"/><path d="M129.36556214651986,82.86632169986983L139.6924629938207,102.92528949570233L136.0948219989366,94.40590928972043z" style="fill:rgb(13,70,126)"/><path d="M123.20247754200946,105.53112595127993L152.45365061089242,109.9569664737615L136.0948219989366,94.40590928972043z" style="fill:rgb(83,212,212)"/></svg>
