<?xml version="1.0" encoding="UTF-8"?>
<!-- Generated by jsxcad -->
<!DOCTYPE svg PUBLIC "-//W3C//DTD SVG 1.1 Tiny//EN" "http://www.w3.org/Graphics/SVG/1.1/DTD/svg11-tiny.dtd">
<svg viewBox="-250 -250 500 500" width="500" height="500" xmlns="http://www.w3.org/2000/svg"><path d="M-109.25178628480786,-74.12643893547015L-107.49001490481317,31.7756705394626L119.48824050857134,-138.94238927880292zM114.27198630325884,-101.40496536487478L-113.4583538582096,-89.30934379318951L-119.67703611711875,-37.14052374577952zM-113.4583538582096,-89.30934379318951L114.27198630325884,-101.40496536487478L107.99981969123971,-152.9839067613737zM-107.49001490481317,31.7756705394626L-109.25178628480786,-74.12643893547015L-109.75286124331765,33.708386359632776zM-109.75286124331765,33.708386359632776L-109.25178628480786,-74.12643893547015L-111.67000112074881,35.851446541633514zM-111.67000112074881,35.851446541633514L-109.25178628480786,-74.12643893547015L-113.1685092495064,38.125340080733125zM-113.1685092495064,38.125340080733125L-109.25178628480786,-74.12643893547015L-114.1902185848162,40.445142484717245z" style="fill:rgb(83,212,212)"/><path d="M111.13016470171351,-144.24849274500284L120.74636082105428,-83.86090418958554L114.21505814061052,-135.63991404361784z" style="fill:rgb(247,158,158)"/><path d="M-114.1902185848162,40.445142484717245L-109.25178628480786,-74.12643893547015L-114.6940180251483,42.72341080102008z" style="fill:rgb(83,212,212)"/><path d="M-110.16930214545305,-21.50041047799685L114.27198630325884,-101.40496536487478L-119.67703611711875,-37.14052374577952z" style="fill:rgb(127,37,217)"/><path d="M107.99981969123971,-152.9839067613737L117.53421116370954,-92.5650889389882L111.13016470171351,-144.24849274500284z" style="fill:rgb(247,158,158)"/><path d="M119.48824050857134,-138.94238927880292L-104.96647082526341,30.12476814914524L-102.27632741915323,28.816772043107807zM119.48824050857134,-138.94238927880292L-107.49001490481317,31.7756705394626L-104.96647082526341,30.12476814914524zM119.48824050857134,-138.94238927880292L-102.27632741915323,28.816772043107807L-99.51957202073321,27.900402264949243zM119.48824050857134,-138.94238927880292L-99.51957202073321,27.900402264949243L-96.79880746191557,27.410366493618767zM119.48824050857134,-138.94238927880292L-96.79880746191557,27.410366493618767L-94.21571590791578,27.36608994209771zM119.48824050857134,-138.94238927880292L-94.21571590791578,27.36608994209771L-91.86765895222733,27.77090263434743zM119.48824050857134,-138.94238927880292L-91.86765895222733,27.77090263434743L-89.84417766786187,28.6116674865495zM119.48824050857134,-138.94238927880292L-89.84417766786187,28.6116674865495L-88.2236842588985,29.858920288436448zM119.48824050857134,-138.94238927880292L-88.2236842588985,29.858920288436448L-87.07036428148656,31.467590086747226z" style="fill:rgb(83,212,212)"/><path d="M114.27198630325884,-101.40496536487478L-110.16930214545305,-21.50041047799685L120.74636082105428,-83.86090418958554z" style="fill:rgb(127,37,217)"/><path d="M120.74636082105428,-83.86090418958554L111.13016470171351,-144.24849274500284L117.53421116370954,-92.5650889389882z" style="fill:rgb(247,158,158)"/><path d="M119.48824050857134,-138.94238927880292L-87.07036428148656,31.467590086747226L-86.43141915505782,33.3782905328578zM119.48824050857134,-138.94238927880292L-86.43141915505782,33.3782905328578L-86.33483310366,35.519221230950265z" style="fill:rgb(83,212,212)"/><path d="M-102.27632741915323,28.816772043107807L-100.09448607800546,37.811806208902986L-97.42441486103745,36.51432629678065z" style="fill:rgb(162,50,222)"/><path d="M-104.96647082526341,30.12476814914524L-102.59717031004128,39.45279732846841L-100.09448607800546,37.811806208902986z" style="fill:rgb(183,62,221)"/><path d="M-100.25866985815739,28.146086532725697L-97.42441486103745,36.51432629678065L-95.42036951853169,35.851501978647164zM-99.51957202073321,27.900402264949243L-95.42036951853169,35.851501978647164L-94.68625663012857,35.60869831447332z" style="fill:rgb(139,40,220)"/><path d="M-102.59717031004128,39.45279732846841L-109.75286124331765,33.708386359632776L-104.83912300667899,41.37655854254185z" style="fill:rgb(203,77,216)"/><path d="M-96.79880746191557,27.410366493618767L-94.68625663012857,35.60869831447332L-91.98190525413524,35.12923400435935z" style="fill:rgb(115,34,214)"/><path d="M117.53421116370954,-92.5650889389882L107.99981969123971,-152.9839067613737L114.27198630325884,-101.40496536487478z" style="fill:rgb(247,158,158)"/><path d="M-104.83912300667899,41.37655854254185L-111.67000112074881,35.851446541633514L-106.73612246882993,43.511935641323596z" style="fill:rgb(220,94,208)"/><path d="M-94.21571590791578,27.36608994209771L-91.98190525413524,35.12923400435935L-89.41247425047001,35.09495869746138z" style="fill:rgb(92,32,204)"/><path d="M-100.09448607800546,37.811806208902986L-102.27632741915323,28.816772043107807L-104.96647082526341,30.12476814914524z" style="fill:rgb(162,50,222)"/><path d="M-97.42441486103745,36.51432629678065L-100.25866985815739,28.146086532725697L-102.27632741915323,28.816772043107807z" style="fill:rgb(139,40,220)"/><path d="M-102.59717031004128,39.45279732846841L-104.96647082526341,30.12476814914524L-107.49001490481317,31.7756705394626z" style="fill:rgb(183,62,221)"/><path d="M-95.42036951853169,35.851501978647164L-99.51957202073321,27.900402264949243L-100.25866985815739,28.146086532725697z" style="fill:rgb(139,40,220)"/><path d="M-109.75286124331765,33.708386359632776L-102.59717031004128,39.45279732846841L-107.49001490481317,31.7756705394626z" style="fill:rgb(203,77,216)"/><path d="M-106.73612246882993,43.511935641323596L-113.1685092495064,38.125340080733125L-108.21599425205666,45.77968498490283z" style="fill:rgb(233,112,197)"/><path d="M-94.68625663012857,35.60869831447332L-96.79880746191557,27.410366493618767L-99.51957202073321,27.900402264949243z" style="fill:rgb(115,34,214)"/><path d="M-91.86765895222733,27.77090263434743L-89.41247425047001,35.09495869746138L-87.07480044057309,35.50881288042825z" style="fill:rgb(71,33,192)"/><path d="M-111.67000112074881,35.851446541633514L-104.83912300667899,41.37655854254185L-109.75286124331765,33.708386359632776z" style="fill:rgb(220,94,208)"/><path d="M-91.98190525413524,35.12923400435935L-94.21571590791578,27.36608994209771L-96.79880746191557,27.410366493618767z" style="fill:rgb(92,32,204)"/><path d="M-108.21599425205666,45.77968498490283L-114.1902185848162,40.445142484717245L-109.22126098924016,48.09510959294215z" style="fill:rgb(242,130,183)"/><path d="M-85.05802949284708,36.35729590019706L-91.86765895222733,27.77090263434743L-87.07480044057309,35.50881288042825z" style="fill:rgb(51,38,177)"/><path d="M-113.1685092495064,38.125340080733125L-106.73612246882993,43.511935641323596L-111.67000112074881,35.851446541633514z" style="fill:rgb(233,112,197)"/><path d="M-89.41247425047001,35.09495869746138L-91.86765895222733,27.77090263434743L-94.21571590791578,27.36608994209771z" style="fill:rgb(71,33,192)"/><path d="M-109.22126098924016,48.09510959294215L-114.6940180251483,42.72341080102008L-109.71146919015885,50.37092208580177z" style="fill:rgb(246,149,167)"/><path d="M-83.44029452019016,37.61062220099914L-89.84417766786187,28.6116674865495L-85.05802949284708,36.35729590019706z" style="fill:rgb(34,46,160)"/><path d="M-114.1902185848162,40.445142484717245L-108.21599425205666,45.77968498490283L-113.1685092495064,38.125340080733125z" style="fill:rgb(242,130,183)"/><path d="M-91.86765895222733,27.77090263434743L-85.05802949284708,36.35729590019706L-89.84417766786187,28.6116674865495z" style="fill:rgb(51,38,177)"/><path d="M-114.6940180251483,42.72341080102008L-109.66500461093948,52.52035703286782L-109.71146919015885,50.37092208580177z" style="fill:rgb(246,167,149)"/><path d="M-109.25178628480786,-74.12643893547015L-126.08416889054658,150.3585035407565L-114.6940180251483,42.72341080102008z" style="fill:rgb(83,212,212)"/><path d="M-114.6940180251483,42.72341080102008L-109.22126098924016,48.09510959294215L-114.1902185848162,40.445142484717245z" style="fill:rgb(246,149,167)"/><path d="M-82.28563751287412,39.22345750530512L-88.2236842588985,29.858920288436448L-83.44029452019016,37.61062220099914z" style="fill:rgb(21,57,142)"/><path d="M-89.84417766786187,28.6116674865495L-83.44029452019016,37.61062220099914L-88.2236842588985,29.858920288436448z" style="fill:rgb(34,46,160)"/><path d="M-114.65773751011425,44.873282704121415L-109.08028096705603,54.46038058075476L-109.66500461093948,52.52035703286782z" style="fill:rgb(242,183,130)"/><path d="M-109.66500461093948,52.52035703286782L-114.6940180251483,42.72341080102008L-114.65773751011425,44.873282704121415z" style="fill:rgb(246,167,149)"/><path d="M-88.2236842588985,29.858920288436448L-82.28563751287412,39.22345750530512L-87.07036428148656,31.467590086747226z" style="fill:rgb(21,57,142)"/><path d="M-56.56088967293407,-45.149226402428184L-26.09614102495018,31.730510309301387L54.04601253406765,-75.27369022037783z" style="fill:rgb(83,212,212)"/><path d="M-109.08028096705603,54.46038058075476L-114.65773751011425,44.873282704121415L-114.07935386200008,46.81169174473861z" style="fill:rgb(242,183,130)"/><path d="M119.48824050857134,-138.94238927880292L103.24512956632545,-23.30299894276749L106.09390455267828,-24.68432830788347zM119.48824050857134,-138.94238927880292L100.6641059996771,-21.58432407584475L103.24512956632545,-23.30299894276749zM119.48824050857134,-138.94238927880292L106.09390455267828,-24.68432830788347L109.10472199429698,-25.67695715420695zM119.48824050857134,-138.94238927880292L98.44701922601148,-19.591800979758347L100.6641059996771,-21.58432407584475zM119.48824050857134,-138.94238927880292L109.10472199429698,-25.67695715420695L112.16590431801295,-26.24337531698725zM119.48824050857134,-138.94238927880292L96.6773075033768,-17.39899642538493L98.44701922601148,-19.591800979758347zM119.48824050857134,-138.94238927880292L112.16590431801295,-26.24337531698725L115.16342128051147,-26.361269334017454zM119.48824050857134,-138.94238927880292L95.42269444543676,-15.08716270317514L96.6773075033768,-17.39899642538493zM119.48824050857134,-138.94238927880292L115.16342128051147,-26.361269334017454L117.98482480930865,-26.024464769957234zM119.48824050857134,-138.94238927880292L94.7326808294954,-12.742574291273256L95.42269444543676,-15.08716270317514z" style="fill:rgb(83,212,212)"/><path d="M58.83992428206486,10.397126970659876L57.68945510287398,-66.83191666483275L54.04601253406765,-75.27369022037783z" style="fill:rgb(247,158,158)"/><path d="M119.48824050857134,-138.94238927880292L117.98482480930865,-26.024464769957234L120.52308636185552,-25.243380563504335zM119.48824050857134,-138.94238927880292L120.52308636185552,-25.243380563504335L122.6805037650998,-24.04502268573026zM119.48824050857134,-138.94238927880292L122.6805037650998,-24.04502268573026L124.37248584583763,-22.472376899659146zM119.48824050857134,-138.94238927880292L-86.33483310366,35.519221230950265L-94.97669195139545,143.28725368611128zM119.48824050857134,-138.94238927880292L124.37248584583763,-22.472376899659146L125.53103353329229,-20.583237560953453zM119.48824050857134,-138.94238927880292L125.53103353329229,-20.583237560953453L126.10778846765209,-18.448379308606036zM-26.19803817251944,35.91963812848238L-56.56088967293407,-45.149226402428184L-61.66864544903366,44.79205143972734zM-56.56088967293407,-45.149226402428184L-26.19803817251944,35.91963812848238L-26.09614102495018,31.730510309301387z" style="fill:rgb(83,212,212)"/><path d="M152.45365061089242,109.9569664737615L122.4888503226083,-130.43925572895816L119.48824050857134,-138.94238927880292z" style="fill:rgb(247,158,158)"/><path d="M119.48824050857134,-138.94238927880292L-94.97669195139545,143.28725368611128L94.7326808294954,-12.742574291273256zM-126.08416889054658,150.3585035407565L-114.65773751011425,44.873282704121415L-114.6940180251483,42.72341080102008zM-114.65773751011425,44.873282704121415L-125.50578264733036,147.6214114076513L-114.07935386200008,46.81169174473861zM54.04601253406765,-75.27369022037783L-26.09614102495018,31.730510309301387L22.003256483942845,19.649389513386545zM-137.31304633622216,174.2444670203994L-126.08416889054658,150.3585035407565L-109.25178628480786,-74.12643893547015zM-114.07935386200008,46.81169174473861L-124.36121267161994,144.86560284661766L-112.97764487236252,48.46262525764487zM-112.97764487236252,48.46262525764487L-122.6966379901524,142.19456629319555L-111.39195521177996,49.76026085295865zM-111.39195521177996,49.76026085295865L-120.57668954637248,139.7076472537441L-109.38116629667518,50.651861552277545zM-109.38116629667518,50.651861552277545L-115.30575642205808,135.6429592265249L-107.02176735382054,51.10021872087032zM-107.02176735382054,51.10021872087032L-115.30575642205808,135.6429592265249L-104.40503046010073,51.08556839338284zM-104.40503046010073,51.08556839338284L-112.35146468449625,134.21483601960207L-101.6334050814604,50.606725967398226z" style="fill:rgb(83,212,212)"/><path d="M106.09390455267828,-24.68432830788347L106.7070161575893,-14.785792508562354L109.53327536329057,-16.155404202513783z" style="fill:rgb(162,50,222)"/><path d="M103.24512956632545,-23.30299894276749L104.14789612120967,-13.077790640296476L106.7070161575893,-14.785792508562354z" style="fill:rgb(183,62,221)"/><path d="M108.297490238162,-25.410822298128068L109.53327536329057,-16.155404202513783L111.72052590556852,-16.872862856524957zM109.10472199429698,-25.67695715420695L111.72052590556852,-16.872862856524957L112.52177036433277,-17.135687275619752z" style="fill:rgb(139,40,220)"/><path d="M57.68945510287398,-66.83191666483275L58.83992428206486,10.397126970659876L62.76446031604127,18.87699233343808z" style="fill:rgb(247,158,158)"/><path d="M-101.6334050814604,50.606725967398226L-106.34890906217345,132.83049102094265L-98.81636178467757,49.68141685079195z" style="fill:rgb(83,212,212)"/><path d="M104.14789612120967,-13.077790640296476L98.44701922601148,-19.591800979758347L101.95131584839183,-11.094517739775451z" style="fill:rgb(203,77,216)"/><path d="M-98.81636178467757,49.68141685079195L-106.34890906217345,132.83049102094265L-96.06563787086468,48.34570918050286zM-86.78779587742785,37.80868031879512L-95.0627511072897,140.68096596759835L-86.33483310366,35.519221230950265z" style="fill:rgb(83,212,212)"/><path d="M112.16590431801295,-26.24337531698725L112.52177036433277,-17.135687275619752L115.56162207126131,-17.689587666530468z" style="fill:rgb(115,34,214)"/><path d="M-96.06563787086468,48.34570918050286L-103.52385655826531,132.92796972126726L-93.49047818416801,46.65253711778918zM-87.77584356233304,40.15810293338908L-95.7447141223279,138.32337414821887L-86.78779587742785,37.80868031879512zM-93.49047818416801,46.65253711778918L-100.95959758616729,133.5563430797959L-91.19283462506384,44.66943296053849zM-89.26300226227652,42.47553802001876L-96.99222794408759,136.30308952248032L-87.77584356233304,40.15810293338908zM-91.19283462506384,44.66943296053849L-98.75386349288053,134.69470298788585L-89.26300226227652,42.47553802001876z" style="fill:rgb(83,212,212)"/><path d="M101.95131584839183,-11.094517739775451L96.6773075033768,-17.39899642538493L100.19994276967086,-8.909214500624373z" style="fill:rgb(220,94,208)"/><path d="M115.16342128051147,-26.361269334017454L115.56162207126131,-17.689587666530468L118.53956953065848,-17.79526710712668z" style="fill:rgb(92,32,204)"/><path d="M106.7070161575893,-14.785792508562354L106.09390455267828,-24.68432830788347L103.24512956632545,-23.30299894276749z" style="fill:rgb(162,50,222)"/><path d="M109.53327536329057,-16.155404202513783L108.297490238162,-25.410822298128068L106.09390455267828,-24.68432830788347z" style="fill:rgb(139,40,220)"/><path d="M104.14789612120967,-13.077790640296476L103.24512956632545,-23.30299894276749L100.6641059996771,-21.58432407584475z" style="fill:rgb(183,62,221)"/><path d="M111.72052590556852,-16.872862856524957L109.10472199429698,-25.67695715420695L108.297490238162,-25.410822298128068z" style="fill:rgb(139,40,220)"/><path d="M98.44701922601148,-19.591800979758347L104.14789612120967,-13.077790640296476L100.6641059996771,-21.58432407584475z" style="fill:rgb(203,77,216)"/><path d="M100.19994276967086,-8.909214500624373L95.42269444543676,-15.08716270317514L98.96082728919846,-6.602873805456247z" style="fill:rgb(233,112,197)"/><path d="M112.52177036433277,-17.135687275619752L112.16590431801295,-26.24337531698725L109.10472199429698,-25.67695715420695z" style="fill:rgb(115,34,214)"/><path d="M117.98482480930865,-26.024464769957234L118.53956953065848,-17.79526710712668L121.34388245825618,-17.44701407674949z" style="fill:rgb(71,33,192)"/><path d="M54.04601253406765,-75.27369022037783L22.003256483942845,19.649389513386545L59.07454865494128,14.590043028294424z" style="fill:rgb(83,212,212)"/><path d="M96.6773075033768,-17.39899642538493L101.95131584839183,-11.094517739775451L98.44701922601148,-19.591800979758347z" style="fill:rgb(220,94,208)"/><path d="M115.56162207126131,-17.689587666530468L115.16342128051147,-26.361269334017454L112.16590431801295,-26.24337531698725z" style="fill:rgb(92,32,204)"/><path d="M98.96082728919846,-6.602873805456247L94.7326808294954,-12.742574291273256L98.28285873857371,-4.261572673893229z" style="fill:rgb(242,130,183)"/><path d="M123.86817586038326,-16.655708286847045L117.98482480930865,-26.024464769957234L121.34388245825618,-17.44701407674949z" style="fill:rgb(51,38,177)"/><path d="M95.42269444543676,-15.08716270317514L100.19994276967086,-8.909214500624373L96.6773075033768,-17.39899642538493z" style="fill:rgb(233,112,197)"/><path d="M118.53956953065848,-17.79526710712668L117.98482480930865,-26.024464769957234L115.16342128051147,-26.361269334017454z" style="fill:rgb(71,33,192)"/><path d="M98.28285873857371,-4.261572673893229L94.63642002142704,-10.45359006443852L98.19469534540958,-1.9735491697328322z" style="fill:rgb(246,149,167)"/><path d="M126.01529588447669,-15.448772461683609L120.52308636185552,-25.243380563504335L123.86817586038326,-16.655708286847045z" style="fill:rgb(34,46,160)"/><path d="M94.7326808294954,-12.742574291273256L98.96082728919846,-6.602873805456247L95.42269444543676,-15.08716270317514z" style="fill:rgb(242,130,183)"/><path d="M-56.87760467663598,52.781391052123936L-26.19803817251944,35.91963812848238L-61.66864544903366,44.79205143972734zM-26.19803817251944,35.91963812848238L-56.87760467663598,52.781391052123936L-21.651518670933175,44.051263488764256z" style="fill:rgb(127,37,217)"/><path d="M117.98482480930865,-26.024464769957234L123.86817586038326,-16.655708286847045L120.52308636185552,-25.243380563504335z" style="fill:rgb(51,38,177)"/><path d="M94.63642002142704,-10.45359006443852L98.70329631489099,0.17391941804310562L98.19469534540958,-1.9735491697328322z" style="fill:rgb(246,167,149)"/><path d="M126.50083490621388,-14.99392508024736L122.6805037650998,-24.04502268573026L126.01529588447669,-15.448772461683609z" style="fill:rgb(21,57,142)"/><path d="M94.63642002142704,-10.45359006443852L98.28285873857371,-4.261572673893229L94.7326808294954,-12.742574291273256z" style="fill:rgb(246,149,167)"/><path d="M-21.567983532309178,39.86450608384718L-26.19803817251944,35.91963812848238L-21.651518670933175,44.051263488764256z" style="fill:rgb(247,158,158)"/><path d="M127.70107998573152,-13.869555727235461L123.16782171386757,-23.592072703410008L126.50083490621388,-14.99392508024736z" style="fill:rgb(21,57,142)"/><path d="M120.52308636185552,-25.243380563504335L126.01529588447669,-15.448772461683609L122.6805037650998,-24.04502268573026z" style="fill:rgb(34,46,160)"/><path d="M-26.19803817251944,35.91963812848238L-21.567983532309178,39.86450608384718L-26.09614102495018,31.730510309301387z" style="fill:rgb(247,158,158)"/><path d="M128.85781873385812,-11.97613552713253L124.37248584583763,-22.472376899659146L127.70107998573152,-13.869555727235461z" style="fill:rgb(12,71,124)"/><path d="M122.6805037650998,-24.04502268573026L126.50083490621388,-14.99392508024736L123.16782171386757,-23.592072703410008z" style="fill:rgb(21,57,142)"/><path d="M98.70329631489099,0.17391941804310562L94.63642002142704,-10.45359006443852L95.14123180378337,-8.307532542376743z" style="fill:rgb(246,167,149)"/><path d="M123.16782171386757,-23.592072703410008L127.70107998573152,-13.869555727235461L124.37248584583763,-22.472376899659146z" style="fill:rgb(21,57,142)"/><path d="M-21.567983532309178,39.86450608384718L22.003256483942845,19.649389513386545L-26.09614102495018,31.730510309301387zM22.003256483942845,19.649389513386545L-21.567983532309178,39.86450608384718L26.193106760614747,27.97837456876199z" style="fill:rgb(127,37,217)"/><path d="M124.37248584583763,-22.472376899659146L128.85781873385812,-11.97613552713253L125.53103353329229,-20.583237560953453z" style="fill:rgb(12,71,124)"/><path d="M-109.38116629667518,50.651861552277545L-118.08189825738529,137.49665138826717L-115.30575642205808,135.6429592265249zM-109.38116629667518,50.651861552277545L-120.57668954637248,139.7076472537441L-118.08189825738529,137.49665138826717zM-111.39195521177996,49.76026085295865L-122.6966379901524,142.19456629319555L-120.57668954637248,139.7076472537441zM-104.40503046010073,51.08556839338284L-115.30575642205808,135.6429592265249L-112.35146468449625,134.21483601960207zM-112.97764487236252,48.46262525764487L-124.36121267161994,144.86560284661766L-122.6966379901524,142.19456629319555zM-101.6334050814604,50.606725967398226L-112.35146468449625,134.21483601960207L-109.32846399618536,133.26534378415212zM-114.07935386200008,46.81169174473861L-125.50578264733036,147.6214114076513L-124.36121267161994,144.86560284661766zM-101.6334050814604,50.606725967398226L-109.32846399618536,133.26534378415212L-106.34890906217345,132.83049102094265zM-114.65773751011425,44.873282704121415L-126.08416889054658,150.3585035407565L-125.50578264733036,147.6214114076513zM-96.06563787086468,48.34570918050286L-106.34890906217345,132.83049102094265L-103.52385655826531,132.92796972126726zM126.10778846765209,-18.448379308606036L152.45365061089242,109.9569664737615L119.48824050857134,-138.94238927880292zM-93.49047818416801,46.65253711778918L-103.52385655826531,132.92796972126726L-100.95959758616729,133.5563430797959zM-91.19283462506384,44.66943296053849L-100.95959758616729,133.5563430797959L-98.75386349288053,134.69470298788585z" style="fill:rgb(83,212,212)"/><path d="M26.29576404528953,32.168423433485856L59.07454865494128,14.590043028294424L22.09020416055948,23.8410939023019zM59.07454865494128,14.590043028294424L26.29576404528953,32.168423433485856L63.012667447689196,23.068823063866642z" style="fill:rgb(127,37,217)"/><path d="M-89.26300226227652,42.47553802001876L-98.75386349288053,134.69470298788585L-96.99222794408759,136.30308952248032zM94.7326808294954,-12.742574291273256L-94.97669195139545,143.28725368611128L94.63642002142704,-10.45359006443852zM59.07454865494128,14.590043028294424L22.003256483942845,19.649389513386545L22.09020416055948,23.8410939023019zM-87.77584356233304,40.15810293338908L-96.99222794408759,136.30308952248032L-95.7447141223279,138.32337414821887z" style="fill:rgb(83,212,212)"/><path d="M62.76446031604127,18.87699233343808L59.07454865494128,14.590043028294424L63.012667447689196,23.068823063866642z" style="fill:rgb(247,158,158)"/><path d="M-86.78779587742785,37.80868031879512L-95.7447141223279,138.32337414821887L-95.0627511072897,140.68096596759835z" style="fill:rgb(83,212,212)"/><path d="M59.07454865494128,14.590043028294424L62.76446031604127,18.87699233343808L58.83992428206486,10.397126970659876z" style="fill:rgb(247,158,158)"/><path d="M-86.33483310366,35.519221230950265L-95.0627511072897,140.68096596759835L-94.97669195139545,143.28725368611128zM-26.09614102495018,31.730510309301387L23.30801803047564,82.55129688929196L22.003256483942845,19.649389513386545z" style="fill:rgb(83,212,212)"/><path d="M23.30801803047564,82.55129688929196L26.193106760614747,27.97837456876199L22.003256483942845,19.649389513386545z" style="fill:rgb(247,158,158)"/><path d="M-112.35146468449625,134.21483601960207L-109.8716229123682,143.20055099406864L-106.94152195787319,141.7849629319751z" style="fill:rgb(162,50,222)"/><path d="M-115.30575642205808,135.6429592265249L-112.62254641843211,145.04162217590593L-109.8716229123682,143.20055099406864z" style="fill:rgb(183,62,221)"/><path d="M-109.32846399618536,133.26534378415212L-106.94152195787319,141.7849629319751L-103.94085842234803,140.84747035062233z" style="fill:rgb(139,40,220)"/><path d="M-112.62254641843211,145.04162217590593L-120.57668954637248,139.7076472537441L-115.09199753245741,147.24035461131223z" style="fill:rgb(203,77,216)"/><path d="M-106.34890906217345,132.83049102094265L-103.94085842234803,140.84747035062233L-100.98094481304881,140.4236392558797z" style="fill:rgb(115,34,214)"/><path d="M-115.09199753245741,147.24035461131223L-122.6966379901524,142.19456629319555L-117.18743097368736,149.71579494787366z" style="fill:rgb(220,94,208)"/><path d="M-103.52385655826531,132.92796972126726L-100.98094481304881,140.4236392558797L-98.17215829800656,140.53074003684884z" style="fill:rgb(92,32,204)"/><path d="M-109.8716229123682,143.20055099406864L-112.35146468449625,134.21483601960207L-115.30575642205808,135.6429592265249z" style="fill:rgb(162,50,222)"/><path d="M-112.62254641843211,145.04162217590593L-115.30575642205808,135.6429592265249L-118.08189825738529,137.49665138826717z" style="fill:rgb(183,62,221)"/><path d="M-106.94152195787319,141.7849629319751L-109.32846399618536,133.26534378415212L-112.35146468449625,134.21483601960207z" style="fill:rgb(139,40,220)"/><path d="M-120.57668954637248,139.7076472537441L-112.62254641843211,145.04162217590593L-118.08189825738529,137.49665138826717z" style="fill:rgb(203,77,216)"/><path d="M-117.18743097368736,149.71579494787366L-124.36121267161994,144.86560284661766L-118.82922646044135,152.3765375111557z" style="fill:rgb(233,112,197)"/><path d="M-103.94085842234803,140.84747035062233L-106.34890906217345,132.83049102094265L-109.32846399618536,133.26534378415212z" style="fill:rgb(115,34,214)"/><path d="M-100.95959758616729,133.5563430797959L-98.17215829800656,140.53074003684884L-95.62016828031027,141.16695100232414z" style="fill:rgb(71,33,192)"/><path d="M-122.6966379901524,142.19456629319555L-115.09199753245741,147.24035461131223L-120.57668954637248,139.7076472537441z" style="fill:rgb(220,94,208)"/><path d="M-100.98094481304881,140.4236392558797L-103.52385655826531,132.92796972126726L-106.34890906217345,132.83049102094265z" style="fill:rgb(92,32,204)"/><path d="M94.63642002142704,-10.45359006443852L104.6711975111776,95.14536652604048L95.14123180378337,-8.307532542376743z" style="fill:rgb(83,212,212)"/><path d="M-118.82922646044135,152.3765375111557L-125.50578264733036,147.6214114076513L-119.95359702600408,155.1236010219266z" style="fill:rgb(242,130,183)"/><path d="M-93.42223751552949,142.31103297708842L-100.95959758616729,133.5563430797959L-95.62016828031027,141.16695100232414z" style="fill:rgb(51,38,177)"/><path d="M-124.36121267161994,144.86560284661766L-117.18743097368736,149.71579494787366L-122.6966379901524,142.19456629319555z" style="fill:rgb(233,112,197)"/><path d="M-98.17215829800656,140.53074003684884L-100.95959758616729,133.5563430797959L-103.52385655826531,132.92796972126726z" style="fill:rgb(71,33,192)"/><path d="M95.14123180378337,-8.307532542376743L104.6711975111776,95.14536652604048L96.23178510009028,-6.3874407604885945z" style="fill:rgb(83,212,212)"/><path d="M-119.95359702600408,155.1236010219266L-126.08416889054658,150.3585035407565L-120.5151716887079,157.8538155342074z" style="fill:rgb(246,149,167)"/><path d="M-91.6636110936993,143.92276511577447L-98.75386349288053,134.69470298788585L-93.42223751552949,142.31103297708842z" style="fill:rgb(34,46,160)"/><path d="M96.23178510009028,-6.3874407604885945L105.41317652651017,92.33517652697594L97.87007105504358,-4.7688019098530186z" style="fill:rgb(83,212,212)"/><path d="M-125.50578264733036,147.6214114076513L-118.82922646044135,152.3765375111557L-124.36121267161994,144.86560284661766z" style="fill:rgb(242,130,183)"/><path d="M97.87007105504358,-4.7688019098530186L106.78181841643038,89.59784655876742L99.99624696967734,-3.5164076006372733z" style="fill:rgb(83,212,212)"/><path d="M-100.95959758616729,133.5563430797959L-93.42223751552949,142.31103297708842L-98.75386349288053,134.69470298788585z" style="fill:rgb(51,38,177)"/><path d="M-126.08416889054658,150.3585035407565L-120.48904517322636,160.46337129823635L-120.5151716887079,157.8538155342074z" style="fill:rgb(246,167,149)"/><path d="M99.99624696967734,-3.5164076006372733L108.72292567372658,87.03504275675186L102.53048979743119,-2.6814731552271542z" style="fill:rgb(83,212,212)"/><path d="M-126.08416889054658,150.3585035407565L-119.95359702600408,155.1236010219266L-125.50578264733036,147.6214114076513z" style="fill:rgb(246,149,167)"/><path d="M102.53048979743119,-2.6814731552271542L114.00808190344017,82.80060664739725L105.37571608868312,-2.2991976105559933zM105.37571608868312,-2.2991976105559933L114.00808190344017,82.80060664739725L108.42127859523124,-2.386929415147231z" style="fill:rgb(83,212,212)"/><path d="M-98.75386349288053,134.69470298788585L-91.6636110936993,143.92276511577447L-96.99222794408759,136.30308952248032z" style="fill:rgb(34,46,160)"/><path d="M-126.07077751495025,152.97280571630495L-119.87217199755727,162.8516346791774L-120.48904517322636,160.46337129823635z" style="fill:rgb(242,183,130)"/><path d="M108.42127859523124,-2.386929415147231L117.15480078612148,81.2845536120769L111.54738097992144,-2.943080984096385zM111.54738097992144,-2.943080984096385L120.4860455931528,80.249234982351L114.63015614411522,-3.9469062811114304z" style="fill:rgb(83,212,212)"/><path d="M-120.48904517322636,160.46337129823635L-126.08416889054658,150.3585035407565L-126.07077751495025,152.97280571630495z" style="fill:rgb(246,167,149)"/><path d="M23.30801803047564,82.55129688929196L-26.09614102495018,31.730510309301387L-27.624238741399356,94.5526481915561zM114.63015614411522,-3.9469062811114304L123.87872533183567,79.73383457370073L117.54692279553564,-5.359192959562638zM117.54692279553564,-5.359192959562638L127.2069016996168,79.75911364064653L120.18165317798224,-7.1238687814381025z" style="fill:rgb(83,212,212)"/><path d="M-125.46201337154974,155.3634850017205L-118.68414337844958,164.9250583615606L-119.87217199755727,162.8516346791774z" style="fill:rgb(233,197,112)"/><path d="M124.20370093504158,-11.417091323071709L135.5917586595834,82.99457741035228L125.43447581813416,-13.77439005487557zM122.42997910695495,-9.170432778156622L133.17733243166572,81.41760304702726L124.20370093504158,-11.417091323071709zM126.07645139937208,-16.149135815618973L139.47976700091607,89.99137952826428L126.10778846765209,-18.448379308606036zM125.43447581813416,-13.77439005487557L138.80894429764635,87.36260243336285L126.07645139937208,-16.149135815618973zM120.18165317798224,-7.1238687814381025L133.17733243166572,81.41760304702726L122.42997910695495,-9.170432778156622z" style="fill:rgb(83,212,212)"/><path d="M-119.87217199755727,162.8516346791774L-126.07077751495025,152.97280571630495L-125.46201337154974,155.3634850017205z" style="fill:rgb(242,183,130)"/><path d="M26.193106760614747,27.97837456876199L23.30801803047564,82.55129688929196L27.73291654596097,90.8270877742589z" style="fill:rgb(247,158,158)"/><path d="M-118.68414337844958,164.9250583615606L-125.46201337154974,155.3634850017205L-124.27710005213093,157.4368693844529z" style="fill:rgb(233,197,112)"/><path d="M-126.08416889054658,150.3585035407565L-137.31304633622216,174.2444670203994L-126.07077751495025,152.97280571630495z" style="fill:rgb(83,212,212)"/><path d="M122.4888503226083,-130.43925572895816L152.45365061089242,109.9569664737615L155.9721360112085,118.50154909873748z" style="fill:rgb(247,158,158)"/><path d="M-126.07077751495025,152.97280571630495L-137.31304633622216,174.2444670203994L-125.46201337154974,155.3634850017205zM94.63642002142704,-10.45359006443852L-94.97669195139545,143.28725368611128L104.58765038044444,97.92293818960808zM-125.46201337154974,155.3634850017205L-137.31304633622216,174.2444670203994L-124.27710005213093,157.4368693844529zM-124.27710005213093,157.4368693844529L-137.31304633622216,174.2444670203994L-122.55793835087348,159.11028685546455zM-122.55793835087348,159.11028685546455L-137.31304633622216,174.2444670203994L-120.36807729752603,160.31574502926998zM-120.36807729752603,160.31574502926998L-137.31304633622216,174.2444670203994L-117.79068401432696,161.00303346166146zM-117.79068401432696,161.00303346166146L-137.31304633622216,174.2444670203994L-114.92549541565845,161.14228885443734z" style="fill:rgb(83,212,212)"/><path d="M-22.820164676135285,102.62346910908758L23.30801803047564,82.55129688929196L-27.624238741399356,94.5526481915561z" style="fill:rgb(127,37,217)"/><path d="M-114.92549541565845,161.14228885443734L-137.31304633622216,174.2444670203994L-111.88487320777489,160.7257100331587z" style="fill:rgb(83,212,212)"/><path d="M23.30801803047564,82.55129688929196L-22.820164676135285,102.62346910908758L27.73291654596097,90.8270877742589z" style="fill:rgb(127,37,217)"/><path d="M102.53048979743119,-2.6814731552271542L111.1622189344605,84.74121999058511L114.00808190344017,82.80060664739725zM102.53048979743119,-2.6814731552271542L108.72292567372658,87.03504275675186L111.1622189344605,84.74121999058511zM99.99624696967734,-3.5164076006372733L106.78181841643038,89.59784655876742L108.72292567372658,87.03504275675186zM108.42127859523124,-2.386929415147231L114.00808190344017,82.80060664739725L117.15480078612148,81.2845536120769zM97.87007105504358,-4.7688019098530186L105.41317652651017,92.33517652697594L106.78181841643038,89.59784655876742zM111.54738097992144,-2.943080984096385L117.15480078612148,81.2845536120769L120.4860455931528,80.249234982351zM96.23178510009028,-6.3874407604885945L104.6711975111776,95.14536652604048L105.41317652651017,92.33517652697594zM104.6711975111776,95.14536652604048L94.63642002142704,-10.45359006443852L104.58765038044444,97.92293818960808zM114.63015614411522,-3.9469062811114304L120.4860455931528,80.249234982351L123.87872533183567,79.73383457370073zM117.54692279553564,-5.359192959562638L123.87872533183567,79.73383457370073L127.2069016996168,79.75911364064653zM120.18165317798224,-7.1238687814381025L127.2069016996168,79.75911364064653L130.34606494046471,80.32648071394762zM120.18165317798224,-7.1238687814381025L130.34606494046471,80.32648071394762L133.17733243166572,81.41760304702726zM124.20370093504158,-11.417091323071709L133.17733243166572,81.41760304702726L135.5917586595834,82.99457741035228zM125.43447581813416,-13.77439005487557L135.5917586595834,82.99457741035228L137.49454312208962,85.00081872933515zM125.43447581813416,-13.77439005487557L137.49454312208962,85.00081872933515L138.80894429764635,87.36260243336285zM126.07645139937208,-16.149135815618973L138.80894429764635,87.36260243336285L139.47976700091607,89.99137952826428zM-95.49403755176921,146.04262356180604L152.45365061089242,109.9569664737615L-94.97669195139545,143.28725368611128zM-96.59845048986145,148.8401977476122L152.45365061089242,109.9569664737615L-95.49403755176921,146.04262356180604z" style="fill:rgb(83,212,212)"/><path d="M-131.55936133898166,181.65511945387266L152.45365061089242,109.9569664737615L-137.31304633622216,174.2444670203994z" style="fill:rgb(127,37,217)"/><path d="M-98.24988127890724,151.57014703934465L152.45365061089242,109.9569664737615L-96.59845048986145,148.8401977476122zM-100.38570071196001,154.1241549085918L152.45365061089242,109.9569664737615L-98.24988127890724,151.57014703934465zM-102.92295771365075,156.40018970165593L152.45365061089242,109.9569664737615L-100.38570071196001,154.1241549085918zM-111.88487320777489,160.7257100331587L-137.31304633622216,174.2444670203994L152.45365061089242,109.9569664737615zM-111.88487320777489,160.7257100331587L152.45365061089242,109.9569664737615L-108.78922027093773,159.76820491009227zM-105.76170613718254,158.30700266536607L152.45365061089242,109.9569664737615L-102.92295771365075,156.40018970165593zM-108.78922027093773,159.76820491009227L152.45365061089242,109.9569664737615L-105.76170613718254,158.30700266536607zM139.47976700091607,89.99137952826428L152.45365061089242,109.9569664737615L126.10778846765209,-18.448379308606036zM-94.97669195139545,143.28725368611128L105.17019505530477,100.5622461369295L104.58765038044444,97.92293818960808z" style="fill:rgb(83,212,212)"/><path d="M117.15480078612148,81.2845536120769L117.73268960416573,91.26149472180543L120.85195915099679,89.75955610343652z" style="fill:rgb(162,50,222)"/><path d="M114.00808190344017,82.80060664739725L114.91343725451387,93.18834999320266L117.73268960416573,91.26149472180543z" style="fill:rgb(183,62,221)"/><path d="M120.4860455931528,80.249234982351L120.85195915099679,89.75955610343652L124.15589067558959,88.73820436237538z" style="fill:rgb(139,40,220)"/><path d="M-94.97669195139545,143.28725368611128L106.40143139674605,102.96136277285927L105.17019505530477,100.5622461369295z" style="fill:rgb(83,212,212)"/><path d="M114.91343725451387,93.18834999320266L108.72292567372658,87.03504275675186L112.49896957028922,95.46925348355259z" style="fill:rgb(203,77,216)"/><path d="M123.87872533183567,79.73383457370073L124.15589067558959,88.73820436237538L127.52236220441804,88.23611072680674z" style="fill:rgb(115,34,214)"/><path d="M112.49896957028922,95.46925348355259L106.78181841643038,89.59784655876742L110.57997148342697,98.02042063527452z" style="fill:rgb(220,94,208)"/><path d="M-94.97669195139545,143.28725368611128L108.23882136637883,105.02606954540008L106.40143139674605,102.96136277285927z" style="fill:rgb(83,212,212)"/><path d="M127.2069016996168,79.75911364064653L127.52236220441804,88.23611072680674L130.82637396508989,88.27353136224028z" style="fill:rgb(92,32,204)"/><path d="M117.73268960416573,91.26149472180543L117.15480078612148,81.2845536120769L114.00808190344017,82.80060664739725z" style="fill:rgb(162,50,222)"/><path d="M114.91343725451387,93.18834999320266L114.00808190344017,82.80060664739725L111.1622189344605,84.74121999058511z" style="fill:rgb(183,62,221)"/><path d="M120.85195915099679,89.75955610343652L120.4860455931528,80.249234982351L117.15480078612148,81.2845536120769z" style="fill:rgb(139,40,220)"/><path d="M108.72292567372658,87.03504275675186L114.91343725451387,93.18834999320266L111.1622189344605,84.74121999058511z" style="fill:rgb(203,77,216)"/><path d="M110.57997148342697,98.02042063527452L105.41317652651017,92.33517652697594L109.22991419727616,100.7478031184525z" style="fill:rgb(233,112,197)"/><path d="M124.15589067558959,88.73820436237538L123.87872533183567,79.73383457370073L120.4860455931528,80.249234982351z" style="fill:rgb(115,34,214)"/><path d="M-94.97669195139545,143.28725368611128L110.61555909930428,106.67374309707435L108.23882136637883,105.02606954540008z" style="fill:rgb(83,212,212)"/><path d="M130.34606494046471,80.32648071394762L130.82637396508989,88.27353136224028L133.94429730102092,88.85139518232828z" style="fill:rgb(71,33,192)"/><path d="M106.78181841643038,89.59784655876742L112.49896957028922,95.46925348355259L108.72292567372658,87.03504275675186z" style="fill:rgb(220,94,208)"/><path d="M127.52236220441804,88.23611072680674L127.2069016996168,79.75911364064653L123.87872533183567,79.73383457370073z" style="fill:rgb(92,32,204)"/><path d="M109.22991419727616,100.7478031184525L104.6711975111776,95.14536652604048L108.50225870010725,103.55008337163429z" style="fill:rgb(242,130,183)"/><path d="M136.75804734049103,89.95093548331579L130.34606494046471,80.32648071394762L133.94429730102092,88.85139518232828z" style="fill:rgb(51,38,177)"/><path d="M-94.97669195139545,143.28725368611128L113.44259497679631,107.83701821939876L110.61555909930428,106.67374309707435z" style="fill:rgb(83,212,212)"/><path d="M105.41317652651017,92.33517652697594L110.57997148342697,98.02042063527452L106.78181841643038,89.59784655876742z" style="fill:rgb(233,112,197)"/><path d="M130.82637396508989,88.27353136224028L130.34606494046471,80.32648071394762L127.2069016996168,79.75911364064653z" style="fill:rgb(71,33,192)"/><path d="M-94.97669195139545,143.28725368611128L116.61163590444573,108.46702737295506L113.44259497679631,107.83701821939876z" style="fill:rgb(83,212,212)"/><path d="M108.50225870010725,103.55008337163429L104.58765038044444,97.92293818960808L108.42817949868507,106.32207131239302z" style="fill:rgb(246,149,167)"/><path d="M139.1593653250009,91.533882030724L133.17733243166572,81.41760304702726L136.75804734049103,89.95093548331579z" style="fill:rgb(34,46,160)"/><path d="M104.6711975111776,95.14536652604048L109.22991419727616,100.7478031184525L105.41317652651017,92.33517652697594z" style="fill:rgb(242,130,183)"/><path d="M130.34606494046471,80.32648071394762L136.75804734049103,89.95093548331579L133.17733243166572,81.41760304702726z" style="fill:rgb(51,38,177)"/><path d="M104.58765038044444,97.92293818960808L109.01490459116916,108.95833943783138L108.42817949868507,106.32207131239302z" style="fill:rgb(246,167,149)"/><path d="M104.58765038044444,97.92293818960808L108.50225870010725,103.55008337163429L104.6711975111776,95.14536652604048z" style="fill:rgb(246,149,167)"/><path d="M141.053998325429,93.54336961831925L135.5917586595834,82.99457741035228L139.1593653250009,91.533882030724z" style="fill:rgb(21,57,142)"/><path d="M133.17733243166572,81.41760304702726L139.1593653250009,91.533882030724L135.5917586595834,82.99457741035228z" style="fill:rgb(34,46,160)"/><path d="M142.36558611009542,95.90549875115998L137.49454312208962,85.00081872933515L141.053998325429,93.54336961831925z" style="fill:rgb(12,71,124)"/><path d="M109.01490459116916,108.95833943783138L104.58765038044444,97.92293818960808L105.17019505530477,100.5622461369295z" style="fill:rgb(246,167,149)"/><path d="M-94.97669195139545,143.28725368611128L152.45365061089242,109.9569664737615L116.61163590444573,108.46702737295506z" style="fill:rgb(83,212,212)"/><path d="M135.5917586595834,82.99457741035228L141.053998325429,93.54336961831925L137.49454312208962,85.00081872933515z" style="fill:rgb(21,57,142)"/><path d="M152.45365061089242,109.9569664737615L-131.55936133898166,181.65511945387266L155.9721360112085,118.50154909873748z" style="fill:rgb(127,37,217)"/><path d="M137.49454312208962,85.00081872933515L142.36558611009542,95.90549875115998L138.80894429764635,87.36260243336285z" style="fill:rgb(12,71,124)"/><path d="M139.47615252744345,92.78682549372662L152.45365061089242,109.9569664737615L139.47976700091607,89.99137952826428zM138.79361696364327,95.64059184595621L152.45365061089242,109.9569664737615L139.47615252744345,92.78682549372662zM137.45487373622385,98.44055851647717L152.45365061089242,109.9569664737615L138.79361696364327,95.64059184595621zM116.61163590444573,108.46702737295506L152.45365061089242,109.9569664737615L119.9992605892815,108.53589306060117zM135.5095458269383,101.0755312745795L152.45365061089242,109.9569664737615L137.45487373622385,98.44055851647717zM119.9992605892815,108.53589306060117L152.45365061089242,109.9569664737615L123.47187200469322,108.03838538859212zM133.03256941464605,103.44005839392673L152.45365061089242,109.9569664737615L135.5095458269383,101.0755312745795zM123.47187200469322,108.03838538859212L152.45365061089242,109.9569664737615L126.89141395301931,106.99254653803055zM130.1212984412487,105.43914177291119L152.45365061089242,109.9569664737615L133.03256941464605,103.44005839392673zM126.89141395301931,106.99254653803055L152.45365061089242,109.9569664737615L130.1212984412487,105.43914177291119z" style="fill:rgb(83,212,212)"/></svg>
