<?xml version="1.0" encoding="UTF-8"?>
<!-- Generated by jsxcad -->
<!DOCTYPE svg PUBLIC "-//W3C//DTD SVG 1.1 Tiny//EN" "http://www.w3.org/Graphics/SVG/1.1/DTD/svg11-tiny.dtd">
<svg viewBox="-250 -250 500 500" width="500" height="500" xmlns="http://www.w3.org/2000/svg"><path d="M-78.68053595853165,-87.2936535244698L104.30379433371604,115.96405371954017L81.8640874117159,-132.96795424410575z" style="fill:rgb(83,212,212)"/><path d="M81.8640874117159,-132.96795424410575L107.06572033083002,121.88491014244696L84.14762518686888,-127.06294575246955z" style="fill:rgb(247,158,158)"/><path d="M-18.94792594192238,-20.738326043577874L13.731112605353587,10.059183939121763L13.217995568459772,-29.222137937774722z" style="fill:rgb(83,212,212)"/><path d="M13.731112605353587,10.059183939121763L16.07046763324211,-23.380372834629473L13.217995568459772,-29.222137937774722z" style="fill:rgb(247,158,158)"/><path d="M13.731112605353587,10.059183939121763L-18.94792594192238,-20.738326043577874L-19.677424235545924,18.546410646637327z" style="fill:rgb(83,212,212)"/><path d="M16.07046763324211,-23.380372834629473L13.731112605353587,10.059183939121763L16.690781503549736,15.903857932401468z" style="fill:rgb(247,158,158)"/><path d="M-16.554217432183357,24.295563408023728L13.731112605353587,10.059183939121763L-19.677424235545924,18.546410646637327zM13.731112605353587,10.059183939121763L-16.554217432183357,24.295563408023728L16.690781503549736,15.903857932401468z" style="fill:rgb(127,37,217)"/><path d="M104.30379433371604,115.96405371954017L-78.68053595853165,-87.2936535244698L-99.19027009196148,161.3403551482121z" style="fill:rgb(83,212,212)"/><path d="M107.06572033083002,121.88491014244696L81.8640874117159,-132.96795424410575L104.30379433371604,115.96405371954017z" style="fill:rgb(247,158,158)"/><path d="M-95.3246143249851,166.69657855600707L104.30379433371604,115.96405371954017L-99.19027009196148,161.3403551482121zM104.30379433371604,115.96405371954017L-95.3246143249851,166.69657855600707L107.06572033083002,121.88491014244696z" style="fill:rgb(127,37,217)"/></svg>
