<?xml version="1.0" encoding="UTF-8"?>
<!-- Generated by jsxcad -->
<!DOCTYPE svg PUBLIC "-//W3C//DTD SVG 1.1 Tiny//EN" "http://www.w3.org/Graphics/SVG/1.1/DTD/svg11-tiny.dtd">
<svg viewBox="-250 -250 500 500" width="500" height="500" xmlns="http://www.w3.org/2000/svg"><path d="M117.97155361822743,-143.24039476979334L-74.4421132823029,-88.49947359292496L133.4912110212214,-25.12095901613541z" style="fill:rgb(83,212,212)"/><path d="M133.4912110212214,-25.12095901613541L120.9939738043218,-134.6754548364462L117.97155361822743,-143.24039476979334z" style="fill:rgb(247,158,158)"/><path d="M-117.47539742110273,40.02075332044811L-121.93547902550714,12.444422365032166L-122.98057783614756,21.474411026054206zM-121.93547902550714,12.444422365032166L-117.47539742110273,40.02075332044811L-112.19735364711397,16.464824507923257zM-111.47184758340032,-77.96465640875363L147.74469074772784,83.36164865630072L-74.4421132823029,-88.49947359292496z" style="fill:rgb(83,212,212)"/><path d="M-104.73025582032149,24.9236075303834L-102.52118596569909,33.98294890248189L-99.8411105422361,32.68023205222692z" style="fill:rgb(162,50,222)"/><path d="M-107.43055497794556,26.23692579192642L-105.03425711706421,35.6288818022487L-102.52118596569909,33.98294890248189z" style="fill:rgb(183,62,221)"/><path d="M-101.96411445343983,24.001784379015422L-99.8411105422361,32.68023205222692L-97.0936903670672,31.769260896421134z" style="fill:rgb(139,40,220)"/><path d="M-96.39174774616343,22.990190748185345L-112.19735364711397,16.464824507923257L-114.3916181775727,26.25784106747196z" style="fill:rgb(83,212,212)"/><path d="M-105.03425711706421,35.6288818022487L-112.23808845843597,29.83003684467334L-107.28661542826444,37.5571142354568z" style="fill:rgb(203,77,216)"/><path d="M-99.23507068425674,23.506359029820054L-97.0936903670672,31.769260896421134L-94.3811526774699,31.28454415488323z" style="fill:rgb(115,34,214)"/><path d="M-107.28661542826444,37.5571142354568L-114.165447259001,31.976932512580415L-109.19362456213763,39.696334751508175z" style="fill:rgb(220,94,208)"/><path d="M-96.64510797632066,23.45696902103884L-94.3811526774699,31.28454415488323L-91.80490881644634,31.245305882770506z" style="fill:rgb(92,32,204)"/><path d="M-102.52118596569909,33.98294890248189L-104.73025582032149,24.9236075303834L-107.43055497794556,26.23692579192642z" style="fill:rgb(162,50,222)"/><path d="M-105.03425711706421,35.6288818022487L-107.43055497794556,26.23692579192642L-109.96465906119808,27.89282558531485z" style="fill:rgb(183,62,221)"/><path d="M-99.8411105422361,32.68023205222692L-101.96411445343983,24.001784379015422L-104.73025582032149,24.9236075303834z" style="fill:rgb(139,40,220)"/><path d="M-112.23808845843597,29.83003684467334L-105.03425711706421,35.6288818022487L-109.96465906119808,27.89282558531485z" style="fill:rgb(203,77,216)"/><path d="M-109.19362456213763,39.696334751508175L-115.67342936370352,34.25386676628733L-110.68277070748813,41.967164500469444z" style="fill:rgb(233,112,197)"/><path d="M-97.0936903670672,31.769260896421134L-99.23507068425674,23.506359029820054L-101.96411445343983,24.001784379015422z" style="fill:rgb(115,34,214)"/><path d="M-94.29184341455984,23.85713909858259L-91.80490881644634,31.245305882770506L-89.4620488486826,31.654679929886576z" style="fill:rgb(71,33,192)"/><path d="M-103.35349339683609,24.254007197226397L-114.3916181775727,26.25784106747196L-115.23772741427408,30.03401061263235z" style="fill:rgb(83,212,212)"/><path d="M-114.165447259001,31.976932512580415L-107.28661542826444,37.5571142354568L-112.23808845843597,29.83003684467334z" style="fill:rgb(220,94,208)"/><path d="M-94.3811526774699,31.28454415488323L-96.64510797632066,23.45696902103884L-99.23507068425674,23.506359029820054z" style="fill:rgb(92,32,204)"/><path d="M-110.68277070748813,41.967164500469444L-116.70350619709883,36.57580687088566L-111.6962107734255,44.284796745401465z" style="fill:rgb(242,130,183)"/><path d="M-87.4419187601415,32.49934588098605L-94.29184341455984,23.85713909858259L-89.4620488486826,31.654679929886576z" style="fill:rgb(51,38,177)"/><path d="M-107.43055497794556,26.23692579192642L-110.23835339857008,27.602519991906433L-111.25721099909383,28.737439644233813z" style="fill:rgb(83,212,212)"/><path d="M-115.67342936370352,34.25386676628733L-109.19362456213763,39.696334751508175L-114.165447259001,31.976932512580415z" style="fill:rgb(233,112,197)"/><path d="M-101.96411445343983,24.001784379015422L-103.35349339683609,24.254007197226397L-104.73025582032149,24.9236075303834zM-109.96465906119808,27.89282558531485L-111.25721099909383,28.737439644233813L-112.23808845843597,29.83003684467334z" style="fill:rgb(83,212,212)"/><path d="M-91.80490881644634,31.245305882770506L-94.29184341455984,23.85713909858259L-96.64510797632066,23.45696902103884z" style="fill:rgb(71,33,192)"/><path d="M-110.23835339857008,27.602519991906433L-115.23772741427408,30.03401061263235L-116.17449915779696,34.21482718319465z" style="fill:rgb(83,212,212)"/><path d="M-111.6962107734255,44.284796745401465L-117.21424872588507,38.85523085961548L-112.19316958303871,46.56185978778728z" style="fill:rgb(246,149,167)"/><path d="M-85.82279126785517,33.74967722173091L-92.26501936486329,24.693915768973575L-87.4419187601415,32.49934588098605z" style="fill:rgb(34,46,160)"/><path d="M-116.70350619709883,36.57580687088566L-110.68277070748813,41.967164500469444L-115.67342936370352,34.25386676628733z" style="fill:rgb(242,130,183)"/><path d="M-96.64510797632066,23.45696902103884L-97.84192167924286,23.253451806164147L-99.23507068425674,23.506359029820054zM-94.29184341455984,23.85713909858259L-96.39174774616343,22.990190748185345L-97.84192167924286,23.253451806164147zM-114.165447259001,31.976932512580415L-115.14969328346031,33.07329479528454L-115.67342936370352,34.25386676628733z" style="fill:rgb(83,212,212)"/><path d="M-94.29184341455984,23.85713909858259L-87.4419187601415,32.49934588098605L-92.26501936486329,24.693915768973575z" style="fill:rgb(51,38,177)"/><path d="M-117.21424872588507,38.85523085961548L-112.15175724479025,48.711546221801406L-112.19316958303871,46.56185978778728z" style="fill:rgb(246,167,149)"/><path d="M-117.21424872588507,38.85523085961548L-111.6962107734255,44.284796745401465L-116.70350619709883,36.57580687088566z" style="fill:rgb(246,149,167)"/><path d="M-84.66878046325314,35.36046966352895L-90.64318726054698,25.93800474132135L-85.82279126785517,33.74967722173091z" style="fill:rgb(21,57,142)"/><path d="M-115.14969328346031,33.07329479528454L-116.17449915779696,34.21482718319465L-116.70350619709883,36.57580687088566z" style="fill:rgb(83,212,212)"/><path d="M-92.26501936486329,24.693915768973575L-85.82279126785517,33.74967722173091L-90.64318726054698,25.93800474132135z" style="fill:rgb(34,46,160)"/><path d="M-117.1831692752194,41.00522936158467L-111.57017051237113,50.65079613012071L-112.15175724479025,48.711546221801406z" style="fill:rgb(242,183,130)"/><path d="M-112.15175724479025,48.711546221801406L-117.21424872588507,38.85523085961548L-117.1831692752194,41.00522936158467z" style="fill:rgb(246,167,149)"/><path d="M-90.64318726054698,25.93800474132135L-84.66878046325314,35.36046966352895L-89.49060360260695,27.544473284136046z" style="fill:rgb(21,57,142)"/><path d="M-90.64318726054698,25.93800474132135L-91.22886644425252,25.121693101029127L-92.26501936486329,24.693915768973575z" style="fill:rgb(83,212,212)"/><path d="M-111.57017051237113,50.65079613012071L-117.1831692752194,41.00522936158467L-116.60805614566107,42.94272297130709z" style="fill:rgb(242,183,130)"/><path d="M-117.1831692752194,41.00522936158467L-117.21424872588507,38.85523085961548L-117.47539742110273,40.02075332044811zM-89.49060360260695,27.544473284136046L-90.14922982248052,25.567426188921782L-91.22886644425252,25.121693101029127zM147.74469074772784,83.36164865630072L-111.47184758340032,-77.96465640875363L-118.35871060242087,-18.459985815929915zM-115.50752324134511,44.591721462322894L-116.60805614566107,42.94272297130709L-116.31389495426035,43.933714103908144zM-113.9208449851778,45.88646472054498L-116.31389495426035,43.933714103908144L-116.00728731973885,44.9666547655507zM-88.1899414399642,31.44877803853712L-88.85446568812215,29.4540263704435L-88.7157369420886,32.689872155464904zM-88.7157369420886,32.689872155464904L-88.7626821686713,31.5949297494173L-89.22226518776505,33.88548903326659zM-109.80450190850621,47.70115232049883L-116.00728731973885,44.9666547655507L-114.93054743171048,48.59405633765819zM-90.2185318120031,36.23710078781462L-91.71519584696328,38.557727247523985L-90.72779804956997,37.4391804710465zM-108.33395936988977,47.44499831307118L-111.90691960874446,46.77429969025432L-109.80450190850621,47.70115232049883zM-106.91858807708155,47.198452717521086L-109.54234446838879,47.21816640697405L-108.33395936988977,47.44499831307118zM-90.72779804956997,37.4391804710465L-95.67803992803256,43.04690652192356L-92.43647589987678,41.47238280099831zM-93.65545331941753,40.755684492981146L-95.9640297303696,42.74355262509994L-94.64632449247169,41.87815933063634zM-101.31153239888174,45.78325317274649L-104.13837803644414,46.71416820669346L-102.71908768682908,46.46694288408896zM-94.64632449247169,41.87815933063634L-98.55018955533028,44.441991405066844L-95.67803992803256,43.04690652192356zM-84.258129780431,43.251229498689916L-88.1899414399642,31.44877803853712L-93.90175133606755,44.93104946626425zM-92.43647589987678,41.47238280099831L-102.71908768682908,46.46694288408896L-93.90175133606755,44.93104946626425zM-58.27758698352675,38.725675494626294L-90.14922982248052,25.567426188921782L-84.258129780431,43.251229498689916z" style="fill:rgb(83,212,212)"/><path d="M120.9939738043218,-134.6754548364462L133.4912110212214,-25.12095901613541L136.78116052557087,-16.403796733927827z" style="fill:rgb(247,158,158)"/><path d="M-74.4421132823029,-88.49947359292496L147.74469074772784,83.36164865630072L76.30396416982019,-42.55175170940565zM109.14696723097951,107.84714527730162L-118.35871060242087,-18.459985815929915L-121.93547902550714,12.444422365032166zM93.82085350581167,-37.212569037884606L76.30396416982019,-42.55175170940565L92.78415559290517,-13.574717054130714z" style="fill:rgb(83,212,212)"/><path d="M104.3533343394163,-29.000581200447026L104.98302322609872,-19.027295891622416L107.82049562319533,-20.40274228864334z" style="fill:rgb(162,50,222)"/><path d="M101.49316637328451,-27.613315456771073L102.41299793850216,-17.31397275335132L104.98302322609872,-19.027295891622416z" style="fill:rgb(183,62,221)"/><path d="M107.3754376756193,-29.99948421942385L107.82049562319533,-20.40274228864334L110.82011061772565,-21.389163832976017z" style="fill:rgb(139,40,220)"/><path d="M113.64827760851254,-31.169126399956884L93.82085350581167,-37.212569037884606L93.3901388297122,-27.39176214335116z" style="fill:rgb(83,212,212)"/><path d="M102.41299793850216,-17.31397275335132L96.67357177087776,-23.892096880484136L100.20621417600114,-15.326079449261107z" style="fill:rgb(203,77,216)"/><path d="M110.44739539467881,-30.572285698147535L110.82011061772565,-21.389163832976017L113.8705911804008,-21.949281095274817z" style="fill:rgb(115,34,214)"/><path d="M100.20621417600114,-15.326079449261107L94.89454430927479,-21.69555761442887L98.44571406332062,-13.137020684696438z" style="fill:rgb(220,94,208)"/><path d="M113.4547887301961,-30.6964322792395L113.8705911804008,-21.949281095274817L116.85829302355157,-22.061021978323744z" style="fill:rgb(92,32,204)"/><path d="M104.98302322609872,-19.027295891622416L104.3533343394163,-29.000581200447026L101.49316637328451,-27.613315456771073z" style="fill:rgb(162,50,222)"/><path d="M102.41299793850216,-17.31397275335132L101.49316637328451,-27.613315456771073L98.90105030786339,-25.889259697095532z" style="fill:rgb(183,62,221)"/><path d="M107.82049562319533,-20.40274228864334L107.3754376756193,-29.99948421942385L104.3533343394163,-29.000581200447026z" style="fill:rgb(139,40,220)"/><path d="M96.67357177087776,-23.892096880484136L102.41299793850216,-17.31397275335132L98.90105030786339,-25.889259697095532z" style="fill:rgb(203,77,216)"/><path d="M98.44571406332062,-13.137020684696438L93.63206092354451,-19.381024856664038L97.19889198769955,-10.82791851391253z" style="fill:rgb(233,112,197)"/><path d="M110.82011061772565,-21.389163832976017L110.44739539467881,-30.572285698147535L107.3754376756193,-29.99948421942385z" style="fill:rgb(115,34,214)"/><path d="M116.28480751037597,-30.365508266534988L116.85829302355157,-22.061021978323744L119.67112814604585,-21.718440747636024z" style="fill:rgb(71,33,192)"/><path d="M94.89454430927479,-21.69555761442887L100.20621417600114,-15.326079449261107L96.67357177087776,-23.892096880484136z" style="fill:rgb(220,94,208)"/><path d="M113.8705911804008,-21.949281095274817L113.4547887301961,-30.6964322792395L110.44739539467881,-30.572285698147535z" style="fill:rgb(92,32,204)"/><path d="M100.5963008478106,-28.735433732226L93.3901388297122,-27.39176214335116L93.03988237437953,-19.405630635851832zM105.81160977946624,-29.707888320969232L100.5963008478106,-28.735433732226L98.51917755139212,-26.170842069459603z" style="fill:rgb(83,212,212)"/><path d="M97.19889198769955,-10.82791851391253L92.9359110087241,-17.034868599166778L96.51493822837523,-8.484948287820222z" style="fill:rgb(242,130,183)"/><path d="M122.2023904047959,-20.932191646142073L116.28480751037597,-30.365508266534988L119.67112814604585,-21.718440747636024z" style="fill:rgb(51,38,177)"/><path d="M101.49316637328451,-27.613315456771073L98.51917755139212,-26.170842069459603L97.57887196646531,-25.009857312678047z" style="fill:rgb(83,212,212)"/><path d="M93.63206092354451,-19.381024856664038L98.44571406332062,-13.137020684696438L94.89454430927479,-21.69555761442887z" style="fill:rgb(233,112,197)"/><path d="M107.3754376756193,-29.99948421942385L105.81160977946624,-29.707888320969232L104.3533343394163,-29.000581200447026zM98.90105030786339,-25.889259697095532L97.57887196646531,-25.009857312678047L96.67357177087776,-23.892096880484136z" style="fill:rgb(83,212,212)"/><path d="M116.85829302355157,-22.061021978323744L116.28480751037597,-30.365508266534988L113.4547887301961,-30.6964322792395z" style="fill:rgb(71,33,192)"/><path d="M96.51493822837523,-8.484948287820222L92.83550660720736,-14.745506156920895L96.42275742694372,-6.196411005048239z" style="fill:rgb(246,149,167)"/><path d="M124.35465268550885,-19.729490407561514L118.83009849709364,-29.589699236691374L122.2023904047959,-20.932191646142073z" style="fill:rgb(34,46,160)"/><path d="M92.9359110087241,-17.034868599166778L97.19889198769955,-10.82791851391253L93.63206092354451,-19.381024856664038z" style="fill:rgb(242,130,183)"/><path d="M113.4547887301961,-30.6964322792395L112.01569236355328,-30.864711879287928L110.44739539467881,-30.572285698147535zM116.28480751037597,-30.365508266534988L113.64827760851254,-31.169126399956884L112.01569236355328,-30.864711879287928z" style="fill:rgb(83,212,212)"/><path d="M116.28480751037597,-30.365508266534988L122.2023904047959,-20.932191646142073L118.83009849709364,-29.589699236691374z" style="fill:rgb(51,38,177)"/><path d="M92.83550660720736,-14.745506156920895L96.92948746681664,-4.049607221711222L96.42275742694372,-6.196411005048239z" style="fill:rgb(246,167,149)"/><path d="M94.89454430927479,-21.69555761442887L93.03988237437953,-19.405630635851832L92.98693333887302,-18.19830834791936z" style="fill:rgb(83,212,212)"/><path d="M92.83550660720736,-14.745506156920895L96.51493822837523,-8.484948287820222L92.9359110087241,-17.034868599166778z" style="fill:rgb(246,149,167)"/><path d="M126.04353850367808,-18.15350736416129L120.99268369101918,-28.39579573861762L124.35465268550885,-19.729490407561514z" style="fill:rgb(21,57,142)"/><path d="M93.63206092354451,-19.381024856664038L92.98693333887302,-18.19830834791936L92.9359110087241,-17.034868599166778zM-88.54957202960775,137.46851176275698L-58.27758698352675,38.725675494626294L-114.93054743171048,48.59405633765819z" style="fill:rgb(83,212,212)"/><path d="M118.83009849709364,-29.589699236691374L124.35465268550885,-19.729490407561514L120.99268369101918,-28.39579573861762z" style="fill:rgb(34,46,160)"/><path d="M127.20119339407366,-16.262177819421968L122.68775632474943,-26.82659762432245L126.04353850367808,-18.15350736416129z" style="fill:rgb(12,71,124)"/><path d="M96.92948746681664,-4.049607221711222L92.83550660720736,-14.745506156920895L93.3383519640354,-12.600279134235862z" style="fill:rgb(246,167,149)"/><path d="M-88.54957202960775,137.46851176275698L-122.98057783614756,21.474411026054206L-133.71913317453888,114.258925795345z" style="fill:rgb(83,212,212)"/><path d="M120.99268369101918,-28.39579573861762L126.04353850367808,-18.15350736416129L122.68775632474943,-26.82659762432245z" style="fill:rgb(21,57,142)"/><path d="M120.99268369101918,-28.39579573861762L120.1314927666277,-29.19303146281434L118.83009849709364,-29.589699236691374zM93.3383519640354,-12.600279134235862L92.83550660720736,-14.745506156920895L92.78415559290517,-13.574717054130714zM122.68775632474943,-26.82659762432245L121.48764864797597,-28.779674099598598L120.1314927666277,-29.19303146281434z" style="fill:rgb(83,212,212)"/><path d="M122.68775632474943,-26.82659762432245L127.20119339407366,-16.262177819421968L123.84717260696358,-24.939744880972974z" style="fill:rgb(12,71,124)"/><path d="M96.07012220543669,-9.06670844465553L94.42922235470098,-10.682205167132283L94.98728198023836,-9.700974516948584zM98.2011540585795,-7.81847813784001L94.98728198023836,-9.700974516948584L95.56903707715149,-8.67807949017632zM125.05860660756495,-22.96823508157961L123.84717260696358,-24.939744880972974L124.71680605662965,-21.71439501189111zM124.71680605662965,-21.71439501189111L124.4225096712943,-22.80591297417719L124.38749106471771,-20.50638283173223zM103.39567836089091,-6.1220453794872665L95.56903707715149,-8.67807949017632L97.61256607948049,-5.084947659898753zM132.23247181900942,-11.293404649735717L133.4912110212214,-25.12095901613541L121.48764864797597,-28.779674099598598z" style="fill:rgb(83,212,212)"/><path d="M135.23720848280084,-11.832252202117541L136.78116052557087,-16.403796733927827L133.4912110212214,-25.12095901613541z" style="fill:rgb(247,158,158)"/><path d="M123.73968461169696,-18.130042576747215L122.50113508685958,-15.769904656303193L123.40849345638907,-16.915146835747507zM105.05491539287172,-6.4195995125584355L100.74230931836104,-6.988584859881455L103.39567836089091,-6.1220453794872665z" style="fill:rgb(83,212,212)"/><path d="M136.78116052557087,-16.403796733927827L135.23720848280084,-11.832252202117541L138.5553780828225,-3.112027693689649z" style="fill:rgb(247,158,158)"/><path d="M106.65199684071976,-6.706006533671905L103.59625270963035,-6.612048925788669L105.05491539287172,-6.4195995125584355zM123.40849345638907,-16.915146835747507L118.85893682228537,-11.172848105592172L122.29705181433415,-12.838062647531066zM120.71798684741937,-13.519277028311706L118.45895119414095,-11.467781703405564L119.80725665554466,-12.36979466395468zM112.88394645072161,-8.278928593228356L109.78933668262711,-7.268633093311421L111.3910808379653,-7.555876249477534zM119.80725665554466,-12.36979466395468L115.81265768230287,-9.697420911222013L118.85893682228537,-11.172848105592172zM132.23247181900942,-11.293404649735717L125.05860660756495,-22.96823508157961L121.3436429982549,-9.34068952283366zM122.29705181433415,-12.838062647531066L111.3910808379653,-7.555876249477534L121.3436429982549,-9.34068952283366zM133.4912110212214,-25.12095901613541L132.23247181900942,-11.293404649735717L135.23720848280084,-11.832252202117541zM-129.20448193677979,147.96465166027L-133.71913317453888,114.258925795345L-134.977028277525,125.12753130225074zM-133.71913317453888,114.258925795345L-129.20448193677979,147.96465166027L-123.14842202246602,119.69050423350244zM-118.35871060242087,-18.459985815929915L109.14696723097951,107.84714527730162L84.06349790243947,58.99471739492016zM-28.38791019096317,27.613771714656867L21.06655229942247,78.35913587055938L19.882400331334328,15.433351972140123z" style="fill:rgb(83,212,212)"/><path d="M21.06655229942247,78.35913587055938L24.106754024987648,23.83092155387147L19.882400331334328,15.433351972140123z" style="fill:rgb(247,158,158)"/><path d="M-115.0907117938501,130.3818017137105L-112.5773083235834,139.4375838617925L-109.63515544849251,138.01575578668457z" style="fill:rgb(162,50,222)"/><path d="M-118.05725567185468,131.81627590312382L-115.34078384710067,141.2849450834284L-112.5773083235834,139.4375838617925z" style="fill:rgb(183,62,221)"/><path d="M-112.0564258997697,129.42620742978943L-109.63515544849251,138.01575578668457L-106.62337028771118,137.07229709406286z" style="fill:rgb(139,40,220)"/><path d="M-105.9517363040416,128.52671780832506L-123.14842202246602,119.69050423350244L-125.66313951957436,131.43106487899854z" style="fill:rgb(83,212,212)"/><path d="M-115.34078384710067,141.2849450834284L-123.35382430423772,135.89350582339628L-117.82284873481402,143.489796572282z" style="fill:rgb(203,77,216)"/><path d="M-109.06695619335653,128.9857264455546L-106.62337028771118,137.07229709406286L-103.65366303547167,136.6429938342424z" style="fill:rgb(115,34,214)"/><path d="M-117.82284873481402,143.489796572282L-125.48622955605937,138.38617725207004L-119.93046137279825,145.97097178486138z" style="fill:rgb(220,94,208)"/><path d="M-106.23371790638718,129.07826586747657L-103.65366303547167,136.6429938342424L-100.83676528664417,136.74532577567084z" style="fill:rgb(92,32,204)"/><path d="M-112.5773083235834,139.4375838617925L-115.0907117938501,130.3818017137105L-118.05725567185468,131.81627590312382z" style="fill:rgb(162,50,222)"/><path d="M-115.34078384710067,141.2849450834284L-118.05725567185468,131.81627590312382L-120.8461796726112,133.67635290362654z" style="fill:rgb(183,62,221)"/><path d="M-109.63515544849251,138.01575578668457L-112.0564258997697,129.42620742978943L-115.0907117938501,130.3818017137105z" style="fill:rgb(139,40,220)"/><path d="M-123.35382430423772,135.89350582339628L-115.34078384710067,141.2849450834284L-120.8461796726112,133.67635290362654z" style="fill:rgb(203,77,216)"/><path d="M-119.93046137279825,145.97097178486138L-127.16240201301845,141.06234858619857L-121.5835861744877,148.63686516471464z" style="fill:rgb(233,112,197)"/><path d="M-106.62337028771118,137.07229709406286L-109.06695619335653,128.9857264455546L-112.0564258997697,129.42620742978943z" style="fill:rgb(115,34,214)"/><path d="M-103.66330571877846,129.70258617890715L-100.83676528664417,136.74532577567084L-98.27864715017022,137.3776620746412z" style="fill:rgb(71,33,192)"/><path d="M-113.5781858015877,129.65041665310355L-125.66313951957436,131.43106487899854L-126.63395299907678,135.9635192555664z" style="fill:rgb(83,212,212)"/><path d="M-125.48622955605937,138.38617725207004L-117.82284873481402,143.489796572282L-123.35382430423772,135.89350582339628z" style="fill:rgb(220,94,208)"/><path d="M-103.65366303547167,136.6429938342424L-106.23371790638718,129.07826586747657L-109.06695619335653,128.9857264455546z" style="fill:rgb(92,32,204)"/><path d="M-121.5835861744877,148.63686516471464L-128.317268716913,143.82249274202064L-122.7179915140302,151.38831314931485z" style="fill:rgb(242,130,183)"/><path d="M-96.07680851705673,138.51892737679182L-103.66330571877846,129.70258617890715L-98.27864715017022,137.3776620746412z" style="fill:rgb(51,38,177)"/><path d="M-118.05725567185468,131.81627590312382L-121.14185136729553,133.30781328789834L-122.26877847954857,134.62515363494288z" style="fill:rgb(83,212,212)"/><path d="M-127.16240201301845,141.06234858619857L-119.93046137279825,145.97097178486138L-125.48622955605937,138.38617725207004z" style="fill:rgb(233,112,197)"/><path d="M-112.0564258997697,129.42620742978943L-113.5781858015877,129.65041665310355L-115.0907117938501,130.3818017137105zM-120.8461796726112,133.67635290362654L-122.26877847954857,134.62515363494288L-123.35382430423772,135.89350582339628z" style="fill:rgb(83,212,212)"/><path d="M-100.83676528664417,136.74532577567084L-103.66330571877846,129.70258617890715L-106.23371790638718,129.07826586747657z" style="fill:rgb(71,33,192)"/><path d="M-121.14185136729553,133.30781328789834L-126.63395299907678,135.9635192555664L-127.70953167949465,140.9851130614666z" style="fill:rgb(83,212,212)"/><path d="M-122.7179915140302,151.38831314931485L-128.9042580152822,146.5629761351906L-123.28791119048944,154.12198610618103z" style="fill:rgb(246,149,167)"/><path d="M-94.3166588639817,140.12902953473127L-101.45368931370294,130.8379500100692L-96.07680851705673,138.51892737679182z" style="fill:rgb(34,46,160)"/><path d="M-128.317268716913,143.82249274202064L-121.5835861744877,148.63686516471464L-127.16240201301845,141.06234858619857z" style="fill:rgb(242,130,183)"/><path d="M-106.23371790638718,129.07826586747657L-107.54065749304976,128.76083582814957L-109.06695619335653,128.9857264455546zM-58.27758698352675,38.725675494626294L-88.54957202960775,137.46851176275698L-59.371239788103566,152.46128615886954zM-103.66330571877846,129.70258617890715L-105.9517363040416,128.52671780832506L-107.54065749304976,128.76083582814957zM-125.48622955605937,138.38617725207004L-126.57537224579588,139.65933329642993L-127.16240201301845,141.06234858619857z" style="fill:rgb(83,212,212)"/><path d="M-103.66330571877846,129.70258617890715L-96.07680851705673,138.51892737679182L-101.45368931370294,130.8379500100692z" style="fill:rgb(51,38,177)"/><path d="M-128.9042580152822,146.5629761351906L-123.2680980482132,156.73394169801398L-123.28791119048944,154.12198610618103z" style="fill:rgb(246,167,149)"/><path d="M-128.9042580152822,146.5629761351906L-122.7179915140302,151.38831314931485L-128.317268716913,143.82249274202064z" style="fill:rgb(246,149,167)"/><path d="M-126.57537224579588,139.65933329642993L-127.70953167949465,140.9851130614666L-128.317268716913,143.82249274202064z" style="fill:rgb(83,212,212)"/><path d="M-101.45368931370294,130.8379500100692L-94.3166588639817,140.12902953473127L-99.69060632622109,132.4445332634922z" style="fill:rgb(34,46,160)"/><path d="M-128.89738615792024,149.17955729119652L-122.65523401747934,159.12344570698528L-123.2680980482132,156.73394169801398z" style="fill:rgb(242,183,130)"/><path d="M-123.2680980482132,156.73394169801398L-128.9042580152822,146.5629761351906L-128.89738615792024,149.17955729119652z" style="fill:rgb(246,167,149)"/><path d="M21.06655229942247,78.35913587055938L-28.38791019096317,27.613771714656867L-30.057381147849465,90.46498085701202zM-99.69060632622109,132.4445332634922L-100.32377510212099,131.4185487622671L-101.45368931370294,130.8379500100692z" style="fill:rgb(83,212,212)"/><path d="M-128.2928145368498,151.57134468598446L-121.46872207475697,161.19688732104572L-122.65523401747934,159.12344570698528z" style="fill:rgb(233,197,112)"/><path d="M-122.65523401747934,159.12344570698528L-128.89738615792024,149.17955729119652L-128.2928145368498,151.57134468598446z" style="fill:rgb(242,183,130)"/><path d="M-128.89738615792024,149.17955729119652L-128.9042580152822,146.5629761351906L-129.20448193677979,147.96465166027zM-98.44416122152975,134.4642997107616L-99.14621672312754,132.02361764849988L-100.32377510212099,131.4185487622671z" style="fill:rgb(83,212,212)"/><path d="M24.106754024987648,23.83092155387147L21.06655229942247,78.35913587055938L25.530055119691404,86.70712424321566z" style="fill:rgb(247,158,158)"/><path d="M-121.46872207475697,161.19688732104572L-128.2928145368498,151.57134468598446L-127.10955792107215,153.64459473612553z" style="fill:rgb(233,197,112)"/><path d="M135.23720848280084,-11.832252202117541L151.20201891263147,91.63183905788522L138.5553780828225,-3.112027693689649z" style="fill:rgb(247,158,158)"/><path d="M-124.40243373955549,166.96231704210925L-134.977028277525,125.12753130225074L-140.22723984674332,170.49103330953187zM-127.10955792107215,153.64459473612553L-128.2928145368498,151.57134468598446L-127.98348410423927,152.79510776314604zM135.23720848280084,-11.832252202117541L97.61256607948049,-5.084947659898753L147.693513940396,82.97214422522595zM-125.38941930003442,155.31661899037283L-127.98348410423927,152.79510776314604L-127.66099109654076,154.07095140675136zM-97.05679943384597,139.28743908242208L-97.76577474245693,136.82270043905652L-97.64473529286764,140.7655996422603zM-97.64473529286764,140.7655996422603L-97.68570397163592,139.43111092968783L-98.21123276547631,142.18984641489982zM-120.9052318163293,157.77562470948817L-127.66099109654076,154.07095140675136L-126.52786983641795,158.5537410989924zM-92.85533657294602,153.89379168885478L-88.54957202960775,137.46851176275698L-99.14621672312754,132.02361764849988z" style="fill:rgb(83,212,212)"/><path d="M-124.40243373955549,166.96231704210925L-134.423860340149,177.96569146053216L-118.71207614425279,174.49739767464396z" style="fill:rgb(127,37,217)"/><path d="M-99.3257521398688,144.99190119106672L-100.98882931635758,147.72726521518697L-99.89562149033104,146.4246253051498zM-119.29187395372142,157.55235187233416L-123.19595729051375,156.51945515908034L-120.9052318163293,157.77562470948817zM-117.73889572633266,157.33743273789392L-120.61246017350827,157.20297152733684L-119.29187395372142,157.55235187233416z" style="fill:rgb(83,212,212)"/><path d="M-134.423860340149,177.96569146053216L-124.40243373955549,166.96231704210925L-140.22723984674332,170.49103330953187zM-25.211921996144138,98.60532851721779L21.06655229942247,78.35913587055938L-30.057381147849465,90.46498085701202z" style="fill:rgb(127,37,217)"/><path d="M-99.89562149033104,146.4246253051498L-105.37764978385648,152.95680442753988L-101.8083996307051,151.23362047909782zM-103.13738743980794,150.28740043679173L-105.68796826003381,152.57001512225463L-104.23482999349152,151.595065684028zM-58.27758698352675,38.725675494626294L-59.371239788103566,152.46128615886954L109.14696723097951,107.84714527730162zM-111.58046944471836,155.9514368022427L-114.68795792822436,156.91521284362466L-113.13024356262613,156.69963826965153zM-104.23482999349152,151.595065684028L-108.54008694709832,154.48358435087155L-105.37764978385648,152.95680442753988z" style="fill:rgb(83,212,212)"/><path d="M21.06655229942247,78.35913587055938L-25.211921996144138,98.60532851721779L25.530055119691404,86.70712424321566z" style="fill:rgb(127,37,217)"/><path d="M-92.85533657294602,153.89379168885478L-97.05679943384597,139.28743908242208L-103.44964300824165,155.3599447579783zM-101.8083996307051,151.23362047909782L-113.13024356262613,156.69963826965153L-103.44964300824165,155.3599447579783zM-124.40243373955549,166.96231704210925L-84.03626490706688,152.67332395282799L-126.52786983641795,158.5537410989924zM-88.54957202960775,137.46851176275698L-92.85533657294602,153.89379168885478L-84.03626490706688,152.67332395282799z" style="fill:rgb(83,212,212)"/><path d="M-118.71207614425279,174.49739767464396L-82.56407628328026,157.63295951605707L-124.40243373955549,166.96231704210925zM-82.56407628328026,157.63295951605707L-118.71207614425279,174.49739767464396L-77.17783953695685,165.3289490689001z" style="fill:rgb(127,37,217)"/><path d="M76.30396416982019,-42.55175170940565L147.74469074772784,83.36164865630072L147.693513940396,82.97214422522595zM-64.27962535820144,149.93919173541482L-88.54957202960775,137.46851176275698L-84.03626490706688,152.67332395282799zM-84.03626490706688,152.67332395282799L-124.40243373955549,166.96231704210925L-82.56407628328026,157.63295951605707z" style="fill:rgb(83,212,212)"/><path d="M-59.371239788103566,152.46128615886954L-77.17783953695685,165.3289490689001L-54.15687211299941,160.24720053061273z" style="fill:rgb(127,37,217)"/><path d="M-82.56407628328026,157.63295951605707L-64.27962535820144,149.93919173541482L-84.03626490706688,152.67332395282799z" style="fill:rgb(83,212,212)"/><path d="M-77.17783953695685,165.3289490689001L-59.371239788103566,152.46128615886954L-82.56407628328026,157.63295951605707z" style="fill:rgb(127,37,217)"/><path d="M-64.27962535820144,149.93919173541482L-82.56407628328026,157.63295951605707L-59.371239788103566,152.46128615886954z" style="fill:rgb(83,212,212)"/><path d="M151.20201891263147,91.63183905788522L135.23720848280084,-11.832252202117541L147.693513940396,82.97214422522595z" style="fill:rgb(247,158,158)"/><path d="M103.50730995157716,66.4346827299328L84.06349790243947,58.99471739492016L102.59617175118377,95.08885461523856z" style="fill:rgb(83,212,212)"/><path d="M115.28142036602726,76.99020044657532L115.87863966081717,87.04980041317283L119.01157376043689,85.540837500999z" style="fill:rgb(162,50,222)"/><path d="M112.12079487642539,78.51341036180077L113.04614430237729,88.98351173163091L115.87863966081717,87.04980041317283z" style="fill:rgb(183,62,221)"/><path d="M118.62649083579728,75.94777183034574L119.01157376043689,85.540837500999L122.3291060435829,84.51254402613394z" style="fill:rgb(139,40,220)"/><path d="M125.5820184692543,74.88133789485784L103.50730995157716,66.4346827299328L103.12926338921244,78.32382900352022z" style="fill:rgb(83,212,212)"/><path d="M113.04614430237729,88.98351173163091L106.80954702778664,82.76129193468387L110.61932878123562,91.27086194934189z" style="fill:rgb(203,77,216)"/><path d="M122.03242504148236,75.42556910184044L122.3291060435829,84.51254402613394L125.70863192627144,84.00384603322794z" style="fill:rgb(115,34,214)"/><path d="M110.61932878123562,91.27086194934189L104.85719208521044,85.32991656360909L108.68933364683905,93.82784678434727z" style="fill:rgb(220,94,208)"/><path d="M125.3728102312627,75.44461148237767L125.70863192627144,84.00384603322794L129.02468408684035,84.03525044639554z" style="fill:rgb(92,32,204)"/><path d="M115.87863966081717,87.04980041317283L115.28142036602726,76.99020044657532L112.12079487642539,78.51341036180077z" style="fill:rgb(162,50,222)"/><path d="M113.04614430237729,88.98351173163091L112.12079487642539,78.51341036180077L109.26143793340309,80.46097212108513z" style="fill:rgb(183,62,221)"/><path d="M119.01157376043689,85.540837500999L118.62649083579728,75.94777183034574L115.28142036602726,76.99020044657532z" style="fill:rgb(139,40,220)"/><path d="M106.80954702778664,82.76129193468387L113.04614430237729,88.98351173163091L109.26143793340309,80.46097212108513z" style="fill:rgb(203,77,216)"/><path d="M108.68933364683905,93.82784678434727L103.47909540338796,88.07218973302501L107.33003982473157,96.56021281342487z" style="fill:rgb(233,112,197)"/><path d="M122.3291060435829,84.51254402613394L122.03242504148236,75.42556910184044L118.62649083579728,75.94777183034574z" style="fill:rgb(115,34,214)"/><path d="M128.52269159311606,76.00656023597517L129.02468408684035,84.03525044639554L132.15319481167003,84.60792394539581z" style="fill:rgb(71,33,192)"/><path d="M104.85719208521044,85.32991656360909L110.61932878123562,91.27086194934189L106.80954702778664,82.76129193468387z" style="fill:rgb(220,94,208)"/><path d="M-54.15687211299941,160.24720053061273L112.388935203763,114.16118823260103L-59.371239788103566,152.46128615886954z" style="fill:rgb(127,37,217)"/><path d="M125.70863192627144,84.00384603322794L125.3728102312627,75.44461148237767L122.03242504148236,75.42556910184044z" style="fill:rgb(92,32,204)"/><path d="M111.11272663886703,77.09979098641458L103.12926338921244,78.32382900352022L102.8213096598922,88.00843852046795zM116.89290513252121,76.21356913425208L111.11272663886703,77.09979098641458L108.83444928495943,80.09721896699745z" style="fill:rgb(83,212,212)"/><path d="M107.33003982473157,96.56021281342487L102.72980513123666,90.88627160822854L106.59527180122977,99.36646840885676z" style="fill:rgb(242,130,183)"/><path d="M134.97568158560017,85.7033145760904L128.52269159311606,76.00656023597517L132.15319481167003,84.60792394539581z" style="fill:rgb(51,38,177)"/><path d="M112.12079487642539,78.51341036180077L108.83444928495943,80.09721896699745L107.80286086035238,81.4544316428498z" style="fill:rgb(83,212,212)"/><path d="M103.47909540338796,88.07218973302501L108.68933364683905,93.82784678434727L104.85719208521044,85.32991656360909z" style="fill:rgb(233,112,197)"/><path d="M118.62649083579728,75.94777183034574L116.89290513252121,76.21356913425208L115.28142036602726,76.99020044657532zM109.26143793340309,80.46097212108513L107.80286086035238,81.4544316428498L106.80954702778664,82.76129193468387z" style="fill:rgb(83,212,212)"/><path d="M129.02468408684035,84.03525044639554L128.52269159311606,76.00656023597517L125.3728102312627,75.44461148237767z" style="fill:rgb(71,33,192)"/><path d="M106.59527180122977,99.36646840885676L102.64140028393417,93.66654196201968L106.516499341072,102.14127860450328z" style="fill:rgb(246,149,167)"/><path d="M137.38354320097798,87.28333327611446L131.36278391319476,77.09328622087504L134.97568158560017,85.7033145760904z" style="fill:rgb(34,46,160)"/><path d="M102.72980513123666,90.88627160822854L107.33003982473157,96.56021281342487L103.47909540338796,88.07218973302501z" style="fill:rgb(242,130,183)"/><path d="M125.3728102312627,75.44461148237767L123.77148359345196,75.158931480006L122.03242504148236,75.42556910184044zM128.52269159311606,76.00656023597517L125.5820184692543,74.88133789485784L123.77148359345196,75.158931480006z" style="fill:rgb(83,212,212)"/><path d="M128.52269159311606,76.00656023597517L134.97568158560017,85.7033145760904L131.36278391319476,77.09328622087504z" style="fill:rgb(51,38,177)"/><path d="M102.64140028393417,93.66654196201968L107.101164648333,104.77910587965768L106.516499341072,102.14127860450328z" style="fill:rgb(246,167,149)"/><path d="M104.85719208521044,85.32991656360909L102.8213096598922,88.00843852046795L102.77471451650311,89.47382704623827z" style="fill:rgb(83,212,212)"/><path d="M102.64140028393417,93.66654196201968L106.59527180122977,99.36646840885676L102.72980513123666,90.88627160822854z" style="fill:rgb(246,149,167)"/><path d="M139.282253520211,89.29125256774685L133.7837955059382,78.6670969565682L137.38354320097798,87.28333327611446z" style="fill:rgb(21,57,142)"/><path d="M103.47909540338796,88.07218973302501L102.77471451650311,89.47382704623827L102.72980513123666,90.88627160822854z" style="fill:rgb(83,212,212)"/><path d="M131.36278391319476,77.09328622087504L137.38354320097798,87.28333327611446L133.7837955059382,78.6670969565682z" style="fill:rgb(34,46,160)"/><path d="M140.5952618478714,91.65325817744684L135.6906503499837,80.67154783711322L139.282253520211,89.29125256774685z" style="fill:rgb(12,71,124)"/><path d="M107.101164648333,104.77910587965768L102.64140028393417,93.66654196201968L103.22176207873827,96.30724978175535z" style="fill:rgb(246,167,149)"/><path d="M133.7837955059382,78.6670969565682L139.282253520211,89.29125256774685L135.6906503499837,80.67154783711322z" style="fill:rgb(21,57,142)"/><path d="M133.7837955059382,78.6670969565682L132.81535873581018,77.64909853266943L131.36278391319476,77.09328622087504zM103.22176207873827,96.30724978175535L102.64140028393417,93.66654196201968L102.59617175118377,95.08885461523856zM135.6906503499837,80.67154783711322L134.32938134879353,78.22842115258803L132.81535873581018,77.64909853266943z" style="fill:rgb(83,212,212)"/><path d="M112.388935203763,114.16118823260103L-54.15687211299941,160.24720053061273L116.25751032487008,122.62917167894858z" style="fill:rgb(127,37,217)"/><path d="M135.6906503499837,80.67154783711322L140.5952618478714,91.65325817744684L137.0064157485431,83.03300858701071z" style="fill:rgb(12,71,124)"/><path d="M151.20201891263147,91.63183905788522L147.74469074772784,83.36164865630072L151.253937961228,92.02079700160003z" style="fill:rgb(247,158,158)"/><path d="M109.14696723097951,107.84714527730162L-59.371239788103566,152.46128615886954L112.388935203763,114.16118823260103zM106.29443668560445,100.76975974916435L104.45361614136193,98.706402231418L105.08403153052912,99.93419465597933z" style="fill:rgb(83,212,212)"/><path d="M147.74469074772784,83.36164865630072L151.20201891263147,91.63183905788522L147.693513940396,82.97214422522595z" style="fill:rgb(247,158,158)"/><path d="M108.67734331049529,102.41472614205284L105.08403153052912,99.93419465597933L105.74138360308686,101.21444501184371zM138.38190299772555,85.50165336217631L137.0064157485431,83.03300858701071L138.018328473286,87.00874528118385zM138.018328473286,87.00874528118385L137.675801976458,85.66296373819429L137.6679624288901,88.46105735961528zM114.47526366180337,104.7850171872837L105.74138360308686,101.21444501184371L108.0518149031155,105.71423487560753zM146.54166878221594,100.14627709098072L147.74469074772784,83.36164865630072L134.32938134879353,78.22842115258803z" style="fill:rgb(83,212,212)"/><path d="M149.88644071285665,99.66242041182683L151.253937961228,92.02079700160003L147.74469074772784,83.36164865630072z" style="fill:rgb(247,158,158)"/><path d="M136.97853822900964,91.31884304841337L135.63048178635847,94.12403962187618L136.6259634469224,92.78032615365437zM116.31867190871169,104.51834751049914L111.51305500300424,103.57401384081629L114.47526366180337,104.7850171872837z" style="fill:rgb(83,212,212)"/><path d="M151.253937961228,92.02079700160003L149.88644071285665,99.66242041182683L153.42645931824654,108.29651503201349z" style="fill:rgb(247,158,158)"/><path d="M118.09321810940801,104.26164145533912L114.6929620451604,104.19888476422267L116.31867190871169,104.51834751049914zM136.6259634469224,92.78032615365437L131.63321119971386,99.51959370580957L135.44222757358966,97.68711257751708z" style="fill:rgb(83,212,212)"/><path d="M120.21418994281368,112.41626316311357L116.25751032487008,122.62917167894858L124.01839220456776,120.91599839995166z" style="fill:rgb(127,37,217)"/><path d="M133.67376410974794,96.76523555683553L131.18376681934166,99.13671626055056L132.67418867934242,98.11445998386684zM125.01383089900852,102.70410996657345L121.5797166406744,103.75728741172661L123.36000026620394,103.49975138180025zM132.67418867934242,98.11445998386684L128.25836868866168,101.14318938673152L131.63321119971386,99.51959370580957zM109.14696723097951,107.84714527730162L149.88644071285665,99.66242041182683L108.0518149031155,105.71423487560753zM146.54166878221594,100.14627709098072L138.38190299772555,85.50165336217631L134.42615239018437,101.89891799233149zM135.44222757358966,97.68711257751708L123.36000026620394,103.49975138180025L134.42615239018437,101.89891799233149z" style="fill:rgb(83,212,212)"/><path d="M116.25751032487008,122.62917167894858L120.21418994281368,112.41626316311357L112.388935203763,114.16118823260103z" style="fill:rgb(127,37,217)"/><path d="M120.21418994281368,112.41626316311357L109.14696723097951,107.84714527730162L112.388935203763,114.16118823260103zM147.74469074772784,83.36164865630072L146.54166878221594,100.14627709098072L149.88644071285665,99.66242041182683zM149.88644071285665,99.66242041182683L109.14696723097951,107.84714527730162L120.21418994281368,112.41626316311357z" style="fill:rgb(83,212,212)"/><path d="M150.6698730800233,105.62507585823971L124.01839220456776,120.91599839995166L154.22100541173114,114.24894116261622zM124.01839220456776,120.91599839995166L150.6698730800233,105.62507585823971L120.21418994281368,112.41626316311357z" style="fill:rgb(127,37,217)"/><path d="M153.42645931824654,108.29651503201349L150.6698730800233,105.62507585823971L154.22100541173114,114.24894116261622zM150.6698730800233,105.62507585823971L153.42645931824654,108.29651503201349L149.88644071285665,99.66242041182683z" style="fill:rgb(247,158,158)"/><path d="M149.88644071285665,99.66242041182683L120.21418994281368,112.41626316311357L150.6698730800233,105.62507585823971z" style="fill:rgb(83,212,212)"/></svg>
