<?xml version="1.0" encoding="UTF-8"?>
<!-- Generated by jsxcad -->
<!DOCTYPE svg PUBLIC "-//W3C//DTD SVG 1.1 Tiny//EN" "http://www.w3.org/Graphics/SVG/1.1/DTD/svg11-tiny.dtd">
<svg viewBox="-250 -250 500 500" width="500" height="500" xmlns="http://www.w3.org/2000/svg"><path d="M-109.25178628480784,-74.12643893547013L-107.96631031156478,32.14181950516197L119.48824050857132,-138.9423892788029zM114.27198630325883,-101.40496536487476L-113.4583538582096,-89.3093437931895L-119.67703611711872,-37.14052374577951zM-113.4583538582096,-89.3093437931895L114.27198630325883,-101.40496536487476L107.9998196912397,-152.9839067613737zM-107.96631031156478,32.14181950516197L-109.25178628480784,-74.12643893547013L-114.37501766874696,46.06676437411719z" style="fill:rgb(83,212,212)"/><path d="M117.53421116370951,-92.56508893898818L114.21505814061051,-135.6399140436178L111.1301647017135,-144.2484927450028z" style="fill:rgb(247,158,158)"/><path d="M-110.16930214545302,-21.500410477996844L114.27198630325883,-101.40496536487476L-119.67703611711872,-37.14052374577951z" style="fill:rgb(127,37,217)"/><path d="M114.27198630325883,-101.40496536487476L111.1301647017135,-144.2484927450028L107.9998196912397,-152.9839067613737z" style="fill:rgb(247,158,158)"/><path d="M119.48824050857132,-138.9423892788029L-107.96631031156478,32.14181950516197L-91.43430626888717,27.904891603320074z" style="fill:rgb(83,212,212)"/><path d="M114.21505814061051,-135.6399140436178L117.53421116370951,-92.56508893898818L120.74636082105427,-83.86090418958553z" style="fill:rgb(247,158,158)"/><path d="M114.27198630325883,-101.40496536487476L-110.16930214545302,-21.500410477996844L120.74636082105427,-83.86090418958553z" style="fill:rgb(127,37,217)"/><path d="M119.48824050857132,-138.9423892788029L-91.43430626888717,27.904891603320074L-87.31824291079595,39.21699180260533z" style="fill:rgb(83,212,212)"/><path d="M111.1301647017135,-144.2484927450028L114.27198630325883,-101.40496536487476L117.53421116370951,-92.56508893898818z" style="fill:rgb(247,158,158)"/><path d="M-91.43430626888717,27.904891603320074L-103.06926659991518,39.81706819601387L-86.64309443623496,35.644462325998234zM-103.06926659991518,39.81706819601387L-91.43430626888717,27.904891603320074L-107.96631031156478,32.14181950516197z" style="fill:rgb(127,37,217)"/><path d="M-114.37501766874696,46.06676437411719L-103.06926659991518,39.81706819601387L-107.96631031156478,32.14181950516197zM-103.06926659991518,39.81706819601387L-114.37501766874696,46.06676437411719L-109.37799736727587,53.71455772535245z" style="fill:rgb(241,128,184)"/><path d="M-109.25178628480784,-74.12643893547013L-125.77623936943799,154.44024832911253L-114.37501766874696,46.06676437411719zM-56.56088967293405,-45.14922640242818L-37.94381228857791,34.70628677031805L54.046012534067636,-75.27369022037782zM119.48824050857132,-138.9423892788029L-87.31824291079595,39.21699180260533L95.72720669216373,-7.123323914292136zM119.48824050857132,-138.9423892788029L100.18870624151255,-21.205504815546774L118.51841296131376,-25.903161130351204z" style="fill:rgb(83,212,212)"/><path d="M58.839924282064835,10.397126970659874L57.68945510287397,-66.83191666483273L54.046012534067636,-75.27369022037782z" style="fill:rgb(247,158,158)"/><path d="M119.48824050857132,-138.9423892788029L95.72720669216373,-7.123323914292136L100.18870624151255,-21.205504815546774zM119.48824050857132,-138.9423892788029L118.51841296131376,-25.903161130351204L125.76369777085561,-14.727447848051158zM-38.09153263599938,38.894606823247344L-56.56088967293405,-45.14922640242818L-61.668645449033654,44.79205143972734z" style="fill:rgb(83,212,212)"/><path d="M119.48824050857132,-138.9423892788029L155.97213601120845,118.50154909873746L122.48885032260829,-130.43925572895813z" style="fill:rgb(247,158,158)"/><path d="M-56.56088967293405,-45.14922640242818L-38.09153263599938,38.894606823247344L-37.94381228857791,34.70628677031805zM54.046012534067636,-75.27369022037782L-37.94381228857791,34.70628677031805L34.208473003230566,16.58380609374731zM-137.31304633622216,174.2444670203994L-125.77623936943799,154.44024832911253L-109.25178628480784,-74.12643893547013z" style="fill:rgb(83,212,212)"/><path d="M57.68945510287397,-66.83191666483273L58.839924282064835,10.397126970659874L62.76446031604126,18.876992333438075z" style="fill:rgb(247,158,158)"/><path d="M-101.63340508146037,50.60672596739822L-100.48683275802257,133.7442180970341L-87.31824291079595,39.21699180260533zM-125.77623936943799,154.44024832911253L-101.63340508146037,50.60672596739822L-114.37501766874696,46.06676437411719z" style="fill:rgb(83,212,212)"/><path d="M118.51841296131376,-25.903161130351204L103.67672746596892,-12.70094633246691L121.87440813615898,-17.323555576377352zM103.67672746596892,-12.70094633246691L118.51841296131376,-25.903161130351204L100.18870624151255,-21.205504815546774z" style="fill:rgb(127,37,217)"/><path d="M54.046012534067636,-75.27369022037782L34.208473003230566,16.58380609374731L59.074548654941275,14.590043028294422z" style="fill:rgb(83,212,212)"/><path d="M-38.09153263599938,38.894606823247344L-56.877604676635976,52.78139105212393L-33.46246053957108,46.9783840855726z" style="fill:rgb(127,37,217)"/><path d="M-33.33373423340906,42.79260520208471L-38.09153263599938,38.894606823247344L-33.46246053957108,46.9783840855726z" style="fill:rgb(247,158,158)"/><path d="M-56.877604676635976,52.78139105212393L-38.09153263599938,38.894606823247344L-61.668645449033654,44.79205143972734z" style="fill:rgb(127,37,217)"/><path d="M95.72720669216373,-7.123323914292136L103.67672746596892,-12.70094633246691L100.18870624151255,-21.205504815546774zM103.67672746596892,-12.70094633246691L95.72720669216373,-7.123323914292136L99.28938348694395,1.3601033233857638z" style="fill:rgb(241,128,184)"/><path d="M-38.09153263599938,38.894606823247344L-33.33373423340906,42.79260520208471L-37.94381228857791,34.70628677031805z" style="fill:rgb(247,158,158)"/><path d="M129.10675751525199,-6.121047553082157L118.51841296131376,-25.903161130351204L121.87440813615898,-17.323555576377352z" style="fill:rgb(13,70,126)"/><path d="M-33.33373423340906,42.79260520208471L34.208473003230566,16.58380609374731L-37.94381228857791,34.70628677031805zM34.208473003230566,16.58380609374731L-33.33373423340906,42.79260520208471L38.311016793753346,24.962632493714437z" style="fill:rgb(127,37,217)"/><path d="M118.51841296131376,-25.903161130351204L129.10675751525199,-6.121047553082157L125.76369777085561,-14.727447848051158z" style="fill:rgb(13,70,126)"/><path d="M-101.63340508146037,50.60672596739822L-118.60651652417708,137.91269911567542L-100.48683275802257,133.7442180970341zM119.48824050857132,-138.9423892788029L125.76369777085561,-14.727447848051158L152.4536506108924,109.95696647376147zM-101.63340508146037,50.60672596739822L-125.77623936943799,154.44024832911253L-118.60651652417708,137.91269911567542z" style="fill:rgb(83,212,212)"/><path d="M59.074548654941275,14.590043028294422L38.46161568947212,29.15334578956019L63.01266744768918,23.06882306386664z" style="fill:rgb(127,37,217)"/><path d="M62.76446031604126,18.876992333438075L59.074548654941275,14.590043028294422L63.01266744768918,23.06882306386664z" style="fill:rgb(247,158,158)"/><path d="M38.46161568947212,29.15334578956019L59.074548654941275,14.590043028294422L34.34405772701876,20.77598476051358z" style="fill:rgb(127,37,217)"/><path d="M-87.31824291079595,39.21699180260533L-100.48683275802257,133.7442180970341L-96.0882780854131,147.72311683814715z" style="fill:rgb(83,212,212)"/><path d="M59.074548654941275,14.590043028294422L62.76446031604126,18.876992333438075L58.839924282064835,10.397126970659874z" style="fill:rgb(247,158,158)"/><path d="M59.074548654941275,14.590043028294422L34.208473003230566,16.58380609374731L34.34405772701876,20.77598476051358zM95.72720669216373,-7.123323914292136L-87.31824291079595,39.21699180260533L105.83326023690536,102.036790239906zM-37.94381228857791,34.70628677031805L36.24343401296467,79.50327984247491L34.208473003230566,16.58380609374731z" style="fill:rgb(83,212,212)"/><path d="M36.24343401296467,79.50327984247491L38.311016793753346,24.962632493714437L34.208473003230566,16.58380609374731z" style="fill:rgb(247,158,158)"/><path d="M-100.48683275802257,133.7442180970341L-113.14207847051155,145.45517461520294L-95.14933409149798,141.35614921218666zM-113.14207847051155,145.45517461520294L-100.48683275802257,133.7442180970341L-118.60651652417708,137.91269911567542z" style="fill:rgb(127,37,217)"/><path d="M-125.77623936943799,154.44024832911253L-113.14207847051155,145.45517461520294L-118.60651652417708,137.91269911567542zM-113.14207847051155,145.45517461520294L-125.77623936943799,154.44024832911253L-120.18905808160473,161.92907496251743z" style="fill:rgb(241,128,184)"/><path d="M95.72720669216373,-7.123323914292136L110.63868421415613,85.17424835114524L111.54738097992141,-2.9430809840963845zM36.24343401296467,79.50327984247491L-37.94381228857791,34.70628677031805L-40.1587380780637,97.50620202524519zM111.54738097992141,-2.9430809840963845L130.94060452885722,80.50374327151815L125.76369777085561,-14.727447848051158zM-96.0882780854131,147.72311683814715L123.47187200469318,108.03838538859209L-87.31824291079595,39.21699180260533z" style="fill:rgb(83,212,212)"/><path d="M38.311016793753346,24.962632493714437L36.24343401296467,79.50327984247491L40.5702967264407,87.83153330866266zM155.97213601120845,118.50154909873746L119.48824050857132,-138.9423892788029L152.4536506108924,109.95696647376147z" style="fill:rgb(247,158,158)"/><path d="M-125.77623936943799,154.44024832911253L-137.31304633622216,174.2444670203994L-111.88487320777487,160.7257100331587z" style="fill:rgb(83,212,212)"/><path d="M-35.26301972517436,105.52697027013691L36.24343401296467,79.50327984247491L-40.1587380780637,97.50620202524519zM36.24343401296467,79.50327984247491L-35.26301972517436,105.52697027013691L40.5702967264407,87.83153330866266z" style="fill:rgb(127,37,217)"/><path d="M-87.31824291079595,39.21699180260533L123.47187200469318,108.03838538859209L105.83326023690536,102.036790239906zM110.63868421415613,85.17424835114524L95.72720669216373,-7.123323914292136L105.83326023690536,102.036790239906zM111.54738097992141,-2.9430809840963845L110.63868421415613,85.17424835114524L130.94060452885722,80.50374327151815zM125.76369777085561,-14.727447848051158L130.94060452885722,80.50374327151815L139.1472661206815,94.49923339519793z" style="fill:rgb(83,212,212)"/><path d="M-131.55936133898163,181.6551194538726L152.4536506108924,109.95696647376147L-137.31304633622216,174.2444670203994z" style="fill:rgb(127,37,217)"/><path d="M-111.88487320777487,160.7257100331587L152.4536506108924,109.95696647376147L-96.0882780854131,147.72311683814715zM-111.88487320777487,160.7257100331587L-137.31304633622216,174.2444670203994L152.4536506108924,109.95696647376147zM139.1472661206815,94.49923339519793L152.4536506108924,109.95696647376147L125.76369777085561,-14.727447848051158z" style="fill:rgb(83,212,212)"/><path d="M130.94060452885722,80.50374327151815L114.39503269913503,93.61871236314649L134.5350118341151,89.03052035918348zM114.39503269913503,93.61871236314649L130.94060452885722,80.50374327151815L110.63868421415613,85.17424835114524z" style="fill:rgb(127,37,217)"/><path d="M105.83326023690536,102.036790239906L114.39503269913503,93.61871236314649L110.63868421415613,85.17424835114524zM114.39503269913503,93.61871236314649L105.83326023690536,102.036790239906L109.67783039771018,110.4323420100574z" style="fill:rgb(241,128,184)"/><path d="M142.7223349217938,103.0294285486273L130.94060452885722,80.50374327151815L134.5350118341151,89.03052035918348z" style="fill:rgb(13,70,126)"/><path d="M-96.0882780854131,147.72311683814715L152.4536506108924,109.95696647376147L123.47187200469318,108.03838538859209z" style="fill:rgb(83,212,212)"/><path d="M152.4536506108924,109.95696647376147L-131.55936133898163,181.6551194538726L155.97213601120845,118.50154909873746z" style="fill:rgb(127,37,217)"/><path d="M130.94060452885722,80.50374327151815L142.7223349217938,103.0294285486273L139.1472661206815,94.49923339519793z" style="fill:rgb(13,70,126)"/><path d="M123.47187200469318,108.03838538859209L152.4536506108924,109.95696647376147L139.1472661206815,94.49923339519793z" style="fill:rgb(83,212,212)"/></svg>
