<?xml version="1.0" encoding="UTF-8"?>
<!-- Generated by jsxcad -->
<!DOCTYPE svg PUBLIC "-//W3C//DTD SVG 1.1 Tiny//EN" "http://www.w3.org/Graphics/SVG/1.1/DTD/svg11-tiny.dtd">
<svg viewBox="-250 -250 500 500" width="500" height="500" xmlns="http://www.w3.org/2000/svg"><path d="M-40.98597586034392,-52.23234741005198L57.38672135895403,-87.8860588617902L-44.93902602084804,-59.725225167597586z" style="fill:rgb(127,37,217)"/><path d="M-46.11593939311373,-34.02344988457067L-40.98597586034392,-52.23234741005198L-44.93902602084804,-59.725225167597586z" style="fill:rgb(247,158,158)"/><path d="M57.38672135895403,-87.8860588617902L-40.98597586034392,-52.23234741005198L60.726253484421676,-80.00644419153785z" style="fill:rgb(127,37,217)"/><path d="M-40.98597586034392,-52.23234741005198L-46.11593939311373,-34.02344988457067L-42.051869173609106,-26.515130846510225z" style="fill:rgb(247,158,158)"/><path d="M-97.24091774295847,-11.795333825531213L-46.11593939311373,-34.02344988457067L-101.63117798510332,-19.097412899605835zM-46.11593939311373,-34.02344988457067L-97.24091774295847,-11.795333825531213L-42.051869173609106,-26.515130846510225z" style="fill:rgb(127,37,217)"/><path d="M119.0898138512311,-78.44129623970882L115.84738316799697,-120.16715730873128L112.9304376120184,-128.2312808415179z" style="fill:rgb(247,158,158)"/><path d="M121.97200980624382,-114.82100615409195L-62.3278267517587,-63.69526093806374L137.20423905382393,0.8575728669584769z" style="fill:rgb(83,212,212)"/><path d="M115.84738316799697,-120.16715730873128L119.0898138512311,-78.44129623970882L122.1199367590406,-70.3023680238091z" style="fill:rgb(247,158,158)"/><path d="M103.24846771666314,-120.99120977969795L-118.20370717164111,-107.15357088838044L-124.52831218949808,-57.18095984401037zM-118.20370717164111,-107.15357088838044L103.24846771666314,-120.99120977969795L97.7164044417623,-170.29163263144466z" style="fill:rgb(83,212,212)"/><path d="M137.20423905382393,0.8575728669584769L124.83148129082365,-106.83576769632434L121.97200980624382,-114.82100615409195z" style="fill:rgb(247,158,158)"/><path d="M62.34669077194123,-54.35988888876406L119.0898138512311,-78.44129623970882L58.929093385588466,-62.26625435189643zM-101.63117798510332,-19.097412899605835L103.24846771666314,-120.99120977969795L-124.52831218949808,-57.18095984401037z" style="fill:rgb(127,37,217)"/><path d="M103.24846771666314,-120.99120977969795L112.9304376120184,-128.2312808415179L97.7164044417623,-170.29163263144466z" style="fill:rgb(247,158,158)"/><path d="M119.0898138512311,-78.44129623970882L62.34669077194123,-54.35988888876406L122.1199367590406,-70.3023680238091z" style="fill:rgb(127,37,217)"/><path d="M-101.95955778232626,61.421516082113605L-106.6451033808993,34.53099388110958L-107.516276470314,43.317851350067016zM-106.6451033808993,34.53099388110958L-101.95955778232626,61.421516082113605L-97.23113500154011,38.55461655624832zM-97.88438421470619,-53.831685625638784L151.03636810284877,105.90332817821862L-62.3278267517587,-63.69526093806374z" style="fill:rgb(83,212,212)"/><path d="M103.24846771666314,-120.99120977969795L-101.63117798510332,-19.097412899605835L119.0898138512311,-78.44129623970882z" style="fill:rgb(127,37,217)"/><path d="M112.9304376120184,-128.2312808415179L103.24846771666314,-120.99120977969795L119.0898138512311,-78.44129623970882z" style="fill:rgb(247,158,158)"/><path d="M-89.94316605938006,46.87067159084076L-87.94677206451041,55.34191613997911L-85.39197907243556,54.102131008950565z" style="fill:rgb(162,50,222)"/><path d="M-92.51633471990822,48.12005610814903L-90.33657220075044,56.917269131559955L-87.94677206451041,55.34191613997911z" style="fill:rgb(183,62,221)"/><path d="M-87.3014438769885,46.00300072437207L-85.39197907243556,54.102131008950565L-82.7673435456829,53.24416173244604z" style="fill:rgb(139,40,220)"/><path d="M-81.96863726979996,45.077956262924396L-97.23113500154011,38.55461655624832L-99.1980259918206,48.06661401369163z" style="fill:rgb(83,212,212)"/><path d="M-90.33657220075044,56.917269131559955L-97.0796705343684,51.56544393489931L-92.47212261954031,58.76977928779467z" style="fill:rgb(203,77,216)"/><path d="M-84.68960190486948,45.54994302161422L-82.7673435456829,53.24416173244604L-80.17066658090242,52.80054940393339z" style="fill:rgb(115,34,214)"/><path d="M-92.47212261954031,58.76977928779467L-98.89887292961373,53.6337896528925L-94.27310598231999,60.83082122398623z" style="fill:rgb(220,94,208)"/><path d="M-82.20538265971828,45.52949086383527L-80.17066658090242,52.80054940393339L-77.69913720333074,52.78892788030277z" style="fill:rgb(92,32,204)"/><path d="M-87.94677206451041,55.34191613997911L-89.94316605938006,46.87067159084076L-92.51633471990822,48.12005610814903z" style="fill:rgb(162,50,222)"/><path d="M-90.33657220075044,56.917269131559955L-92.51633471990822,48.12005610814903L-94.92515367302607,49.70455922435577z" style="fill:rgb(183,62,221)"/><path d="M-85.39197907243556,54.102131008950565L-87.3014438769885,46.00300072437207L-89.94316605938006,46.87067159084076z" style="fill:rgb(139,40,220)"/><path d="M-97.0796705343684,51.56544393489931L-90.33657220075044,56.917269131559955L-94.92515367302607,49.70455922435577z" style="fill:rgb(203,77,216)"/><path d="M-94.27310598231999,60.83082122398623L-100.31350636714957,55.83275640476574L-95.67093762326175,63.02381302413451z" style="fill:rgb(233,112,197)"/><path d="M-82.7673435456829,53.24416173244604L-84.68960190486948,45.54994302161422L-87.3014438769885,46.00300072437207z" style="fill:rgb(115,34,214)"/><path d="M-79.94246874186285,45.94396147506153L-77.69913720333074,52.78892788030277L-75.44598270760865,53.21126724718658z" style="fill:rgb(71,33,192)"/><path d="M-88.63123156550076,46.23367015702087L-99.1980259918206,48.06661401369163L-99.95602212186435,51.73235333920017z" style="fill:rgb(83,212,212)"/><path d="M-98.89887292961373,53.6337896528925L-92.47212261954031,58.76977928779467L-97.0796705343684,51.56544393489931z" style="fill:rgb(220,94,208)"/><path d="M-80.17066658090242,52.80054940393339L-82.20538265971828,45.52949086383527L-84.68960190486948,45.54994302161422z" style="fill:rgb(92,32,204)"/><path d="M-95.67093762326175,63.02381302413451L-101.26862320686938,58.08012757499042L-96.61134483974756,65.26675175957367z" style="fill:rgb(242,130,183)"/><path d="M-73.49711574600263,54.05358101481866L-79.94246874186285,45.94396147506153L-75.44598270760865,53.21126724718658z" style="fill:rgb(51,38,177)"/><path d="M-92.51633471990822,48.12005610814903L-95.19194477001419,49.41918689407973L-96.153771598198,50.512732128352454z" style="fill:rgb(83,212,212)"/><path d="M-100.31350636714957,55.83275640476574L-94.27310598231999,60.83082122398623L-98.89887292961373,53.6337896528925z" style="fill:rgb(233,112,197)"/><path d="M-87.3014438769885,46.00300072437207L-88.63123156550076,46.23367015702087L-89.94316605938006,46.87067159084076zM-94.92515367302607,49.70455922435577L-96.153771598198,50.512732128352454L-97.0796705343684,51.56544393489931z" style="fill:rgb(83,212,212)"/><path d="M-77.69913720333074,52.78892788030277L-79.94246874186285,45.94396147506153L-82.20538265971828,45.52949086383527z" style="fill:rgb(71,33,192)"/><path d="M-95.19194477001419,49.41918689407973L-99.95602212186435,51.73235333920017L-100.79497399129721,55.78956917156384z" style="fill:rgb(83,212,212)"/><path d="M-96.61134483974756,65.26675175957367L-101.72580988399245,60.29113987253926L-97.05646097548797,67.47503772589373z" style="fill:rgb(246,149,167)"/><path d="M-71.92798736987517,55.286112382255325L-77.98716519835521,46.7796777481893L-73.49711574600263,54.05358101481866z" style="fill:rgb(34,46,160)"/><path d="M-101.26862320686938,58.08012757499042L-95.67093762326175,63.02381302413451L-100.31350636714957,55.83275640476574z" style="fill:rgb(242,130,183)"/><path d="M-82.20538265971828,45.52949086383527L-83.35637776982334,45.31867757290079L-84.68960190486948,45.54994302161422zM-79.94246874186285,45.94396147506153L-81.96863726979996,45.077956262924396L-83.35637776982334,45.31867757290079zM-98.89887292961373,53.6337896528925L-99.82782151703876,54.6899563082148L-100.31350636714957,55.83275640476574z" style="fill:rgb(83,212,212)"/><path d="M-79.94246874186285,45.94396147506153L-73.49711574600263,54.05358101481866L-77.98716519835521,46.7796777481893z" style="fill:rgb(51,38,177)"/><path d="M-101.72580988399245,60.29113987253926L-96.98662899895838,69.56446838416929L-97.05646097548797,67.47503772589373z" style="fill:rgb(246,167,149)"/><path d="M-101.72580988399245,60.29113987253926L-96.61134483974756,65.26675175957367L-101.26862320686938,58.08012757499042z" style="fill:rgb(246,149,167)"/><path d="M-70.80058891780746,56.86411487483873L-76.4151835915526,48.0071673869236L-71.92798736987517,55.286112382255325z" style="fill:rgb(21,57,142)"/><path d="M-99.82782151703876,54.6899563082148L-100.79497399129721,55.78956917156384L-101.26862320686938,58.08012757499042z" style="fill:rgb(83,212,212)"/><path d="M-77.98716519835521,46.7796777481893L-71.92798736987517,55.286112382255325L-76.4151835915526,48.0071673869236z" style="fill:rgb(34,46,160)"/><path d="M-101.6649055364402,62.381482378125774L-96.40142397129648,71.45437017281249L-96.98662899895838,69.56446838416929z" style="fill:rgb(242,183,130)"/><path d="M-96.98662899895838,69.56446838416929L-101.72580988399245,60.29113987253926L-101.6649055364402,62.381482378125774z" style="fill:rgb(246,167,149)"/><path d="M-76.4151835915526,48.0071673869236L-70.80058891780746,56.86411487483873L-75.28865660764615,49.58190127985844z" style="fill:rgb(21,57,142)"/><path d="M-76.4151835915526,48.0071673869236L-76.98770847308573,47.206855529914L-77.98716519835521,46.7796777481893zM-44.93902602084804,-59.725225167597586L67.47902105589915,79.75358087187976L57.38672135895403,-87.8860588617902z" style="fill:rgb(83,212,212)"/><path d="M-96.40142397129648,71.45437017281249L-101.6649055364402,62.381482378125774L-101.08511274783045,64.27043296163143z" style="fill:rgb(242,183,130)"/><path d="M-101.6649055364402,62.381482378125774L-101.72580988399245,60.29113987253926L-101.95955778232626,61.421516082113605zM-75.28865660764615,49.58190127985844L-75.94639789720051,47.65191986715381L-76.98770847308573,47.206855529914zM151.03636810284877,105.90332817821862L-97.88438421470619,-53.831685625638784L-103.65831884262596,4.405582436861049z" style="fill:rgb(83,212,212)"/><path d="M57.38672135895403,-87.8860588617902L71.31835467847611,87.63401585086373L60.726253484421676,-80.00644419153785z" style="fill:rgb(247,158,158)"/><path d="M-100.00554868049174,65.88401842148882L-101.08511274783045,64.27043296163143L-100.78860492561503,65.23644361818342zM-98.46499968377715,67.15804066214822L-100.78860492561503,65.23644361818342L-100.47957382974728,66.24323641786295zM-73.9901668027982,53.392026180667926L-74.65350873930667,51.44559473311093L-74.47784681942913,54.593044911917765zM-74.47784681942913,54.593044911917765L-74.53728337171884,53.528119331109345L-74.94761987779366,55.74994352147453zM-94.49156070883245,68.96235964227998L-100.47957382974728,66.24323641786295L-99.39464773218964,69.77792353411202zM-75.8714740362035,58.02511134839675L-77.27519264181403,60.264628853035106L-76.34366330194895,59.187966225381054zM-93.08512770969395,68.7284173333442L-96.52081292605872,68.0408901726555L-94.49156070883245,68.96235964227998zM-91.73151751758344,68.50326063334732L-94.24699558176475,68.49591109589998L-93.08512770969395,68.7284173333442zM-76.34366330194895,59.187966225381054L-81.01325454184254,64.58509875883304L-77.92763766181547,63.088804465525044zM-79.10550116122714,62.38010639231883L-81.29145532732973,64.28752838559497L-80.0401431625118,63.46037222744838zM-86.37577660523827,67.18553230544792L-89.07281932264439,68.0610196078441L-87.71564290423963,67.83526970976891zM-80.0401431625118,63.46037222744838L-83.74724670303311,65.91088826004002L-81.01325454184254,64.58509875883304zM-70.06828831011126,64.89986122339535L-73.9901668027982,53.392026180667926L-79.28560090881237,66.4330415542185zM-77.92763766181547,63.088804465525044L-87.71564290423963,67.83526970976891L-79.28560090881237,66.4330415542185zM-45.250338915160896,60.771713307183L-75.94639789720051,47.65191986715381L-70.06828831011126,64.89986122339535z" style="fill:rgb(83,212,212)"/><path d="M124.83148129082365,-106.83576769632434L137.20423905382393,0.8575728669584769L140.29981748688115,8.934485296837348z" style="fill:rgb(247,158,158)"/><path d="M-62.3278267517587,-63.69526093806374L151.03636810284877,105.90332817821862L82.64518675510818,-16.793431880971255zM114.61307062010317,129.09888498457033L-103.65831884262596,4.405582436861049L-106.6451033808993,34.53099388110958zM99.38247622413635,-11.378566358407108L82.64518675510818,-16.793431880971255L98.5138989212422,11.609197375001674z" style="fill:rgb(83,212,212)"/><path d="M109.4581363446913,-3.2581036400059835L110.01732506968142,6.023193011347224L112.71473231817511,4.717699334030435z" style="fill:rgb(162,50,222)"/><path d="M106.74021529655344,-1.9419651283643544L107.57626596682462,7.660339551073472L110.01732506968142,6.023193011347224z" style="fill:rgb(183,62,221)"/><path d="M112.3319774890346,-4.194392391248577L112.71473231817511,4.717699334030435L115.56823876812308,3.792488133793138z" style="fill:rgb(139,40,220)"/><path d="M118.30034890922416,-5.258235359145982L99.38247622413635,-11.378566358407108L99.0213822870262,-1.8218152442509599z" style="fill:rgb(83,212,212)"/><path d="M107.57626596682462,7.660339551073472L102.16704268646411,1.6218692003054493L105.48268458220615,9.5685359779813z" style="fill:rgb(203,77,216)"/><path d="M115.25496773531846,-4.715405902068008L115.56823876812308,3.792488133793138L118.47175787946071,3.28257749955235z" style="fill:rgb(115,34,214)"/><path d="M105.48268458220615,9.5685359779813L100.48319781556849,3.7377229869640063L103.81547425338827,11.677196617580062z" style="fill:rgb(220,94,208)"/><path d="M118.11806712732943,-4.80058294289474L118.47175787946071,3.28257749955235L121.3169992588467,3.20810922555782z" style="fill:rgb(92,32,204)"/><path d="M110.01732506968142,6.023193011347224L109.4581363446913,-3.2581036400059835L106.74021529655344,-1.9419651283643544z" style="fill:rgb(162,50,222)"/><path d="M107.57626596682462,7.660339551073472L106.74021529655344,-1.9419651283643544L104.27923374979503,-0.2949907518852844z" style="fill:rgb(183,62,221)"/><path d="M112.71473231817511,4.717699334030435L112.3319774890346,-4.194392391248577L109.4581363446913,-3.2581036400059835z" style="fill:rgb(139,40,220)"/><path d="M102.16704268646411,1.6218692003054493L107.57626596682462,7.660339551073472L104.27923374979503,-0.2949907518852844z" style="fill:rgb(203,77,216)"/><path d="M103.81547425338827,11.677196617580062L99.29218081593443,5.97405235409151L102.63847752542614,13.908055538777669z" style="fill:rgb(233,112,197)"/><path d="M115.56823876812308,3.792488133793138L115.25496773531846,-4.715405902068008L112.3319774890346,-4.194392391248577z" style="fill:rgb(115,34,214)"/><path d="M120.81375338978584,-4.445092699319234L121.3169992588467,3.20810922555782L123.99706303286487,3.5734995954709876z" style="fill:rgb(71,33,192)"/><path d="M100.48319781556849,3.7377229869640063L105.48268458220615,9.5685359779813L102.16704268646411,1.6218692003054493z" style="fill:rgb(220,94,208)"/><path d="M118.47175787946071,3.28257749955235L118.11806712732943,-4.80058294289474L115.25496773531846,-4.715405902068008z" style="fill:rgb(92,32,204)"/><path d="M105.88060325269898,-3.0444531580176686L99.0213822870262,-1.8218152442509599L98.72797972029012,5.943263016904653zM110.8438777728549,-3.929141621951165L105.88060325269898,-3.0444531580176686L103.9141170817986,-0.5734379485408067z" style="fill:rgb(83,212,212)"/><path d="M102.63847752542614,13.908055538777669L98.64092690225309,8.24731144251809L101.99808219314768,16.177761356638808z" style="fill:rgb(242,130,183)"/><path d="M126.41022081248451,4.367042091011897L120.81375338978584,-4.445092699319234L123.99706303286487,3.5734995954709876z" style="fill:rgb(51,38,177)"/><path d="M106.74021529655344,-1.9419651283643544L103.9141170817986,-0.5734379485408067L103.02397867626915,0.5450702889808001z" style="fill:rgb(83,212,212)"/><path d="M99.29218081593443,5.97405235409151L103.81547425338827,11.677196617580062L100.48319781556849,3.7377229869640063z" style="fill:rgb(233,112,197)"/><path d="M112.3319774890346,-4.194392391248577L110.8438777728549,-3.929141621951165L109.4581363446913,-3.2581036400059835zM104.27923374979503,-0.2949907518852844L103.02397867626915,0.5450702889808001L102.16704268646411,1.6218692003054493z" style="fill:rgb(83,212,212)"/><path d="M121.3169992588467,3.20810922555782L120.81375338978584,-4.445092699319234L118.11806712732943,-4.80058294289474z" style="fill:rgb(71,33,192)"/><path d="M101.99808219314768,16.177761356638808L98.5568724845897,10.471776854723137L101.92127909272901,18.400723046812214z" style="fill:rgb(246,149,167)"/><path d="M128.46362849593018,5.5610137998181015L123.23970891912475,-3.6602465769534893L126.41022081248451,4.367042091011897z" style="fill:rgb(34,46,160)"/><path d="M98.64092690225309,8.24731144251809L102.63847752542614,13.908055538777669L99.29218081593443,5.97405235409151z" style="fill:rgb(242,130,183)"/><path d="M118.11806712732943,-4.80058294289474L116.7471075347503,-4.9813764464110735L115.25496773531846,-4.715405902068008zM67.47902105589915,79.75358087187976L-44.93902602084804,-59.725225167597586L-52.61151411193302,107.82879318732968zM120.81375338978584,-4.445092699319234L118.30034890922416,-5.258235359145982L116.7471075347503,-4.9813764464110735z" style="fill:rgb(83,212,212)"/><path d="M120.81375338978584,-4.445092699319234L126.41022081248451,4.367042091011897L123.23970891912475,-3.6602465769534893z" style="fill:rgb(51,38,177)"/><path d="M98.5568724845897,10.471776854723137L102.4142944222352,20.49214561886701L101.92127909272901,18.400723046812214z" style="fill:rgb(246,167,149)"/><path d="M100.48319781556849,3.7377229869640063L98.72797972029012,5.943263016904653L98.68364433608828,7.116672762823378z" style="fill:rgb(83,212,212)"/><path d="M98.5568724845897,10.471776854723137L101.99808219314768,16.177761356638808L98.64092690225309,8.24731144251809z" style="fill:rgb(246,149,167)"/><path d="M130.07686436902233,7.112325349454592L125.30256604059667,-2.4734109224326724L128.46362849593018,5.5610137998181015z" style="fill:rgb(21,57,142)"/><path d="M99.29218081593443,5.97405235409151L98.68364433608828,7.116672762823378L98.64092690225309,8.24731144251809zM-72.94504607900839,155.95002471726397L-45.250338915160896,60.771713307183L-99.39464773218964,69.77792353411202z" style="fill:rgb(83,212,212)"/><path d="M123.23970891912475,-3.6602465769534893L128.46362849593018,5.5610137998181015L125.30256604059667,-2.4734109224326724z" style="fill:rgb(34,46,160)"/><path d="M131.1852705917883,8.963753495538533L126.9215222587502,-0.9273714794014907L130.07686436902233,7.112325349454592z" style="fill:rgb(12,71,124)"/><path d="M-72.94504607900839,155.95002471726397L-107.516276470314,43.317851350067016L-116.42764482294719,133.20002243619038z" style="fill:rgb(83,212,212)"/><path d="M102.4142944222352,20.49214561886701L98.5568724845897,10.471776854723137L99.04656597142552,12.562588903592086z" style="fill:rgb(246,167,149)"/><path d="M125.30256604059667,-2.4734109224326724L130.07686436902233,7.112325349454592L126.9215222587502,-0.9273714794014907z" style="fill:rgb(21,57,142)"/><path d="M125.30256604059667,-2.4734109224326724L124.47990491344132,-3.2590165993982665L123.23970891912475,-3.6602465769534893zM99.04656597142552,12.562588903592086L98.5568724845897,10.471776854723137L98.5138989212422,11.609197375001674zM126.9215222587502,-0.9273714794014907L125.77215534567604,-2.8409470294764274L124.47990491344132,-3.2590165993982665z" style="fill:rgb(83,212,212)"/><path d="M126.9215222587502,-0.9273714794014907L131.1852705917883,8.963753495538533L128.0316561046663,0.9208818840366368z" style="fill:rgb(12,71,124)"/><path d="M101.66506077002735,16.02708874006565L100.0948755441974,14.438910136538802L100.63106798950948,15.398610859092766zM103.69962422952818,17.26372129832325L100.63106798950948,15.398610859092766L101.1899540267075,16.398942118465108zM129.19133283494,2.8516026735976774L128.0316561046663,0.9208818840366368L128.87074333513564,4.06632861179829z" style="fill:rgb(83,212,212)"/><path d="M137.20423905382393,0.8575728669584769L142.02697867918374,21.861140355463654L140.29981748688115,8.934485296837348z" style="fill:rgb(247,158,158)"/><path d="M128.87074333513564,4.06632861179829L128.58681660796734,3.0019722895603054L128.56190665009794,5.236540998370115zM108.65095597233389,18.9698483897827L101.1899540267075,16.398942118465108L103.15262955105595,19.911834826854694z" style="fill:rgb(83,212,212)"/><path d="M71.31835467847611,87.63401585086373L57.38672135895403,-87.8860588617902L67.47902105589915,79.75358087187976z" style="fill:rgb(247,158,158)"/><path d="M136.05285677996144,14.275296458161794L137.20423905382393,0.8575728669584769L125.77215534567604,-2.8409470294764274zM127.95447097590707,7.538191482523497L126.78527422479044,9.816879487123073L127.64396382957862,8.714733099673282zM110.22830252764315,18.69961384045483L106.12205967128989,18.098444297828078L108.65095597233389,18.9698483897827zM111.74648364050914,18.439515817756277L108.83955835268189,18.496296220982433L110.22830252764315,18.69961384045483zM127.64396382957862,8.714733099673282L123.33898207913956,14.240242973502092L126.60215864997787,12.66226131442363zM125.09792781197604,11.982611081016836L122.95743368664378,13.94927374196763L124.23622107320492,13.0886292818054zM117.66793590507834,16.982602752996954L114.72860906620514,17.928611568482147L116.25099615133698,17.667792969575743zM124.23622107320492,13.0886292818054L120.44767701418854,15.638394294452477L123.33898207913956,14.240242973502092z" style="fill:rgb(83,212,212)"/><path d="M142.02697867918374,21.861140355463654L137.20423905382393,0.8575728669584769L138.906667506952,13.786375678341386z" style="fill:rgb(247,158,158)"/><path d="M136.05285677996144,14.275296458161794L129.19133283494,2.8516026735976774L125.70875616619313,16.04746997015976zM126.60215864997787,12.66226131442363L116.25099615133698,17.667792969575743L125.70875616619313,16.04746997015976zM137.20423905382393,0.8575728669584769L136.05285677996144,14.275296458161794L138.906667506952,13.786375678341386zM-111.60617711624852,165.735101810039L-116.42764482294719,133.20002243619038L-117.46675177536417,143.6806975963573zM-116.42764482294719,133.20002243619038L-111.60617711624852,165.735101810039L-106.23480235217926,138.53289079973598zM-103.65831884262596,4.405582436861049L114.61307062010317,129.09888498457033L90.60155420499036,81.81959676102741z" style="fill:rgb(83,212,212)"/><path d="M-98.37872888763047,148.91051248206156L-96.128911892948,157.35108859974665L-93.33705386939226,156.00391209233874z" style="fill:rgb(162,50,222)"/><path d="M-101.19254664463492,150.2690268040257L-98.7440659439768,159.10969186814742L-96.128911892948,157.35108859974665z" style="fill:rgb(183,62,221)"/><path d="M-95.4934754515181,148.01413026226052L-93.33705386939226,156.00391209233874L-90.47216257200245,155.11830398945565z" style="fill:rgb(139,40,220)"/><path d="M-89.6749511138646,147.19697320812793L-106.23480235217926,138.53289079973598L-108.4667436261842,149.83610760280732z" style="fill:rgb(83,212,212)"/><path d="M-98.7440659439768,159.10969186814742L-106.19431877115306,154.15555253893191L-101.08510870303516,161.2147887323512z" style="fill:rgb(203,77,216)"/><path d="M-92.64398248104176,147.6139458827112L-90.47216257200245,155.11830398945565L-87.64068625943949,154.72789659931283z" style="fill:rgb(115,34,214)"/><path d="M-101.08510870303516,161.2147887323512L-108.19535151693533,156.54017030346174L-103.06418448338262,163.58873217118435z" style="fill:rgb(220,94,208)"/><path d="M-89.93662459212982,147.72626085621837L-87.64068625943949,154.72789659931283L-84.94834618042263,154.84862896052007z" style="fill:rgb(92,32,204)"/><path d="M-96.128911892948,157.35108859974665L-98.37872888763047,148.91051248206156L-101.19254664463492,150.2690268040257z" style="fill:rgb(162,50,222)"/><path d="M-98.7440659439768,159.10969186814742L-101.19254664463492,150.2690268040257L-103.83048773282846,152.03915693886535z" style="fill:rgb(183,62,221)"/><path d="M-93.33705386939226,156.00391209233874L-95.4934754515181,148.01413026226052L-98.37872888763047,148.91051248206156z" style="fill:rgb(139,40,220)"/><path d="M-106.19431877115306,154.15555253893191L-98.7440659439768,159.10969186814742L-103.83048773282846,152.03915693886535z" style="fill:rgb(203,77,216)"/><path d="M-103.06418448338262,163.58873217118435L-109.7574982074915,159.10480894508547L-104.60601053729478,166.1436939042592z" style="fill:rgb(233,112,197)"/><path d="M-90.47216257200245,155.11830398945565L-92.64398248104176,147.6139458827112L-95.4934754515181,148.01413026226052z" style="fill:rgb(115,34,214)"/><path d="M-87.47332752957242,148.34885603725584L-84.94834618042263,154.84862896052007L-82.49652905162483,155.47794547388392z" style="fill:rgb(71,33,192)"/><path d="M-96.94408471664306,148.2178553889516L-108.4667436261842,149.83610760280732L-109.32779608827929,154.19675792940274z" style="fill:rgb(83,212,212)"/><path d="M-108.19535151693533,156.54017030346174L-101.08510870303516,161.2147887323512L-106.19431877115306,154.15555253893191z" style="fill:rgb(220,94,208)"/><path d="M-87.64068625943949,154.72789659931283L-89.93662459212982,147.72626085621837L-92.64398248104176,147.6139458827112z" style="fill:rgb(92,32,204)"/><path d="M-104.60601053729478,166.1436939042592L-110.82005881400433,161.7539771328637L-105.65069833780494,168.78452614803516z" style="fill:rgb(242,130,183)"/><path d="M-80.37866996675415,156.59466146358596L-87.47332752957242,148.34885603725584L-82.49652905162483,155.47794547388392z" style="fill:rgb(51,38,177)"/><path d="M-101.19254664463492,150.2690268040257L-104.11834490124532,151.6816177410379L-105.17603259279039,152.9420511202643z" style="fill:rgb(83,212,212)"/><path d="M-109.7574982074915,159.10480894508547L-103.06418448338262,163.58873217118435L-108.19535151693533,156.54017030346174z" style="fill:rgb(233,112,197)"/><path d="M-95.4934754515181,148.01413026226052L-96.94408471664306,148.2178553889516L-98.37872888763047,148.91051248206156zM-103.83048773282846,152.03915693886535L-105.17603259279039,152.9420511202643L-106.19431877115306,154.15555253893191z" style="fill:rgb(83,212,212)"/><path d="M-84.94834618042263,154.84862896052007L-87.47332752957242,148.34885603725584L-89.93662459212982,147.72626085621837z" style="fill:rgb(71,33,192)"/><path d="M-104.11834490124532,151.6816177410379L-109.32779608827929,154.19675792940274L-110.28140357681025,159.02610323718227z" style="fill:rgb(83,212,212)"/><path d="M-105.65069833780494,168.78452614803516L-111.34018111793183,164.3880602311068L-106.15606536297766,171.4119197616449z" style="fill:rgb(246,149,167)"/><path d="M-78.6768377709695,158.159261202319L-85.34798803260513,149.46083343930655L-80.37866996675415,156.59466146358596z" style="fill:rgb(34,46,160)"/><path d="M-110.82005881400433,161.7539771328637L-104.60601053729478,166.1436939042592L-109.7574982074915,159.10480894508547z" style="fill:rgb(242,130,183)"/><path d="M-89.93662459212982,147.72626085621837L-91.18927185261788,147.40964475685L-92.64398248104176,147.6139458827112zM-45.250338915160896,60.771713307183L-72.94504607900839,155.95002471726397L-44.95649276514853,170.59358252481624zM-87.47332752957242,148.34885603725584L-89.6749511138646,147.19697320812793L-91.18927185261788,147.40964475685zM-108.19535151693533,156.54017030346174L-109.21730671245002,157.7580179470003L-109.7574982074915,159.10480894508547z" style="fill:rgb(83,212,212)"/><path d="M-87.47332752957242,148.34885603725584L-80.37866996675415,156.59466146358596L-85.34798803260513,149.46083343930655z" style="fill:rgb(51,38,177)"/><path d="M-111.34018111793183,164.3880602311068L-106.09965724665503,173.92595264608084L-106.15606536297766,171.4119197616449z" style="fill:rgb(246,167,149)"/><path d="M-111.34018111793183,164.3880602311068L-105.65069833780494,168.78452614803516L-110.82005881400433,161.7539771328637z" style="fill:rgb(246,149,167)"/><path d="M-109.21730671245002,157.7580179470003L-110.28140357681025,159.02610323718227L-110.82005881400433,161.7539771328637z" style="fill:rgb(83,212,212)"/><path d="M-85.34798803260513,149.46083343930655L-78.6768377709695,158.159261202319L-83.64298016200037,151.022895042624z" style="fill:rgb(34,46,160)"/><path d="M-111.29479459826305,166.9068807644332L-105.47993747789451,176.2297079877192L-106.09965724665503,173.92595264608084z" style="fill:rgb(242,183,130)"/><path d="M-106.09965724665503,173.92595264608084L-111.34018111793183,164.3880602311068L-111.29479459826305,166.9068807644332z" style="fill:rgb(246,167,149)"/><path d="M-83.64298016200037,151.022895042624L-84.26134460576495,150.02936383012815L-85.34798803260513,149.46083343930655z" style="fill:rgb(83,212,212)"/><path d="M-110.68189865972585,169.2133238279178L-104.31702576286798,178.2330411447318L-105.47993747789451,176.2297079877192z" style="fill:rgb(233,197,112)"/><path d="M-47.92788032813966,115.25764573338864L67.47902105589915,79.75358087187976L-52.61151411193302,107.82879318732968z" style="fill:rgb(127,37,217)"/><path d="M-105.47993747789451,176.2297079877192L-111.29479459826305,166.9068807644332L-110.68189865972585,169.2133238279178z" style="fill:rgb(242,183,130)"/><path d="M-111.29479459826305,166.9068807644332L-111.34018111793183,164.3880602311068L-111.60617711624852,165.735101810039zM-82.4258998716835,152.9783700723884L-83.12900032294725,150.62180226367323L-84.26134460576495,150.02936383012815z" style="fill:rgb(83,212,212)"/><path d="M-104.31702576286798,178.2330411447318L-110.68189865972585,169.2133238279178L-109.52125581531314,171.2171139403118z" style="fill:rgb(233,197,112)"/><path d="M-106.74163452182007,184.04120650142949L-117.46675177536417,143.6806975963573L-121.79309001815072,187.31716669593564zM-109.52125581531314,171.2171139403118L-110.68189865972585,169.2133238279178L-110.36836827436444,170.39318214422386zM138.906667506952,13.786375678341386L103.15262955105595,19.911834826854694L150.98697065653369,105.52818123568258z" style="fill:rgb(83,212,212)"/><path d="M150.98697065653369,105.52818123568258L142.02697867918374,21.861140355463654L138.906667506952,13.786375678341386z" style="fill:rgb(247,158,158)"/><path d="M-107.85421633296777,172.83855622141218L-110.36836827436444,170.39318214422386L-110.04152853119699,171.62311743202088zM-81.03702048757879,157.63348989930716L-81.74667859174275,155.25492001279764L-81.57813472584998,159.05167950128572z" style="fill:rgb(83,212,212)"/><path d="M67.47902105589915,79.75358087187976L-47.92788032813966,115.25764573338864L71.31835467847611,87.63401585086373z" style="fill:rgb(127,37,217)"/><path d="M-81.57813472584998,159.05167950128572L-81.6351738434144,157.76681871657777L-82.09946663215038,160.4180056358248zM-103.53782115207213,175.23708696511525L-110.04152853119699,171.62311743202088L-108.89353619274318,175.9432448247218zM-76.83531731221522,171.71631888147888L-72.94504607900839,155.95002471726397L-83.12900032294725,150.62180226367323z" style="fill:rgb(83,212,212)"/><path d="M-106.74163452182007,184.04120650142949L-116.44541182948825,194.26111546406307L-101.4964341520094,191.0382879282211z" style="fill:rgb(127,37,217)"/><path d="M-83.12496848178031,163.10570117961274L-84.67447046222519,165.72442664216138L-83.64923884955205,164.47972856464753zM-102.0012491676104,175.03448769059491L-105.74259715762426,174.01194392211514L-103.53782115207213,175.23708696511525zM-100.52225920399215,174.8394793516999L-103.26667075849265,174.68863025706875L-102.0012491676104,175.03448769059491zM31.024781322310822,100.2881401364313L-17.327023641672316,99.57985251918754L-17.507957317463454,111.49132204350212z" style="fill:rgb(83,212,212)"/><path d="M-116.44541182948825,194.26111546406307L-106.74163452182007,184.04120650142949L-121.79309001815072,187.31716669593564z" style="fill:rgb(127,37,217)"/><path d="M-17.327023641672316,99.57985251918754L31.024781322310822,100.2881401364313L30.700338027048016,88.35183853343207z" style="fill:rgb(83,212,212)"/><path d="M-13.019003787501866,119.0331986767998L31.024781322310822,100.2881401364313L-17.507957317463454,111.49132204350212z" style="fill:rgb(127,37,217)"/><path d="M-83.64923884955205,164.47972856464753L-88.7896532381717,170.7205476596507L-85.40855778544436,169.09064227874381zM-86.68921045598185,168.17045738003503L-89.09101541469913,170.34624206484634L-87.71819615152688,169.41972503924154zM-45.250338915160896,60.771713307183L-44.95649276514853,170.59358252481624L114.61307062010317,129.09888498457033z" style="fill:rgb(83,212,212)"/><path d="M31.024781322310822,100.2881401364313L34.80430449543968,96.09256902944875L30.700338027048016,88.35183853343207z" style="fill:rgb(247,158,158)"/><path d="M-94.66555698570559,173.55310492426037L-97.61692963853005,174.45640629212122L-96.13366899399213,174.2608348545571z" style="fill:rgb(83,212,212)"/><path d="M31.024781322310822,100.2881401364313L-13.019003787501866,119.0331986767998L35.169100485911336,108.01205390594349z" style="fill:rgb(127,37,217)"/><path d="M-87.71819615152688,169.41972503924154L-91.78540560322183,172.16469512183986L-88.7896532381717,170.7205476596507z" style="fill:rgb(83,212,212)"/><path d="M34.80430449543968,96.09256902944875L31.024781322310822,100.2881401364313L35.169100485911336,108.01205390594349z" style="fill:rgb(247,158,158)"/><path d="M-76.83531731221522,171.71631888147888L-81.03702048757879,157.63348989930716L-86.91762567023605,173.0456791912106zM-85.40855778544436,169.09064227874381L-96.13366899399213,174.2608348545571L-86.91762567023605,173.0456791912106zM-106.74163452182007,184.04120650142949L-68.44530227361476,170.61007413608067L-108.89353619274318,175.9432448247218zM-72.94504607900839,155.95002471726397L-76.83531731221522,171.71631888147888L-68.44530227361476,170.61007413608067z" style="fill:rgb(83,212,212)"/><path d="M-101.4964341520094,191.0382879282211L-66.97912752242532,175.38683501980432L-106.74163452182007,184.04120650142949zM-66.97912752242532,175.38683501980432L-101.4964341520094,191.0382879282211L-62.009127178538904,182.52529189556594z" style="fill:rgb(127,37,217)"/><path d="M82.64518675510818,-16.793431880971255L151.03636810284877,105.90332817821862L150.98697065653369,105.52818123568258zM-49.659260307087145,168.13311108681225L-72.94504607900839,155.95002471726397L-68.44530227361476,170.61007413608067zM-68.44530227361476,170.61007413608067L-106.74163452182007,184.04120650142949L-66.97912752242532,175.38683501980432z" style="fill:rgb(83,212,212)"/><path d="M-44.95649276514853,170.59358252481624L-62.009127178538904,182.52529189556594L-40.14172105000085,177.81093725289406z" style="fill:rgb(127,37,217)"/><path d="M-66.97912752242532,175.38683501980432L-49.659260307087145,168.13311108681225L-68.44530227361476,170.61007413608067z" style="fill:rgb(83,212,212)"/><path d="M-62.009127178538904,182.52529189556594L-44.95649276514853,170.59358252481624L-66.97912752242532,175.38683501980432z" style="fill:rgb(127,37,217)"/><path d="M-49.659260307087145,168.13311108681225L-66.97912752242532,175.38683501980432L-44.95649276514853,170.59358252481624z" style="fill:rgb(83,212,212)"/><path d="M142.02697867918374,21.861140355463654L150.98697065653369,105.52818123568258L154.27323433259954,113.51624725824578z" style="fill:rgb(247,158,158)"/><path d="M109.08826869457268,89.18669528489092L90.60155420499036,81.81959676102741L108.35554297644804,116.77764947790999z" style="fill:rgb(83,212,212)"/><path d="M120.29254898569388,99.47147943067503L120.81490787924751,108.79409060964367L123.7779620348202,107.36892385104736z" style="fill:rgb(162,50,222)"/><path d="M117.30472483938533,100.90934400257335L118.13827231199163,110.63091191180307L120.81490787924751,108.79409060964367z" style="fill:rgb(183,62,221)"/><path d="M123.45691177161834,98.49847378791127L123.7779620348202,107.36892385104736L126.91767932268944,106.40835487083508z" style="fill:rgb(139,40,220)"/><path d="M130.03999042277118,97.53610761507005L109.08826869457268,89.18669528489092L108.78401578057264,100.64347685705725z" style="fill:rgb(83,212,212)"/><path d="M118.13827231199163,110.63091191180307L112.2912186901705,104.95136478085173L115.84769661106124,112.81168657128934z" style="fill:rgb(203,77,216)"/><path d="M126.68065476060161,98.02720257773629L126.91767932268944,106.40835487083508L130.11773103785518,105.9487839796932z" style="fill:rgb(115,34,214)"/><path d="M115.84769661106124,112.81168657128934L110.45299796030581,107.40669478909169L114.0293429213404,115.25616140268674z" style="fill:rgb(220,94,208)"/><path d="M129.84389375955985,98.07667906247275L130.11773103785518,105.9487839796932L133.2591365193013,106.00879323938217z" style="fill:rgb(92,32,204)"/><path d="M120.81490787924751,108.79409060964367L120.29254898569388,99.47147943067503L117.30472483938533,100.90934400257335z" style="fill:rgb(162,50,222)"/><path d="M118.13827231199163,110.63091191180307L117.30472483938533,100.90934400257335L114.6041123689031,102.75868542888081z" style="fill:rgb(183,62,221)"/><path d="M123.7779620348202,107.36892385104736L123.45691177161834,98.49847378791127L120.29254898569388,99.47147943067503z" style="fill:rgb(139,40,220)"/><path d="M112.2912186901705,104.95136478085173L118.13827231199163,110.63091191180307L114.6041123689031,102.75868542888081z" style="fill:rgb(203,77,216)"/><path d="M114.0293429213404,115.25616140268674L109.15984273683628,110.03398498642616L112.7528437747241,117.87400692463918z" style="fill:rgb(233,112,197)"/><path d="M126.91767932268944,106.40835487083508L126.68065476060161,98.02720257773629L123.45691177161834,98.49847378791127z" style="fill:rgb(115,34,214)"/><path d="M132.82813466346397,98.64721346379027L133.2591365193013,106.00879323938217L136.22415806375213,106.58824704747454z" style="fill:rgb(71,33,192)"/><path d="M110.45299796030581,107.40669478909169L115.84769661106124,112.81168657128934L112.2912186901705,104.95136478085173z" style="fill:rgb(220,94,208)"/><path d="M-40.14172105000085,177.81093725289406L117.7064321927495,135.18978245569008L-44.95649276514853,170.59358252481624z" style="fill:rgb(127,37,217)"/><path d="M130.11773103785518,105.9487839796932L129.84389375955985,98.07667906247275L126.68065476060161,98.02720257773629z" style="fill:rgb(92,32,204)"/><path d="M116.34377429885868,99.53832837438314L108.78401578057264,100.64347685705725L108.53641770914709,109.96668118398269zM121.81591988936687,98.73836967808886L116.34377429885868,99.53832837438314L114.1980270593319,102.40442443473748z" style="fill:rgb(83,212,212)"/><path d="M112.7528437747241,117.87400692463918L108.46289014314914,112.73553398936768L112.06868185855227,120.56785973774326z" style="fill:rgb(242,130,183)"/><path d="M138.90042441475907,107.66805840843085L132.82813466346397,98.64721346379027L136.22415806375213,106.58824704747454z" style="fill:rgb(51,38,177)"/><path d="M117.30472483938533,100.90934400257335L114.1980270593319,102.40442443473748L113.22656005234865,103.70201250368568z" style="fill:rgb(83,212,212)"/><path d="M109.15984273683628,110.03398498642616L114.0293429213404,115.25616140268674L110.45299796030581,107.40669478909169z" style="fill:rgb(233,112,197)"/><path d="M123.45691177161834,98.49847378791127L121.81591988936687,98.73836967808886L120.29254898569388,99.47147943067503zM114.6041123689031,102.75868542888081L113.22656005234865,103.70201250368568L112.2912186901705,104.95136478085173z" style="fill:rgb(83,212,212)"/><path d="M133.2591365193013,106.00879323938217L132.82813466346397,98.64721346379027L129.84389375955985,98.07667906247275z" style="fill:rgb(71,33,192)"/><path d="M112.06868185855227,120.56785973774326L108.39186499935052,115.40981357543033L112.00605303126906,123.2364732884671z" style="fill:rgb(246,149,167)"/><path d="M141.18499621181812,109.21037096810231L135.52028048956615,99.72004928885028L138.90042441475907,107.66805840843085z" style="fill:rgb(34,46,160)"/><path d="M108.46289014314914,112.73553398936768L112.7528437747241,117.87400692463918L109.15984273683628,110.03398498642616z" style="fill:rgb(242,130,183)"/><path d="M129.84389375955985,98.07667906247275L128.32654388616027,97.78659076489882L126.68065476060161,98.02720257773629zM132.82813466346397,98.64721346379027L130.03999042277118,97.53610761507005L128.32654388616027,97.78659076489882z" style="fill:rgb(83,212,212)"/><path d="M132.82813466346397,98.64721346379027L138.90042441475907,107.66805840843085L135.52028048956615,99.72004928885028z" style="fill:rgb(51,38,177)"/><path d="M108.39186499935052,115.40981357543033L112.57134142630746,125.77834181138442L112.00605303126906,123.2364732884671z" style="fill:rgb(246,167,149)"/><path d="M110.45299796030581,107.40669478909169L108.53641770914709,109.96668118398269L108.49897404316371,111.37666498461714z" style="fill:rgb(83,212,212)"/><path d="M108.39186499935052,115.40981357543033L112.06868185855227,120.56785973774326L108.46289014314914,112.73553398936768z" style="fill:rgb(246,149,167)"/><path d="M142.98828993884217,111.15950848543638L137.8167462645307,101.25765639460538L141.18499621181812,109.21037096810231z" style="fill:rgb(21,57,142)"/><path d="M109.15984273683628,110.03398498642616L108.49897404316371,111.37666498461714L108.46289014314914,112.73553398936768z" style="fill:rgb(83,212,212)"/><path d="M135.52028048956615,99.72004928885028L141.18499621181812,109.21037096810231L137.8167462645307,101.25765639460538z" style="fill:rgb(34,46,160)"/><path d="M144.2378105723502,113.44360110953959L139.6274665409314,103.20459603703839L142.98828993884217,111.15950848543638z" style="fill:rgb(12,71,124)"/><path d="M112.57134142630746,125.77834181138442L108.39186499935052,115.40981357543033L108.95353274844088,117.95509862252196z" style="fill:rgb(246,167,149)"/><path d="M137.8167462645307,101.25765639460538L142.98828993884217,111.15950848543638L139.6274665409314,103.20459603703839z" style="fill:rgb(21,57,142)"/><path d="M137.8167462645307,101.25765639460538L136.8969399886707,100.26865838874976L135.52028048956615,99.72004928885028zM108.95353274844088,117.95509862252196L108.39186499935052,115.40981357543033L108.35554297644804,116.77764947790999zM139.6274665409314,103.20459603703839L138.33165815548014,100.8404024271816L136.8969399886707,100.26865838874976z" style="fill:rgb(83,212,212)"/><path d="M117.7064321927495,135.18978245569008L-40.14172105000085,177.81093725289406L121.31295024309244,143.00320392798034z" style="fill:rgb(127,37,217)"/><path d="M139.6274665409314,103.20459603703839L144.2378105723502,113.44360110953959L140.8796026513541,105.48910722658132z" style="fill:rgb(12,71,124)"/><path d="M154.27323433259954,113.51624725824578L151.03636810284877,105.90332817821862L154.323276041242,113.8907762924201z" style="fill:rgb(247,158,158)"/><path d="M114.61307062010317,129.09888498457033L-44.95649276514853,170.59358252481624L117.7064321927495,135.18978245569008zM111.8826886587549,122.27304737758767L110.1307892812893,120.27315124130138L110.73313456136988,121.45917645915713z" style="fill:rgb(83,212,212)"/><path d="M151.03636810284877,105.90332817821862L154.27323433259954,113.51624725824578L150.98697065653369,105.52818123568258z" style="fill:rgb(247,158,158)"/><path d="M114.145346962951,123.87498589074673L110.73313456136988,121.45917645915713L111.3611167847203,122.69570461196876zM142.18820352392441,107.87661720356783L140.8796026513541,105.48910722658132L141.84885260538465,109.32295060543584z" style="fill:rgb(83,212,212)"/><path d="M151.03636810284877,105.90332817821862L156.41553817383178,129.5499721315785L154.323276041242,113.8907762924201z" style="fill:rgb(247,158,158)"/><path d="M141.84885260538465,109.32295060543584L141.52081080246043,108.02537806400233L141.5218801721441,110.71654342227515zM119.64154746161758,126.20294887937989L111.3611167847203,122.69570461196876L113.56760401590684,127.0403261338765zM149.94316092160605,122.02545186491564L151.03636810284877,105.90332817821862L138.33165815548014,100.8404024271816zM140.8786012192123,113.4583096507122L139.61252582378415,116.14302744580611L140.5496814576074,114.86020223735011zM121.38440972837091,125.96267130273061L116.83382945857574,125.0137200778702L119.64154746161758,126.20294887937989zM123.06206015156727,125.73138449740043L119.84513901453212,125.64167384157396L121.38440972837091,125.96267130273061zM140.5496814576074,114.86020223735011L135.85018933209398,121.29309354761483L139.44565712091207,119.56572505724003z" style="fill:rgb(83,212,212)"/><path d="M125.09918632603583,133.58075128170825L121.31295024309244,143.00320392798034L128.6482080337051,141.4218198153822z" style="fill:rgb(127,37,217)"/><path d="M137.77066650872132,118.66424758721278L135.42395442846458,120.92126585251329L136.8298840418998,119.95205032084613zM129.60181306467456,124.29498333749318L126.35788662742897,125.27700657522722L128.04065484840535,125.0450124374681zM136.8298840418998,119.95205032084613L132.6645150269654,122.82357947937706L135.85018933209398,121.29309354761483z" style="fill:rgb(83,212,212)"/><path d="M156.41553817383178,129.5499721315785L151.03636810284877,105.90332817821862L153.10194028563456,121.5899715661888z" style="fill:rgb(247,158,158)"/><path d="M114.61307062010317,129.09888498457033L153.10194028563456,121.5899715661888L113.56760401590684,127.0403261338765zM149.94316092160605,122.02545186491564L142.18820352392441,107.87661720356783L138.4983551209429,123.60326759738149zM139.44565712091207,119.56572505724003L128.04065484840535,125.0450124374681L138.4983551209429,123.60326759738149z" style="fill:rgb(83,212,212)"/><path d="M121.31295024309244,143.00320392798034L125.09918632603583,133.58075128170825L117.7064321927495,135.18978245569008z" style="fill:rgb(127,37,217)"/><path d="M125.09918632603583,133.58075128170825L114.61307062010317,129.09888498457033L117.7064321927495,135.18978245569008zM151.03636810284877,105.90332817821862L149.94316092160605,122.02545186491564L153.10194028563456,121.5899715661888zM153.10194028563456,121.5899715661888L114.61307062010317,129.09888498457033L125.09918632603583,133.58075128170825z" style="fill:rgb(83,212,212)"/><path d="M153.85667142435926,127.32164895288886L128.6482080337051,141.4218198153822L157.17989959883835,135.27072396719035zM128.6482080337051,141.4218198153822L153.85667142435926,127.32164895288886L125.09918632603583,133.58075128170825z" style="fill:rgb(127,37,217)"/><path d="M156.41553817383178,129.5499721315785L153.85667142435926,127.32164895288886L157.17989959883835,135.27072396719035zM153.85667142435926,127.32164895288886L156.41553817383178,129.5499721315785L153.10194028563456,121.5899715661888z" style="fill:rgb(247,158,158)"/><path d="M153.10194028563456,121.5899715661888L125.09918632603583,133.58075128170825L153.85667142435926,127.32164895288886z" style="fill:rgb(83,212,212)"/></svg>
