<?xml version="1.0" encoding="UTF-8"?>
<!-- Generated by jsxcad -->
<!DOCTYPE svg PUBLIC "-//W3C//DTD SVG 1.1 Tiny//EN" "http://www.w3.org/Graphics/SVG/1.1/DTD/svg11-tiny.dtd">
<svg viewBox="-250 -250 500 500" width="500" height="500" xmlns="http://www.w3.org/2000/svg"><path d="M-78.68053595853165,-87.2936535244698L104.30379433371604,115.96405371954017L81.8640874117159,-132.96795424410575z" style="fill:rgb(83,212,212)"/><path d="M104.30379433371604,115.96405371954017L84.14762518686888,-127.06294575246955L81.8640874117159,-132.96795424410575z" style="fill:rgb(247,158,158)"/><path d="M104.30379433371604,115.96405371954017L-78.68053595853165,-87.2936535244698L-99.19027009196148,161.3403551482121z" style="fill:rgb(83,212,212)"/><path d="M84.14762518686888,-127.06294575246955L104.30379433371604,115.96405371954017L107.06572033083002,121.88491014244696z" style="fill:rgb(247,158,158)"/><path d="M-20.427002641112566,58.91249587089242L14.85760904662672,96.297338523192L14.258682631870547,50.44694339143514z" style="fill:rgb(83,212,212)"/><path d="M14.85760904662672,96.297338523192L17.328293941191586,56.27726603145918L14.258682631870547,50.44694339143514z" style="fill:rgb(247,158,158)"/><path d="M14.85760904662672,96.297338523192L-20.427002641112566,58.91249587089242L-21.277391041017598,104.70737709022457z" style="fill:rgb(83,212,212)"/><path d="M17.328293941191586,56.27726603145918L14.85760904662672,96.297338523192L18.05169672390501,102.09007200704505z" style="fill:rgb(247,158,158)"/><path d="M-17.892061105971628,110.39780014297443L14.85760904662672,96.297338523192L-21.277391041017598,104.70737709022457zM14.85760904662672,96.297338523192L-17.892061105971628,110.39780014297443L18.05169672390501,102.09007200704505zM-95.3246143249851,166.69657855600707L104.30379433371604,115.96405371954017L-99.19027009196148,161.3403551482121zM104.30379433371604,115.96405371954017L-95.3246143249851,166.69657855600707L107.06572033083002,121.88491014244696z" style="fill:rgb(127,37,217)"/></svg>
