<?xml version="1.0" encoding="UTF-8"?>
<!-- Generated by jsxcad -->
<!DOCTYPE svg PUBLIC "-//W3C//DTD SVG 1.1 Tiny//EN" "http://www.w3.org/Graphics/SVG/1.1/DTD/svg11-tiny.dtd">
<svg viewBox="-250 -250 500 500" width="500" height="500" xmlns="http://www.w3.org/2000/svg"><path d="M114.27198630325884,-101.40496536487478L-113.4583538582096,-89.30934379318951L-119.67703611711875,-37.14052374577952zM-113.4583538582096,-89.30934379318951L114.27198630325884,-101.40496536487478L107.99981969123971,-152.9839067613737z" style="fill:rgb(83,212,212)"/><path d="M107.99981969123971,-152.9839067613737L120.74636082105428,-83.86090418958554L114.21505814061052,-135.63991404361784z" style="fill:rgb(247,158,158)"/><path d="M119.48824050857134,-138.94238927880292L-72.32937529628482,-84.58879963090506L135.1429289445487,-20.744494689360465z" style="fill:rgb(83,212,212)"/><path d="M-110.16930214545305,-21.50041047799685L114.27198630325884,-101.40496536487478L-119.67703611711875,-37.14052374577952z" style="fill:rgb(127,37,217)"/><path d="M135.1429289445487,-20.744494689360465L122.4888503226083,-130.43925572895816L119.48824050857134,-138.94238927880292z" style="fill:rgb(247,158,158)"/><path d="M114.27198630325884,-101.40496536487478L-110.16930214545305,-21.50041047799685L120.74636082105428,-83.86090418958554z" style="fill:rgb(127,37,217)"/><path d="M-114.9516310437576,43.88832890071041L-119.46857686378122,16.30261847522624L-120.488660333524,25.331405220448588zM-119.46857686378122,16.30261847522624L-114.9516310437576,43.88832890071041L-109.74488879058836,20.342848530227123z" style="fill:rgb(83,212,212)"/><path d="M120.74636082105428,-83.86090418958554L107.99981969123971,-152.9839067613737L114.27198630325884,-101.40496536487478z" style="fill:rgb(247,158,158)"/><path d="M-109.25178628480786,-74.12643893547015L149.5072719633049,87.71087515334811L-72.32937529628482,-84.58879963090506z" style="fill:rgb(83,212,212)"/><path d="M-102.27632741915323,28.816772043107807L-100.09448607800546,37.811806208902986L-97.42441486103745,36.51432629678065z" style="fill:rgb(162,50,222)"/><path d="M-104.96647082526341,30.12476814914524L-102.59717031004128,39.45279732846841L-100.09448607800546,37.811806208902986z" style="fill:rgb(183,62,221)"/><path d="M-99.51957202073321,27.900402264949243L-97.42441486103745,36.51432629678065L-94.68625663012857,35.60869831447332z" style="fill:rgb(139,40,220)"/><path d="M-93.96413034990961,26.899812616693783L-109.74488879058836,20.342848530227123L-111.9096105975246,30.131973121110335z" style="fill:rgb(83,212,212)"/><path d="M-102.59717031004128,39.45279732846841L-109.75286124331765,33.708386359632776L-104.83912300667899,41.37655854254185z" style="fill:rgb(203,77,216)"/><path d="M-96.79880746191557,27.410366493618767L-94.68625663012857,35.60869831447332L-91.98190525413524,35.12923400435935z" style="fill:rgb(115,34,214)"/><path d="M-104.83912300667899,41.37655854254185L-111.67000112074881,35.851446541633514L-106.73612246882993,43.511935641323596z" style="fill:rgb(220,94,208)"/><path d="M-94.21571590791578,27.36608994209771L-91.98190525413524,35.12923400435935L-89.41247425047001,35.09495869746138z" style="fill:rgb(92,32,204)"/><path d="M-100.09448607800546,37.811806208902986L-102.27632741915323,28.816772043107807L-104.96647082526341,30.12476814914524z" style="fill:rgb(162,50,222)"/><path d="M-102.59717031004128,39.45279732846841L-104.96647082526341,30.12476814914524L-107.49001490481317,31.7756705394626z" style="fill:rgb(183,62,221)"/><path d="M-97.42441486103745,36.51432629678065L-99.51957202073321,27.900402264949243L-102.27632741915323,28.816772043107807z" style="fill:rgb(139,40,220)"/><path d="M-109.75286124331765,33.708386359632776L-102.59717031004128,39.45279732846841L-107.49001490481317,31.7756705394626z" style="fill:rgb(203,77,216)"/><path d="M-106.73612246882993,43.511935641323596L-113.1685092495064,38.125340080733125L-108.21599425205666,45.77968498490283z" style="fill:rgb(233,112,197)"/><path d="M-94.68625663012857,35.60869831447332L-96.79880746191557,27.410366493618767L-99.51957202073321,27.900402264949243z" style="fill:rgb(115,34,214)"/><path d="M-91.86765895222733,27.77090263434743L-89.41247425047001,35.09495869746138L-87.07480044057309,35.50881288042825z" style="fill:rgb(71,33,192)"/><path d="M-100.90474313148428,28.149885411768704L-111.9096105975246,30.131973121110335L-112.74429028048144,33.906469941512995z" style="fill:rgb(83,212,212)"/><path d="M-111.67000112074881,35.851446541633514L-104.83912300667899,41.37655854254185L-109.75286124331765,33.708386359632776z" style="fill:rgb(220,94,208)"/><path d="M-91.98190525413524,35.12923400435935L-94.21571590791578,27.36608994209771L-96.79880746191557,27.410366493618767z" style="fill:rgb(92,32,204)"/><path d="M-108.21599425205666,45.77968498490283L-114.1902185848162,40.445142484717245L-109.22126098924016,48.09510959294215z" style="fill:rgb(242,130,183)"/><path d="M-85.05802949284708,36.35729590019706L-91.86765895222733,27.77090263434743L-87.07480044057309,35.50881288042825z" style="fill:rgb(51,38,177)"/><path d="M-104.96647082526341,30.12476814914524L-107.76371113919232,31.484829225918215L-108.77717799036014,32.61773391626048z" style="fill:rgb(83,212,212)"/><path d="M-113.1685092495064,38.125340080733125L-106.73612246882993,43.511935641323596L-111.67000112074881,35.851446541633514z" style="fill:rgb(233,112,197)"/><path d="M-99.51957202073321,27.900402264949243L-100.90474313148428,28.149885411768704L-102.27632741915323,28.816772043107807zM-107.49001490481317,31.7756705394626L-108.77717799036014,32.61773391626048L-109.75286124331765,33.708386359632776z" style="fill:rgb(83,212,212)"/><path d="M-89.41247425047001,35.09495869746138L-91.86765895222733,27.77090263434743L-94.21571590791578,27.36608994209771z" style="fill:rgb(71,33,192)"/><path d="M-107.76371113919232,31.484829225918215L-112.74429028048144,33.906469941512995L-113.6683831134041,38.085323228875964z" style="fill:rgb(83,212,212)"/><path d="M-109.22126098924016,48.09510959294215L-114.6940180251483,42.72341080102008L-109.71146919015885,50.37092208580177z" style="fill:rgb(246,149,167)"/><path d="M-83.44029452019016,37.61062220099914L-89.84417766786187,28.6116674865495L-85.05802949284708,36.35729590019706z" style="fill:rgb(34,46,160)"/><path d="M-114.1902185848162,40.445142484717245L-108.21599425205666,45.77968498490283L-113.1685092495064,38.125340080733125z" style="fill:rgb(242,130,183)"/><path d="M-94.21571590791578,27.36608994209771L-95.40989213438621,27.160208976471996L-96.79880746191557,27.410366493618767zM-56.56088967293407,-45.149226402428184L-26.19803817251944,35.91963812848238L-24.0104620952151,-54.01453589520227zM-91.86765895222733,27.77090263434743L-93.96413034990961,26.899812616693783L-95.40989213438621,27.160208976471996zM-111.67000112074881,35.851446541633514L-112.64902216557368,36.94584292504767L-113.1685092495064,38.125340080733125z" style="fill:rgb(83,212,212)"/><path d="M-91.86765895222733,27.77090263434743L-85.05802949284708,36.35729590019706L-89.84417766786187,28.6116674865495z" style="fill:rgb(51,38,177)"/><path d="M-114.6940180251483,42.72341080102008L-109.66500461093948,52.52035703286782L-109.71146919015885,50.37092208580177z" style="fill:rgb(246,167,149)"/><path d="M-114.6940180251483,42.72341080102008L-109.22126098924016,48.09510959294215L-114.1902185848162,40.445142484717245z" style="fill:rgb(246,149,167)"/><path d="M-82.28563751287412,39.22345750530512L-88.2236842588985,29.858920288436448L-83.44029452019016,37.61062220099914z" style="fill:rgb(21,57,142)"/><path d="M-112.64902216557368,36.94584292504767L-113.6683831134041,38.085323228875964L-114.1902185848162,40.445142484717245z" style="fill:rgb(83,212,212)"/><path d="M-89.84417766786187,28.6116674865495L-83.44029452019016,37.61062220099914L-88.2236842588985,29.858920288436448z" style="fill:rgb(34,46,160)"/><path d="M-114.65773751011425,44.873282704121415L-109.08028096705603,54.46038058075476L-109.66500461093948,52.52035703286782z" style="fill:rgb(242,183,130)"/><path d="M-109.66500461093948,52.52035703286782L-114.6940180251483,42.72341080102008L-114.65773751011425,44.873282704121415z" style="fill:rgb(246,167,149)"/><path d="M-88.2236842588985,29.858920288436448L-82.28563751287412,39.22345750530512L-87.07036428148656,31.467590086747226z" style="fill:rgb(21,57,142)"/><path d="M-88.2236842588985,29.858920288436448L-88.80974475490586,29.041478300485682L-89.84417766786187,28.6116674865495z" style="fill:rgb(83,212,212)"/><path d="M-109.08028096705603,54.46038058075476L-114.65773751011425,44.873282704121415L-114.07935386200008,46.81169174473861z" style="fill:rgb(242,183,130)"/><path d="M-114.65773751011425,44.873282704121415L-114.6940180251483,42.72341080102008L-114.9516310437576,43.88832890071041zM-87.07036428148656,31.467590086747226L-87.73190254524123,29.489326887997983L-88.80974475490586,29.041478300485682zM149.5072719633049,87.71087515334811L-109.25178628480786,-74.12643893547015L-115.9769252999719,-14.602072810294285zM-24.0104620952151,-54.01453589520227L22.003256483942845,19.649389513386545L20.225353526341028,-66.06243074955613zM-112.97764487236252,48.46262525764487L-114.07935386200008,46.81169174473861L-113.78352365483977,47.80313842884699zM-111.39195521177996,49.76026085295865L-113.78352365483977,47.80313842884699L-113.47517904105851,48.83654482282117zM-85.76397401146968,35.374203190897205L-86.43141915505782,33.3782905328578L-86.28544107670976,36.61416391846966zM-86.28544107670976,36.61416391846966L-86.33483310366,35.519221230950265L-86.78779587742785,37.80868031879512zM-107.28205417624508,51.58262256741411L-113.47517904105851,48.83654482282117L-112.39236146342847,52.46550812768784zM-87.77584356233304,40.15810293338908L-89.26300226227652,42.47553802001876L-88.28090318559055,41.35905096137113zM-105.81603892766216,51.32934473381301L-109.38116629667518,50.651861552277545L-107.28205417624508,51.58262256741411z" style="fill:rgb(83,212,212)"/><path d="M54.04601253406765,-75.27369022037783L63.012667447689196,23.068823063866642L57.68945510287398,-66.83191666483275z" style="fill:rgb(247,158,158)"/><path d="M-104.40503046010073,51.08556839338284L-107.02176735382054,51.10021872087032L-105.81603892766216,51.32934473381301zM-88.28090318559055,41.35905096137113L-93.20453505442204,46.95639908616695L-89.97544083288501,45.38839397171875zM-91.19283462506384,44.66943296053849L-93.49047818416801,46.65253711778918L-92.17837500600608,45.78982552581237zM-98.81636178467757,49.68141685079195L-101.6334050814604,50.606725967398226L-100.21850493578496,50.36227727361939zM-92.17837500600608,45.78982552581237L-96.06563787086468,48.34570918050286L-93.20453505442204,46.95639908616695zM20.225353526341028,-66.06243074955613L59.07454865494128,14.590043028294424L54.04601253406765,-75.27369022037783zM-81.81512157141653,47.18280184952299L-85.76397401146968,35.374203190897205L-91.42855817606562,48.843674522686456zM-89.97544083288501,45.38839397171875L-100.21850493578496,50.36227727361939L-91.42855817606562,48.843674522686456zM-55.91708748948317,42.70849848647904L-87.73190254524123,29.489326887997983L-81.81512157141653,47.18280184952299z" style="fill:rgb(83,212,212)"/><path d="M122.4888503226083,-130.43925572895816L135.1429289445487,-20.744494689360465L138.4060460843436,-12.098428486607496z" style="fill:rgb(247,158,158)"/><path d="M-26.19803817251944,35.91963812848238L-56.56088967293407,-45.149226402428184L-61.66864544903366,44.79205143972734zM22.003256483942845,19.649389513386545L-24.0104620952151,-54.01453589520227L-26.09614102495018,31.730510309301387zM-72.32937529628482,-84.58879963090506L149.5072719633049,87.71087515334811L78.10914138239333,-38.29518732843085zM111.09217021987111,112.10146518642985L-115.9769252999719,-14.602072810294285L-119.46857686378122,16.30261847522624zM95.5811734795843,-32.91861724741815L78.10914138239333,-38.29518732843085L94.5871889739703,-9.283009397188684z" style="fill:rgb(83,212,212)"/><path d="M106.09390455267828,-24.68432830788347L106.7070161575893,-14.785792508562354L109.53327536329057,-16.155404202513783z" style="fill:rgb(162,50,222)"/><path d="M103.24512956632545,-23.30299894276749L104.14789612120967,-13.077790640296476L106.7070161575893,-14.785792508562354z" style="fill:rgb(183,62,221)"/><path d="M109.10472199429698,-25.67695715420695L109.53327536329057,-16.155404202513783L112.52177036433277,-17.135687275619752z" style="fill:rgb(139,40,220)"/><path d="M115.35553424519411,-26.833560231810335L95.5811734795843,-32.91861724741815L95.16818370271234,-23.098241022449276z" style="fill:rgb(83,212,212)"/><path d="M104.14789612120967,-13.077790640296476L98.44701922601148,-19.591800979758347L101.95131584839183,-11.094517739775451z" style="fill:rgb(203,77,216)"/><path d="M112.16590431801295,-26.24337531698725L112.52177036433277,-17.135687275619752L115.56162207126131,-17.689587666530468z" style="fill:rgb(115,34,214)"/><path d="M101.95131584839183,-11.094517739775451L96.6773075033768,-17.39899642538493L100.19994276967086,-8.909214500624373z" style="fill:rgb(220,94,208)"/><path d="M115.16342128051147,-26.361269334017454L115.56162207126131,-17.689587666530468L118.53956953065848,-17.79526710712668z" style="fill:rgb(92,32,204)"/><path d="M106.7070161575893,-14.785792508562354L106.09390455267828,-24.68432830788347L103.24512956632545,-23.30299894276749z" style="fill:rgb(162,50,222)"/><path d="M59.07454865494128,14.590043028294424L20.225353526341028,-66.06243074955613L22.09020416055948,23.8410939023019z" style="fill:rgb(83,212,212)"/><path d="M104.14789612120967,-13.077790640296476L103.24512956632545,-23.30299894276749L100.6641059996771,-21.58432407584475z" style="fill:rgb(183,62,221)"/><path d="M109.53327536329057,-16.155404202513783L109.10472199429698,-25.67695715420695L106.09390455267828,-24.68432830788347z" style="fill:rgb(139,40,220)"/><path d="M98.44701922601148,-19.591800979758347L104.14789612120967,-13.077790640296476L100.6641059996771,-21.58432407584475z" style="fill:rgb(203,77,216)"/><path d="M100.19994276967086,-8.909214500624373L95.42269444543676,-15.08716270317514L98.96082728919846,-6.602873805456247z" style="fill:rgb(233,112,197)"/><path d="M112.52177036433277,-17.135687275619752L112.16590431801295,-26.24337531698725L109.10472199429698,-25.67695715420695z" style="fill:rgb(115,34,214)"/><path d="M117.98482480930865,-26.024464769957234L118.53956953065848,-17.79526710712668L121.34388245825618,-17.44701407674949z" style="fill:rgb(71,33,192)"/><path d="M96.6773075033768,-17.39899642538493L101.95131584839183,-11.094517739775451L98.44701922601148,-19.591800979758347z" style="fill:rgb(220,94,208)"/><path d="M115.56162207126131,-17.689587666530468L115.16342128051147,-26.361269334017454L112.16590431801295,-26.24337531698725z" style="fill:rgb(92,32,204)"/><path d="M102.34928146228603,-24.426979502784377L95.16818370271234,-23.098241022449276L94.83236905203259,-15.112985505493599zM107.5463705062289,-25.38860914486099L102.34928146228603,-24.426979502784377L100.28299119620586,-21.866694166950406z" style="fill:rgb(83,212,212)"/><path d="M98.96082728919846,-6.602873805456247L94.7326808294954,-12.742574291273256L98.28285873857371,-4.261572673893229z" style="fill:rgb(242,130,183)"/><path d="M123.86817586038326,-16.655708286847045L117.98482480930865,-26.024464769957234L121.34388245825618,-17.44701407674949z" style="fill:rgb(51,38,177)"/><path d="M103.24512956632545,-23.30299894276749L100.28299119620586,-21.866694166950406L99.34758861798018,-20.707669086068375z" style="fill:rgb(83,212,212)"/><path d="M95.42269444543676,-15.08716270317514L100.19994276967086,-8.909214500624373L96.6773075033768,-17.39899642538493z" style="fill:rgb(233,112,197)"/><path d="M109.10472199429698,-25.67695715420695L107.5463705062289,-25.38860914486099L106.09390455267828,-24.68432830788347z" style="fill:rgb(83,212,212)"/><path d="M63.012667447689196,23.068823063866642L54.04601253406765,-75.27369022037783L59.07454865494128,14.590043028294424z" style="fill:rgb(247,158,158)"/><path d="M100.6641059996771,-21.58432407584475L99.34758861798018,-20.707669086068375L98.44701922601148,-19.591800979758347z" style="fill:rgb(83,212,212)"/><path d="M118.53956953065848,-17.79526710712668L117.98482480930865,-26.024464769957234L115.16342128051147,-26.361269334017454z" style="fill:rgb(71,33,192)"/><path d="M98.28285873857371,-4.261572673893229L94.63642002142704,-10.45359006443852L98.19469534540958,-1.9735491697328322z" style="fill:rgb(246,149,167)"/><path d="M126.01529588447669,-15.448772461683609L120.52308636185552,-25.243380563504335L123.86817586038326,-16.655708286847045z" style="fill:rgb(34,46,160)"/><path d="M94.7326808294954,-12.742574291273256L98.96082728919846,-6.602873805456247L95.42269444543676,-15.08716270317514z" style="fill:rgb(242,130,183)"/><path d="M115.16342128051147,-26.361269334017454L113.72869122946713,-26.532541009126277L112.16590431801295,-26.24337531698725z" style="fill:rgb(83,212,212)"/><path d="M-56.87760467663598,52.781391052123936L-26.19803817251944,35.91963812848238L-61.66864544903366,44.79205143972734zM-26.19803817251944,35.91963812848238L-56.87760467663598,52.781391052123936L-21.651518670933175,44.051263488764256z" style="fill:rgb(127,37,217)"/><path d="M117.98482480930865,-26.024464769957234L115.35553424519411,-26.833560231810335L113.72869122946713,-26.532541009126277z" style="fill:rgb(83,212,212)"/><path d="M117.98482480930865,-26.024464769957234L123.86817586038326,-16.655708286847045L120.52308636185552,-25.243380563504335z" style="fill:rgb(51,38,177)"/><path d="M94.63642002142704,-10.45359006443852L98.70329631489099,0.17391941804310562L98.19469534540958,-1.9735491697328322z" style="fill:rgb(246,167,149)"/><path d="M96.6773075033768,-17.39899642538493L94.83236905203259,-15.112985505493599L94.7815980455985,-13.905836685088207z" style="fill:rgb(83,212,212)"/><path d="M94.63642002142704,-10.45359006443852L98.28285873857371,-4.261572673893229L94.7326808294954,-12.742574291273256z" style="fill:rgb(246,149,167)"/><path d="M127.70107998573152,-13.869555727235461L122.6805037650998,-24.04502268573026L126.01529588447669,-15.448772461683609z" style="fill:rgb(21,57,142)"/><path d="M-21.567983532309178,39.86450608384718L-26.19803817251944,35.91963812848238L-21.651518670933175,44.051263488764256z" style="fill:rgb(247,158,158)"/><path d="M95.42269444543676,-15.08716270317514L94.7815980455985,-13.905836685088207L94.7326808294954,-12.742574291273256zM-85.87317611512736,141.3423706939957L-55.91708748948317,42.70849848647904L-112.39236146342847,52.46550812768784z" style="fill:rgb(83,212,212)"/><path d="M120.52308636185552,-25.243380563504335L126.01529588447669,-15.448772461683609L122.6805037650998,-24.04502268573026z" style="fill:rgb(34,46,160)"/><path d="M-26.19803817251944,35.91963812848238L-21.567983532309178,39.86450608384718L-26.09614102495018,31.730510309301387z" style="fill:rgb(247,158,158)"/><path d="M128.85781873385812,-11.97613552713253L124.37248584583763,-22.472376899659146L127.70107998573152,-13.869555727235461z" style="fill:rgb(12,71,124)"/><path d="M98.70329631489099,0.17391941804310562L94.63642002142704,-10.45359006443852L95.14123180378337,-8.307532542376743z" style="fill:rgb(246,167,149)"/><path d="M-85.87317611512736,141.3423706939957L-120.488660333524,25.331405220448588L-130.9663829009454,118.06998602068794z" style="fill:rgb(83,212,212)"/><path d="M122.6805037650998,-24.04502268573026L127.70107998573152,-13.869555727235461L124.37248584583763,-22.472376899659146z" style="fill:rgb(21,57,142)"/><path d="M122.6805037650998,-24.04502268573026L121.82087104626328,-24.84402037303681L120.52308636185552,-25.243380563504335z" style="fill:rgb(83,212,212)"/><path d="M-21.567983532309178,39.86450608384718L22.003256483942845,19.649389513386545L-26.09614102495018,31.730510309301387z" style="fill:rgb(127,37,217)"/><path d="M95.14123180378337,-8.307532542376743L94.63642002142704,-10.45359006443852L94.5871889739703,-9.283009397188684zM124.37248584583763,-22.472376899659146L123.17325431204412,-24.427859202313183L121.82087104626328,-24.84402037303681z" style="fill:rgb(83,212,212)"/><path d="M22.003256483942845,19.649389513386545L-21.567983532309178,39.86450608384718L26.193106760614747,27.97837456876199z" style="fill:rgb(127,37,217)"/><path d="M124.37248584583763,-22.472376899659146L128.85781873385812,-11.97613552713253L125.53103353329229,-20.583237560953453z" style="fill:rgb(12,71,124)"/><path d="M97.87007105504358,-4.7688019098530186L96.23178510009028,-6.3874407604885945L96.78967459148662,-5.405192161730956zM99.99624696967734,-3.5164076006372733L96.78967459148662,-5.405192161730956L97.37124663322456,-4.381245216730218zM126.7415367193174,-18.609374903469103L125.53103353329229,-20.583237560953453L126.40280606222359,-17.35635303548223z" style="fill:rgb(83,212,212)"/><path d="M135.1429289445487,-20.744494689360465L140.1939398908784,1.1941653240976717L138.4060460843436,-12.098428486607496z" style="fill:rgb(247,158,158)"/><path d="M126.40280606222359,-17.35635303548223L126.10778846765209,-18.448379308606036L126.07645139937208,-16.149135815618973zM105.17659742419698,-1.8096835222077752L97.37124663322456,-4.381245216730218L99.41408652966228,-0.7845010324787259zM133.9094027394647,-6.921405467185459L135.1429289445487,-20.744494689360465L123.17325431204412,-24.427859202313183zM125.43447581813416,-13.77439005487557L124.20370093504158,-11.417091323071709L125.1062695226475,-12.560322892042883zM106.82990808826526,-2.103816906379211L102.53048979743119,-2.6814731552271542L105.17659742419698,-1.8096835222077752zM108.42127859523124,-2.386929415147231L105.37571608868312,-2.2991976105559933L106.82990808826526,-2.103816906379211zM125.1062695226475,-12.560322892042883L120.58077577818837,-6.82816521918564L124.00486371712533,-8.486092846320973zM122.42997910695495,-9.170432778156622L120.18165317798224,-7.1238687814381025L121.52407027317786,-8.02298593740535zM114.63015614411522,-3.9469062811114304L111.54738097992144,-2.943080984096385L113.14337834740115,-3.227016585371298zM121.52407027317786,-8.02298593740535L117.54692279553564,-5.359192959562638L120.58077577818837,-6.82816521918564z" style="fill:rgb(83,212,212)"/><path d="M26.29576404528953,32.168423433485856L59.07454865494128,14.590043028294424L22.09020416055948,23.8410939023019z" style="fill:rgb(127,37,217)"/><path d="M140.1939398908784,1.1941653240976717L135.1429289445487,-20.744494689360465L136.9031831386634,-7.454017375184245z" style="fill:rgb(247,158,158)"/><path d="M59.07454865494128,14.590043028294424L26.29576404528953,32.168423433485856L63.012667447689196,23.068823063866642z" style="fill:rgb(127,37,217)"/><path d="M133.9094027394647,-6.921405467185459L126.7415367193174,-18.609374903469103L123.06008704472221,-4.991253831587134zM124.00486371712533,-8.486092846320973L113.14337834740115,-3.227016585371298L123.06008704472221,-4.991253831587134zM135.1429289445487,-20.744494689360465L133.9094027394647,-6.921405467185459L136.9031831386634,-7.454017375184245zM-126.38000764042206,151.75844421350325L-130.9663829009454,118.06998602068794L-132.19327159957842,128.9292050444001zM-130.9663829009454,118.06998602068794L-126.38000764042206,151.75844421350325L-120.41212037419649,123.51699421020231zM-115.9769252999719,-14.602072810294285L111.09217021987111,112.10146518642985L86.0179021602682,63.243186297101865zM-26.09614102495018,31.730510309301387L23.30801803047564,82.55129688929196L22.003256483942845,19.649389513386545z" style="fill:rgb(83,212,212)"/><path d="M23.30801803047564,82.55129688929196L26.193106760614747,27.97837456876199L22.003256483942845,19.649389513386545z" style="fill:rgb(247,158,158)"/><path d="M-112.35146468449625,134.21483601960207L-109.8716229123682,143.20055099406864L-106.94152195787319,141.7849629319751z" style="fill:rgb(162,50,222)"/><path d="M-115.30575642205808,135.6429592265249L-112.62254641843211,145.04162217590593L-109.8716229123682,143.20055099406864z" style="fill:rgb(183,62,221)"/><path d="M-109.32846399618536,133.26534378415212L-106.94152195787319,141.7849629319751L-103.94085842234803,140.84747035062233z" style="fill:rgb(139,40,220)"/><path d="M-103.24404736096204,132.37735115898926L-120.41212037419649,123.51699421020231L-122.89036272977549,135.24462985485815z" style="fill:rgb(83,212,212)"/><path d="M-112.62254641843211,145.04162217590593L-120.57668954637248,139.7076472537441L-115.09199753245741,147.24035461131223z" style="fill:rgb(203,77,216)"/><path d="M-106.34890906217345,132.83049102094265L-103.94085842234803,140.84747035062233L-100.98094481304881,140.4236392558797z" style="fill:rgb(115,34,214)"/><path d="M-115.09199753245741,147.24035461131223L-122.6966379901524,142.19456629319555L-117.18743097368736,149.71579494787366z" style="fill:rgb(220,94,208)"/><path d="M-103.52385655826531,132.92796972126726L-100.98094481304881,140.4236392558797L-98.17215829800656,140.53074003684884z" style="fill:rgb(92,32,204)"/><path d="M-109.8716229123682,143.20055099406864L-112.35146468449625,134.21483601960207L-115.30575642205808,135.6429592265249z" style="fill:rgb(162,50,222)"/><path d="M-112.62254641843211,145.04162217590593L-115.30575642205808,135.6429592265249L-118.08189825738529,137.49665138826717z" style="fill:rgb(183,62,221)"/><path d="M-106.94152195787319,141.7849629319751L-109.32846399618536,133.26534378415212L-112.35146468449625,134.21483601960207z" style="fill:rgb(139,40,220)"/><path d="M-120.57668954637248,139.7076472537441L-112.62254641843211,145.04162217590593L-118.08189825738529,137.49665138826717z" style="fill:rgb(203,77,216)"/><path d="M-117.18743097368736,149.71579494787366L-124.36121267161994,144.86560284661766L-118.82922646044135,152.3765375111557z" style="fill:rgb(233,112,197)"/><path d="M-103.94085842234803,140.84747035062233L-106.34890906217345,132.83049102094265L-109.32846399618536,133.26534378415212z" style="fill:rgb(115,34,214)"/><path d="M-100.95959758616729,133.5563430797959L-98.17215829800656,140.53074003684884L-95.62016828031027,141.16695100232414z" style="fill:rgb(71,33,192)"/><path d="M-110.84518637741205,133.48668947493587L-122.89036272977549,135.24462985485815L-123.84704268002456,139.77184671890157z" style="fill:rgb(83,212,212)"/><path d="M-122.6966379901524,142.19456629319555L-115.09199753245741,147.24035461131223L-120.57668954637248,139.7076472537441z" style="fill:rgb(220,94,208)"/><path d="M-100.98094481304881,140.4236392558797L-103.52385655826531,132.92796972126726L-106.34890906217345,132.83049102094265z" style="fill:rgb(92,32,204)"/><path d="M-118.82922646044135,152.3765375111557L-125.50578264733036,147.6214114076513L-119.95359702600408,155.1236010219266z" style="fill:rgb(242,130,183)"/><path d="M-93.42223751552949,142.31103297708842L-100.95959758616729,133.5563430797959L-95.62016828031027,141.16695100232414z" style="fill:rgb(51,38,177)"/><path d="M-115.30575642205808,135.6429592265249L-118.37761459468257,137.1278940473485L-119.49797433466024,138.44221280925703z" style="fill:rgb(83,212,212)"/><path d="M-124.36121267161994,144.86560284661766L-117.18743097368736,149.71579494787366L-122.6966379901524,142.19456629319555z" style="fill:rgb(233,112,197)"/><path d="M-109.32846399618536,133.26534378415212L-110.84518637741205,133.48668947493587L-112.35146468449625,134.21483601960207zM-118.08189825738529,137.49665138826717L-119.49797433466024,138.44221280925703L-120.57668954637248,139.7076472537441z" style="fill:rgb(83,212,212)"/><path d="M-98.17215829800656,140.53074003684884L-100.95959758616729,133.5563430797959L-103.52385655826531,132.92796972126726z" style="fill:rgb(71,33,192)"/><path d="M-118.37761459468257,137.1278940473485L-123.84704268002456,139.77184671890157L-124.90692848236331,144.78747653066873z" style="fill:rgb(83,212,212)"/><path d="M-119.95359702600408,155.1236010219266L-126.08416889054658,150.3585035407565L-120.5151716887079,157.8538155342074z" style="fill:rgb(246,149,167)"/><path d="M-91.6636110936993,143.92276511577447L-98.75386349288053,134.69470298788585L-93.42223751552949,142.31103297708842z" style="fill:rgb(34,46,160)"/><path d="M-125.50578264733036,147.6214114076513L-118.82922646044135,152.3765375111557L-124.36121267161994,144.86560284661766z" style="fill:rgb(242,130,183)"/><path d="M-103.52385655826531,132.92796972126726L-104.82768198592211,132.60847531456602L-106.34890906217345,132.83049102094265zM-55.91708748948317,42.70849848647904L-85.87317611512736,141.3423706939957L-56.75258973272737,156.37136430661207zM-100.95959758616729,133.5563430797959L-103.24404736096204,132.37735115898926L-104.82768198592211,132.60847531456602zM-122.6966379901524,142.19456629319555L-123.7794096310727,143.4647741208337L-124.36121267161994,144.86560284661766z" style="fill:rgb(83,212,212)"/><path d="M-100.95959758616729,133.5563430797959L-93.42223751552949,142.31103297708842L-98.75386349288053,134.69470298788585z" style="fill:rgb(51,38,177)"/><path d="M-126.08416889054658,150.3585035407565L-120.48904517322636,160.46337129823635L-120.5151716887079,157.8538155342074z" style="fill:rgb(246,167,149)"/><path d="M-126.08416889054658,150.3585035407565L-119.95359702600408,155.1236010219266L-125.50578264733036,147.6214114076513z" style="fill:rgb(246,149,167)"/><path d="M-123.7794096310727,143.4647741208337L-124.90692848236331,144.78747653066873L-125.50578264733036,147.6214114076513z" style="fill:rgb(83,212,212)"/><path d="M-98.75386349288053,134.69470298788585L-91.6636110936993,143.92276511577447L-96.99222794408759,136.30308952248032z" style="fill:rgb(34,46,160)"/><path d="M-126.07077751495025,152.97280571630495L-119.87217199755727,162.8516346791774L-120.48904517322636,160.46337129823635z" style="fill:rgb(242,183,130)"/><path d="M-120.48904517322636,160.46337129823635L-126.08416889054658,150.3585035407565L-126.07077751495025,152.97280571630495z" style="fill:rgb(246,167,149)"/><path d="M23.30801803047564,82.55129688929196L-26.09614102495018,31.730510309301387L-27.624238741399356,94.5526481915561zM-96.99222794408759,136.30308952248032L-97.62594980388377,135.27681432425683L-98.75386349288053,134.69470298788585z" style="fill:rgb(83,212,212)"/><path d="M-125.46201337154974,155.3634850017205L-118.68414337844958,164.9250583615606L-119.87217199755727,162.8516346791774z" style="fill:rgb(233,197,112)"/><path d="M-119.87217199755727,162.8516346791774L-126.07077751495025,152.97280571630495L-125.46201337154974,155.3634850017205z" style="fill:rgb(242,183,130)"/><path d="M-126.07077751495025,152.97280571630495L-126.08416889054658,150.3585035407565L-126.38000764042206,151.75844421350325zM-95.7447141223279,138.32337414821887L-96.45047927314893,135.88347841256015L-97.62594980388377,135.27681432425683z" style="fill:rgb(83,212,212)"/><path d="M26.193106760614747,27.97837456876199L23.30801803047564,82.55129688929196L27.73291654596097,90.8270877742589z" style="fill:rgb(247,158,158)"/><path d="M-118.68414337844958,164.9250583615606L-125.46201337154974,155.3634850017205L-124.27710005213093,157.4368693844529z" style="fill:rgb(233,197,112)"/><path d="M136.9031831386634,-7.454017375184245L152.9325995498058,95.90327618691818L140.1939398908784,1.1941653240976717z" style="fill:rgb(247,158,158)"/><path d="M-121.54493877778384,170.746157662794L-132.19327159957842,128.9292050444001L-137.31304633622216,174.2444670203994zM-124.27710005213093,157.4368693844529L-125.46201337154974,155.3634850017205L-125.15054264962791,156.58666219707501zM136.9031831386634,-7.454017375184245L99.41408652966228,-0.7845010324787259L149.4557196074686,87.32163842938614zM-122.55793835087348,159.11028685546455L-125.15054264962791,156.58666219707501L-124.82582169625708,157.86188144410653zM-94.35005295561216,143.14480759538282L-95.0627511072897,140.68096596759835L-94.93266992579272,144.62063612774782zM-94.93266992579272,144.62063612774782L-94.97669195139545,143.28725368611128L-95.49403755176921,146.04262356180604zM-118.08115367758718,161.57463017782953L-124.82582169625708,157.86188144410653L-123.68490054804049,162.34236691059652zM-90.12684161503135,157.7447631521731L-85.87317611512736,141.3423706939957L-96.45047927314893,135.88347841256015z" style="fill:rgb(83,212,212)"/><path d="M-121.54493877778384,170.746157662794L-131.55936133898166,181.65511945387266L-115.90351604276432,178.21645658829723z" style="fill:rgb(127,37,217)"/><path d="M-96.59845048986145,148.8401977476122L-98.24988127890724,151.57014703934465L-97.16314508937734,150.27061267304015zM-116.47323298303361,161.35433795879004L-120.36807729752603,160.31574502926998L-118.08115367758718,161.57463017782953zM-114.92549541565845,161.14228885443734L-117.79068401432696,161.00303346166146L-116.47323298303361,161.35433795879004z" style="fill:rgb(83,212,212)"/><path d="M-131.55936133898166,181.65511945387266L-121.54493877778384,170.746157662794L-137.31304633622216,174.2444670203994zM-22.820164676135285,102.62346910908758L23.30801803047564,82.55129688929196L-27.624238741399356,94.5526481915561z" style="fill:rgb(127,37,217)"/><path d="M-97.16314508937734,150.27061267304015L-102.61265629124804,156.7871410561207L-99.05851847345669,155.0717667820547zM-100.38570071196001,154.1241549085918L-102.92295771365075,156.40018970165593L-101.47662784399816,155.42868005251376zM-55.91708748948317,42.70849848647904L-56.75258973272737,156.37136430661207L111.09217021987111,112.10146518642985zM-108.78922027093773,159.76820491009227L-111.88487320777489,160.7257100331587L-110.33243583743128,160.51301703045533zM-101.47662784399816,155.42868005251376L-105.76170613718254,158.30700266536607L-102.61265629124804,156.7871410561207z" style="fill:rgb(83,212,212)"/><path d="M23.30801803047564,82.55129688929196L-22.820164676135285,102.62346910908758L27.73291654596097,90.8270877742589z" style="fill:rgb(127,37,217)"/><path d="M-90.12684161503135,157.7447631521731L-94.35005295561216,143.14480759538282L-100.68478413524825,159.191252372487zM-99.05851847345669,155.0717667820547L-110.33243583743128,160.51301703045533L-100.68478413524825,159.191252372487zM-121.54493877778384,170.746157662794L-81.3382822937742,156.54069573815565L-123.68490054804049,162.34236691059652zM-85.87317611512736,141.3423706939957L-90.12684161503135,157.7447631521731L-81.3382822937742,156.54069573815565z" style="fill:rgb(83,212,212)"/><path d="M-115.90351604276432,178.21645658829723L-79.85918235344104,161.49777950188493L-121.54493877778384,170.746157662794zM-79.85918235344104,161.49777950188493L-115.90351604276432,178.21645658829723L-74.51974158295154,169.12690579600124z" style="fill:rgb(127,37,217)"/><path d="M78.10914138239333,-38.29518732843085L149.5072719633049,87.71087515334811L149.4557196074686,87.32163842938614zM-61.65079887317648,153.84341575349163L-85.87317611512736,141.3423706939957L-81.3382822937742,156.54069573815565zM-81.3382822937742,156.54069573815565L-121.54493877778384,170.746157662794L-79.85918235344104,161.49777950188493z" style="fill:rgb(83,212,212)"/><path d="M-56.75258973272737,156.37136430661207L-74.51974158295154,169.12690579600124L-51.58378700115028,164.08924267269558z" style="fill:rgb(127,37,217)"/><path d="M-79.85918235344104,161.49777950188493L-61.65079887317648,153.84341575349163L-81.3382822937742,156.54069573815565z" style="fill:rgb(83,212,212)"/><path d="M-74.51974158295154,169.12690579600124L-56.75258973272737,156.37136430661207L-79.85918235344104,161.49777950188493z" style="fill:rgb(127,37,217)"/><path d="M-61.65079887317648,153.84341575349163L-79.85918235344104,161.49777950188493L-56.75258973272737,156.37136430661207z" style="fill:rgb(83,212,212)"/><path d="M152.9325995498058,95.90327618691818L136.9031831386634,-7.454017375184245L149.4557196074686,87.32163842938614z" style="fill:rgb(247,158,158)"/><path d="M105.40605462985259,70.71503739651425L86.0179021602682,63.243186297101865L104.54490763018052,99.34384810292478z" style="fill:rgb(83,212,212)"/><path d="M117.15480078612148,81.2845536120769L117.73268960416573,91.26149472180543L120.85195915099679,89.75955610343652z" style="fill:rgb(162,50,222)"/><path d="M114.00808190344017,82.80060664739725L114.91343725451387,93.18834999320266L117.73268960416573,91.26149472180543z" style="fill:rgb(183,62,221)"/><path d="M120.4860455931528,80.249234982351L120.85195915099679,89.75955610343652L124.15589067558959,88.73820436237538z" style="fill:rgb(139,40,220)"/><path d="M127.41447163943542,79.19669774543078L105.40605462985259,70.71503739651425L105.0487280437168,82.59440153553679z" style="fill:rgb(83,212,212)"/><path d="M114.91343725451387,93.18834999320266L108.72292567372658,87.03504275675186L112.49896957028922,95.46925348355259z" style="fill:rgb(203,77,216)"/><path d="M123.87872533183567,79.73383457370073L124.15589067558959,88.73820436237538L127.52236220441804,88.23611072680674z" style="fill:rgb(115,34,214)"/><path d="M112.49896957028922,95.46925348355259L106.78181841643038,89.59784655876742L110.57997148342697,98.02042063527452z" style="fill:rgb(220,94,208)"/><path d="M127.2069016996168,79.75911364064653L127.52236220441804,88.23611072680674L130.82637396508989,88.27353136224028z" style="fill:rgb(92,32,204)"/><path d="M117.73268960416573,91.26149472180543L117.15480078612148,81.2845536120769L114.00808190344017,82.80060664739725z" style="fill:rgb(162,50,222)"/><path d="M114.91343725451387,93.18834999320266L114.00808190344017,82.80060664739725L111.1622189344605,84.74121999058511z" style="fill:rgb(183,62,221)"/><path d="M120.85195915099679,89.75955610343652L120.4860455931528,80.249234982351L117.15480078612148,81.2845536120769z" style="fill:rgb(139,40,220)"/><path d="M108.72292567372658,87.03504275675186L114.91343725451387,93.18834999320266L111.1622189344605,84.74121999058511z" style="fill:rgb(203,77,216)"/><path d="M110.57997148342697,98.02042063527452L105.41317652651017,92.33517652697594L109.22991419727616,100.7478031184525z" style="fill:rgb(233,112,197)"/><path d="M124.15589067558959,88.73820436237538L123.87872533183567,79.73383457370073L120.4860455931528,80.249234982351z" style="fill:rgb(115,34,214)"/><path d="M130.34606494046471,80.32648071394762L130.82637396508989,88.27353136224028L133.94429730102092,88.85139518232828z" style="fill:rgb(71,33,192)"/><path d="M106.78181841643038,89.59784655876742L112.49896957028922,95.46925348355259L108.72292567372658,87.03504275675186z" style="fill:rgb(220,94,208)"/><path d="M-51.58378700115028,164.08924267269558L114.33209441415912,118.41459924625175L-56.75258973272737,156.37136430661207z" style="fill:rgb(127,37,217)"/><path d="M127.52236220441804,88.23611072680674L127.2069016996168,79.75911364064653L123.87872533183567,79.73383457370073z" style="fill:rgb(92,32,204)"/><path d="M113.0014100984477,81.38626455341843L105.0487280437168,82.59440153553679L104.75768238222122,92.27026634646128zM118.75919412932016,80.51157176015231L113.0014100984477,81.38626455341843L110.73620015014964,84.37697496820799z" style="fill:rgb(83,212,212)"/><path d="M109.22991419727616,100.7478031184525L104.6711975111776,95.14536652604048L108.50225870010725,103.55008337163429z" style="fill:rgb(242,130,183)"/><path d="M136.75804734049103,89.95093548331579L130.34606494046471,80.32648071394762L133.94429730102092,88.85139518232828z" style="fill:rgb(51,38,177)"/><path d="M114.00808190344017,82.80060664739725L110.73620015014964,84.37697496820799L109.71052915617356,85.73113237293612z" style="fill:rgb(83,212,212)"/><path d="M105.41317652651017,92.33517652697594L110.57997148342697,98.02042063527452L106.78181841643038,89.59784655876742z" style="fill:rgb(233,112,197)"/><path d="M120.4860455931528,80.249234982351L118.75919412932016,80.51157176015231L117.15480078612148,81.2845536120769zM111.1622189344605,84.74121999058511L109.71052915617356,85.73113237293612L108.72292567372658,87.03504275675186z" style="fill:rgb(83,212,212)"/><path d="M130.82637396508989,88.27353136224028L130.34606494046471,80.32648071394762L127.2069016996168,79.75911364064653z" style="fill:rgb(71,33,192)"/><path d="M108.50225870010725,103.55008337163429L104.58765038044444,97.92293818960808L108.42817949868507,106.32207131239302z" style="fill:rgb(246,149,167)"/><path d="M139.1593653250009,91.533882030724L133.17733243166572,81.41760304702726L136.75804734049103,89.95093548331579z" style="fill:rgb(34,46,160)"/><path d="M104.6711975111776,95.14536652604048L109.22991419727616,100.7478031184525L105.41317652651017,92.33517652697594z" style="fill:rgb(242,130,183)"/><path d="M127.2069016996168,79.75911364064653L125.61100401856068,79.47067205304897L123.87872533183567,79.73383457370073zM130.34606494046471,80.32648071394762L127.41447163943542,79.19669774543078L125.61100401856068,79.47067205304897z" style="fill:rgb(83,212,212)"/><path d="M130.34606494046471,80.32648071394762L136.75804734049103,89.95093548331579L133.17733243166572,81.41760304702726z" style="fill:rgb(51,38,177)"/><path d="M104.58765038044444,97.92293818960808L109.01490459116916,108.95833943783138L108.42817949868507,106.32207131239302z" style="fill:rgb(246,167,149)"/><path d="M106.78181841643038,89.59784655876742L104.75768238222122,92.27026634646128L104.71363973276405,93.73427096216284z" style="fill:rgb(83,212,212)"/><path d="M104.58765038044444,97.92293818960808L108.50225870010725,103.55008337163429L104.6711975111776,95.14536652604048z" style="fill:rgb(246,149,167)"/><path d="M141.053998325429,93.54336961831925L135.5917586595834,82.99457741035228L139.1593653250009,91.533882030724z" style="fill:rgb(21,57,142)"/><path d="M105.41317652651017,92.33517652697594L104.71363973276405,93.73427096216284L104.6711975111776,95.14536652604048z" style="fill:rgb(83,212,212)"/><path d="M133.17733243166572,81.41760304702726L139.1593653250009,91.533882030724L135.5917586595834,82.99457741035228z" style="fill:rgb(34,46,160)"/><path d="M142.36558611009542,95.90549875115998L137.49454312208962,85.00081872933515L141.053998325429,93.54336961831925z" style="fill:rgb(12,71,124)"/><path d="M109.01490459116916,108.95833943783138L104.58765038044444,97.92293818960808L105.17019505530477,100.5622461369295z" style="fill:rgb(246,167,149)"/><path d="M135.5917586595834,82.99457741035228L141.053998325429,93.54336961831925L137.49454312208962,85.00081872933515z" style="fill:rgb(21,57,142)"/><path d="M135.5917586595834,82.99457741035228L134.62537268024644,81.97565233739924L133.17733243166572,81.41760304702726zM105.17019505530477,100.5622461369295L104.58765038044444,97.92293818960808L104.54490763018052,99.34384810292478zM137.49454312208962,85.00081872933515L136.13465370758493,82.55730073122221L134.62537268024644,81.97565233739924z" style="fill:rgb(83,212,212)"/><path d="M114.33209441415912,118.41459924625175L-51.58378700115028,164.08924267269558L118.16542485677695,126.80543507502034z" style="fill:rgb(127,37,217)"/><path d="M137.49454312208962,85.00081872933515L142.36558611009542,95.90549875115998L138.80894429764635,87.36260243336285z" style="fill:rgb(12,71,124)"/><path d="M152.9325995498058,95.90327618691818L149.5072719633049,87.71087515334811L152.9848766190841,96.29194460787713z" style="fill:rgb(247,158,158)"/><path d="M111.09217021987111,112.10146518642985L-56.75258973272737,156.37136430661207L114.33209441415912,118.41459924625175zM108.23882136637883,105.02606954540008L106.40143139674605,102.96136277285927L107.03151972666099,104.18911556868878z" style="fill:rgb(83,212,212)"/><path d="M149.5072719633049,87.71087515334811L152.9325995498058,95.90327618691818L149.4557196074686,87.32163842938614z" style="fill:rgb(247,158,158)"/><path d="M110.61555909930428,106.67374309707435L107.03151972666099,104.18911556868878L107.68852291115206,105.46930932094519zM140.18297313988967,89.83152687289012L138.80894429764635,87.36260243336285L139.82302274086064,91.33653533870282zM139.82302274086064,91.33653533870282L139.47976700091607,89.99137952826428L139.47615252744345,92.78682549372662zM116.39568104911235,109.05216231773674L107.68852291115206,105.46930932094519L109.99766412789862,109.9687757524052zM148.33340845806075,104.47659007153231L149.5072719633049,87.71087515334811L136.13465370758493,82.55730073122221z" style="fill:rgb(83,212,212)"/><path d="M151.664593293789,103.99934593932L152.9848766190841,96.29194460787713L149.5072719633049,87.71087515334811z" style="fill:rgb(247,158,158)"/><path d="M138.79361696364327,95.64059184595621L137.45487373622385,98.44055851647717L138.4445700585702,97.09999858675407zM118.23176958579593,108.78911283135126L113.44259497679631,107.83701821939876L116.39568104911235,109.05216231773674z" style="fill:rgb(83,212,212)"/><path d="M152.9848766190841,96.29194460787713L151.664593293789,103.99934593932L155.17223443284243,112.55447186432986z" style="fill:rgb(247,158,158)"/><path d="M119.9992605892815,108.53589306060117L116.61163590444573,108.46702737295506L118.23176958579593,108.78911283135126zM138.4445700585702,97.09999858675407L133.48089630339936,103.82336498326468L137.27270336923823,101.999710416166z" style="fill:rgb(83,212,212)"/><path d="M122.12503223223403,116.68566013532427L118.16542485677695,126.80543507502034L125.8945102360827,125.1078129590672z" style="fill:rgb(127,37,217)"/><path d="M135.5095458269383,101.0755312745795L133.03256941464605,103.44005839392673L134.51579807465598,102.42156417126027zM126.89141395301931,106.99254653803055L123.47187200469322,108.03838538859212L125.24505150614613,107.78435748006171zM134.51579807465598,102.42156417126027L130.1212984412487,105.43914177291119L133.48089630339936,103.82336498326468zM111.09217021987111,112.10146518642985L151.664593293789,103.99934593932L109.99766412789862,109.9687757524052zM148.33340845806075,104.47659007153231L140.18297313988967,89.83152687289012L136.26684663309928,106.2053094268838zM137.27270336923823,101.999710416166L125.24505150614613,107.78435748006171L136.26684663309928,106.2053094268838z" style="fill:rgb(83,212,212)"/><path d="M118.16542485677695,126.80543507502034L122.12503223223403,116.68566013532427L114.33209441415912,118.41459924625175z" style="fill:rgb(127,37,217)"/><path d="M122.12503223223403,116.68566013532427L111.09217021987111,112.10146518642985L114.33209441415912,118.41459924625175zM149.5072719633049,87.71087515334811L148.33340845806075,104.47659007153231L151.664593293789,103.99934593932z" style="fill:rgb(83,212,212)"/><path d="M151.664593293789,103.99934593932L155.9721360112085,118.50154909873748L155.17223443284243,112.55447186432986z" style="fill:rgb(247,158,158)"/><path d="M151.664593293789,103.99934593932L111.09217021987111,112.10146518642985L122.12503223223403,116.68566013532427z" style="fill:rgb(83,212,212)"/><path d="M152.45365061089242,109.9569664737615L125.8945102360827,125.1078129590672L155.9721360112085,118.50154909873748zM125.8945102360827,125.1078129590672L152.45365061089242,109.9569664737615L122.12503223223403,116.68566013532427z" style="fill:rgb(127,37,217)"/><path d="M155.9721360112085,118.50154909873748L151.664593293789,103.99934593932L152.45365061089242,109.9569664737615z" style="fill:rgb(247,158,158)"/><path d="M151.664593293789,103.99934593932L122.12503223223403,116.68566013532427L152.45365061089242,109.9569664737615z" style="fill:rgb(83,212,212)"/></svg>
