<?xml version="1.0" encoding="UTF-8"?>
<!-- Generated by jsxcad -->
<!DOCTYPE svg PUBLIC "-//W3C//DTD SVG 1.1 Tiny//EN" "http://www.w3.org/Graphics/SVG/1.1/DTD/svg11-tiny.dtd">
<svg viewBox="-250 -250 500 500" width="500" height="500" xmlns="http://www.w3.org/2000/svg"><path d="M86.44156239687094,-118.20850814148108L-44.74804990101221,-81.3954266183872L93.82349327438543,-39.39405103218883z" style="fill:rgb(83,212,212)"/><path d="M93.82349327438543,-39.39405103218883L88.64638919390487,-112.52135127170462L86.44156239687094,-118.20850814148108z" style="fill:rgb(247,158,158)"/><path d="M-70.45310209948676,-74.18233665891954L100.09179754759897,27.530574470823716L-44.74804990101221,-81.3954266183872zM-70.98369365927134,4.345162653575988L-74.88056151377545,-13.417616397331955L-75.30901695608759,-7.537280220450185zM-74.88056151377545,-13.417616397331955L-70.98369365927134,4.345162653575988L-68.09435044656941,-10.891491810738895z" style="fill:rgb(83,212,212)"/><path d="M-62.76988314471392,-5.492275832694427L-61.51306163387311,0.7016793595824076L-59.72486677135749,-0.16818384825397287z" style="fill:rgb(162,50,222)"/><path d="M-64.56706017947774,-4.617699548453555L-63.17833317934421,1.7908714122880713L-61.51306163387311,0.7016793595824076z" style="fill:rgb(183,62,221)"/><path d="M-60.91757595543845,-6.1149781831904L-59.72486677135749,-0.16818384825397287L-57.88098701549625,-0.785973346625476z" style="fill:rgb(139,40,220)"/><path d="M-57.166262742486985,-6.823581387901712L-68.09435044656941,-10.891491810738895L-69.30039996626262,-4.531508264460696z" style="fill:rgb(83,212,212)"/><path d="M-63.17833317934421,1.7908714122880713L-67.73026369267133,-2.2526734720618196L-64.65793740311283,3.0585586904002757z" style="fill:rgb(203,77,216)"/><path d="M-59.07980579921102,-6.462123125343748L-57.88098701549625,-0.785973346625476L-56.050768228302125,-1.12818856163946z" style="fill:rgb(115,34,214)"/><path d="M-64.65793740311283,3.0585586904002757L-68.97684016964496,-0.8508586988473222L-65.89585147149027,4.457236106741488z" style="fill:rgb(220,94,208)"/><path d="M-57.32589511676119,-6.5201333359081595L-56.050768228302125,-1.12818856163946L-54.303253615390446,-1.1814396833704743z" style="fill:rgb(92,32,204)"/><path d="M-61.51306163387311,0.7016793595824076L-62.76988314471392,-5.492275832694427L-64.56706017947774,-4.617699548453555z" style="fill:rgb(162,50,222)"/><path d="M-63.17833317934421,1.7908714122880713L-64.56706017947774,-4.617699548453555L-66.24154972605812,-3.524168201814571z" style="fill:rgb(183,62,221)"/><path d="M-59.72486677135749,-0.16818384825397287L-60.91757595543845,-6.1149781831904L-62.76988314471392,-5.492275832694427z" style="fill:rgb(139,40,220)"/><path d="M-67.73026369267133,-2.2526734720618196L-63.17833317934421,1.7908714122880713L-66.24154972605812,-3.524168201814571z" style="fill:rgb(203,77,216)"/><path d="M-65.89585147149027,4.457236106741488L-69.93365896354186,0.6286293009230012L-66.84477432680391,5.934370749305122z" style="fill:rgb(233,112,197)"/><path d="M-57.88098701549625,-0.785973346625476L-59.07980579921102,-6.462123125343748L-60.91757595543845,-6.1149781831904z" style="fill:rgb(115,34,214)"/><path d="M-55.72235213099108,-6.286095062973861L-54.303253615390446,-1.1814396833704743L-52.704721346998795,-0.9429966148810958z" style="fill:rgb(71,33,192)"/><path d="M-61.853619741115985,-5.938164908455521L-69.30039996626262,-4.531508264460696L-69.76359668743888,-2.0888617800543963z" style="fill:rgb(83,212,212)"/><path d="M-68.97684016964496,-0.8508586988473222L-64.65793740311283,3.0585586904002757L-67.73026369267133,-2.2526734720618196z" style="fill:rgb(220,94,208)"/><path d="M-56.050768228302125,-1.12818856163946L-57.32589511676119,-6.5201333359081595L-59.07980579921102,-6.462123125343748z" style="fill:rgb(92,32,204)"/><path d="M-66.84477432680391,5.934370749305122L-70.56362501636663,2.1299797859036005L-67.46793643293476,7.434237906395491z" style="fill:rgb(242,130,183)"/><path d="M-51.31624760702407,-0.4209950326217588L-55.72235213099108,-6.286095062973861L-52.704721346998795,-0.9429966148810958z" style="fill:rgb(51,38,177)"/><path d="M-64.56706017947774,-4.617699548453555L-66.43586769348508,-3.7082636889853666L-67.09549376729973,-2.9664963321252285z" style="fill:rgb(83,212,212)"/><path d="M-69.93365896354186,0.6286293009230012L-65.89585147149027,4.457236106741488L-68.97684016964496,-0.8508586988473222z" style="fill:rgb(233,112,197)"/><path d="M-60.91757595543845,-6.1149781831904L-61.853619741115985,-5.938164908455521L-62.76988314471392,-5.492275832694427zM-66.24154972605812,-3.524168201814571L-67.09549376729973,-2.9664963321252285L-67.73026369267133,-2.2526734720618196z" style="fill:rgb(83,212,212)"/><path d="M-54.303253615390446,-1.1814396833704743L-55.72235213099108,-6.286095062973861L-57.32589511676119,-6.5201333359081595z" style="fill:rgb(71,33,192)"/><path d="M-66.43586769348508,-3.7082636889853666L-69.76359668743888,-2.0888617800543963L-70.27523962408308,0.6092335923008795z" style="fill:rgb(83,212,212)"/><path d="M-67.46793643293476,7.434237906395491L-70.84166205498714,3.596204152827362L-67.74050574185,8.89990436216461z" style="fill:rgb(246,149,167)"/><path d="M-50.19144348975712,0.3657231629985238L-54.330455707731886,-5.7679703970458185L-51.31624760702407,-0.4209950326217588z" style="fill:rgb(34,46,160)"/><path d="M-70.56362501636663,2.1299797859036005L-66.84477432680391,5.934370749305122L-69.93365896354186,0.6286293009230012z" style="fill:rgb(242,130,183)"/><path d="M-57.32589511676119,-6.5201333359081595L-58.142074899255164,-6.639255564520521L-59.07980579921102,-6.462123125343748zM-55.72235213099108,-6.286095062973861L-57.166262742486985,-6.823581387901712L-58.142074899255164,-6.639255564520521zM-68.97684016964496,-0.8508586988473222L-69.6130702092915,-0.13540246454159854L-69.93365896354186,0.6286293009230012z" style="fill:rgb(83,212,212)"/><path d="M-55.72235213099108,-6.286095062973861L-51.31624760702407,-0.4209950326217588L-54.330455707731886,-5.7679703970458185z" style="fill:rgb(51,38,177)"/><path d="M-70.84166205498714,3.596204152827362L-67.65074259241874,10.275309641086391L-67.74050574185,8.89990436216461z" style="fill:rgb(246,167,149)"/><path d="M-70.84166205498714,3.596204152827362L-67.46793643293476,7.434237906395491L-70.56362501636663,2.1299797859036005z" style="fill:rgb(246,149,167)"/><path d="M-49.37434533082337,1.3881505801449905L-53.20395082357864,-4.984445915230222L-50.19144348975712,0.3657231629985238z" style="fill:rgb(21,57,142)"/><path d="M-69.6130702092915,-0.13540246454159854L-70.27523962408308,0.6092335923008795L-70.56362501636663,2.1299797859036005z" style="fill:rgb(83,212,212)"/><path d="M-54.330455707731886,-5.7679703970458185L-50.19144348975712,0.3657231629985238L-53.20395082357864,-4.984445915230222z" style="fill:rgb(34,46,160)"/><path d="M-70.75580213717038,4.971218101596369L-67.20056055368616,11.507374667707145L-67.65074259241874,10.275309641086391z" style="fill:rgb(242,183,130)"/><path d="M100.09179754759897,27.530574470823716L-70.45310209948676,-74.18233665891954L-73.39565838751217,-33.79719106079923z" style="fill:rgb(83,212,212)"/><path d="M-67.65074259241874,10.275309641086391L-70.84166205498714,3.596204152827362L-70.75580213717038,4.971218101596369z" style="fill:rgb(246,167,149)"/><path d="M-53.20395082357864,-4.984445915230222L-49.37434533082337,1.3881505801449905L-52.38695009479785,-3.964397567520388z" style="fill:rgb(21,57,142)"/><path d="M-53.20395082357864,-4.984445915230222L-53.61955828577833,-5.50334335305531L-54.330455707731886,-5.7679703970458185z" style="fill:rgb(83,212,212)"/><path d="M-67.20056055368616,11.507374667707145L-70.75580213717038,4.971218101596369L-70.30780326042807,6.2019525599455925z" style="fill:rgb(242,183,130)"/><path d="M-70.75580213717038,4.971218101596369L-70.84166205498714,3.596204152827362L-70.98369365927134,4.345162653575988zM-52.38695009479785,-3.964397567520388L-52.87930334340623,-5.227788376409851L-53.61955828577833,-5.50334335305531zM-69.51334848720361,7.240427432192849L-70.30780326042807,6.2019525599455925L-70.07891433173724,6.8307480535864205zM-68.40168082105825,8.04569262497597L-70.07891433173724,6.8307480535864205L-69.84051592108545,7.4856587487677135zM-51.41685697720306,-1.4750972115990282L-51.91212167380903,-2.745969018504355L-51.74155751791528,-0.6750005223303882zM-51.74155751791528,-0.6750005223303882L-51.79923285718002,-1.375268652581834L-52.05416724072307,0.09529228013255024zM-65.56854656254723,9.148427201495858L-69.84051592108545,7.4856587487677135L-69.00482954770145,9.781452772973406zM-74.88056151377545,-13.417616397331955L60.96830337324037,13.700430481164705L-73.39565838751217,-33.79719106079923zM-52.668462844796466,1.6089690460178177L-53.6194299760306,3.1068968306414906L-52.982188220465126,2.382010968344274zM-64.58348558384223,8.96696090362276L-67.01465386797312,8.585562654412126L-65.56854656254723,9.148427201495858zM-63.63568442212085,8.7923589614668L-65.40526423252409,8.838041322232876L-64.58348558384223,8.96696090362276zM-52.982188220465126,2.382010968344274L-56.1743624840009,6.013229095485404L-54.03337500967828,4.972222758519709zM-54.87087084926266,4.530457618722841L-56.374426138695696,5.823694349167965L-55.50958928218679,5.2570230402243zM-59.895473920445355,7.822535677726205L-61.774807345301355,8.449551046191825L-60.825274846788474,8.274630160481742zM-55.50958928218679,5.2570230402243L-58.071466132288,6.9356523978065265L-56.1743624840009,6.013229095485404zM-48.50202385559572,6.004462970487597L-51.41685697720306,-1.4750972115990282L-54.93308508848606,7.189182002974493zM-54.03337500967828,4.972222758519709L-60.825274846788474,8.274630160481742L-54.93308508848606,7.189182002974493z" style="fill:rgb(83,212,212)"/><path d="M88.64638919390487,-112.52135127170462L93.82349327438543,-39.39405103218883L96.17633143239522,-33.64312800147436z" style="fill:rgb(247,158,158)"/><path d="M-31.245068155261713,2.8254170141336976L-52.87930334340623,-5.227788376409851L-48.50202385559572,6.004462970487597zM-44.74804990101221,-81.3954266183872L100.09179754759897,27.530574470823716L57.2588626209526,-50.47687947552581zM68.57790949667097,-47.04604963482249L57.2588626209526,-50.47687947552581L67.54197399842816,-31.79540230868364z" style="fill:rgb(83,212,212)"/><path d="M75.24341137222302,-41.76573772799308L75.8104717200723,-35.165663753971444L77.66738281492721,-36.067360560782035z" style="fill:rgb(162,50,222)"/><path d="M73.3767994668265,-40.8589768341708L74.1204421414371,-34.047456863826554L75.8104717200723,-35.165663753971444z" style="fill:rgb(183,62,221)"/><path d="M77.20696688633016,-42.42238970294799L77.66738281492721,-36.067360560782035L79.62143613645637,-36.71862448193997z" style="fill:rgb(139,40,220)"/><path d="M81.26248554767244,-43.201323169047704L68.57790949667097,-47.04604963482249L68.14561676822893,-40.68198693952159z" style="fill:rgb(83,212,212)"/><path d="M74.1204421414371,-34.047456863826554L70.20877599666926,-38.43950566200046L72.66095656596688,-32.75462204864828z" style="fill:rgb(203,77,216)"/><path d="M79.19372505033112,-42.8039792854271L79.62143613645637,-36.71862448193997L81.59920814228254,-37.09470291443523z" style="fill:rgb(115,34,214)"/><path d="M72.66095656596688,-32.75462204864828L69.0270190656584,-37.01740232064105L71.48733622581096,-31.335583858137728z" style="fill:rgb(220,94,208)"/><path d="M81.12884684242081,-42.89563217075151L81.59920814228254,-37.09470291443523L83.52622263267575,-37.18093014197709z" style="fill:rgb(92,32,204)"/><path d="M75.8104717200723,-35.165663753971444L75.24341137222302,-41.76573772799308L73.3767994668265,-40.8589768341708z" style="fill:rgb(162,50,222)"/><path d="M74.1204421414371,-34.047456863826554L73.3767994668265,-40.8589768341708L71.67724977049448,-39.73621616250353z" style="fill:rgb(183,62,221)"/><path d="M77.66738281492721,-36.067360560782035L77.20696688633016,-42.42238970294799L75.24341137222302,-41.76573772799308z" style="fill:rgb(139,40,220)"/><path d="M70.20877599666926,-38.43950566200046L74.1204421414371,-34.047456863826554L71.67724977049448,-39.73621616250353z" style="fill:rgb(203,77,216)"/><path d="M71.48733622581096,-31.335583858137728L68.17725355848256,-35.523291527878456L70.64453947926684,-29.843607064034142z" style="fill:rgb(233,112,197)"/><path d="M79.62143613645637,-36.71862448193997L79.19372505033112,-42.8039792854271L77.20696688633016,-42.42238970294799z" style="fill:rgb(115,34,214)"/><path d="M82.93910516189172,-42.69313434920054L83.52622263267575,-37.18093014197709L85.32953189456411,-36.97330107095413z" style="fill:rgb(71,33,192)"/><path d="M69.0270190656584,-37.01740232064105L72.66095656596688,-32.75462204864828L70.20877599666926,-38.43950566200046z" style="fill:rgb(220,94,208)"/><path d="M81.59920814228254,-37.09470291443523L81.12884684242081,-42.89563217075151L79.19372505033112,-42.8039792854271z" style="fill:rgb(92,32,204)"/><path d="M72.8180118215003,-41.5794058490783L68.14561676822893,-40.68198693952159L67.79606782817275,-35.53610089167386zM76.19507600101585,-42.22803581821607L72.8180118215003,-41.5794058490783L71.4358001967506,-39.916081460930066z" style="fill:rgb(83,212,212)"/><path d="M70.64453947926684,-29.843607064034142L67.69264569236876,-34.013517404733754L70.16546237831098,-28.334961767950503z" style="fill:rgb(242,130,183)"/><path d="M86.94037991845823,-36.478740550143215L82.93910516189172,-42.69313434920054L85.32953189456411,-36.97330107095413z" style="fill:rgb(51,38,177)"/><path d="M73.3767994668265,-40.8589768341708L71.4358001967506,-39.916081460930066L70.81051498502578,-39.163627756360384z" style="fill:rgb(83,212,212)"/><path d="M68.17725355848256,-35.523291527878456L71.48733622581096,-31.335583858137728L69.0270190656584,-37.01740232064105z" style="fill:rgb(233,112,197)"/><path d="M77.20696688633016,-42.42238970294799L76.19507600101585,-42.22803581821607L75.24341137222302,-41.76573772799308zM71.67724977049448,-39.73621616250353L70.81051498502578,-39.163627756360384L70.20877599666926,-38.43950566200046z" style="fill:rgb(83,212,212)"/><path d="M83.52622263267575,-37.18093014197709L82.93910516189172,-42.69313434920054L81.12884684242081,-42.89563217075151z" style="fill:rgb(71,33,192)"/><path d="M70.16546237831098,-28.334961767950503L67.59291633055318,-32.54538613932551L70.06960496004157,-26.866909577875262z" style="fill:rgb(246,149,167)"/><path d="M88.29676242279231,-35.7149905474493L84.55548006872314,-42.20320976284991L86.94037991845823,-36.478740550143215z" style="fill:rgb(34,46,160)"/><path d="M67.69264569236876,-34.013517404733754L70.64453947926684,-29.843607064034142L68.17725355848256,-35.523291527878456z" style="fill:rgb(242,130,183)"/><path d="M81.12884684242081,-42.89563217075151L80.2075029037319,-42.99869554527513L79.19372505033112,-42.8039792854271zM82.93910516189172,-42.69313434920054L81.26248554767244,-43.201323169047704L80.2075029037319,-42.99869554527513z" style="fill:rgb(83,212,212)"/><path d="M82.93910516189172,-42.69313434920054L86.94037991845823,-36.478740550143215L84.55548006872314,-42.20320976284991z" style="fill:rgb(51,38,177)"/><path d="M67.59291633055318,-32.54538613932551L70.36217175587751,-25.49562089763288L70.06960496004157,-26.866909577875262z" style="fill:rgb(246,167,149)"/><path d="M69.0270190656584,-37.01740232064105L67.79606782817275,-35.53610089167386L67.74337942270951,-34.760434193038705z" style="fill:rgb(83,212,212)"/><path d="M67.59291633055318,-32.54538613932551L70.16546237831098,-28.334961767950503L67.69264569236876,-34.013517404733754z" style="fill:rgb(246,149,167)"/><path d="M89.34579754670924,-34.710116165321686L85.91573552906115,-41.44341143041682L88.29676242279231,-35.7149905474493z" style="fill:rgb(21,57,142)"/><path d="M-49.225009730074554,64.12012415173301L-31.245068155261713,2.8254170141336976L-69.00482954770145,9.781452772973406zM68.17725355848256,-35.523291527878456L67.74337942270951,-34.760434193038705L67.69264569236876,-34.013517404733754z" style="fill:rgb(83,212,212)"/><path d="M84.55548006872314,-42.20320976284991L88.29676242279231,-35.7149905474493L85.91573552906115,-41.44341143041682z" style="fill:rgb(34,46,160)"/><path d="M-49.225009730074554,64.12012415173301L-75.30901695608759,-7.537280220450185L-79.57519258225241,51.013896826763045z" style="fill:rgb(83,212,212)"/><path d="M90.04589221186997,-33.50163826770455L86.96683844107372,-40.441655439224974L89.34579754670924,-34.710116165321686z" style="fill:rgb(12,71,124)"/><path d="M70.36217175587751,-25.49562089763288L67.59291633055318,-32.54538613932551L67.8834325018847,-31.17507017339454z" style="fill:rgb(246,167,149)"/><path d="M85.91573552906115,-41.44341143041682L89.34579754670924,-34.710116165321686L86.96683844107372,-40.441655439224974z" style="fill:rgb(21,57,142)"/><path d="M85.91573552906115,-41.44341143041682L85.38107874505845,-41.952968854391955L84.55548006872314,-42.20320976284991zM67.8834325018847,-31.17507017339454L67.59291633055318,-32.54538613932551L67.54197399842816,-31.79540230868364zM86.96683844107372,-40.441655439224974L86.24080963956074,-41.69237936727519L85.38107874505845,-41.952968854391955z" style="fill:rgb(83,212,212)"/><path d="M86.96683844107372,-40.441655439224974L90.04589221186997,-33.50163826770455L87.66710180945644,-39.23532174870414z" style="fill:rgb(12,71,124)"/><path d="M69.58269586616302,-28.934267748647574L68.55473912618241,-29.95549613807029L68.89774448552365,-29.33235609694048zM70.92913935963679,-28.151731170975086L68.89774448552365,-29.33235609694048L69.25501005799346,-28.6832995644257zM88.39758793148228,-37.976932627442224L87.66710180945644,-39.23532174870414L88.15191586447986,-37.1724178749696zM88.15191586447986,-37.1724178749696L87.98797728061378,-37.86999482249225L87.91538816646313,-36.39784169956378zM74.22601973609085,-27.104905037479167L69.25501005799346,-28.6832995644257L70.5075722748113,-26.407755391786424zM92.69829811209493,-30.56815138302379L93.82349327438543,-39.39405103218883L86.24080963956074,-41.69237936727519z" style="fill:rgb(83,212,212)"/><path d="M94.61646290447945,-30.92777452312592L96.17633143239522,-33.64312800147436L93.82349327438543,-39.39405103218883z" style="fill:rgb(247,158,158)"/><path d="M87.45056975082393,-34.87565053640564L86.61023011130268,-33.3626156900038L87.21316844186651,-34.09821298577333zM75.2920232867272,-27.3047632362389L72.54313137126817,-27.63925460658806L74.22601973609085,-27.104905037479167z" style="fill:rgb(83,212,212)"/><path d="M96.17633143239522,-33.64312800147436L94.61646290447945,-30.92777452312592L96.98482554765819,-25.173929386956583z" style="fill:rgb(247,158,158)"/><path d="M76.31773213603222,-27.497064650193053L74.36281368520258,-27.417832007611114L75.2920232867272,-27.3047632362389zM87.21316844186651,-34.09821298577333L84.19265057264482,-30.41314422430348L86.41764505030085,-31.4930266114772zM85.42609972903323,-31.91796602213078L83.94380632285102,-30.59851208883065L84.82171525934092,-31.180606417808757zM80.3255471785246,-28.536277828199083L78.33162303267825,-27.874637179157123L79.35927144894045,-28.067304233812063zM84.82171525934092,-31.180606417808757L82.22110955471067,-29.456275777766585L84.19265057264482,-30.41314422430348zM92.69829811209493,-30.56815138302379L88.39758793148228,-37.976932627442224L85.73666779480592,-29.26296045410551zM86.41764505030085,-31.4930266114772L79.35927144894045,-28.067304233812063L85.73666779480592,-29.26296045410551zM93.82349327438543,-39.39405103218883L92.69829811209493,-30.56815138302379L94.61646290447945,-30.92777452312592zM-75.5286452131226,71.28410730286932L-79.57519258225241,51.013896826763045L-80.05922934891491,57.65706569637976zM-79.57519258225241,51.013896826763045L-75.5286452131226,71.28410730286932L-72.39113669112935,54.11621191418796z" style="fill:rgb(83,212,212)"/><path d="M-32.225904813917346,25.653672317382203L44.809073814203586,-0.203272664637939L-35.28239616318987,20.189793813321266z" style="fill:rgb(127,37,217)"/><path d="M-36.003796242915236,41.88975414393096L-32.225904813917346,25.653672317382203L-35.28239616318987,20.189793813321266z" style="fill:rgb(247,158,158)"/><path d="M-66.7651507498584,60.424631125706824L-65.40695678103016,66.65078564744167L-63.50576682046068,65.72936193682948z" style="fill:rgb(162,50,222)"/><path d="M-68.67649730602062,61.35134705090037L-67.17862016473529,67.82505699209842L-65.40695678103016,66.65078564744167z" style="fill:rgb(183,62,221)"/><path d="M-64.7963043684871,59.785385233512486L-63.50576682046068,65.72936193682948L-61.546437187036354,65.0954230263349z" style="fill:rgb(139,40,220)"/><path d="M-60.81085313233614,59.11696617154978L-72.39113669112935,54.11621191418796L-73.70010822807832,61.27868233267048z" style="fill:rgb(83,212,212)"/><path d="M-67.17862016473529,67.82505699209842L-72.04439465960486,63.9185636586035L-68.75409020525481,69.20823000427808z" style="fill:rgb(203,77,216)"/><path d="M-62.843906881579414,59.45793947337655L-61.546437187036354,65.0954230263349L-59.602555372892816,64.7731007019592z" style="fill:rgb(115,34,214)"/><path d="M-68.75409020525481,69.20823000427808L-73.37391137276194,65.46303687355262L-70.07377158714331,70.74857730133668z" style="fill:rgb(220,94,208)"/><path d="M-60.98151910063402,59.455211966155666L-59.602555372892816,64.7731007019592L-57.74736756191261,64.77511799138247z" style="fill:rgb(92,32,204)"/><path d="M-65.40695678103016,66.65078564744167L-66.7651507498584,60.424631125706824L-68.67649730602062,61.35134705090037z" style="fill:rgb(162,50,222)"/><path d="M-67.17862016473529,67.82505699209842L-68.67649730602062,61.35134705090037L-70.45859694850391,62.53070145223935z" style="fill:rgb(183,62,221)"/><path d="M-63.50576682046068,65.72936193682948L-64.7963043684871,59.785385233512486L-66.7651507498584,60.424631125706824z" style="fill:rgb(139,40,220)"/><path d="M-72.04439465960486,63.9185636586035L-67.17862016473529,67.82505699209842L-70.45859694850391,62.53070145223935z" style="fill:rgb(203,77,216)"/><path d="M-70.07377158714331,70.74857730133668L-74.39638369654344,67.1062378903813L-71.08726315118761,72.38836865464229z" style="fill:rgb(233,112,197)"/><path d="M-61.546437187036354,65.0954230263349L-62.843906881579414,59.45793947337655L-64.7963043684871,59.785385233512486z" style="fill:rgb(115,34,214)"/><path d="M44.809073814203586,-0.203272664637939L-32.225904813917346,25.653672317382203L47.48928523887752,5.480370408780212z" style="fill:rgb(127,37,217)"/><path d="M60.96830337324037,13.700430481164705L-74.88056151377545,-13.417616397331955L75.86112499363458,42.6950105606995z" style="fill:rgb(83,212,212)"/><path d="M-59.279703733766965,59.77817064138974L-57.74736756191261,64.77511799138247L-56.051178524499065,65.1022538702139z" style="fill:rgb(71,33,192)"/><path d="M-65.79067463179999,59.9521561747818L-73.70010822807832,61.27868233267048L-74.20308675598129,64.03091833318243z" style="fill:rgb(83,212,212)"/><path d="M-73.37391137276194,65.46303687355262L-68.75409020525481,69.20823000427808L-72.04439465960486,63.9185636586035z" style="fill:rgb(220,94,208)"/><path d="M-32.225904813917346,25.653672317382203L-36.003796242915236,41.88975414393096L-32.8812138462318,47.34629095613958z" style="fill:rgb(247,158,158)"/><path d="M-59.602555372892816,64.7731007019592L-60.98151910063402,59.455211966155666L-62.843906881579414,59.45793947337655z" style="fill:rgb(92,32,204)"/><path d="M-71.08726315118761,72.38836865464229L-75.0721569971624,68.78628985080302L-71.75527874954716,74.0658395386862z" style="fill:rgb(242,130,183)"/><path d="M-54.57877446615303,65.74319206693201L-59.279703733766965,59.77817064138974L-56.051178524499065,65.1022538702139z" style="fill:rgb(51,38,177)"/><path d="M-68.67649730602062,61.35134705090037L-70.66401230795962,62.31499808128502L-71.36743973761334,63.13215157615601z" style="fill:rgb(83,212,212)"/><path d="M-74.39638369654344,67.1062378903813L-70.07377158714331,70.74857730133668L-73.37391137276194,65.46303687355262z" style="fill:rgb(233,112,197)"/><path d="M-64.7963043684871,59.785385233512486L-65.79067463179999,59.9521561747818L-66.7651507498584,60.424631125706824zM-70.45859694850391,62.53070145223935L-71.36743973761334,63.13215157615601L-72.04439465960486,63.9185636586035z" style="fill:rgb(83,212,212)"/><path d="M-57.74736756191261,64.77511799138247L-59.279703733766965,59.77817064138974L-60.98151910063402,59.455211966155666z" style="fill:rgb(71,33,192)"/><path d="M-76.2638717689705,58.09233958468369L-36.003796242915236,41.88975414393096L-79.58803283099498,52.753440090206155z" style="fill:rgb(127,37,217)"/><path d="M-70.66401230795962,62.31499808128502L-74.20308675598129,64.03091833318243L-74.7588356005826,67.07187867011234z" style="fill:rgb(83,212,212)"/><path d="M-71.75527874954716,74.0658395386862L-75.37428685492468,70.43951541680934L-72.05115445109837,75.71742099758083z" style="fill:rgb(246,149,167)"/><path d="M-53.38702881167392,66.67475346404726L-57.803475238389524,60.41565407469126L-54.57877446615303,65.74319206693201z" style="fill:rgb(34,46,160)"/><path d="M-75.0721569971624,68.78628985080302L-71.08726315118761,72.38836865464229L-74.39638369654344,67.1062378903813z" style="fill:rgb(242,130,183)"/><path d="M-31.245068155261713,2.8254170141336976L-49.225009730074554,64.12012415173301L-30.092538051495907,72.3821588856475zM-60.98151910063402,59.455211966155666L-61.84763010359568,59.290848781018376L-62.843906881579414,59.45793947337655zM-59.279703733766965,59.77817064138974L-60.81085313233614,59.11696617154978L-61.84763010359568,59.290848781018376zM-73.37391137276194,65.46303687355262L-74.05252224865902,66.25136319836294L-74.39638369654344,67.1062378903813z" style="fill:rgb(83,212,212)"/><path d="M-59.279703733766965,59.77817064138974L-54.57877446615303,65.74319206693201L-57.803475238389524,60.41565407469126z" style="fill:rgb(51,38,177)"/><path d="M-75.37428685492468,70.43951541680934L-71.96209169883231,77.2800138095141L-72.05115445109837,75.71742099758083z" style="fill:rgb(246,167,149)"/><path d="M-36.003796242915236,41.88975414393096L-76.2638717689705,58.09233958468369L-32.8812138462318,47.34629095613958z" style="fill:rgb(127,37,217)"/><path d="M-75.37428685492468,70.43951541680934L-71.75527874954716,74.0658395386862L-75.0721569971624,68.78628985080302z" style="fill:rgb(246,149,167)"/><path d="M-52.52265882820413,67.8625896675562L-56.60985704364839,61.34463746255432L-53.38702881167392,66.67475346404726z" style="fill:rgb(21,57,142)"/><path d="M-74.05252224865902,66.25136319836294L-74.7588356005826,67.07187867011234L-75.0721569971624,68.78628985080302z" style="fill:rgb(83,212,212)"/><path d="M-57.803475238389524,60.41565407469126L-53.38702881167392,66.67475346404726L-56.60985704364839,61.34463746255432z" style="fill:rgb(34,46,160)"/><path d="M-75.28971402476232,72.00275496942153L-71.48978024146184,78.69335803839242L-71.96209169883231,77.2800138095141z" style="fill:rgb(242,183,130)"/><path d="M-71.96209169883231,77.2800138095141L-75.37428685492468,70.43951541680934L-75.28971402476232,72.00275496942153z" style="fill:rgb(246,167,149)"/><path d="M-56.60985704364839,61.34463746255432L-52.52265882820413,67.8625896675562L-55.7456512839696,62.53087844892367z" style="fill:rgb(21,57,142)"/><path d="M-56.60985704364839,61.34463746255432L-57.049417065129624,60.74128175602783L-57.803475238389524,60.41565407469126z" style="fill:rgb(83,212,212)"/><path d="M-71.48978024146184,78.69335803839242L-75.28971402476232,72.00275496942153L-74.8199470558833,73.41571816584633z" style="fill:rgb(242,183,130)"/><path d="M-75.28971402476232,72.00275496942153L-75.37428685492468,70.43951541680934L-75.5286452131226,71.28410730286932zM-55.7456512839696,62.53087844892367L-56.264154662721445,61.08038304434781L-57.049417065129624,60.74128175602783zM-71.8162976512275,82.45004032652663L-80.05922934891491,57.65706569637976L-82.04554988073909,84.91834550475505zM94.61646290447945,-30.92777452312592L70.5075722748113,-26.407755391786424L100.07010080576956,27.298927610666233zM-73.98130279168994,74.62333988478095L-74.8199470558833,73.41571816584633L-74.57990294119686,74.13772151800929z" style="fill:rgb(83,212,212)"/><path d="M100.07010080576956,27.298927610666233L96.98482554765819,-25.173929386956583L94.61646290447945,-30.92777452312592z" style="fill:rgb(247,158,158)"/><path d="M-72.8045485903984,75.57799504215994L-74.57990294119686,74.13772151800929L-74.32986138752658,74.88977348578736zM-54.72374200025936,65.38965520202215L-55.24550903320468,63.930018367919864L-55.07153860298793,66.28570450466646zM-55.07153860298793,66.28570450466646L-55.130371089845134,65.48909227096412L-55.406410591689365,67.148444113744z" style="fill:rgb(83,212,212)"/><path d="M92.14181506105311,9.948535771232795L90.83048436019398,-26.80414109042097L88.41091390321697,-32.6099979753866z" style="fill:rgb(247,158,158)"/><path d="M-69.80039892779523,76.9334738817853L-74.32986138752658,74.88977348578736L-73.4531668041263,77.52670130192936zM-51.65088313553789,73.98589701636118L-49.225009730074554,64.12012415173301L-56.264154662721445,61.08038304434781z" style="fill:rgb(83,212,212)"/><path d="M-71.8162976512275,82.45004032652663L-78.6517604033799,90.17078787368278L-68.47010907133966,87.72955632540695z" style="fill:rgb(127,37,217)"/><path d="M-56.06452856100834,68.84398188037844L-57.08046883984205,70.50967521759681L-56.4006728378183,69.70999928873057zM-68.75318240792537,76.76340029364329L-71.33391919971375,76.24154912948806L-69.80039892779523,76.9334738817853zM-67.7455357081537,76.59975243722933L-69.62557763388192,76.58699670146248L-68.75318240792537,76.76340029364329z" style="fill:rgb(83,212,212)"/><path d="M-78.6517604033799,90.17078787368278L-71.8162976512275,82.45004032652663L-82.04554988073909,84.91834550475505z" style="fill:rgb(127,37,217)"/><path d="M-31.245068155261713,2.8254170141336976L-30.092538051495907,72.3821588856475L75.86112499363458,42.6950105606995zM-56.4006728378183,69.70999928873057L-59.806360472595436,73.7162425036692L-57.52716827608423,72.61223659974401zM-58.415579038399905,72.08021542961824L-60.018244528955684,73.4937507844553L-59.09705191785106,72.88185569064713zM-63.76763461260941,75.63502744770447L-65.76704349890053,76.27843435855965L-64.75743717748473,76.11446831303822zM-59.09705191785106,72.88185569064713L-61.825910893036365,74.69448335832364L-59.806360472595436,73.7162425036692zM-51.65088313553789,73.98589701636118L-54.72374200025936,65.38965520202215L-58.491567741283006,75.09686324885688zM-57.52716827608423,72.61223659974401L-64.75743717748473,76.11446831303822L-58.491567741283006,75.09686324885688zM-71.8162976512275,82.45004032652663L-45.969628669993426,73.06323501890057L-73.4531668041263,77.52670130192936zM-49.225009730074554,64.12012415173301L-51.65088313553789,73.98589701636118L-45.969628669993426,73.06323501890057zM57.2588626209526,-50.47687947552581L100.09179754759897,27.530574470823716L100.07010080576956,27.298927610666233z" style="fill:rgb(83,212,212)"/><path d="M-68.47010907133966,87.72955632540695L-44.91556413399101,75.95893790995511L-71.8162976512275,82.45004032652663zM-44.91556413399101,75.95893790995511L-68.47010907133966,87.72955632540695L-41.69592837161134,81.30996022573062z" style="fill:rgb(127,37,217)"/><path d="M-33.28562382146772,71.00328230054944L-49.225009730074554,64.12012415173301L-45.969628669993426,73.06323501890057zM-45.969628669993426,73.06323501890057L-71.8162976512275,82.45004032652663L-44.91556413399101,75.95893790995511z" style="fill:rgb(83,212,212)"/><path d="M-30.092538051495907,72.3821588856475L-41.69592837161134,81.30996022573062L-26.943495250382433,77.7727876826592z" style="fill:rgb(127,37,217)"/><path d="M90.83048436019398,-26.80414109042097L92.14181506105311,9.948535771232795L94.64190310933103,15.75833142149648z" style="fill:rgb(247,158,158)"/><path d="M-44.91556413399101,75.95893790995511L-33.28562382146772,71.00328230054944L-45.969628669993426,73.06323501890057z" style="fill:rgb(83,212,212)"/><path d="M-41.69592837161134,81.30996022573062L-30.092538051495907,72.3821588856475L-44.91556413399101,75.95893790995511z" style="fill:rgb(127,37,217)"/><path d="M96.98482554765819,-25.173929386956583L100.07010080576956,27.298927610666233L102.54326397276213,33.052244582733536z" style="fill:rgb(247,158,158)"/><path d="M-33.28562382146772,71.00328230054944L-44.91556413399101,75.95893790995511L-30.092538051495907,72.3821588856475zM79.20418471967318,-20.11638050875561L-92.90270611077945,-17.39806353780974L-96.76532938336884,25.16516835262413zM-92.90270611077945,-17.39806353780974L79.20418471967318,-20.11638050875561L75.90756214993638,-62.61227518205705zM73.06359050202674,17.976110703529816L60.96830337324037,13.700430481164705L72.02725466815,35.23090998051716z" style="fill:rgb(83,212,212)"/><path d="M48.474547262162766,27.194161779134784L92.14181506105311,9.948535771232795L45.743935752249214,21.513543502990775zM-79.58803283099498,52.753440090206155L79.20418471967318,-20.11638050875561L-96.76532938336884,25.16516835262413z" style="fill:rgb(127,37,217)"/><path d="M80.20948088813003,24.191483652212533L80.78564639090953,30.851363117677412L82.7647008353217,29.89412694227448z" style="fill:rgb(162,50,222)"/><path d="M78.21940419765863,25.1544314224137L78.98593838038032,32.05969880448141L80.78564639090953,30.851363117677412z" style="fill:rgb(183,62,221)"/><path d="M79.20418471967318,-20.11638050875561L88.41091390321697,-32.6099979753866L75.90756214993638,-62.61227518205705z" style="fill:rgb(247,158,158)"/><path d="M82.30448320167578,23.515453254403482L82.7647008353217,29.89412694227448L84.84888745218674,29.223948538819315z" style="fill:rgb(139,40,220)"/><path d="M86.63497059055372,22.773587882271777L73.06359050202674,17.976110703529816L72.6313666019797,25.172576468267668z" style="fill:rgb(83,212,212)"/><path d="M78.98593838038032,32.05969880448141L74.84605676919794,27.787198175604072L77.43328149466397,33.47395105797485z" style="fill:rgb(203,77,216)"/><path d="M84.42585569937103,23.15203644017501L84.84888745218674,29.223948538819315L86.96001311007656,28.86630606454838z" style="fill:rgb(115,34,214)"/><path d="M92.14181506105311,9.948535771232795L48.474547262162766,27.194161779134784L94.64190310933103,15.75833142149648z" style="fill:rgb(127,37,217)"/><path d="M77.43328149466397,33.47395105797485L73.59005306589076,29.358623899932553L76.18647839268354,35.04127762501605z" style="fill:rgb(220,94,208)"/><path d="M86.49379964238086,23.115520967116154L86.96001311007656,28.86630606454838L89.01868939323697,28.83526797628799z" style="fill:rgb(92,32,204)"/><path d="M80.78564639090953,30.851363117677412L80.20948088813003,24.191483652212533L78.21940419765863,25.1544314224137z" style="fill:rgb(162,50,222)"/><path d="M78.98593838038032,32.05969880448141L78.21940419765863,25.1544314224137L76.40889530286746,26.368128674366158z" style="fill:rgb(183,62,221)"/><path d="M82.7647008353217,29.89412694227448L82.30448320167578,23.515453254403482L80.20948088813003,24.191483652212533z" style="fill:rgb(139,40,220)"/><path d="M74.84605676919794,27.787198175604072L78.98593838038032,32.05969880448141L76.40889530286746,26.368128674366158z" style="fill:rgb(203,77,216)"/><path d="M76.18647839268354,35.04127762501605L72.68899818358618,31.023544367095496L75.29328564122423,36.702964496895845z" style="fill:rgb(233,112,197)"/><path d="M84.84888745218674,29.223948538819315L84.42585569937103,23.15203644017501L82.30448320167578,23.515453254403482z" style="fill:rgb(115,34,214)"/><path d="M88.43014577129495,23.40818570554279L89.01868939323697,28.83526797628799L90.9470672859317,29.132900689426936z" style="fill:rgb(71,33,192)"/><path d="M73.59005306589076,29.358623899932553L77.43328149466397,33.47395105797485L74.84605676919794,27.787198175604072z" style="fill:rgb(220,94,208)"/><path d="M-26.943495250382433,77.7727876826592L77.74428843107022,46.3613112848189L-30.092538051495907,72.3821588856475z" style="fill:rgb(127,37,217)"/><path d="M86.96001311007656,28.86630606454838L86.49379964238086,23.115520967116154L84.42585569937103,23.15203644017501z" style="fill:rgb(92,32,204)"/><path d="M77.61876390052329,24.318173816216046L72.6313666019797,25.172576468267668L72.2816262176383,30.995638877325945zM81.22409731474228,23.70053592278277L77.61876390052329,24.318173816216046L76.15003436198876,26.155752155824516z" style="fill:rgb(83,212,212)"/><path d="M75.29328564122423,36.702964496895845L72.17810533260815,32.719293558386546L74.78861195477545,38.39646349919528z" style="fill:rgb(242,130,183)"/><path d="M92.67166800217429,29.749055375483035L88.43014577129495,23.40818570554279L90.9470672859317,29.132900689426936z" style="fill:rgb(51,38,177)"/><path d="M78.21940419765863,25.1544314224137L76.15003436198876,26.155752155824516L75.48555166419001,26.98710151971348z" style="fill:rgb(83,212,212)"/><path d="M72.68899818358618,31.023544367095496L76.18647839268354,35.04127762501605L73.59005306589076,29.358623899932553z" style="fill:rgb(233,112,197)"/><path d="M82.30448320167578,23.515453254403482L81.22409731474228,23.70053592278277L80.20948088813003,24.191483652212533zM76.40889530286746,26.368128674366158L75.48555166419001,26.98710151971348L74.84605676919794,27.787198175604072z" style="fill:rgb(83,212,212)"/><path d="M89.01868939323697,28.83526797628799L88.43014577129495,23.40818570554279L86.49379964238086,23.115520967116154z" style="fill:rgb(71,33,192)"/><path d="M79.20418471967318,-20.11638050875561L-79.58803283099498,52.753440090206155L92.14181506105311,9.948535771232795z" style="fill:rgb(127,37,217)"/><path d="M88.41091390321697,-32.6099979753866L79.20418471967318,-20.11638050875561L92.14181506105311,9.948535771232795z" style="fill:rgb(247,158,158)"/><path d="M74.78861195477545,38.39646349919528L72.07826204350337,34.38161238436505L74.69309526417918,40.05759955169118z" style="fill:rgb(246,149,167)"/><path d="M94.1261101101214,30.661580297029417L90.16111262595494,24.020081121063484L92.67166800217429,29.749055375483035z" style="fill:rgb(34,46,160)"/><path d="M72.17810533260815,32.719293558386546L75.29328564122423,36.702964496895845L72.68899818358618,31.023544367095496z" style="fill:rgb(242,130,183)"/><path d="M86.49379964238086,23.115520967116154L85.50838965133785,22.966583673615496L84.42585569937103,23.15203644017501zM88.43014577129495,23.40818570554279L86.63497059055372,22.773587882271777L85.50838965133785,22.966583673615496z" style="fill:rgb(83,212,212)"/><path d="M88.43014577129495,23.40818570554279L92.67166800217429,29.749055375483035L90.16111262595494,24.020081121063484z" style="fill:rgb(51,38,177)"/><path d="M72.07826204350337,34.38161238436505L75.01213852927009,41.62289103425287L74.69309526417918,40.05759955169118z" style="fill:rgb(246,167,149)"/><path d="M73.59005306589076,29.358623899932553L72.2816262176383,30.995638877325945L72.22888972714425,31.873701488678215z" style="fill:rgb(83,212,212)"/><path d="M72.07826204350337,34.38161238436505L74.78861195477545,38.39646349919528L72.17810533260815,32.719293558386546z" style="fill:rgb(246,149,167)"/><path d="M95.25364705453538,31.836924725325623L91.62005287597897,24.929222601743934L94.1261101101214,30.661580297029417z" style="fill:rgb(21,57,142)"/><path d="M72.68899818358618,31.023544367095496L72.22888972714425,31.873701488678215L72.17810533260815,32.719293558386546z" style="fill:rgb(83,212,212)"/><path d="M90.16111262595494,24.020081121063484L94.1261101101214,30.661580297029417L91.62005287597897,24.929222601743934z" style="fill:rgb(34,46,160)"/><path d="M96.00949788582263,33.231212417954836L92.75004390805054,26.10220751606984L95.25364705453538,31.836924725325623z" style="fill:rgb(12,71,124)"/><path d="M75.01213852927009,41.62289103425287L72.07826204350337,34.38161238436505L72.39505437306599,35.94697163308689z" style="fill:rgb(246,167,149)"/><path d="M91.62005287597897,24.929222601743934L95.25364705453538,31.836924725325623L92.75004390805054,26.10220751606984z" style="fill:rgb(21,57,142)"/><path d="M91.62005287597897,24.929222601743934L91.04535394646037,24.332660223111255L90.16111262595494,24.020081121063484zM72.39505437306599,35.94697163308689L72.07826204350337,34.38161238436505L72.02725466815,35.23090998051716zM92.75004390805054,26.10220751606984L91.9662327909513,24.6581893774359L91.04535394646037,24.332660223111255z" style="fill:rgb(83,212,212)"/><path d="M77.74428843107022,46.3613112848189L-26.943495250382433,77.7727876826592L80.36157319656223,52.04444442854295z" style="fill:rgb(127,37,217)"/><path d="M92.75004390805054,26.10220751606984L96.00949788582263,33.231212417954836L93.50619281465377,27.49526019174329z" style="fill:rgb(12,71,124)"/><path d="M102.54326397276213,33.052244582733536L100.09179754759897,27.530574470823716L102.56537078926159,33.283817456490894z" style="fill:rgb(247,158,158)"/><path d="M75.86112499363458,42.6950105606995L-30.092538051495907,72.3821588856475L77.74428843107022,46.3613112848189zM74.22196045435666,38.55064424947467L73.11825581388285,37.3549595333853L73.48783235069534,38.07448089409283zM-35.28239616318987,20.189793813321266L50.733877702929824,137.4297438632943L44.809073814203586,-0.203272664637939z" style="fill:rgb(83,212,212)"/><path d="M100.09179754759897,27.530574470823716L102.54326397276213,33.052244582733536L100.07010080576956,27.298927610666233z" style="fill:rgb(247,158,158)"/><path d="M75.66527793131141,39.48679718715217L73.48783235069534,38.07448089409283L73.87281381387704,38.824000595061875zM94.2951371882267,28.94871905870612L93.50619281465377,27.49526019174329L94.03713141467423,29.853107697427074zM94.03713141467423,29.853107697427074L93.8575785754006,29.05571857679802L93.78870847945034,30.723919265456292zM79.19612512969343,40.79238569276702L73.87281381387704,38.824000595061875L75.22286981115364,41.45239670970411zM98.9433462362342,37.512108303747496L100.09179754759897,27.530574470823716L91.9662327909513,24.6581893774359z" style="fill:rgb(83,212,212)"/><path d="M100.9947721397722,37.171339991380286L102.56537078926159,33.283817456490894L100.09179754759897,27.530574470823716z" style="fill:rgb(247,158,158)"/><path d="M93.30045357356879,32.43543797363873L92.41025421931283,34.12361292084169L93.05105106142878,33.309679705981424zM80.33529056709177,40.60315499534061L77.39365475141165,40.12589342662391L79.19612512969343,40.79238569276702z" style="fill:rgb(83,212,212)"/><path d="M50.733877702929824,137.4297438632943L47.48928523887752,5.480370408780212L44.809073814203586,-0.203272664637939zM102.56537078926159,33.283817456490894L100.9947721397722,37.171339991380286L103.48536363906065,42.92099815548875z" style="fill:rgb(247,158,158)"/><path d="M81.43144337679657,40.4210692681852L79.34085418916399,40.44181348319401L80.33529056709177,40.60315499534061zM93.05105106142878,33.309679705981424L89.8405257640396,37.3876375591817L92.21516211569869,36.2397874239245z" style="fill:rgb(83,212,212)"/><path d="M82.57737934706924,45.19509267155928L80.36157319656223,52.04444442854295L85.1700811848565,50.89151533433343z" style="fill:rgb(127,37,217)"/><path d="M91.15167089714781,35.722242100342235L89.57320114029189,37.16832443195616L90.50923363578592,36.538258331493665zM85.71338749862343,39.38260736720041L83.58378116378475,40.06353589523792L84.68214582047159,39.8810870315682zM90.50923363578592,36.538258331493665L87.73640499701075,38.404719093745435L89.8405257640396,37.3876375591817zM75.86112499363458,42.6950105606995L100.9947721397722,37.171339991380286L75.22286981115364,41.45239670970411zM98.9433462362342,37.512108303747496L94.2951371882267,28.94871905870612L91.49944517348922,38.74863809888736zM92.21516211569869,36.2397874239245L84.68214582047159,39.8810870315682L91.49944517348922,38.74863809888736z" style="fill:rgb(83,212,212)"/><path d="M80.36157319656223,52.04444442854295L82.57737934706924,45.19509267155928L77.74428843107022,46.3613112848189z" style="fill:rgb(127,37,217)"/><path d="M82.57737934706924,45.19509267155928L75.86112499363458,42.6950105606995L77.74428843107022,46.3613112848189zM100.09179754759897,27.530574470823716L98.9433462362342,37.512108303747496L100.9947721397722,37.171339991380286zM100.9947721397722,37.171339991380286L75.86112499363458,42.6950105606995L82.57737934706924,45.19509267155928z" style="fill:rgb(83,212,212)"/><path d="M101.32264135243426,40.67189197705586L85.1700811848565,50.89151533433343L103.81938885938352,46.420004369346394zM85.1700811848565,50.89151533433343L101.32264135243426,40.67189197705586L82.57737934706924,45.19509267155928z" style="fill:rgb(127,37,217)"/><path d="M103.48536363906065,42.92099815548875L101.32264135243426,40.67189197705586L103.81938885938352,46.420004369346394zM101.32264135243426,40.67189197705586L103.48536363906065,42.92099815548875L100.9947721397722,37.171339991380286z" style="fill:rgb(247,158,158)"/><path d="M100.9947721397722,37.171339991380286L82.57737934706924,45.19509267155928L101.32264135243426,40.67189197705586zM50.733877702929824,137.4297438632943L-35.28239616318987,20.189793813321266L-39.84441769199258,157.41694593935915z" style="fill:rgb(83,212,212)"/><path d="M47.48928523887752,5.480370408780212L50.733877702929824,137.4297438632943L53.7297148559051,143.01066609583458z" style="fill:rgb(247,158,158)"/><path d="M-36.3675652782416,162.7545668764882L50.733877702929824,137.4297438632943L-39.84441769199258,157.41694593935915zM50.733877702929824,137.4297438632943L-36.3675652782416,162.7545668764882L53.7297148559051,143.01066609583458z" style="fill:rgb(127,37,217)"/></svg>
