<?xml version="1.0" encoding="UTF-8"?>
<!-- Generated by jsxcad -->
<!DOCTYPE svg PUBLIC "-//W3C//DTD SVG 1.1 Tiny//EN" "http://www.w3.org/Graphics/SVG/1.1/DTD/svg11-tiny.dtd">
<svg viewBox="-250 -250 500 500" width="500" height="500" xmlns="http://www.w3.org/2000/svg"><path d="M-109.25178628480786,-74.12643893547015L-107.9663103115648,32.14181950516197L119.48824050857134,-138.94238927880292zM114.27198630325884,-101.40496536487478L-113.4583538582096,-89.30934379318951L-119.67703611711875,-37.14052374577952zM-113.4583538582096,-89.30934379318951L114.27198630325884,-101.40496536487478L107.99981969123971,-152.9839067613737z" style="fill:rgb(83,212,212)"/><path d="M111.13016470171351,-144.24849274500284L120.74636082105428,-83.86090418958554L114.21505814061052,-135.63991404361784z" style="fill:rgb(247,158,158)"/><path d="M-107.9663103115648,32.14181950516197L-109.25178628480786,-74.12643893547015L-114.37501766874699,46.0667643741172z" style="fill:rgb(83,212,212)"/><path d="M-110.16930214545305,-21.50041047799685L114.27198630325884,-101.40496536487478L-119.67703611711875,-37.14052374577952z" style="fill:rgb(127,37,217)"/><path d="M107.99981969123971,-152.9839067613737L117.53421116370954,-92.5650889389882L111.13016470171351,-144.24849274500284z" style="fill:rgb(247,158,158)"/><path d="M119.48824050857134,-138.94238927880292L-107.9663103115648,32.14181950516197L-91.43430626888718,27.90489160332008z" style="fill:rgb(83,212,212)"/><path d="M114.27198630325884,-101.40496536487478L-110.16930214545305,-21.50041047799685L120.74636082105428,-83.86090418958554z" style="fill:rgb(127,37,217)"/><path d="M120.74636082105428,-83.86090418958554L111.13016470171351,-144.24849274500284L117.53421116370954,-92.5650889389882z" style="fill:rgb(247,158,158)"/><path d="M119.48824050857134,-138.94238927880292L-91.43430626888718,27.90489160332008L-87.31824291079596,39.21699180260533z" style="fill:rgb(83,212,212)"/><path d="M117.53421116370954,-92.5650889389882L107.99981969123971,-152.9839067613737L114.27198630325884,-101.40496536487478z" style="fill:rgb(247,158,158)"/><path d="M-91.43430626888718,27.90489160332008L-103.0692665999152,39.81706819601388L-86.64309443623499,35.64446232599825zM-103.0692665999152,39.81706819601388L-91.43430626888718,27.90489160332008L-107.9663103115648,32.14181950516197z" style="fill:rgb(127,37,217)"/><path d="M-114.37501766874699,46.0667643741172L-103.0692665999152,39.81706819601388L-107.9663103115648,32.14181950516197zM-103.0692665999152,39.81706819601388L-114.37501766874699,46.0667643741172L-109.3779973672759,53.714557725352456z" style="fill:rgb(241,128,184)"/><path d="M-109.25178628480786,-74.12643893547015L-125.77623936943802,154.44024832911256L-114.37501766874699,46.0667643741172zM-56.56088967293407,-45.149226402428184L-26.09614102495018,31.730510309301387L54.04601253406765,-75.27369022037783z" style="fill:rgb(83,212,212)"/><path d="M54.04601253406765,-75.27369022037783L62.76446031604127,18.87699233343808L57.68945510287398,-66.83191666483275z" style="fill:rgb(247,158,158)"/><path d="M119.48824050857134,-138.94238927880292L100.18870624151256,-21.205504815546778L118.51841296131377,-25.903161130351208zM119.48824050857134,-138.94238927880292L95.72720669216375,-7.123323914292137L100.18870624151256,-21.205504815546778zM119.48824050857134,-138.94238927880292L118.51841296131377,-25.903161130351208L125.76369777085564,-14.727447848051161zM119.48824050857134,-138.94238927880292L-87.31824291079596,39.21699180260533L-96.08827808541311,147.72311683814715zM-26.19803817251944,35.91963812848238L-56.56088967293407,-45.149226402428184L-61.66864544903366,44.79205143972734zM-56.56088967293407,-45.149226402428184L-26.19803817251944,35.91963812848238L-26.09614102495018,31.730510309301387z" style="fill:rgb(83,212,212)"/><path d="M152.45365061089242,109.9569664737615L122.4888503226083,-130.43925572895816L119.48824050857134,-138.94238927880292z" style="fill:rgb(247,158,158)"/><path d="M54.04601253406765,-75.27369022037783L-26.09614102495018,31.730510309301387L22.003256483942845,19.649389513386545zM-137.31304633622216,174.2444670203994L-125.77623936943802,154.44024832911256L-109.25178628480786,-74.12643893547015zM119.48824050857134,-138.94238927880292L-96.08827808541311,147.72311683814715L95.72720669216375,-7.123323914292137zM-101.6334050814604,50.606725967398226L-100.4868327580226,133.74421809703412L-87.31824291079596,39.21699180260533zM-125.77623936943802,154.44024832911256L-101.6334050814604,50.606725967398226L-114.37501766874699,46.0667643741172z" style="fill:rgb(83,212,212)"/><path d="M62.76446031604127,18.87699233343808L54.04601253406765,-75.27369022037783L58.83992428206486,10.397126970659876z" style="fill:rgb(247,158,158)"/><path d="M118.51841296131377,-25.903161130351208L103.67672746596894,-12.700946332466911L121.87440813615899,-17.323555576377355z" style="fill:rgb(127,37,217)"/><path d="M22.003256483942845,19.649389513386545L59.07454865494128,14.590043028294424L54.04601253406765,-75.27369022037783z" style="fill:rgb(83,212,212)"/><path d="M103.67672746596894,-12.700946332466911L118.51841296131377,-25.903161130351208L100.18870624151256,-21.205504815546778z" style="fill:rgb(127,37,217)"/><path d="M95.72720669216375,-7.123323914292137L103.67672746596894,-12.700946332466911L100.18870624151256,-21.205504815546778z" style="fill:rgb(241,128,184)"/><path d="M-56.87760467663598,52.781391052123936L-26.19803817251944,35.91963812848238L-61.66864544903366,44.79205143972734z" style="fill:rgb(127,37,217)"/><path d="M103.67672746596894,-12.700946332466911L95.72720669216375,-7.123323914292137L99.28938348694396,1.3601033233857638z" style="fill:rgb(241,128,184)"/><path d="M-26.19803817251944,35.91963812848238L-56.87760467663598,52.781391052123936L-21.651518670933175,44.051263488764256z" style="fill:rgb(127,37,217)"/><path d="M129.10675751525199,-6.121047553082158L118.51841296131377,-25.903161130351208L121.87440813615899,-17.323555576377355z" style="fill:rgb(13,70,126)"/><path d="M-21.567983532309178,39.86450608384718L-26.19803817251944,35.91963812848238L-21.651518670933175,44.051263488764256zM-26.19803817251944,35.91963812848238L-21.567983532309178,39.86450608384718L-26.09614102495018,31.730510309301387z" style="fill:rgb(247,158,158)"/><path d="M-21.567983532309178,39.86450608384718L22.003256483942845,19.649389513386545L-26.09614102495018,31.730510309301387zM22.003256483942845,19.649389513386545L-21.567983532309178,39.86450608384718L26.193106760614747,27.97837456876199z" style="fill:rgb(127,37,217)"/><path d="M118.51841296131377,-25.903161130351208L129.10675751525199,-6.121047553082158L125.76369777085564,-14.727447848051161z" style="fill:rgb(13,70,126)"/><path d="M-101.6334050814604,50.606725967398226L-118.60651652417711,137.91269911567545L-100.4868327580226,133.74421809703412zM119.48824050857134,-138.94238927880292L125.76369777085564,-14.727447848051161L152.45365061089242,109.9569664737615zM-101.6334050814604,50.606725967398226L-125.77623936943802,154.44024832911256L-118.60651652417711,137.91269911567545z" style="fill:rgb(83,212,212)"/><path d="M26.29576404528953,32.168423433485856L59.07454865494128,14.590043028294424L22.09020416055948,23.8410939023019zM59.07454865494128,14.590043028294424L26.29576404528953,32.168423433485856L63.012667447689196,23.068823063866642z" style="fill:rgb(127,37,217)"/><path d="M58.83992428206486,10.397126970659876L63.012667447689196,23.068823063866642L62.76446031604127,18.87699233343808z" style="fill:rgb(247,158,158)"/><path d="M59.07454865494128,14.590043028294424L22.003256483942845,19.649389513386545L22.09020416055948,23.8410939023019zM-87.31824291079596,39.21699180260533L-100.4868327580226,133.74421809703412L-96.08827808541311,147.72311683814715z" style="fill:rgb(83,212,212)"/><path d="M63.012667447689196,23.068823063866642L58.83992428206486,10.397126970659876L59.07454865494128,14.590043028294424z" style="fill:rgb(247,158,158)"/><path d="M-26.09614102495018,31.730510309301387L23.30801803047564,82.55129688929196L22.003256483942845,19.649389513386545z" style="fill:rgb(83,212,212)"/><path d="M23.30801803047564,82.55129688929196L26.193106760614747,27.97837456876199L22.003256483942845,19.649389513386545z" style="fill:rgb(247,158,158)"/><path d="M-100.4868327580226,133.74421809703412L-113.14207847051156,145.45517461520296L-95.14933409149799,141.3561492121867zM-113.14207847051156,145.45517461520296L-100.4868327580226,133.74421809703412L-118.60651652417711,137.91269911567545z" style="fill:rgb(127,37,217)"/><path d="M-125.77623936943802,154.44024832911256L-113.14207847051156,145.45517461520296L-118.60651652417711,137.91269911567545zM-113.14207847051156,145.45517461520296L-125.77623936943802,154.44024832911256L-120.18905808160477,161.9290749625175z" style="fill:rgb(241,128,184)"/><path d="M95.72720669216375,-7.123323914292137L110.63868421415616,85.17424835114525L111.54738097992144,-2.943080984096385zM111.54738097992144,-2.943080984096385L130.94060452885728,80.50374327151818L125.76369777085564,-14.727447848051161zM23.30801803047564,82.55129688929196L-26.09614102495018,31.730510309301387L-27.624238741399356,94.5526481915561z" style="fill:rgb(83,212,212)"/><path d="M26.193106760614747,27.97837456876199L23.30801803047564,82.55129688929196L27.73291654596097,90.8270877742589zM122.4888503226083,-130.43925572895816L152.45365061089242,109.9569664737615L155.9721360112085,118.50154909873748z" style="fill:rgb(247,158,158)"/><path d="M-125.77623936943802,154.44024832911256L-137.31304633622216,174.2444670203994L-111.88487320777489,160.7257100331587zM95.72720669216375,-7.123323914292137L-96.08827808541311,147.72311683814715L105.83326023690539,102.03679023990603z" style="fill:rgb(83,212,212)"/><path d="M-22.820164676135285,102.62346910908758L23.30801803047564,82.55129688929196L-27.624238741399356,94.5526481915561zM23.30801803047564,82.55129688929196L-22.820164676135285,102.62346910908758L27.73291654596097,90.8270877742589z" style="fill:rgb(127,37,217)"/><path d="M110.63868421415616,85.17424835114525L95.72720669216375,-7.123323914292137L105.83326023690539,102.03679023990603zM111.54738097992144,-2.943080984096385L110.63868421415616,85.17424835114525L130.94060452885728,80.50374327151818zM125.76369777085564,-14.727447848051161L130.94060452885728,80.50374327151818L139.14726612068154,94.49923339519796z" style="fill:rgb(83,212,212)"/><path d="M-131.55936133898166,181.65511945387266L152.45365061089242,109.9569664737615L-137.31304633622216,174.2444670203994z" style="fill:rgb(127,37,217)"/><path d="M-111.88487320777489,160.7257100331587L152.45365061089242,109.9569664737615L-96.08827808541311,147.72311683814715zM-111.88487320777489,160.7257100331587L-137.31304633622216,174.2444670203994L152.45365061089242,109.9569664737615zM139.14726612068154,94.49923339519796L152.45365061089242,109.9569664737615L125.76369777085564,-14.727447848051161z" style="fill:rgb(83,212,212)"/><path d="M130.94060452885728,80.50374327151818L114.39503269913504,93.6187123631465L134.53501183411512,89.0305203591835zM114.39503269913504,93.6187123631465L130.94060452885728,80.50374327151818L110.63868421415616,85.17424835114525z" style="fill:rgb(127,37,217)"/><path d="M-96.08827808541311,147.72311683814715L123.47187200469322,108.03838538859212L105.83326023690539,102.03679023990603z" style="fill:rgb(83,212,212)"/><path d="M105.83326023690539,102.03679023990603L114.39503269913504,93.6187123631465L110.63868421415616,85.17424835114525zM114.39503269913504,93.6187123631465L105.83326023690539,102.03679023990603L109.67783039771018,110.43234201005741z" style="fill:rgb(241,128,184)"/><path d="M142.72233492179384,103.02942854862732L130.94060452885728,80.50374327151818L134.53501183411512,89.0305203591835z" style="fill:rgb(13,70,126)"/><path d="M-96.08827808541311,147.72311683814715L152.45365061089242,109.9569664737615L123.47187200469322,108.03838538859212z" style="fill:rgb(83,212,212)"/><path d="M152.45365061089242,109.9569664737615L-131.55936133898166,181.65511945387266L155.9721360112085,118.50154909873748z" style="fill:rgb(127,37,217)"/><path d="M130.94060452885728,80.50374327151818L142.72233492179384,103.02942854862732L139.14726612068154,94.49923339519796z" style="fill:rgb(13,70,126)"/><path d="M123.47187200469322,108.03838538859212L152.45365061089242,109.9569664737615L139.14726612068154,94.49923339519796z" style="fill:rgb(83,212,212)"/></svg>
